<svg xmlns="http://www.w3.org/2000/svg" viewBox="0 0 1042 885" width="1042" height="885">
	<defs>
		<clipPath clipPathUnits="userSpaceOnUse" id="cp1">
			<path d="M0 0L1042 0L1042 885L0 885Z" />
		</clipPath>
	</defs>
	<style>
		tspan { white-space:pre }
		.shp0 { fill: #c5e2f4 } 
		.shp1 { fill: #dbeef9 } 
		.shp2 { fill: #e8f4fb } 
		.shp3 { fill: #f5fafd } 
		.shp4 { fill: #eaf5fc } 
		.shp5 { fill: #185cb1 } 
		.shp6 { fill: #0d50ab } 
		.shp7 { fill: #0f58af } 
		.shp8 { fill: #4fa4d9 } 
		.shp9 { fill: #1971be } 
		.shp10 { fill: #297bc3 } 
		.shp11 { fill: #256dbb } 
		.shp12 { fill: #3a98d3 } 
		.shp13 { fill: #4197d2 } 
		.shp14 { fill: #60bbe6 } 
		.shp15 { fill: #51afe0 } 
		.shp16 { fill: #ff867b } 
		.shp17 { fill: #0f365d } 
		.shp18 { fill: #ff7164 } 
		.shp19 { fill: #8ec6e8 } 
		.shp20 { fill: #6ab3e0 } 
		.shp21 { fill: #12284b } 
		.shp22 { fill: #3775be } 
		.shp23 { fill: #0b55ad } 
		.shp24 { fill: #ff5c58 } 
		.shp25 { fill: #3c89ca } 
	</style>
	<g id="Page 1" clip-path="url(#cp1)">
		<path id="Path 1" fill-rule="evenodd" class="shp0" d="M1041.67 683.35L0 683.35L0 682.83L1041.67 682.83L1041.67 683.35ZM188.54 706.5L289.85 706.5L289.85 707.02L188.54 707.02L188.54 706.5ZM139.35 706.76L166 706.76L166 707.28L139.35 707.28L139.35 706.76ZM436.85 703.78L405.66 703.78L405.66 703.26L436.85 703.26L436.85 703.78ZM576.38 703.78L448.84 703.78L448.84 703.26L576.38 703.26L576.38 703.78ZM758.1 707.28L876.39 707.28L876.39 707.8L758.1 707.8L758.1 707.28ZM715.19 707.28L746.53 707.28L746.53 707.8L715.19 707.8L715.19 707.28ZM907.64 697.88L934.49 697.88L934.49 698.4L907.64 698.4L907.64 697.88ZM493.78 589.91L91.49 589.91C84.93 589.91 79.6 584.58 79.6 578.02L79.6 12.54C79.6 5.98 84.93 0.65 91.49 0.65L493.78 0.65C500.33 0.65 505.67 5.98 505.67 12.54L505.67 578.02C505.67 584.58 500.33 589.91 493.78 589.91ZM91.49 1.17C85.22 1.17 80.12 6.27 80.12 12.54L80.12 578.02C80.12 584.29 85.22 589.39 91.49 589.39L493.78 589.39C500.05 589.39 505.15 584.29 505.15 578.02L505.15 12.54C505.15 6.27 500.05 1.17 493.78 1.17L91.49 1.17Z" />
		<path id="Path 2" fill-rule="evenodd" class="shp0" d="M944.4 589.91L922.58 589.91L922.58 600.4C922.58 603.05 924.74 605.21 927.39 605.21L1041.67 605.21L1041.67 606.25L927.39 606.25C924.16 606.25 921.54 603.63 921.54 600.4L921.54 589.91L917.7 589.91L917.7 608.03C917.7 610.68 919.86 612.83 922.51 612.83L1041.67 612.83L1041.67 613.87L922.51 613.87C919.29 613.87 916.66 611.25 916.66 608.03L916.66 589.91L912.83 589.91L912.83 615.65C912.83 618.3 914.98 620.45 917.63 620.45L1041.67 620.45L1041.67 621.49L917.63 621.49C914.41 621.49 911.78 618.87 911.78 615.65L911.78 589.91L907.95 589.91L907.95 623.27C907.95 625.92 910.11 628.08 912.76 628.08L1041.67 628.08L1041.67 629.12L912.76 629.12C909.53 629.12 906.91 626.49 906.91 623.27L906.91 589.91L903.07 589.91L903.07 630.89C903.07 633.54 905.23 635.7 907.88 635.7L1041.67 635.7L1041.67 636.74L907.88 636.74C904.65 636.74 902.03 634.11 902.03 630.89L902.03 589.91L898.2 589.91L898.2 638.51C898.2 641.16 900.35 643.32 903 643.32L1041.67 643.32L1041.67 644.36L903 644.36C899.78 644.36 897.15 641.74 897.15 638.51L897.15 589.91L893.32 589.91L893.32 646.14C893.32 648.79 895.48 650.94 898.13 650.94L1041.67 650.94L1041.67 651.98L898.13 651.98C894.9 651.98 892.28 649.36 892.28 646.14L892.28 589.91L542.11 589.91C535.55 589.91 530.22 584.58 530.22 578.02L530.22 560.08L452.17 560.08L452.17 559.04L530.22 559.04L530.22 552.46L452.17 552.46L452.17 551.41L530.22 551.41L530.22 544.83L452.17 544.83L452.17 543.79L530.22 543.79L530.22 537.21L452.17 537.21L452.17 536.17L530.22 536.17L530.22 529.59L452.17 529.59L452.17 528.55L530.22 528.55L530.22 521.97L452.17 521.97L452.17 520.93L530.22 520.93L530.22 514.35L452.17 514.35L452.17 513.3L530.22 513.3L530.22 301.83L452.17 301.83L452.17 300.79L530.22 300.79L530.22 294.21L452.17 294.21L452.17 293.16L530.22 293.16L530.22 286.59L452.17 286.59L452.17 285.54L530.22 285.54L530.22 278.96L452.17 278.96L452.17 277.92L530.22 277.92L530.22 271.34L452.17 271.34L452.17 270.3L530.22 270.3L530.22 263.72L452.17 263.72L452.17 262.68L530.22 262.68L530.22 256.1L452.17 256.1L452.17 255.05L530.22 255.05L530.22 12.54C530.22 5.98 535.55 0.65 542.11 0.65L944.4 0.65C950.95 0.65 956.29 5.98 956.29 12.54L956.29 578.02C956.29 584.58 950.95 589.91 944.4 589.91ZM542.11 1.17C535.84 1.17 530.74 6.27 530.74 12.54L530.74 255.05L580.91 255.05L580.91 256.1L530.74 256.1L530.74 262.68L580.91 262.68L580.91 263.72L530.74 263.72L530.74 270.3L580.91 270.3L580.91 271.34L530.74 271.34L530.74 277.92L580.91 277.92L580.91 278.96L530.74 278.96L530.74 285.54L580.91 285.54L580.91 286.59L530.74 286.59L530.74 293.16L580.91 293.16L580.91 294.21L530.74 294.21L530.74 300.79L580.91 300.79L580.91 301.83L530.74 301.83L530.74 513.3L580.91 513.3L580.91 514.35L530.74 514.35L530.74 520.93L580.91 520.93L580.91 521.97L530.74 521.97L530.74 528.55L580.91 528.55L580.91 529.59L530.74 529.59L530.74 536.17L580.91 536.17L580.91 537.21L530.74 537.21L530.74 543.79L580.91 543.79L580.91 544.83L530.74 544.83L530.74 551.41L580.91 551.41L580.91 552.46L530.74 552.46L530.74 559.04L580.91 559.04L580.91 560.08L530.74 560.08L530.74 578.02C530.74 584.29 535.84 589.39 542.11 589.39L892.28 589.39L892.28 268.7C892.28 266.05 890.12 263.89 887.47 263.89L872.35 263.89L872.35 262.85L887.47 262.85C890.69 262.85 893.32 265.48 893.32 268.7L893.32 589.39L897.15 589.39L897.15 261.08C897.15 258.43 895 256.27 892.35 256.27L872.35 256.27L872.35 255.23L892.35 255.23C895.57 255.23 898.2 257.85 898.2 261.08L898.2 589.39L902.03 589.39L902.03 253.46C902.03 250.81 899.87 248.65 897.22 248.65L872.35 248.65L872.35 247.61L897.22 247.61C900.45 247.61 903.07 250.23 903.07 253.46L903.07 589.39L906.91 589.39L906.91 245.84C906.91 243.19 904.75 241.03 902.1 241.03L872.35 241.03L872.35 239.99L902.1 239.99C905.32 239.99 907.95 242.61 907.95 245.84L907.95 589.39L911.78 589.39L911.78 238.21C911.78 235.56 909.63 233.41 906.98 233.41L872.35 233.41L872.35 232.36L906.98 232.36C910.2 232.36 912.83 234.99 912.83 238.21L912.83 589.39L916.66 589.39L916.66 230.59C916.66 227.94 914.5 225.78 911.85 225.78L872.35 225.78L872.35 224.74L911.85 224.74C915.08 224.74 917.7 227.37 917.7 230.59L917.7 589.39L921.54 589.39L921.54 222.97C921.54 220.32 919.38 218.16 916.73 218.16L872.35 218.16L872.35 217.12L916.73 217.12C919.96 217.12 922.58 219.74 922.58 222.97L922.58 589.39L944.4 589.39C950.67 589.39 955.77 584.29 955.77 578.02L955.77 12.54C955.77 6.27 950.67 1.17 944.4 1.17L542.11 1.17ZM199.87 614.85L149.88 614.85C146.66 614.85 144.03 612.23 144.03 609L144.03 231.57C144.03 228.92 141.87 226.76 139.22 226.76L80.12 226.76L80.12 225.72L139.22 225.72C142.45 225.72 145.07 228.35 145.07 231.57L145.07 609C145.07 611.66 147.23 613.81 149.88 613.81L199.87 613.81L199.87 614.85ZM199.87 622.48L145 622.48C141.78 622.48 139.15 619.85 139.15 616.63L139.15 239.19C139.15 236.54 137 234.39 134.35 234.39L80.12 234.39L80.12 233.34L134.35 233.34C137.57 233.34 140.2 235.97 140.2 239.19L140.2 616.63C140.2 619.28 142.35 621.43 145 621.43L199.87 621.43L199.87 622.48ZM199.87 630.1L140.13 630.1C136.9 630.1 134.28 627.47 134.28 624.25L134.28 246.82C134.28 244.16 132.12 242.01 129.47 242.01L80.12 242.01L80.12 240.97L129.47 240.97C132.69 240.97 135.32 243.59 135.32 246.82L135.32 624.25C135.32 626.9 137.48 629.05 140.13 629.05L199.87 629.05L199.87 630.1ZM199.87 637.72L135.25 637.72C132.02 637.72 129.4 635.1 129.4 631.87L129.4 254.44C129.4 251.79 127.24 249.63 124.59 249.63L80.12 249.63L80.12 248.59L124.59 248.59C127.82 248.59 130.44 251.21 130.44 254.44L130.44 631.87C130.44 634.52 132.6 636.68 135.25 636.68L199.87 636.68L199.87 637.72ZM199.87 645.34L130.37 645.34C127.15 645.34 124.52 642.72 124.52 639.49L124.52 262.06C124.52 259.41 122.37 257.25 119.72 257.25L80.12 257.25L80.12 256.21L119.72 256.21C122.94 256.21 125.56 258.83 125.56 262.06L125.56 639.49C125.56 642.14 127.72 644.3 130.37 644.3L199.87 644.3L199.87 645.34ZM199.87 652.96L125.5 652.96C122.27 652.96 119.65 650.34 119.65 647.11L119.65 269.68C119.65 267.03 117.49 264.87 114.84 264.87L80.12 264.87L80.12 263.83L114.84 263.83C118.06 263.83 120.69 266.46 120.69 269.68L120.69 647.11C120.69 649.76 122.84 651.92 125.5 651.92L199.87 651.92L199.87 652.96ZM199.87 660.59L120.62 660.59C117.39 660.59 114.77 657.96 114.77 654.74L114.77 277.3C114.77 274.65 112.61 272.5 109.96 272.5L80.12 272.5L80.12 271.45L109.96 271.45C113.19 271.45 115.81 274.08 115.81 277.3L115.81 654.74C115.81 657.39 117.97 659.54 120.62 659.54L199.87 659.54L199.87 660.59Z" />
		<path id="Path 3" class="shp1" d="M411.25 651.46L199.87 651.46L199.87 682.83L411.25 682.83L411.25 651.46Z" />
		<path id="Path 4" class="shp0" d="M411.25 651.46L454.12 651.46L454.12 682.83L411.25 682.83L411.25 651.46Z" />
		<path id="Path 5" class="shp2" d="M411.25 651.46L185.57 651.46L185.57 97.36L411.25 97.36L411.25 651.46Z" />
		<path id="Path 6" class="shp1" d="M449.47 92.62L204.52 92.62L204.52 97.36L449.47 97.36L449.47 92.62ZM411.25 651.46L468.42 651.46L468.42 97.36L411.25 97.36L411.25 651.46ZM404.52 164.72L192.29 164.72L192.29 104L404.52 104L404.52 164.72ZM404.52 644.49L192.29 644.49L192.29 583.77L404.52 583.77L404.52 644.49ZM404.52 575.95L192.29 575.95L192.29 515.23L404.52 515.23L404.52 575.95ZM404.52 507.41L192.29 507.41L192.29 446.69L404.52 446.69L404.52 507.41ZM404.52 438.87L192.29 438.87L192.29 378.15L404.52 378.15L404.52 438.87ZM404.52 370.33L192.29 370.33L192.29 309.62L404.52 309.62L404.52 370.33ZM404.52 301.79L192.29 301.79L192.29 241.08L404.52 241.08L404.52 301.79ZM404.52 233.25L192.29 233.25L192.29 172.54L404.52 172.54L404.52 233.25Z" />
		<path id="Path 7" class="shp3" d="M387.37 156.04L346 156.04C341.13 156.04 337.15 152.06 337.15 147.19L337.15 121.53C337.15 116.66 341.13 112.67 346 112.67L387.37 112.67C392.24 112.67 396.23 116.66 396.23 121.53L396.23 147.19C396.23 152.06 392.24 156.04 387.37 156.04Z" />
		<path id="Path 8" class="shp2" d="M378.23 137.24L378.23 131.47C378.23 130.01 379.42 128.82 380.89 128.82L386.68 128.82C388.14 128.82 389.33 130.01 389.33 131.47L389.33 137.24C389.33 138.71 388.14 139.9 386.68 139.9L380.89 139.9C379.42 139.9 378.23 138.71 378.23 137.24Z" />
		<path id="Path 9" class="shp3" d="M387.37 224.58L346 224.58C341.13 224.58 337.15 220.6 337.15 215.73L337.15 190.07C337.15 185.2 341.13 181.21 346 181.21L387.37 181.21C392.24 181.21 396.23 185.2 396.23 190.07L396.23 215.73C396.23 220.6 392.24 224.58 387.37 224.58Z" />
		<path id="Path 10" class="shp2" d="M378.23 205.78L378.23 200.01C378.23 198.54 379.42 197.36 380.89 197.36L386.68 197.36C388.14 197.36 389.33 198.54 389.33 200.01L389.33 205.78C389.33 207.25 388.14 208.44 386.68 208.44L380.89 208.44C379.42 208.44 378.23 207.25 378.23 205.78ZM378.23 274.32L378.23 268.55C378.23 267.08 379.42 265.89 380.89 265.89L386.68 265.89C388.14 265.89 389.33 267.08 389.33 268.55L389.33 274.32C389.33 275.79 388.14 276.98 386.68 276.98L380.89 276.98C379.42 276.98 378.23 275.79 378.23 274.32ZM378.23 342.86L378.23 337.09C378.23 335.62 379.42 334.43 380.89 334.43L386.68 334.43C388.14 334.43 389.33 335.62 389.33 337.09L389.33 342.86C389.33 344.33 388.14 345.51 386.68 345.51L380.89 345.51C379.42 345.51 378.23 344.33 378.23 342.86ZM378.23 411.4L378.23 405.63C378.23 404.16 379.42 402.97 380.89 402.97L386.68 402.97C388.14 402.97 389.33 404.16 389.33 405.63L389.33 411.4C389.33 412.86 388.14 414.05 386.68 414.05L380.89 414.05C379.42 414.05 378.23 412.86 378.23 411.4ZM378.23 479.94L378.23 474.16C378.23 472.7 379.42 471.51 380.89 471.51L386.68 471.51C388.14 471.51 389.33 472.7 389.33 474.16L389.33 479.94C389.33 481.4 388.14 482.59 386.68 482.59L380.89 482.59C379.42 482.59 378.23 481.4 378.23 479.94ZM378.23 548.47L378.23 542.7C378.23 541.24 379.42 540.05 380.89 540.05L386.68 540.05C388.14 540.05 389.33 541.24 389.33 542.7L389.33 548.47C389.33 549.94 388.14 551.13 386.68 551.13L380.89 551.13C379.42 551.13 378.23 549.94 378.23 548.47ZM378.23 617.01L378.23 611.24C378.23 609.77 379.42 608.59 380.89 608.59L386.68 608.59C388.14 608.59 389.33 609.77 389.33 611.24L389.33 617.01C389.33 618.48 388.14 619.67 386.68 619.67L380.89 619.67C379.42 619.67 378.23 618.48 378.23 617.01ZM361.14 137.24L361.14 131.47C361.14 130.01 362.33 128.82 363.79 128.82L369.58 128.82C371.05 128.82 372.24 130.01 372.24 131.47L372.24 137.24C372.24 138.71 371.05 139.9 369.58 139.9L363.79 139.9C362.33 139.9 361.14 138.71 361.14 137.24ZM361.14 205.78L361.14 200.01C361.14 198.54 362.33 197.36 363.79 197.36L369.58 197.36C371.05 197.36 372.24 198.54 372.24 200.01L372.24 205.78C372.24 207.25 371.05 208.44 369.58 208.44L363.79 208.44C362.33 208.44 361.14 207.25 361.14 205.78ZM361.14 274.32L361.14 268.55C361.14 267.08 362.33 265.89 363.79 265.89L369.58 265.89C371.05 265.89 372.24 267.08 372.24 268.55L372.24 274.32C372.24 275.79 371.05 276.98 369.58 276.98L363.79 276.98C362.33 276.98 361.14 275.79 361.14 274.32ZM361.14 342.86L361.14 337.09C361.14 335.62 362.33 334.43 363.79 334.43L369.58 334.43C371.05 334.43 372.24 335.62 372.24 337.09L372.24 342.86C372.24 344.33 371.05 345.51 369.58 345.51L363.79 345.51C362.33 345.51 361.14 344.33 361.14 342.86ZM361.14 411.4L361.14 405.63C361.14 404.16 362.33 402.97 363.79 402.97L369.58 402.97C371.05 402.97 372.24 404.16 372.24 405.63L372.24 411.4C372.24 412.86 371.05 414.05 369.58 414.05L363.79 414.05C362.33 414.05 361.14 412.86 361.14 411.4ZM361.14 479.94L361.14 474.16C361.14 472.7 362.33 471.51 363.79 471.51L369.58 471.51C371.05 471.51 372.24 472.7 372.24 474.16L372.24 479.94C372.24 481.4 371.05 482.59 369.58 482.59L363.79 482.59C362.33 482.59 361.14 481.4 361.14 479.94ZM361.14 548.47L361.14 542.7C361.14 541.24 362.33 540.05 363.79 540.05L369.58 540.05C371.05 540.05 372.24 541.24 372.24 542.7L372.24 548.47C372.24 549.94 371.05 551.13 369.58 551.13L363.79 551.13C362.33 551.13 361.14 549.94 361.14 548.47ZM361.14 617.01L361.14 611.24C361.14 609.77 362.33 608.59 363.79 608.59L369.58 608.59C371.05 608.59 372.24 609.77 372.24 611.24L372.24 617.01C372.24 618.48 371.05 619.67 369.58 619.67L363.79 619.67C362.33 619.67 361.14 618.48 361.14 617.01ZM322.85 134.36C322.85 138.23 319.71 141.36 315.84 141.36C311.97 141.36 308.83 138.23 308.83 134.36C308.83 130.49 311.97 127.35 315.84 127.35C319.71 127.35 322.85 130.49 322.85 134.36ZM302.83 134.36C302.83 138.23 299.69 141.36 295.82 141.36C291.95 141.36 288.81 138.23 288.81 134.36C288.81 130.49 291.95 127.35 295.82 127.35C299.69 127.35 302.83 130.49 302.83 134.36ZM282.8 134.36C282.8 138.23 279.67 141.36 275.8 141.36C271.93 141.36 268.79 138.23 268.79 134.36C268.79 130.49 271.93 127.35 275.8 127.35C279.67 127.35 282.8 130.49 282.8 134.36ZM262.78 134.36C262.78 138.23 259.65 141.36 255.78 141.36C251.91 141.36 248.77 138.23 248.77 134.36C248.77 130.49 251.91 127.35 255.78 127.35C259.65 127.35 262.78 130.49 262.78 134.36ZM322.85 202.9C322.85 206.77 319.71 209.9 315.84 209.9C311.97 209.9 308.83 206.77 308.83 202.9C308.83 199.03 311.97 195.89 315.84 195.89C319.71 195.89 322.85 199.03 322.85 202.9ZM302.83 202.9C302.83 206.77 299.69 209.9 295.82 209.9C291.95 209.9 288.81 206.77 288.81 202.9C288.81 199.03 291.95 195.89 295.82 195.89C299.69 195.89 302.83 199.03 302.83 202.9ZM282.8 202.9C282.8 206.77 279.67 209.9 275.8 209.9C271.93 209.9 268.79 206.77 268.79 202.9C268.79 199.03 271.93 195.89 275.8 195.89C279.67 195.89 282.8 199.03 282.8 202.9ZM262.78 202.9C262.78 206.77 259.65 209.9 255.78 209.9C251.91 209.9 248.77 206.77 248.77 202.9C248.77 199.03 251.91 195.89 255.78 195.89C259.65 195.89 262.78 199.03 262.78 202.9ZM322.85 271.44C322.85 275.3 319.71 278.44 315.84 278.44C311.97 278.44 308.83 275.3 308.83 271.44C308.83 267.56 311.97 264.43 315.84 264.43C319.71 264.43 322.85 267.56 322.85 271.44ZM302.83 271.44C302.83 275.3 299.69 278.44 295.82 278.44C291.95 278.44 288.81 275.3 288.81 271.44C288.81 267.56 291.95 264.43 295.82 264.43C299.69 264.43 302.83 267.56 302.83 271.44ZM282.8 271.44C282.8 275.3 279.67 278.44 275.8 278.44C271.93 278.44 268.79 275.3 268.79 271.44C268.79 267.56 271.93 264.43 275.8 264.43C279.67 264.43 282.8 267.56 282.8 271.44ZM262.78 271.44C262.78 275.3 259.65 278.44 255.78 278.44C251.91 278.44 248.77 275.3 248.77 271.44C248.77 267.56 251.91 264.43 255.78 264.43C259.65 264.43 262.78 267.56 262.78 271.44ZM322.85 339.97C322.85 343.84 319.71 346.98 315.84 346.98C311.97 346.98 308.83 343.84 308.83 339.97C308.83 336.1 311.97 332.97 315.84 332.97C319.71 332.97 322.85 336.1 322.85 339.97ZM302.83 339.97C302.83 343.84 299.69 346.98 295.82 346.98C291.95 346.98 288.81 343.84 288.81 339.97C288.81 336.1 291.95 332.97 295.82 332.97C299.69 332.97 302.83 336.1 302.83 339.97ZM282.8 339.97C282.8 343.84 279.67 346.98 275.8 346.98C271.93 346.98 268.79 343.84 268.79 339.97C268.79 336.1 271.93 332.97 275.8 332.97C279.67 332.97 282.8 336.1 282.8 339.97ZM262.78 339.97C262.78 343.84 259.65 346.98 255.78 346.98C251.91 346.98 248.77 343.84 248.77 339.97C248.77 336.1 251.91 332.97 255.78 332.97C259.65 332.97 262.78 336.1 262.78 339.97ZM322.85 408.51C322.85 412.38 319.71 415.52 315.84 415.52C311.97 415.52 308.83 412.38 308.83 408.51C308.83 404.64 311.97 401.5 315.84 401.5C319.71 401.5 322.85 404.64 322.85 408.51ZM302.83 408.51C302.83 412.38 299.69 415.52 295.82 415.52C291.95 415.52 288.81 412.38 288.81 408.51C288.81 404.64 291.95 401.5 295.82 401.5C299.69 401.5 302.83 404.64 302.83 408.51ZM282.8 408.51C282.8 412.38 279.67 415.52 275.8 415.52C271.93 415.52 268.79 412.38 268.79 408.51C268.79 404.64 271.93 401.5 275.8 401.5C279.67 401.5 282.8 404.64 282.8 408.51ZM262.78 408.51C262.78 412.38 259.65 415.52 255.78 415.52C251.91 415.52 248.77 412.38 248.77 408.51C248.77 404.64 251.91 401.5 255.78 401.5C259.65 401.5 262.78 404.64 262.78 408.51ZM322.85 477.05C322.85 480.92 319.71 484.06 315.84 484.06C311.97 484.06 308.83 480.92 308.83 477.05C308.83 473.18 311.97 470.04 315.84 470.04C319.71 470.04 322.85 473.18 322.85 477.05ZM302.83 477.05C302.83 480.92 299.69 484.06 295.82 484.06C291.95 484.06 288.81 480.92 288.81 477.05C288.81 473.18 291.95 470.04 295.82 470.04C299.69 470.04 302.83 473.18 302.83 477.05ZM282.8 477.05C282.8 480.92 279.67 484.06 275.8 484.06C271.93 484.06 268.79 480.92 268.79 477.05C268.79 473.18 271.93 470.04 275.8 470.04C279.67 470.04 282.8 473.18 282.8 477.05ZM262.78 477.05C262.78 480.92 259.65 484.06 255.78 484.06C251.91 484.06 248.77 480.92 248.77 477.05C248.77 473.18 251.91 470.04 255.78 470.04C259.65 470.04 262.78 473.18 262.78 477.05ZM322.85 545.59C322.85 549.46 319.71 552.59 315.84 552.59C311.97 552.59 308.83 549.46 308.83 545.59C308.83 541.72 311.97 538.58 315.84 538.58C319.71 538.58 322.85 541.72 322.85 545.59ZM302.83 545.59C302.83 549.46 299.69 552.59 295.82 552.59C291.95 552.59 288.81 549.46 288.81 545.59C288.81 541.72 291.95 538.58 295.82 538.58C299.69 538.58 302.83 541.72 302.83 545.59ZM282.8 545.59C282.8 549.46 279.67 552.59 275.8 552.59C271.93 552.59 268.79 549.46 268.79 545.59C268.79 541.72 271.93 538.58 275.8 538.58C279.67 538.58 282.8 541.72 282.8 545.59ZM262.78 545.59C262.78 549.46 259.65 552.59 255.78 552.59C251.91 552.59 248.77 549.46 248.77 545.59C248.77 541.72 251.91 538.58 255.78 538.58C259.65 538.58 262.78 541.72 262.78 545.59ZM322.85 614.13C322.85 618 319.71 621.13 315.84 621.13C311.97 621.13 308.83 618 308.83 614.13C308.83 610.26 311.97 607.12 315.84 607.12C319.71 607.12 322.85 610.26 322.85 614.13ZM302.83 614.13C302.83 618 299.69 621.13 295.82 621.13C291.95 621.13 288.81 618 288.81 614.13C288.81 610.26 291.95 607.12 295.82 607.12C299.69 607.12 302.83 610.26 302.83 614.13ZM282.8 614.13C282.8 618 279.67 621.13 275.8 621.13C271.93 621.13 268.79 618 268.79 614.13C268.79 610.26 271.93 607.12 275.8 607.12C279.67 607.12 282.8 610.26 282.8 614.13ZM262.78 614.13C262.78 618 259.65 621.13 255.78 621.13C251.91 621.13 248.77 618 248.77 614.13C248.77 610.26 251.91 607.12 255.78 607.12C259.65 607.12 262.78 610.26 262.78 614.13Z" />
		<path id="Path 11" class="shp0" d="M234.8 134.36C234.8 142.74 228.01 149.54 219.62 149.54C211.24 149.54 204.45 142.74 204.45 134.36C204.45 125.98 211.24 119.18 219.62 119.18C228.01 119.18 234.8 125.98 234.8 134.36ZM234.8 202.9C234.8 211.28 228.01 218.08 219.62 218.08C211.24 218.08 204.45 211.28 204.45 202.9C204.45 194.51 211.24 187.72 219.62 187.72C228.01 187.72 234.8 194.51 234.8 202.9ZM234.8 271.44C234.8 279.82 228.01 286.61 219.62 286.61C211.24 286.61 204.45 279.82 204.45 271.44C204.45 263.05 211.24 256.26 219.62 256.26C228.01 256.26 234.8 263.05 234.8 271.44ZM234.8 339.97C234.8 348.36 228.01 355.15 219.62 355.15C211.24 355.15 204.45 348.36 204.45 339.97C204.45 331.59 211.24 324.79 219.62 324.79C228.01 324.79 234.8 331.59 234.8 339.97ZM234.8 408.51C234.8 416.89 228.01 423.69 219.62 423.69C211.24 423.69 204.45 416.89 204.45 408.51C204.45 400.13 211.24 393.33 219.62 393.33C228.01 393.33 234.8 400.13 234.8 408.51ZM234.8 477.05C234.8 485.43 228.01 492.23 219.62 492.23C211.24 492.23 204.45 485.43 204.45 477.05C204.45 468.67 211.24 461.87 219.62 461.87C228.01 461.87 234.8 468.67 234.8 477.05ZM234.8 545.59C234.8 553.97 228.01 560.77 219.62 560.77C211.24 560.77 204.45 553.97 204.45 545.59C204.45 537.2 211.24 530.41 219.62 530.41C228.01 530.41 234.8 537.2 234.8 545.59ZM234.8 614.13C234.8 622.51 228.01 629.3 219.62 629.3C211.24 629.3 204.45 622.51 204.45 614.13C204.45 605.74 211.24 598.95 219.62 598.95C228.01 598.95 234.8 605.74 234.8 614.13Z" />
		<path id="Path 12" class="shp1" d="M818.07 654.06L573.68 654.06L573.68 682.83L818.07 682.83L818.07 654.06Z" />
		<path id="Path 13" class="shp0" d="M818.07 654.06L858.78 654.06L858.78 682.83L818.07 682.83L818.07 654.06Z" />
		<path id="Path 14" class="shp2" d="M818.07 654.06L560.1 654.06L560.1 145.84L818.07 145.84L818.07 654.06Z" />
		<path id="Path 15" class="shp1" d="M854.36 141.5L578.1 141.5L578.1 145.84L854.36 145.84L854.36 141.5ZM818.07 654.06L872.35 654.06L872.35 145.84L818.07 145.84L818.07 654.06ZM566.49 207.62L811.68 207.62L811.68 151.93L566.49 151.93L566.49 207.62ZM566.49 647.66L811.68 647.66L811.68 591.97L566.49 591.97L566.49 647.66ZM566.49 584.8L811.68 584.8L811.68 529.11L566.49 529.11L566.49 584.8ZM566.49 521.93L811.68 521.93L811.68 466.25L566.49 466.25L566.49 521.93ZM566.49 459.07L811.68 459.07L811.68 403.38L566.49 403.38L566.49 459.07ZM566.49 396.21L811.68 396.21L811.68 340.52L566.49 340.52L566.49 396.21ZM566.49 333.35L811.68 333.35L811.68 277.66L566.49 277.66L566.49 333.35ZM566.49 270.48L811.68 270.48L811.68 214.8L566.49 214.8L566.49 270.48Z" />
		<path id="Path 16" class="shp0" d="M582.63 199.67L700.67 199.67C705.21 199.67 708.93 195.95 708.93 191.4L708.93 168.15C708.93 163.61 705.21 159.89 700.67 159.89L582.63 159.89C578.08 159.89 574.36 163.61 574.36 168.15L574.36 191.4C574.36 195.95 578.08 199.67 582.63 199.67Z" />
		<path id="Path 17" class="shp2" d="M591.45 182.38L591.45 177.17C591.45 175.8 590.34 174.69 588.97 174.69L583.39 174.69C582.02 174.69 580.91 175.8 580.91 177.17L580.91 182.38C580.91 183.75 582.02 184.86 583.39 184.86L588.97 184.86C590.34 184.86 591.45 183.75 591.45 182.38Z" />
		<path id="Path 18" class="shp0" d="M582.63 262.53L700.67 262.53C705.21 262.53 708.93 258.81 708.93 254.26L708.93 231.01C708.93 226.47 705.21 222.75 700.67 222.75L582.63 222.75C578.08 222.75 574.36 226.47 574.36 231.01L574.36 254.26C574.36 258.81 578.08 262.53 582.63 262.53Z" />
		<path id="Path 19" class="shp2" d="M591.45 245.24L591.45 240.04C591.45 238.67 590.34 237.56 588.97 237.56L583.39 237.56C582.02 237.56 580.91 238.67 580.91 240.04L580.91 245.24C580.91 246.61 582.02 247.72 583.39 247.72L588.97 247.72C590.34 247.72 591.45 246.61 591.45 245.24Z" />
		<path id="Path 20" class="shp0" d="M582.63 325.39L700.67 325.39C705.21 325.39 708.93 321.67 708.93 317.13L708.93 293.88C708.93 289.33 705.21 285.61 700.67 285.61L582.63 285.61C578.08 285.61 574.36 289.33 574.36 293.88L574.36 317.13C574.36 321.67 578.08 325.39 582.63 325.39Z" />
		<path id="Path 21" class="shp2" d="M591.45 308.11L591.45 302.9C591.45 301.53 590.34 300.42 588.97 300.42L583.39 300.42C582.02 300.42 580.91 301.53 580.91 302.9L580.91 308.11C580.91 309.48 582.02 310.59 583.39 310.59L588.97 310.59C590.34 310.59 591.45 309.48 591.45 308.11Z" />
		<path id="Path 22" class="shp0" d="M582.63 388.25L700.67 388.25C705.21 388.25 708.93 384.54 708.93 379.99L708.93 356.74C708.93 352.19 705.21 348.48 700.67 348.48L582.63 348.48C578.08 348.48 574.36 352.19 574.36 356.74L574.36 379.99C574.36 384.54 578.08 388.25 582.63 388.25Z" />
		<path id="Path 23" class="shp2" d="M591.45 370.97L591.45 365.76C591.45 364.39 590.34 363.28 588.97 363.28L583.39 363.28C582.02 363.28 580.91 364.39 580.91 365.76L580.91 370.97C580.91 372.34 582.02 373.45 583.39 373.45L588.97 373.45C590.34 373.45 591.45 372.34 591.45 370.97Z" />
		<path id="Path 24" class="shp0" d="M582.63 451.12L700.67 451.12C705.21 451.12 708.93 447.4 708.93 442.85L708.93 419.6C708.93 415.06 705.21 411.34 700.67 411.34L582.63 411.34C578.08 411.34 574.36 415.06 574.36 419.6L574.36 442.85C574.36 447.4 578.08 451.12 582.63 451.12Z" />
		<path id="Path 25" class="shp2" d="M591.45 433.83L591.45 428.62C591.45 427.25 590.34 426.15 588.97 426.15L583.39 426.15C582.02 426.15 580.91 427.25 580.91 428.62L580.91 433.83C580.91 435.2 582.02 436.31 583.39 436.31L588.97 436.31C590.34 436.31 591.45 435.2 591.45 433.83Z" />
		<path id="Path 26" class="shp0" d="M582.63 513.98L700.67 513.98C705.21 513.98 708.93 510.26 708.93 505.71L708.93 482.46C708.93 477.92 705.21 474.2 700.67 474.2L582.63 474.2C578.08 474.2 574.36 477.92 574.36 482.46L574.36 505.71C574.36 510.26 578.08 513.98 582.63 513.98Z" />
		<path id="Path 27" class="shp2" d="M591.45 496.69L591.45 491.49C591.45 490.12 590.34 489.01 588.97 489.01L583.39 489.01C582.02 489.01 580.91 490.12 580.91 491.49L580.91 496.69C580.91 498.06 582.02 499.17 583.39 499.17L588.97 499.17C590.34 499.17 591.45 498.06 591.45 496.69Z" />
		<path id="Path 28" class="shp0" d="M582.63 576.84L700.67 576.84C705.21 576.84 708.93 573.12 708.93 568.58L708.93 545.33C708.93 540.78 705.21 537.06 700.67 537.06L582.63 537.06C578.08 537.06 574.36 540.78 574.36 545.33L574.36 568.58C574.36 573.12 578.08 576.84 582.63 576.84Z" />
		<path id="Path 29" class="shp2" d="M591.45 559.56L591.45 554.35C591.45 552.98 590.34 551.87 588.97 551.87L583.39 551.87C582.02 551.87 580.91 552.98 580.91 554.35L580.91 559.56C580.91 560.93 582.02 562.03 583.39 562.03L588.97 562.03C590.34 562.03 591.45 560.93 591.45 559.56Z" />
		<path id="Path 30" class="shp0" d="M582.63 639.71L700.67 639.71C705.21 639.71 708.93 635.99 708.93 631.44L708.93 608.19C708.93 603.65 705.21 599.93 700.67 599.93L582.63 599.93C578.08 599.93 574.36 603.65 574.36 608.19L574.36 631.44C574.36 635.99 578.08 639.71 582.63 639.71Z" />
		<path id="Path 31" class="shp2" d="M591.45 622.42L591.45 617.21C591.45 615.84 590.34 614.73 588.97 614.73L583.39 614.73C582.02 614.73 580.91 615.84 580.91 617.21L580.91 622.42C580.91 623.79 582.02 624.9 583.39 624.9L588.97 624.9C590.34 624.9 591.45 623.79 591.45 622.42ZM607.68 182.38L607.68 177.17C607.68 175.8 606.57 174.69 605.2 174.69L599.62 174.69C598.25 174.69 597.14 175.8 597.14 177.17L597.14 182.38C597.14 183.75 598.25 184.86 599.62 184.86L605.2 184.86C606.57 184.86 607.68 183.75 607.68 182.38ZM607.68 245.24L607.68 240.04C607.68 238.67 606.57 237.56 605.2 237.56L599.62 237.56C598.25 237.56 597.14 238.67 597.14 240.04L597.14 245.24C597.14 246.61 598.25 247.72 599.62 247.72L605.2 247.72C606.57 247.72 607.68 246.61 607.68 245.24ZM607.68 308.11L607.68 302.9C607.68 301.53 606.57 300.42 605.2 300.42L599.62 300.42C598.25 300.42 597.14 301.53 597.14 302.9L597.14 308.11C597.14 309.48 598.25 310.59 599.62 310.59L605.2 310.59C606.57 310.59 607.68 309.48 607.68 308.11ZM607.68 370.97L607.68 365.76C607.68 364.39 606.57 363.28 605.2 363.28L599.62 363.28C598.25 363.28 597.14 364.39 597.14 365.76L597.14 370.97C597.14 372.34 598.25 373.45 599.62 373.45L605.2 373.45C606.57 373.45 607.68 372.34 607.68 370.97ZM607.68 433.83L607.68 428.62C607.68 427.25 606.57 426.15 605.2 426.15L599.62 426.15C598.25 426.15 597.14 427.25 597.14 428.62L597.14 433.83C597.14 435.2 598.25 436.31 599.62 436.31L605.2 436.31C606.57 436.31 607.68 435.2 607.68 433.83ZM607.68 496.69L607.68 491.49C607.68 490.12 606.57 489.01 605.2 489.01L599.62 489.01C598.25 489.01 597.14 490.12 597.14 491.49L597.14 496.69C597.14 498.06 598.25 499.17 599.62 499.17L605.2 499.17C606.57 499.17 607.68 498.06 607.68 496.69ZM607.68 559.56L607.68 554.35C607.68 552.98 606.57 551.87 605.2 551.87L599.62 551.87C598.25 551.87 597.14 552.98 597.14 554.35L597.14 559.56C597.14 560.93 598.25 562.03 599.62 562.03L605.2 562.03C606.57 562.03 607.68 560.93 607.68 559.56ZM607.68 622.42L607.68 617.21C607.68 615.84 606.57 614.73 605.2 614.73L599.62 614.73C598.25 614.73 597.14 615.84 597.14 617.21L597.14 622.42C597.14 623.79 598.25 624.9 599.62 624.9L605.2 624.9C606.57 624.9 607.68 623.79 607.68 622.42ZM623.91 182.38L623.91 177.17C623.91 175.8 622.8 174.69 621.43 174.69L615.85 174.69C614.49 174.69 613.38 175.8 613.38 177.17L613.38 182.38C613.38 183.75 614.49 184.86 615.85 184.86L621.43 184.86C622.8 184.86 623.91 183.75 623.91 182.38ZM623.91 245.24L623.91 240.04C623.91 238.67 622.8 237.56 621.43 237.56L615.85 237.56C614.49 237.56 613.38 238.67 613.38 240.04L613.38 245.24C613.38 246.61 614.49 247.72 615.85 247.72L621.43 247.72C622.8 247.72 623.91 246.61 623.91 245.24ZM623.91 308.11L623.91 302.9C623.91 301.53 622.8 300.42 621.43 300.42L615.85 300.42C614.49 300.42 613.38 301.53 613.38 302.9L613.38 308.11C613.38 309.48 614.49 310.59 615.85 310.59L621.43 310.59C622.8 310.59 623.91 309.48 623.91 308.11ZM623.91 370.97L623.91 365.76C623.91 364.39 622.8 363.28 621.43 363.28L615.85 363.28C614.49 363.28 613.38 364.39 613.38 365.76L613.38 370.97C613.38 372.34 614.49 373.45 615.85 373.45L621.43 373.45C622.8 373.45 623.91 372.34 623.91 370.97ZM623.91 433.83L623.91 428.62C623.91 427.25 622.8 426.15 621.43 426.15L615.85 426.15C614.49 426.15 613.38 427.25 613.38 428.62L613.38 433.83C613.38 435.2 614.49 436.31 615.85 436.31L621.43 436.31C622.8 436.31 623.91 435.2 623.91 433.83ZM623.91 496.69L623.91 491.49C623.91 490.12 622.8 489.01 621.43 489.01L615.85 489.01C614.49 489.01 613.38 490.12 613.38 491.49L613.38 496.69C613.38 498.06 614.49 499.17 615.85 499.17L621.43 499.17C622.8 499.17 623.91 498.06 623.91 496.69ZM623.91 559.56L623.91 554.35C623.91 552.98 622.8 551.87 621.43 551.87L615.85 551.87C614.49 551.87 613.38 552.98 613.38 554.35L613.38 559.56C613.38 560.93 614.49 562.03 615.85 562.03L621.43 562.03C622.8 562.03 623.91 560.93 623.91 559.56ZM623.91 622.42L623.91 617.21C623.91 615.84 622.8 614.73 621.43 614.73L615.85 614.73C614.49 614.73 613.38 615.84 613.38 617.21L613.38 622.42C613.38 623.79 614.49 624.9 615.85 624.9L621.43 624.9C622.8 624.9 623.91 623.79 623.91 622.42ZM640.15 182.38L640.15 177.17C640.15 175.8 639.03 174.69 637.66 174.69L632.08 174.69C630.71 174.69 629.61 175.8 629.61 177.17L629.61 182.38C629.61 183.75 630.71 184.86 632.08 184.86L637.66 184.86C639.03 184.86 640.15 183.75 640.15 182.38ZM640.15 245.24L640.15 240.04C640.15 238.67 639.03 237.56 637.66 237.56L632.08 237.56C630.71 237.56 629.61 238.67 629.61 240.04L629.61 245.24C629.61 246.61 630.71 247.72 632.08 247.72L637.66 247.72C639.03 247.72 640.15 246.61 640.15 245.24ZM640.15 308.11L640.15 302.9C640.15 301.53 639.03 300.42 637.66 300.42L632.08 300.42C630.71 300.42 629.61 301.53 629.61 302.9L629.61 308.11C629.61 309.48 630.71 310.59 632.08 310.59L637.66 310.59C639.03 310.59 640.15 309.48 640.15 308.11ZM640.15 370.97L640.15 365.76C640.15 364.39 639.03 363.28 637.66 363.28L632.08 363.28C630.71 363.28 629.61 364.39 629.61 365.76L629.61 370.97C629.61 372.34 630.71 373.45 632.08 373.45L637.66 373.45C639.03 373.45 640.15 372.34 640.15 370.97ZM640.15 433.83L640.15 428.62C640.15 427.25 639.03 426.15 637.66 426.15L632.08 426.15C630.71 426.15 629.61 427.25 629.61 428.62L629.61 433.83C629.61 435.2 630.71 436.31 632.08 436.31L637.66 436.31C639.03 436.31 640.15 435.2 640.15 433.83ZM640.15 496.69L640.15 491.49C640.15 490.12 639.03 489.01 637.66 489.01L632.08 489.01C630.71 489.01 629.61 490.12 629.61 491.49L629.61 496.69C629.61 498.06 630.71 499.17 632.08 499.17L637.66 499.17C639.03 499.17 640.15 498.06 640.15 496.69ZM640.15 559.56L640.15 554.35C640.15 552.98 639.03 551.87 637.66 551.87L632.08 551.87C630.71 551.87 629.61 552.98 629.61 554.35L629.61 559.56C629.61 560.93 630.71 562.03 632.08 562.03L637.66 562.03C639.03 562.03 640.15 560.93 640.15 559.56ZM640.15 622.42L640.15 617.21C640.15 615.84 639.03 614.73 637.66 614.73L632.08 614.73C630.71 614.73 629.61 615.84 629.61 617.21L629.61 622.42C629.61 623.79 630.71 624.9 632.08 624.9L637.66 624.9C639.03 624.9 640.15 623.79 640.15 622.42ZM722.51 179.78C722.51 183.33 725.49 186.2 729.16 186.2C732.84 186.2 735.81 183.33 735.81 179.78C735.81 176.23 732.84 173.35 729.16 173.35C725.49 173.35 722.51 176.23 722.51 179.78ZM741.52 179.78C741.52 183.33 744.5 186.2 748.17 186.2C751.85 186.2 754.82 183.33 754.82 179.78C754.82 176.23 751.85 173.35 748.17 173.35C744.5 173.35 741.52 176.23 741.52 179.78ZM760.53 179.78C760.53 183.33 763.5 186.2 767.18 186.2C770.85 186.2 773.83 183.33 773.83 179.78C773.83 176.23 770.85 173.35 767.18 173.35C763.5 173.35 760.53 176.23 760.53 179.78ZM779.54 179.78C779.54 183.33 782.51 186.2 786.19 186.2C789.86 186.2 792.84 183.33 792.84 179.78C792.84 176.23 789.86 173.35 786.19 173.35C782.51 173.35 779.54 176.23 779.54 179.78ZM722.51 242.64C722.51 246.19 725.49 249.06 729.16 249.06C732.84 249.06 735.81 246.19 735.81 242.64C735.81 239.09 732.84 236.21 729.16 236.21C725.49 236.21 722.51 239.09 722.51 242.64ZM741.52 242.64C741.52 246.19 744.5 249.06 748.17 249.06C751.85 249.06 754.82 246.19 754.82 242.64C754.82 239.09 751.85 236.21 748.17 236.21C744.5 236.21 741.52 239.09 741.52 242.64ZM760.53 242.64C760.53 246.19 763.5 249.06 767.18 249.06C770.85 249.06 773.83 246.19 773.83 242.64C773.83 239.09 770.85 236.21 767.18 236.21C763.5 236.21 760.53 239.09 760.53 242.64ZM779.54 242.64C779.54 246.19 782.51 249.06 786.19 249.06C789.86 249.06 792.84 246.19 792.84 242.64C792.84 239.09 789.86 236.21 786.19 236.21C782.51 236.21 779.54 239.09 779.54 242.64ZM722.51 305.5C722.51 309.05 725.49 311.93 729.16 311.93C732.84 311.93 735.81 309.05 735.81 305.5C735.81 301.95 732.84 299.08 729.16 299.08C725.49 299.08 722.51 301.95 722.51 305.5ZM741.52 305.5C741.52 309.05 744.5 311.93 748.17 311.93C751.85 311.93 754.82 309.05 754.82 305.5C754.82 301.95 751.85 299.08 748.17 299.08C744.5 299.08 741.52 301.95 741.52 305.5ZM760.53 305.5C760.53 309.05 763.5 311.93 767.18 311.93C770.85 311.93 773.83 309.05 773.83 305.5C773.83 301.95 770.85 299.08 767.18 299.08C763.5 299.08 760.53 301.95 760.53 305.5ZM779.54 305.5C779.54 309.05 782.51 311.93 786.19 311.93C789.86 311.93 792.84 309.05 792.84 305.5C792.84 301.95 789.86 299.08 786.19 299.08C782.51 299.08 779.54 301.95 779.54 305.5ZM722.51 368.36C722.51 371.91 725.49 374.79 729.16 374.79C732.84 374.79 735.81 371.91 735.81 368.36C735.81 364.81 732.84 361.94 729.16 361.94C725.49 361.94 722.51 364.81 722.51 368.36ZM741.52 368.36C741.52 371.91 744.5 374.79 748.17 374.79C751.85 374.79 754.82 371.91 754.82 368.36C754.82 364.81 751.85 361.94 748.17 361.94C744.5 361.94 741.52 364.81 741.52 368.36ZM760.53 368.36C760.53 371.91 763.5 374.79 767.18 374.79C770.85 374.79 773.83 371.91 773.83 368.36C773.83 364.81 770.85 361.94 767.18 361.94C763.5 361.94 760.53 364.81 760.53 368.36ZM779.54 368.36C779.54 371.91 782.51 374.79 786.19 374.79C789.86 374.79 792.84 371.91 792.84 368.36C792.84 364.81 789.86 361.94 786.19 361.94C782.51 361.94 779.54 364.81 779.54 368.36ZM722.51 431.23C722.51 434.78 725.49 437.65 729.16 437.65C732.84 437.65 735.81 434.78 735.81 431.23C735.81 427.68 732.84 424.8 729.16 424.8C725.49 424.8 722.51 427.68 722.51 431.23ZM741.52 431.23C741.52 434.78 744.5 437.65 748.17 437.65C751.85 437.65 754.82 434.78 754.82 431.23C754.82 427.68 751.85 424.8 748.17 424.8C744.5 424.8 741.52 427.68 741.52 431.23ZM760.53 431.23C760.53 434.78 763.5 437.65 767.18 437.65C770.85 437.65 773.83 434.78 773.83 431.23C773.83 427.68 770.85 424.8 767.18 424.8C763.5 424.8 760.53 427.68 760.53 431.23ZM779.54 431.23C779.54 434.78 782.51 437.65 786.19 437.65C789.86 437.65 792.84 434.78 792.84 431.23C792.84 427.68 789.86 424.8 786.19 424.8C782.51 424.8 779.54 427.68 779.54 431.23ZM722.51 494.09C722.51 497.64 725.49 500.52 729.16 500.52C732.84 500.52 735.81 497.64 735.81 494.09C735.81 490.54 732.84 487.66 729.16 487.66C725.49 487.66 722.51 490.54 722.51 494.09ZM741.52 494.09C741.52 497.64 744.5 500.52 748.17 500.52C751.85 500.52 754.82 497.64 754.82 494.09C754.82 490.54 751.85 487.66 748.17 487.66C744.5 487.66 741.52 490.54 741.52 494.09ZM760.53 494.09C760.53 497.64 763.5 500.52 767.18 500.52C770.85 500.52 773.83 497.64 773.83 494.09C773.83 490.54 770.85 487.66 767.18 487.66C763.5 487.66 760.53 490.54 760.53 494.09ZM779.54 494.09C779.54 497.64 782.51 500.52 786.19 500.52C789.86 500.52 792.84 497.64 792.84 494.09C792.84 490.54 789.86 487.66 786.19 487.66C782.51 487.66 779.54 490.54 779.54 494.09ZM722.51 556.95C722.51 560.5 725.49 563.38 729.16 563.38C732.84 563.38 735.81 560.5 735.81 556.95C735.81 553.4 732.84 550.53 729.16 550.53C725.49 550.53 722.51 553.4 722.51 556.95ZM741.52 556.95C741.52 560.5 744.5 563.38 748.17 563.38C751.85 563.38 754.82 560.5 754.82 556.95C754.82 553.4 751.85 550.53 748.17 550.53C744.5 550.53 741.52 553.4 741.52 556.95ZM760.53 556.95C760.53 560.5 763.5 563.38 767.18 563.38C770.85 563.38 773.83 560.5 773.83 556.95C773.83 553.4 770.85 550.53 767.18 550.53C763.5 550.53 760.53 553.4 760.53 556.95ZM779.54 556.95C779.54 560.5 782.51 563.38 786.19 563.38C789.86 563.38 792.84 560.5 792.84 556.95C792.84 553.4 789.86 550.53 786.19 550.53C782.51 550.53 779.54 553.4 779.54 556.95ZM722.51 619.82C722.51 623.36 725.49 626.24 729.16 626.24C732.84 626.24 735.81 623.36 735.81 619.82C735.81 616.27 732.84 613.39 729.16 613.39C725.49 613.39 722.51 616.27 722.51 619.82ZM741.52 619.82C741.52 623.36 744.5 626.24 748.17 626.24C751.85 626.24 754.82 623.36 754.82 619.82C754.82 616.27 751.85 613.39 748.17 613.39C744.5 613.39 741.52 616.27 741.52 619.82ZM760.53 619.82C760.53 623.36 763.5 626.24 767.18 626.24C770.85 626.24 773.83 623.36 773.83 619.82C773.83 616.27 770.85 613.39 767.18 613.39C763.5 613.39 760.53 616.27 760.53 619.82ZM779.54 619.82C779.54 623.36 782.51 626.24 786.19 626.24C789.86 626.24 792.84 623.36 792.84 619.82C792.84 616.27 789.86 613.39 786.19 613.39C782.51 613.39 779.54 616.27 779.54 619.82Z" />
		<path id="Path 32" class="shp4" d="M924.77 753.33C924.77 766.35 743.92 776.91 520.83 776.91C297.75 776.91 116.9 766.35 116.9 753.33C116.9 740.3 297.75 729.73 520.83 729.73C743.92 729.73 924.77 740.3 924.77 753.33Z" />
		<path id="Path 33" class="shp5" d="M491.28 727.41L247.67 727.41L247.67 755.21L491.28 755.21L491.28 727.41Z" />
		<path id="Path 34" class="shp6" d="M260.1 751.26L254 751.26L254 731.37L260.1 731.37L260.1 751.26ZM270.82 751.26L264.72 751.26L264.72 731.37L270.82 731.37L270.82 751.26ZM281.53 751.26L275.43 751.26L275.43 731.37L281.53 731.37L281.53 751.26ZM292.24 751.26L286.14 751.26L286.14 731.37L292.24 731.37L292.24 751.26ZM302.95 751.26L296.86 751.26L296.86 731.37L302.95 731.37L302.95 751.26ZM313.67 751.26L307.57 751.26L307.57 731.37L313.67 731.37L313.67 751.26ZM324.38 751.26L318.28 751.26L318.28 731.37L324.38 731.37L324.38 751.26ZM335.09 751.26L329 751.26L329 731.37L335.09 731.37L335.09 751.26ZM345.81 751.26L339.71 751.26L339.71 731.37L345.81 731.37L345.81 751.26ZM356.52 751.26L350.42 751.26L350.42 731.37L356.52 731.37L356.52 751.26ZM367.23 751.26L361.14 751.26L361.14 731.37L367.23 731.37L367.23 751.26ZM377.95 751.26L371.85 751.26L371.85 731.37L377.95 731.37L377.95 751.26ZM388.66 751.26L382.56 751.26L382.56 731.37L388.66 731.37L388.66 751.26ZM399.37 751.26L393.28 751.26L393.28 731.37L399.37 731.37L399.37 751.26ZM410.09 751.26L403.99 751.26L403.99 731.37L410.09 731.37L410.09 751.26ZM420.8 751.26L414.7 751.26L414.7 731.37L420.8 731.37L420.8 751.26ZM431.51 751.26L425.41 751.26L425.41 731.37L431.51 731.37L431.51 751.26ZM442.23 751.26L436.13 751.26L436.13 731.37L442.23 731.37L442.23 751.26ZM452.94 751.26L446.84 751.26L446.84 731.37L452.94 731.37L452.94 751.26ZM463.65 751.26L457.55 751.26L457.55 731.37L463.65 731.37L463.65 751.26ZM474.36 751.26L468.27 751.26L468.27 731.37L474.36 731.37L474.36 751.26ZM485.08 751.26L478.98 751.26L478.98 731.37L485.08 731.37L485.08 751.26Z" />
		<path id="Path 35" class="shp7" d="M491.28 727.41L529.28 727.41L529.28 755.21L491.28 755.21L491.28 727.41Z" />
		<path id="Path 36" class="shp8" d="M491.28 727.41L234.99 727.41L234.99 236.26L491.28 236.26L491.28 727.41Z" />
		<path id="Path 37" class="shp9" d="M525.16 232.06L251.79 232.06L251.79 236.26L525.16 236.26L525.16 232.06Z" />
		<path id="Path 38" class="shp10" d="M226.91 485.83L224.83 485.83L224.83 465.13L226.91 465.13L226.91 485.83ZM226.91 546.58L224.83 546.58L224.83 492.76L226.91 492.76L226.91 546.58ZM491.28 727.41L541.96 727.41L541.96 236.26L491.28 236.26L491.28 727.41Z" />
		<path id="Path 39" class="shp11" d="M478.51 414.93L454.9 414.93L454.9 366.19L478.51 366.19C482.27 366.19 485.32 369.24 485.32 373L485.32 408.12C485.32 411.88 482.27 414.93 478.51 414.93Z" />
		<path id="Path 40" class="shp10" d="M464.74 384L454.9 363.65L454.9 417.47L465.14 417.47L467.92 417.47L485.32 417.47L485.32 390.56L475.21 390.56C470.75 390.56 466.69 388.01 464.74 384Z" />
		<path id="Path 41" class="shp12" d="M485.32 295.96L240.95 295.96L240.95 242.15L485.32 242.15L485.32 295.96ZM485.32 721.23L240.95 721.23L240.95 667.41L485.32 667.41L485.32 721.23ZM485.32 660.47L240.95 660.47L240.95 606.66L485.32 606.66L485.32 660.47ZM485.32 599.73L240.95 599.73L240.95 545.91L485.32 545.91L485.32 599.73ZM485.32 538.97L240.95 538.97L240.95 485.16L485.32 485.16L485.32 538.97ZM485.32 478.22L240.95 478.22L240.95 424.4L485.32 424.4L485.32 478.22ZM454.9 417.47L210.54 417.47L210.54 363.65L454.9 363.65L454.9 417.47ZM485.32 356.72L240.95 356.72L240.95 302.9L485.32 302.9L485.32 356.72Z" />
		<path id="Path 42" class="shp10" d="M470.11 288.28L377.2 288.28C372.88 288.28 369.35 284.75 369.35 280.43L369.35 257.69C369.35 253.37 372.88 249.84 377.2 249.84L470.11 249.84C474.43 249.84 477.96 253.37 477.96 257.69L477.96 280.43C477.96 284.75 474.43 288.28 470.11 288.28Z" />
		<path id="Path 43" class="shp13" d="M460.32 273.97L430.21 273.97C428.38 273.97 426.89 272.48 426.89 270.64L426.89 267.48C426.89 265.64 428.38 264.14 430.21 264.14L460.32 264.14C462.16 264.14 463.65 265.64 463.65 267.48L463.65 270.64C463.65 272.48 462.16 273.97 460.32 273.97Z" />
		<path id="Path 44" class="shp10" d="M470.11 349.03L377.2 349.03C372.88 349.03 369.35 345.5 369.35 341.18L369.35 318.44C369.35 314.12 372.88 310.59 377.2 310.59L470.11 310.59C474.43 310.59 477.96 314.12 477.96 318.44L477.96 341.18C477.96 345.5 474.43 349.03 470.11 349.03Z" />
		<path id="Path 45" class="shp13" d="M460.32 334.72L430.21 334.72C428.38 334.72 426.89 333.23 426.89 331.39L426.89 328.23C426.89 326.39 428.38 324.9 430.21 324.9L460.32 324.9C462.16 324.9 463.65 326.39 463.65 328.23L463.65 331.39C463.65 333.23 462.16 334.72 460.32 334.72Z" />
		<path id="Path 46" class="shp10" d="M439.7 409.78L346.78 409.78C342.46 409.78 338.93 406.25 338.93 401.93L338.93 379.19C338.93 374.87 342.46 371.34 346.78 371.34L439.7 371.34C444.01 371.34 447.55 374.87 447.55 379.19L447.55 401.93C447.55 406.25 444.01 409.78 439.7 409.78Z" />
		<path id="Path 47" class="shp13" d="M429.91 395.47L399.8 395.47C397.96 395.47 396.47 393.98 396.47 392.14L396.47 388.98C396.47 387.14 397.96 385.65 399.8 385.65L429.91 385.65C431.74 385.65 433.24 387.14 433.24 388.98L433.24 392.14C433.24 393.98 431.74 395.47 429.91 395.47Z" />
		<path id="Path 48" class="shp10" d="M470.11 470.53L377.2 470.53C372.88 470.53 369.35 467 369.35 462.68L369.35 439.94C369.35 435.63 372.88 432.09 377.2 432.09L470.11 432.09C474.43 432.09 477.96 435.63 477.96 439.94L477.96 462.68C477.96 467 474.43 470.53 470.11 470.53Z" />
		<path id="Path 49" class="shp13" d="M460.32 456.22L430.21 456.22C428.38 456.22 426.89 454.73 426.89 452.89L426.89 449.73C426.89 447.89 428.38 446.4 430.21 446.4L460.32 446.4C462.16 446.4 463.65 447.89 463.65 449.73L463.65 452.89C463.65 454.73 462.16 456.22 460.32 456.22Z" />
		<path id="Path 50" class="shp10" d="M470.11 531.29L377.2 531.29C372.88 531.29 369.35 527.75 369.35 523.44L369.35 500.69C369.35 496.38 372.88 492.84 377.2 492.84L470.11 492.84C474.43 492.84 477.96 496.38 477.96 500.69L477.96 523.44C477.96 527.75 474.43 531.29 470.11 531.29Z" />
		<path id="Path 51" class="shp13" d="M460.32 516.98L430.21 516.98C428.38 516.98 426.89 515.49 426.89 513.65L426.89 510.48C426.89 508.64 428.38 507.15 430.21 507.15L460.32 507.15C462.16 507.15 463.65 508.64 463.65 510.48L463.65 513.65C463.65 515.49 462.16 516.98 460.32 516.98Z" />
		<path id="Path 52" class="shp10" d="M470.11 592.04L377.2 592.04C372.88 592.04 369.35 588.5 369.35 584.19L369.35 561.44C369.35 557.13 372.88 553.6 377.2 553.6L470.11 553.6C474.43 553.6 477.96 557.13 477.96 561.44L477.96 584.19C477.96 588.5 474.43 592.04 470.11 592.04Z" />
		<path id="Path 53" class="shp13" d="M460.32 577.73L430.21 577.73C428.38 577.73 426.89 576.24 426.89 574.4L426.89 571.23C426.89 569.4 428.38 567.9 430.21 567.9L460.32 567.9C462.16 567.9 463.65 569.4 463.65 571.23L463.65 574.4C463.65 576.24 462.16 577.73 460.32 577.73Z" />
		<path id="Path 54" class="shp10" d="M470.11 652.79L377.2 652.79C372.88 652.79 369.35 649.26 369.35 644.94L369.35 622.2C369.35 617.88 372.88 614.35 377.2 614.35L470.11 614.35C474.43 614.35 477.96 617.88 477.96 622.2L477.96 644.94C477.96 649.26 474.43 652.79 470.11 652.79Z" />
		<path id="Path 55" class="shp13" d="M460.32 638.48L430.21 638.48C428.38 638.48 426.89 636.99 426.89 635.15L426.89 631.99C426.89 630.15 428.38 628.66 430.21 628.66L460.32 628.66C462.16 628.66 463.65 630.15 463.65 631.99L463.65 635.15C463.65 636.99 462.16 638.48 460.32 638.48Z" />
		<path id="Path 56" class="shp10" d="M470.11 713.54L377.2 713.54C372.88 713.54 369.35 710.01 369.35 705.69L369.35 682.95C369.35 678.63 372.88 675.1 377.2 675.1L470.11 675.1C474.43 675.1 477.96 678.63 477.96 682.95L477.96 705.69C477.96 710.01 474.43 713.54 470.11 713.54Z" />
		<path id="Path 57" class="shp13" d="M460.32 699.23L430.21 699.23C428.38 699.23 426.89 697.74 426.89 695.9L426.89 692.74C426.89 690.9 428.38 689.41 430.21 689.41L460.32 689.41C462.16 689.41 463.65 690.9 463.65 692.74L463.65 695.9C463.65 697.74 462.16 699.23 460.32 699.23Z" />
		<path id="Path 58" class="shp10" d="M356.67 269.06C356.67 272.49 353.89 275.27 350.46 275.27C347.03 275.27 344.25 272.49 344.25 269.06C344.25 265.63 347.03 262.85 350.46 262.85C353.89 262.85 356.67 265.63 356.67 269.06ZM338.93 269.06C338.93 272.49 336.15 275.27 332.72 275.27C329.29 275.27 326.51 272.49 326.51 269.06C326.51 265.63 329.29 262.85 332.72 262.85C336.15 262.85 338.93 265.63 338.93 269.06Z" />
		<path id="Path 59" class="shp14" d="M321.18 269.06C321.18 272.49 318.4 275.27 314.97 275.27C311.54 275.27 308.76 272.49 308.76 269.06C308.76 265.63 311.54 262.85 314.97 262.85C318.4 262.85 321.18 265.63 321.18 269.06Z" />
		<path id="Path 60" class="shp10" d="M303.44 269.06C303.44 272.49 300.65 275.27 297.22 275.27C293.8 275.27 291.01 272.49 291.01 269.06C291.01 265.63 293.8 262.85 297.22 262.85C300.65 262.85 303.44 265.63 303.44 269.06ZM356.67 329.81C356.67 333.24 353.89 336.02 350.46 336.02C347.03 336.02 344.25 333.24 344.25 329.81C344.25 326.38 347.03 323.6 350.46 323.6C353.89 323.6 356.67 326.38 356.67 329.81ZM338.93 329.81C338.93 333.24 336.15 336.02 332.72 336.02C329.29 336.02 326.51 333.24 326.51 329.81C326.51 326.38 329.29 323.6 332.72 323.6C336.15 323.6 338.93 326.38 338.93 329.81ZM321.18 329.81C321.18 333.24 318.4 336.02 314.97 336.02C311.54 336.02 308.76 333.24 308.76 329.81C308.76 326.38 311.54 323.6 314.97 323.6C318.4 323.6 321.18 326.38 321.18 329.81Z" />
		<path id="Path 61" class="shp14" d="M303.44 329.81C303.44 333.24 300.65 336.02 297.22 336.02C293.8 336.02 291.01 333.24 291.01 329.81C291.01 326.38 293.8 323.6 297.22 323.6C300.65 323.6 303.44 326.38 303.44 329.81ZM326.26 390.56C326.26 393.99 323.48 396.77 320.05 396.77C316.62 396.77 313.84 393.99 313.84 390.56C313.84 387.13 316.62 384.35 320.05 384.35C323.48 384.35 326.26 387.13 326.26 390.56Z" />
		<path id="Path 62" class="shp10" d="M308.51 390.56C308.51 393.99 305.73 396.77 302.3 396.77C298.87 396.77 296.09 393.99 296.09 390.56C296.09 387.13 298.87 384.35 302.3 384.35C305.73 384.35 308.51 387.13 308.51 390.56Z" />
		<path id="Path 63" class="shp14" d="M290.76 390.56C290.76 393.99 287.98 396.77 284.55 396.77C281.12 396.77 278.34 393.99 278.34 390.56C278.34 387.13 281.12 384.35 284.55 384.35C287.98 384.35 290.76 387.13 290.76 390.56Z" />
		<path id="Path 64" class="shp10" d="M273.02 390.56C273.02 393.99 270.24 396.77 266.81 396.77C263.38 396.77 260.6 393.99 260.6 390.56C260.6 387.13 263.38 384.35 266.81 384.35C270.24 384.35 273.02 387.13 273.02 390.56Z" />
		<path id="Path 65" class="shp14" d="M356.67 451.31C356.67 454.74 353.89 457.52 350.46 457.52C347.03 457.52 344.25 454.74 344.25 451.31C344.25 447.88 347.03 445.1 350.46 445.1C353.89 445.1 356.67 447.88 356.67 451.31ZM338.93 451.31C338.93 454.74 336.15 457.52 332.72 457.52C329.29 457.52 326.51 454.74 326.51 451.31C326.51 447.88 329.29 445.1 332.72 445.1C336.15 445.1 338.93 447.88 338.93 451.31Z" />
		<path id="Path 66" class="shp10" d="M321.18 451.31C321.18 454.74 318.4 457.52 314.97 457.52C311.54 457.52 308.76 454.74 308.76 451.31C308.76 447.88 311.54 445.1 314.97 445.1C318.4 445.1 321.18 447.88 321.18 451.31ZM303.44 451.31C303.44 454.74 300.65 457.52 297.22 457.52C293.8 457.52 291.01 454.74 291.01 451.31C291.01 447.88 293.8 445.1 297.22 445.1C300.65 445.1 303.44 447.88 303.44 451.31ZM356.67 512.06C356.67 515.49 353.89 518.27 350.46 518.27C347.03 518.27 344.25 515.49 344.25 512.06C344.25 508.64 347.03 505.85 350.46 505.85C353.89 505.85 356.67 508.64 356.67 512.06Z" />
		<path id="Path 67" class="shp14" d="M338.93 512.06C338.93 515.49 336.15 518.27 332.72 518.27C329.29 518.27 326.51 515.49 326.51 512.06C326.51 508.64 329.29 505.85 332.72 505.85C336.15 505.85 338.93 508.64 338.93 512.06Z" />
		<path id="Path 68" class="shp10" d="M321.18 512.06C321.18 515.49 318.4 518.27 314.97 518.27C311.54 518.27 308.76 515.49 308.76 512.06C308.76 508.64 311.54 505.85 314.97 505.85C318.4 505.85 321.18 508.64 321.18 512.06ZM303.44 512.06C303.44 515.49 300.65 518.27 297.22 518.27C293.8 518.27 291.01 515.49 291.01 512.06C291.01 508.64 293.8 505.85 297.22 505.85C300.65 505.85 303.44 508.64 303.44 512.06ZM356.67 572.82C356.67 576.25 353.89 579.03 350.46 579.03C347.03 579.03 344.25 576.25 344.25 572.82C344.25 569.39 347.03 566.61 350.46 566.61C353.89 566.61 356.67 569.39 356.67 572.82ZM338.93 572.82C338.93 576.25 336.15 579.03 332.72 579.03C329.29 579.03 326.51 576.25 326.51 572.82C326.51 569.39 329.29 566.61 332.72 566.61C336.15 566.61 338.93 569.39 338.93 572.82Z" />
		<path id="Path 69" class="shp14" d="M321.18 572.82C321.18 576.25 318.4 579.03 314.97 579.03C311.54 579.03 308.76 576.25 308.76 572.82C308.76 569.39 311.54 566.61 314.97 566.61C318.4 566.61 321.18 569.39 321.18 572.82ZM303.44 572.82C303.44 576.25 300.65 579.03 297.22 579.03C293.8 579.03 291.01 576.25 291.01 572.82C291.01 569.39 293.8 566.61 297.22 566.61C300.65 566.61 303.44 569.39 303.44 572.82ZM356.67 633.57C356.67 637 353.89 639.78 350.46 639.78C347.03 639.78 344.25 637 344.25 633.57C344.25 630.14 347.03 627.36 350.46 627.36C353.89 627.36 356.67 630.14 356.67 633.57Z" />
		<path id="Path 70" class="shp10" d="M338.93 633.57C338.93 637 336.15 639.78 332.72 639.78C329.29 639.78 326.51 637 326.51 633.57C326.51 630.14 329.29 627.36 332.72 627.36C336.15 627.36 338.93 630.14 338.93 633.57ZM321.18 633.57C321.18 637 318.4 639.78 314.97 639.78C311.54 639.78 308.76 637 308.76 633.57C308.76 630.14 311.54 627.36 314.97 627.36C318.4 627.36 321.18 630.14 321.18 633.57ZM303.44 633.57C303.44 637 300.65 639.78 297.22 639.78C293.8 639.78 291.01 637 291.01 633.57C291.01 630.14 293.8 627.36 297.22 627.36C300.65 627.36 303.44 630.14 303.44 633.57ZM356.67 694.32C356.67 697.75 353.89 700.53 350.46 700.53C347.03 700.53 344.25 697.75 344.25 694.32C344.25 690.89 347.03 688.11 350.46 688.11C353.89 688.11 356.67 690.89 356.67 694.32ZM338.93 694.32C338.93 697.75 336.15 700.53 332.72 700.53C329.29 700.53 326.51 697.75 326.51 694.32C326.51 690.89 329.29 688.11 332.72 688.11C336.15 688.11 338.93 690.89 338.93 694.32Z" />
		<path id="Path 71" class="shp14" d="M321.18 694.32C321.18 697.75 318.4 700.53 314.97 700.53C311.54 700.53 308.76 697.75 308.76 694.32C308.76 690.89 311.54 688.11 314.97 688.11C318.4 688.11 321.18 690.89 321.18 694.32Z" />
		<path id="Path 72" class="shp10" d="M303.44 694.32C303.44 697.75 300.65 700.53 297.22 700.53C293.8 700.53 291.01 697.75 291.01 694.32C291.01 690.89 293.8 688.11 297.22 688.11C300.65 688.11 303.44 690.89 303.44 694.32Z" />
		<path id="Path 73" class="shp15" d="M265.18 282.51C257.75 282.51 251.73 276.49 251.73 269.06C251.73 261.63 257.75 255.6 265.18 255.6C272.61 255.6 278.63 261.63 278.63 269.06C278.63 276.49 272.61 282.51 265.18 282.51ZM265.18 343.26C257.75 343.26 251.73 337.24 251.73 329.81C251.73 322.38 257.75 316.35 265.18 316.35C272.61 316.35 278.63 322.38 278.63 329.81C278.63 337.24 272.61 343.26 265.18 343.26ZM234.76 404.01C227.33 404.01 221.31 397.99 221.31 390.56C221.31 383.13 227.33 377.11 234.76 377.11C242.19 377.11 248.22 383.13 248.22 390.56C248.22 397.99 242.19 404.01 234.76 404.01ZM265.18 464.77C257.75 464.77 251.73 458.74 251.73 451.31C251.73 443.88 257.75 437.86 265.18 437.86C272.61 437.86 278.63 443.88 278.63 451.31C278.63 458.74 272.61 464.77 265.18 464.77ZM265.18 525.52C257.75 525.52 251.73 519.49 251.73 512.06C251.73 504.64 257.75 498.61 265.18 498.61C272.61 498.61 278.63 504.64 278.63 512.06C278.63 519.49 272.61 525.52 265.18 525.52ZM265.18 586.27C257.75 586.27 251.73 580.25 251.73 572.82C251.73 565.39 257.75 559.36 265.18 559.36C272.61 559.36 278.63 565.39 278.63 572.82C278.63 580.25 272.61 586.27 265.18 586.27ZM265.18 647.02C257.75 647.02 251.73 641 251.73 633.57C251.73 626.14 257.75 620.11 265.18 620.11C272.61 620.11 278.63 626.14 278.63 633.57C278.63 641 272.61 647.02 265.18 647.02ZM265.18 707.77C257.75 707.77 251.73 701.75 251.73 694.32C251.73 686.89 257.75 680.86 265.18 680.86C272.61 680.86 278.63 686.89 278.63 694.32C278.63 701.75 272.61 707.77 265.18 707.77Z" />
		<path id="Path 74" class="shp10" d="M463.65 189.24C461.82 178.92 455.4 170.17 446.59 165.17L446.57 165.17C446.58 164.89 446.61 164.63 446.61 164.36C446.61 145.14 431.04 129.57 411.83 129.57L398.51 129.57L398.51 132.23C389.64 135.92 382.63 143.19 379.26 152.23C378.13 152.04 376.98 151.92 375.8 151.92C367.05 151.92 359.57 157.34 356.5 165.01C352.09 163.99 347.28 164.03 342.16 166.08C332.86 169.82 326.27 178.67 326.06 188.69C325.77 202.67 337.01 214.1 350.93 214.1L350.95 214.1L400.1 214.1L445.13 214.1C455.43 214.1 464.15 205.93 464.21 195.63L464.21 195.42C464.21 193.31 464.02 191.24 463.65 189.24Z" />
		<path id="Path 75" class="shp8" d="M450.33 189.24C448.5 178.92 442.08 170.17 433.27 165.17L433.25 165.16C433.26 164.89 433.29 164.63 433.29 164.36C433.29 145.14 417.72 129.57 398.51 129.57C383.57 129.57 370.87 139.01 365.94 152.23C364.81 152.04 363.66 151.92 362.48 151.92C353.72 151.92 346.25 157.34 343.18 165.01C338.77 163.99 333.96 164.03 328.85 166.08C319.54 169.82 312.95 178.67 312.74 188.69C312.45 202.67 323.69 214.1 337.61 214.1L337.63 214.1L386.77 214.1L431.8 214.1C442.11 214.1 450.83 205.93 450.89 195.63L450.89 195.42C450.89 193.31 450.7 191.24 450.33 189.24Z" />
		<path id="Path 76" class="shp5" d="M401.05 112.9L399.31 112.9L399.31 107.67L401.05 107.67L401.05 112.9ZM450.26 63.68L439.85 63.68L439.85 61.94L450.26 61.94L450.26 63.68ZM471.07 63.68L460.67 63.68L460.67 61.94L471.07 61.94L471.07 63.68ZM491.88 63.68L481.48 63.68L481.48 61.94L491.88 61.94L491.88 63.68ZM512.69 63.68L502.29 63.68L502.29 61.94L512.69 61.94L512.69 63.68ZM533.5 63.68L523.1 63.68L523.1 61.94L533.5 61.94L533.5 63.68ZM554.31 63.68L543.91 63.68L543.91 61.94L554.31 61.94L554.31 63.68ZM575.12 63.68L564.72 63.68L564.72 61.94L575.12 61.94L575.12 63.68ZM595.94 63.68L585.53 63.68L585.53 61.94L595.94 61.94L595.94 63.68ZM616.75 63.68L606.34 63.68L606.34 61.94L616.75 61.94L616.75 63.68ZM637.55 63.68L627.15 63.68L627.15 61.94L637.55 61.94L637.55 63.68ZM658.37 63.68L647.96 63.68L647.96 61.94L658.37 61.94L658.37 63.68ZM679.18 63.68L668.77 63.68L668.77 61.94L679.18 61.94L679.18 63.68ZM699.99 63.68L689.58 63.68L689.58 61.94L699.99 61.94L699.99 63.68ZM419.44 64.92L418.92 63.26C421.67 62.38 424.55 61.94 427.47 61.94L429.45 61.94L429.45 63.68L427.47 63.68C424.73 63.68 422.03 64.1 419.44 64.92ZM719.94 66.51C716.93 64.98 713.69 64.07 710.31 63.78L710.46 62.04C714.06 62.35 717.51 63.33 720.73 64.95L719.94 66.51ZM404.28 77.43L402.75 76.6C404.48 73.44 406.77 70.67 409.55 68.37L410.66 69.72C408.05 71.88 405.9 74.47 404.28 77.43ZM732.94 81.26C731.81 78.08 730.11 75.18 727.86 72.63L729.17 71.48C731.56 74.19 733.38 77.28 734.59 80.67L732.94 81.26ZM401.05 97.26L399.31 97.26L399.31 90.1C399.31 88.98 399.38 87.86 399.51 86.76L401.24 86.97C401.11 88 401.05 89.05 401.05 90.1L401.05 97.26ZM736.2 101.59L734.46 101.59L734.46 91.19L736.2 91.19L736.2 101.59ZM736.2 122.41L734.46 122.41L734.46 112L736.2 112L736.2 122.41ZM736.2 143.22L734.46 143.22L734.46 132.81L736.2 132.81L736.2 143.22ZM736.2 164.03L734.46 164.03L734.46 153.62L736.2 153.62L736.2 164.03ZM736.2 184.84L734.46 184.84L734.46 174.43L736.2 174.43L736.2 184.84ZM736.2 205.65L734.46 205.65L734.46 195.24L736.2 195.24L736.2 205.65ZM736.2 226.46L734.46 226.46L734.46 216.05L736.2 216.05L736.2 226.46ZM736.2 242.15L734.46 242.15L734.46 236.92L736.2 236.92L736.2 242.15Z" />
		<path id="Path 77" class="shp16" d="M596.26 739.59L611.56 739.59L613.2 704.14L597.9 704.14L596.26 739.59Z" />
		<path id="Path 78" class="shp17" d="M612.09 737.81L595.38 737.81C594.75 737.81 594.22 738.25 594.11 738.86L591.58 752.46C591.31 753.87 592.43 755.21 593.88 755.19C599.9 755.08 608.6 754.73 616.18 754.73C625.04 754.73 626.29 755.21 636.68 755.21C642.96 755.21 644.48 748.86 641.82 748.29C629.76 745.67 626.4 745.39 615.82 739.01C614.67 738.31 613.41 737.81 612.09 737.81Z" />
		<path id="Path 79" class="shp18" d="M613.2 704.15L612.36 722.42L597.04 722.42L597.89 704.15L613.2 704.15Z" />
		<path id="Path 80" class="shp16" d="M698.84 230.16C698.54 234.97 698.21 240.24 698.07 245.28C697.94 250.38 697.8 255.45 697.88 260.48C697.92 265.5 698.13 270.48 698.56 275.28C698.95 280.08 699.69 284.74 700.76 288.69C701.27 290.67 701.95 292.36 702.56 293.52C702.63 293.74 703.06 294.38 703.35 294.85L704.29 296.37C704.9 297.38 705.63 298.39 706.29 299.41C709.01 303.48 712.05 307.52 715.16 311.58C721.45 319.6 728.22 327.71 734.91 335.63L726.94 344.96C717.63 338.91 709.11 332.23 700.95 324.68C696.88 320.91 692.97 316.9 689.2 312.57C688.27 311.47 687.31 310.42 686.43 309.24L685.08 307.5C684.61 306.87 684.23 306.46 683.64 305.53C681.43 302.18 680 298.96 678.89 295.89C676.69 289.72 675.58 283.87 674.71 278.13C673.86 272.38 673.48 266.75 673.19 261.15C673 255.56 672.91 250.02 673.13 244.5C673.33 238.93 673.56 233.59 674.19 227.81L698.84 230.16Z" />
		<path id="Path 81" class="shp19" d="M704.25 261.54L697.75 264.14L686.81 268.49L667.4 276.26C667.4 276.26 658.54 230.2 663.31 216.2C668.56 200.83 687.11 201.18 697.12 218.7C706.87 235.79 704.25 261.54 704.25 261.54Z" />
		<path id="Path 82" class="shp20" d="M696.79 264.52L686.81 268.49C685.15 261.27 683.6 249.16 688.54 240.1C695.28 245.74 696.33 257.15 696.79 264.52Z" />
		<path id="Path 83" class="shp19" d="M686.88 328.51L603.1 328.51C602.5 321 604.4 300.62 603.15 272.87C602.85 266.48 602.4 259.7 601.71 252.6C600.29 237.83 597.83 221.66 593.75 204.68C593.75 204.68 608.02 201.79 621.67 201.14C632.35 200.62 647.83 200.29 657.29 201.14C669.73 202.27 681.58 205.6 681.58 205.6C681.58 205.6 701.27 240.45 686.88 328.51Z" />
		<path id="Path 84" class="shp20" d="M603.15 272.87C602.85 266.48 602.4 259.7 601.71 252.6C604.42 250.91 607.96 250.81 608.69 260.72C609.35 269.89 606.15 272.43 603.15 272.87Z" />
		<path id="Path 85" class="shp16" d="M758.69 346.8L746.61 354.33L731.68 351.14L743.56 336.4L758.69 346.8ZM729.61 334.16L743.56 336.4L731.68 351.14C731.68 351.14 724.23 350.39 722.21 340.31L729.61 334.16ZM623.76 161.04C626.42 172.5 629.41 193.49 621.67 201.13C621.67 201.13 625.56 208.82 646.84 208.82C666.3 208.82 657.28 201.14 657.28 201.14C644.4 198.08 644.39 188.61 646.29 179.7L623.76 161.04Z" />
		<path id="Path 86" class="shp18" d="M632.95 168.65L646.28 179.69C645.82 181.8 645.49 183.94 645.41 186.01C641.35 189.97 633.61 179.95 632.91 174.84C632.56 172.29 632.57 169.84 632.95 168.65Z" />
		<path id="Path 87" class="shp21" d="M669.25 131.89C674.59 138.52 668.36 159.4 657.31 158.87C646.27 158.34 659.13 119.33 669.25 131.89Z" />
		<path id="Path 88" class="shp16" d="M626.03 142C624.84 157.44 623.35 166.39 630.01 175.6C640.05 189.43 660 185.76 665.81 171.15C671.04 158 672.11 134.95 657.91 126.24C643.93 117.65 627.23 126.56 626.03 142Z" />
		<path id="Path 89" class="shp21" d="M620.46 122.56L637.15 128.46C629.83 138.25 640.45 161.28 627.53 156.98C621.61 155.01 602.3 133.69 620.46 122.56ZM628.54 126.55C634.84 131.18 660.44 136.68 675.08 128.52C671.29 127.71 666.35 125.22 666.35 125.22C666.35 125.22 677.31 124.7 682.17 116.6C671.73 118.19 664.69 115.21 662.05 114.05C666.82 113.01 671.87 108.09 673.23 104.56C653 104.81 609.44 108.9 617.07 123.14C624.7 137.38 628.54 126.55 628.54 126.55ZM619.79 124.68C619.79 124.68 614.75 122.36 611.56 118.78C610.6 121.17 610.61 127.66 619.79 124.68Z" />
		<path id="Path 90" class="shp16" d="M616.73 157.63C618.42 161.52 621.72 164.34 624.96 165.65C629.82 167.62 632.67 163.48 631.68 158.64C630.78 154.29 627.17 148.01 622.12 148.1C617.14 148.18 614.8 153.17 616.73 157.63ZM643.22 739.59L658.53 739.59L661.69 704.14L646.39 704.14L643.22 739.59Z" />
		<path id="Path 91" class="shp17" d="M659.23 737.81L642.51 737.81C641.89 737.81 641.36 738.25 641.25 738.86L638.71 752.46C638.45 753.87 639.57 755.21 641.01 755.19C647.04 755.08 655.74 754.73 663.31 754.73C672.18 754.73 679.84 755.21 690.24 755.21C696.52 755.21 698.04 748.86 695.38 748.29C683.32 745.67 673.53 745.39 662.96 739.01C661.81 738.31 660.55 737.81 659.23 737.81Z" />
		<path id="Path 92" class="shp18" d="M661.69 704.15L660.06 722.42L644.75 722.42L646.38 704.15L661.69 704.15Z" />
		<path id="Path 93" fill-rule="evenodd" class="shp22" d="M661.62 738.96L661.38 738.63L661.59 738.28C662.2 738.02 667.61 735.75 669.21 736.89C669.46 737.07 669.75 737.41 669.71 738.02C669.66 738.85 669.33 739.46 668.71 739.84C667.94 740.32 666.81 740.35 665.62 740.16C664.19 739.93 662.67 739.39 661.62 738.96ZM662.75 738.62C665.33 739.56 667.37 739.79 668.31 739.21C668.72 738.95 668.94 738.54 668.97 737.96C668.99 737.67 668.89 737.56 668.79 737.49C668.68 737.41 668.52 737.35 668.33 737.32C667.14 737.14 664.63 737.88 662.75 738.62Z" />
		<path id="Path 94" fill-rule="evenodd" class="shp22" d="M661.51 738.9L661.39 738.54C661.43 738.35 662.34 733.94 664.33 732.76C664.84 732.45 665.39 732.37 665.95 732.54C666.82 732.78 666.99 733.36 667.01 733.68C667.13 735.46 663.6 738.36 661.89 738.98L661.71 738.99L661.51 738.9ZM664.72 733.4C663.45 734.16 662.64 736.68 662.3 737.96C664.04 737 666.34 734.75 666.27 733.7C666.26 733.61 666.25 733.38 665.78 733.25L665.61 733.21C665.31 733.16 665.02 733.23 664.72 733.4Z" />
		<path id="Path 95" class="shp5" d="M638.98 718.04L663.87 718.04C663.87 718.04 702.24 571.54 701.5 521.85C700.78 474.06 686.87 328.51 686.87 328.51L631.81 328.51C631.81 328.51 636.09 360.89 640.96 400.83C645.31 436.08 650.1 477.27 652.85 507.26C653.65 516.18 654.29 524.1 654.66 530.6C657.52 579.39 638.98 718.04 638.98 718.04Z" />
		<path id="Path 96" class="shp23" d="M640.96 400.83C645.31 436.08 650.1 477.27 652.85 507.26C658.66 481.08 672.86 404.95 651.56 366.45C646.23 374.06 642.97 387.2 640.96 400.83Z" />
		<path id="Path 97" class="shp5" d="M657.16 328.52C657.16 328.52 655.09 468.87 646.94 513.71C638.02 562.81 620.26 718.04 620.26 718.04L591.58 718.04C591.58 718.04 595.76 566.78 600.11 518.16C604.84 465.4 603.1 328.52 603.1 328.52L657.16 328.52Z" />
		<path id="Path 98" class="shp21" d="M590.49 718.66L621.4 718.66L623.67 706.99L589.43 706.04L590.49 718.66ZM637.56 718.66L668.47 718.66L670.74 706.99L636.63 707.59L637.56 718.66Z" />
		<path id="Path 99" class="shp19" d="M602.53 701.09L602.49 701.09L602.26 700.78C602.45 699.33 604.58 563.58 608.49 519.92C612.74 472.52 610.08 346.76 610.17 345.71L610.46 345.47L610.7 345.77C610.62 346.83 613.27 472.58 609.03 519.98C605.12 563.66 602.98 699.42 602.79 700.87L602.53 701.09Z" />
		<path id="Path 100" class="shp21" d="M648.76 150.49C648.59 151.73 649.11 152.86 649.93 153C650.75 153.14 651.55 152.25 651.73 151.01C651.9 149.76 651.38 148.64 650.56 148.49C649.74 148.35 648.94 149.24 648.76 150.49ZM663.21 152.22C663.03 153.46 663.55 154.59 664.37 154.73C665.19 154.87 666 153.98 666.17 152.74C666.34 151.49 665.82 150.37 665 150.23C664.19 150.08 663.38 150.98 663.21 152.22Z" />
		<path id="Path 101" class="shp24" d="M658.32 152.66C658.32 152.66 660.16 160.33 662.81 164.34C660.31 166.01 656.68 164.41 656.68 164.41L658.32 152.66Z" />
		<path id="Path 102" class="shp21" d="M654.07 169.4C654.27 169.43 654.45 169.28 654.47 169.08C654.49 168.88 654.34 168.69 654.14 168.66C648.62 167.93 646.42 163.74 646.4 163.7L645.89 163.53L645.74 164.02C645.83 164.21 648.15 168.61 654.07 169.4ZM644.97 141.5C645.18 141.56 645.42 141.52 645.61 141.37C648.15 139.35 650.78 140.21 650.8 140.22C651.16 140.36 651.61 140.15 651.73 139.76C651.85 139.37 651.63 138.95 651.24 138.82C651.1 138.77 647.81 137.68 644.66 140.2C644.34 140.45 644.3 140.92 644.56 141.24L644.97 141.5Z" />
		<path id="Path 103" class="shp25" d="M606.07 201.84L610.02 201.5C610.41 201.46 610.78 201.74 610.87 202.13C623.99 261.23 620.07 323.97 620.07 323.97L615.71 323.97C616.94 258.87 606.88 209.56 605.41 202.73C605.32 202.28 605.62 201.88 606.07 201.84Z" />
		<path id="Path 104" class="shp21" d="M616.53 325.38L619.55 325.38C620.33 325.38 620.94 324.74 620.91 323.97C620.88 323.19 620.22 322.56 619.45 322.56L616.43 322.56C615.65 322.56 615.04 323.19 615.07 323.97C615.1 324.74 615.75 325.38 616.53 325.38ZM620.01 329.05L619.87 325.1C619.84 324.09 618.98 323.26 617.96 323.26C616.95 323.26 616.15 324.09 616.19 325.1L616.33 329.05C616.36 330.07 617.23 330.9 618.24 330.9C619.25 330.9 620.05 330.07 620.01 329.05ZM669.74 144.73L670.07 144.71C670.45 144.6 670.66 144.18 670.54 143.78C669.28 139.8 666.02 138.76 665.88 138.72C665.51 138.59 665.09 138.82 664.98 139.22C664.88 139.62 665.11 140.04 665.5 140.16C665.6 140.19 668.14 141.03 669.14 144.2C669.23 144.49 669.47 144.69 669.74 144.73Z" />
		<path id="Path 105" class="shp16" d="M603.18 229.41C600.79 239.23 598.39 249.44 596.24 259.37C595.22 264.36 594.22 269.31 593.44 274.19C592.71 279.01 592.07 283.88 592.12 287.83C592.24 295.85 595.15 303.79 600.6 311.03C603.3 314.65 606.55 318.07 610.14 321.23C611.94 322.82 613.81 324.37 615.77 325.81C616.75 326.53 617.75 327.23 618.76 327.89C619.72 328.56 620.86 329.29 621.64 329.79L617.1 341.18C615.43 340.67 614.19 340.25 612.78 339.73C611.43 339.2 610.1 338.64 608.78 338.05C606.14 336.87 603.56 335.56 601.03 334.09C596 331.12 591.2 327.57 586.85 323.28C582.51 319 578.64 313.94 575.68 308.19C572.76 302.45 570.76 296.02 570.06 289.49C569.45 282.87 569.65 277.13 570.11 271.45C570.61 265.82 571.3 260.32 572.19 254.9C573.96 244.02 576.29 233.59 579.28 222.93L603.18 229.41Z" />
		<path id="Path 106" class="shp19" d="M593.76 204.68C577.19 207.65 567.82 251.9 567.82 251.9L608.77 266.56C608.77 266.56 611.89 252.07 608.82 232.86C605.8 214.02 609.47 201.86 593.76 204.68Z" />
		<path id="Path 107" class="shp25" d="M672.42 202.64L676.36 203.38C676.69 203.44 676.95 203.7 677.01 204.03C687.43 263.16 680.51 323.97 680.51 323.97L676.15 323.97C680.36 259.61 672.83 211.13 671.55 203.49C671.46 202.97 671.9 202.54 672.42 202.64Z" />
		<path id="Path 108" class="shp21" d="M676.91 325.38L679.93 325.38C680.7 325.38 681.35 324.74 681.35 323.97C681.36 323.19 680.73 322.56 679.96 322.56L676.94 322.56C676.16 322.56 675.52 323.19 675.51 323.97C675.51 324.74 676.14 325.38 676.91 325.38ZM680.22 329.05L680.26 325.1C680.28 324.09 679.46 323.26 678.44 323.26C677.43 323.26 676.59 324.09 676.58 325.1L676.54 329.05C676.53 330.07 677.35 330.9 678.36 330.9C679.38 330.9 680.21 330.07 680.22 329.05Z" />
		<path id="Path 109" fill-rule="evenodd" class="shp22" d="M614.49 738.96L614.25 738.63L614.46 738.28C615.07 738.02 620.48 735.75 622.08 736.89C622.33 737.07 622.61 737.41 622.58 738.02C622.53 738.85 622.2 739.46 621.58 739.84C620.8 740.32 619.67 740.35 618.49 740.16C617.05 739.93 615.54 739.39 614.49 738.96ZM615.62 738.62C618.19 739.56 620.24 739.79 621.18 739.21C621.59 738.95 621.8 738.54 621.84 737.96C621.85 737.67 621.75 737.56 621.66 737.49C621.54 737.41 621.39 737.35 621.19 737.32C620 737.14 617.5 737.88 615.62 738.62Z" />
		<path id="Path 110" fill-rule="evenodd" class="shp22" d="M614.38 738.9L614.25 738.54C614.29 738.35 615.21 733.94 617.19 732.76C617.71 732.45 618.25 732.37 618.82 732.54C619.69 732.78 619.85 733.36 619.88 733.68C620 735.46 616.47 738.36 614.75 738.98L614.57 738.99L614.38 738.9ZM617.59 733.4C616.32 734.16 615.5 736.68 615.16 737.96C616.91 737 619.21 734.75 619.14 733.7C619.13 733.61 619.11 733.38 618.64 733.25L618.48 733.21C618.17 733.16 617.88 733.23 617.59 733.4Z" />
		<path id="Path 111" class="shp16" d="M609.26 338.17L614.06 329.45L627.21 329.91L637.44 334.16L644.4 344.41L626.51 343.32C626.51 343.32 615.57 346.43 609.26 338.17Z" />
		<path id="Path 112" class="shp20" d="M645.56 208.81L642.42 206.59L636.14 212.85L645.56 208.81Z" />
		<path id="Path 113" class="shp25" d="M642.42 206.59C642.42 206.59 637.31 214.11 636.47 219.55C629.95 216.89 617.57 210.22 615.61 200.8C618.08 200.3 622.14 197.68 622.14 197.68C622.14 197.68 628.82 203.17 642.42 206.59Z" />
		<path id="Path 114" class="shp20" d="M645.56 208.81L646.73 206.25L655.38 212.85L645.56 208.81Z" />
		<path id="Path 115" class="shp25" d="M646.73 206.25C646.73 206.25 652.32 211.13 653.35 218.24C659.68 215.58 661.88 206.88 659.99 201.09C656.43 199.42 652.29 198.6 652.29 198.6C652.29 198.6 653.16 204.22 646.73 206.25ZM796.76 268.32L665.58 263.68L646.61 340.37L777.79 345.01L796.76 268.32Z" />
		<path id="Path 116" class="shp21" d="M800.8 268.46L669.62 263.82L650.65 340.52L781.83 345.15L800.8 268.46ZM781.83 345.15L781.3 349.41L650.11 344.77L650.64 340.51L781.83 345.15Z" />
		<path id="Path 117" class="shp25" d="M650.64 340.51L650.11 344.77L598.62 342.95L599.15 338.7L650.64 340.51Z" />
	</g>
</svg>