<svg xmlns="http://www.w3.org/2000/svg" width="1042" height="885"><defs><clipPath clipPathUnits="userSpaceOnUse" id="cp1"><path d="M0 0h1042v885H0z"/></clipPath></defs><style>.shp0{fill:#c5e2f4}.shp1{fill:#dbeef9}.shp2{fill:#e8f4fb}.shp3{fill:#f5fafd}.shp5{fill:#185cb1}.shp8{fill:#4fa4d9}.shp10{fill:#297bc3}.shp13{fill:#4197d2}.shp14{fill:#60bbe6}.shp16{fill:#ff867b}.shp17{fill:#0f365d}.shp18{fill:#ff7164}.shp19{fill:#8ec6e8}.shp20{fill:#6ab3e0}.shp21{fill:#12284b}.shp22{fill:#3775be}.shp25{fill:#3c89ca}</style><g id="Page 1" clip-path="url(#cp1)"><path id="Path 1" fill-rule="evenodd" class="shp0" d="M1041.67 683.35H0v-.52h1041.67v.52zM188.54 706.5h101.31v.52H188.54v-.52zm-49.19.26H166v.52h-26.65v-.52zm297.5-2.98h-31.19v-.52h31.19v.52zm139.53 0H448.84v-.52h127.54v.52zm181.72 3.5h118.29v.52H758.1v-.52zm-42.91 0h31.34v.52h-31.34v-.52zm192.45-9.4h26.85v.52h-26.85v-.52zM493.78 589.91H91.49c-6.56 0-11.89-5.33-11.89-11.89V12.54C79.6 5.98 84.93.65 91.49.65h402.29c6.55 0 11.89 5.33 11.89 11.89v565.48c0 6.56-5.34 11.89-11.89 11.89zM91.49 1.17c-6.27 0-11.37 5.1-11.37 11.37v565.48c0 6.27 5.1 11.37 11.37 11.37h402.29c6.27 0 11.37-5.1 11.37-11.37V12.54c0-6.27-5.1-11.37-11.37-11.37H91.49z"/><path id="Path 2" fill-rule="evenodd" class="shp0" d="M944.4 589.91h-21.82v10.49c0 2.65 2.16 4.81 4.81 4.81h114.28v1.04H927.39c-3.23 0-5.85-2.62-5.85-5.85v-10.49h-3.84v18.12c0 2.65 2.16 4.8 4.81 4.8h119.16v1.04H922.51c-3.22 0-5.85-2.62-5.85-5.84v-18.12h-3.83v25.74c0 2.65 2.15 4.8 4.8 4.8h124.04v1.04H917.63c-3.22 0-5.85-2.62-5.85-5.84v-25.74h-3.83v33.36c0 2.65 2.16 4.81 4.81 4.81h128.91v1.04H912.76c-3.23 0-5.85-2.63-5.85-5.85v-33.36h-3.84v40.98c0 2.65 2.16 4.81 4.81 4.81h133.79v1.04H907.88c-3.23 0-5.85-2.63-5.85-5.85v-40.98h-3.83v48.6c0 2.65 2.15 4.81 4.8 4.81h138.67v1.04H903c-3.22 0-5.85-2.62-5.85-5.85v-48.6h-3.83v56.23c0 2.65 2.16 4.8 4.81 4.8h143.54v1.04H898.13c-3.23 0-5.85-2.62-5.85-5.84v-56.23H542.11c-6.56 0-11.89-5.33-11.89-11.89v-17.94h-78.05v-1.04h78.05v-6.58h-78.05v-1.05h78.05v-6.58h-78.05v-1.04h78.05v-6.58h-78.05v-1.04h78.05v-6.58h-78.05v-1.04h78.05v-6.58h-78.05v-1.04h78.05v-6.58h-78.05v-1.05h78.05V301.83h-78.05v-1.04h78.05v-6.58h-78.05v-1.05h78.05v-6.57h-78.05v-1.05h78.05v-6.58h-78.05v-1.04h78.05v-6.58h-78.05v-1.04h78.05v-6.58h-78.05v-1.04h78.05v-6.58h-78.05v-1.05h78.05V12.54c0-6.56 5.33-11.89 11.89-11.89H944.4c6.55 0 11.89 5.33 11.89 11.89v565.48c0 6.56-5.34 11.89-11.89 11.89zM542.11 1.17c-6.27 0-11.37 5.1-11.37 11.37v242.51h50.17v1.05h-50.17v6.58h50.17v1.04h-50.17v6.58h50.17v1.04h-50.17v6.58h50.17v1.04h-50.17v6.58h50.17v1.05h-50.17v6.57h50.17v1.05h-50.17v6.58h50.17v1.04h-50.17V513.3h50.17v1.05h-50.17v6.58h50.17v1.04h-50.17v6.58h50.17v1.04h-50.17v6.58h50.17v1.04h-50.17v6.58h50.17v1.04h-50.17v6.58h50.17v1.05h-50.17v6.58h50.17v1.04h-50.17v17.94c0 6.27 5.1 11.37 11.37 11.37h350.17V268.7c0-2.65-2.16-4.81-4.81-4.81h-15.12v-1.04h15.12c3.22 0 5.85 2.63 5.85 5.85v320.69h3.83V261.08c0-2.65-2.15-4.81-4.8-4.81h-20v-1.04h20c3.22 0 5.85 2.62 5.85 5.85v328.31h3.83V253.46c0-2.65-2.16-4.81-4.81-4.81h-24.87v-1.04h24.87c3.23 0 5.85 2.62 5.85 5.85v335.93h3.84V245.84c0-2.65-2.16-4.81-4.81-4.81h-29.75v-1.04h29.75c3.22 0 5.85 2.62 5.85 5.85v343.55h3.83V238.21c0-2.65-2.15-4.8-4.8-4.8h-34.63v-1.05h34.63c3.22 0 5.85 2.63 5.85 5.85v351.18h3.83v-358.8c0-2.65-2.16-4.81-4.81-4.81h-39.5v-1.04h39.5c3.23 0 5.85 2.63 5.85 5.85v358.8h3.84V222.97c0-2.65-2.16-4.81-4.81-4.81h-44.38v-1.04h44.38c3.23 0 5.85 2.62 5.85 5.85v366.42h21.82c6.27 0 11.37-5.1 11.37-11.37V12.54c0-6.27-5.1-11.37-11.37-11.37H542.11zM199.87 614.85h-49.99c-3.22 0-5.85-2.62-5.85-5.85V231.57c0-2.65-2.16-4.81-4.81-4.81h-59.1v-1.04h59.1c3.23 0 5.85 2.63 5.85 5.85V609c0 2.66 2.16 4.81 4.81 4.81h49.99v1.04zm0 7.63H145c-3.22 0-5.85-2.63-5.85-5.85V239.19c0-2.65-2.15-4.8-4.8-4.8H80.12v-1.05h54.23c3.22 0 5.85 2.63 5.85 5.85v377.44c0 2.65 2.15 4.8 4.8 4.8h54.87v1.05zm0 7.62h-59.74c-3.23 0-5.85-2.63-5.85-5.85V246.82c0-2.66-2.16-4.81-4.81-4.81H80.12v-1.04h49.35c3.22 0 5.85 2.62 5.85 5.85v377.43c0 2.65 2.16 4.8 4.81 4.8h59.74v1.05zm0 7.62h-64.62c-3.23 0-5.85-2.62-5.85-5.85V254.44c0-2.65-2.16-4.81-4.81-4.81H80.12v-1.04h44.47c3.23 0 5.85 2.62 5.85 5.85v377.43c0 2.65 2.16 4.81 4.81 4.81h64.62v1.04zm0 7.62h-69.5c-3.22 0-5.85-2.62-5.85-5.85V262.06c0-2.65-2.15-4.81-4.8-4.81h-39.6v-1.04h39.6c3.22 0 5.84 2.62 5.84 5.85v377.43c0 2.65 2.16 4.81 4.81 4.81h69.5v1.04zm0 7.62H125.5c-3.23 0-5.85-2.62-5.85-5.85V269.68c0-2.65-2.16-4.81-4.81-4.81H80.12v-1.04h34.72c3.22 0 5.85 2.63 5.85 5.85v377.43c0 2.65 2.15 4.81 4.81 4.81h74.37v1.04zm0 7.63h-79.25c-3.23 0-5.85-2.63-5.85-5.85V277.3c0-2.65-2.16-4.8-4.81-4.8H80.12v-1.05h29.84c3.23 0 5.85 2.63 5.85 5.85v377.44c0 2.65 2.16 4.8 4.81 4.8h79.25v1.05z"/><path id="Path 3" class="shp1" d="M411.25 651.46H199.87v31.37h211.38v-31.37z"/><path id="Path 4" class="shp0" d="M411.25 651.46h42.87v31.37h-42.87v-31.37z"/><path id="Path 5" class="shp2" d="M411.25 651.46H185.57V97.36h225.68v554.1z"/><path id="Path 6" class="shp1" d="M449.47 92.62H204.52v4.74h244.95v-4.74zm-38.22 558.84h57.17V97.36h-57.17v554.1zm-6.73-486.74H192.29V104h212.23v60.72zm0 479.77H192.29v-60.72h212.23v60.72zm0-68.54H192.29v-60.72h212.23v60.72zm0-68.54H192.29v-60.72h212.23v60.72zm0-68.54H192.29v-60.72h212.23v60.72zm0-68.54H192.29v-60.71h212.23v60.71zm0-68.54H192.29v-60.71h212.23v60.71zm0-68.54H192.29v-60.71h212.23v60.71z"/><path id="Path 7" class="shp3" d="M387.37 156.04H346c-4.87 0-8.85-3.98-8.85-8.85v-25.66c0-4.87 3.98-8.86 8.85-8.86h41.37c4.87 0 8.86 3.99 8.86 8.86v25.66c0 4.87-3.99 8.85-8.86 8.85z"/><path id="Path 8" class="shp2" d="M378.23 137.24v-5.77c0-1.46 1.19-2.65 2.66-2.65h5.79c1.46 0 2.65 1.19 2.65 2.65v5.77c0 1.47-1.19 2.66-2.65 2.66h-5.79c-1.47 0-2.66-1.19-2.66-2.66z"/><path id="Path 9" class="shp3" d="M387.37 224.58H346c-4.87 0-8.85-3.98-8.85-8.85v-25.66c0-4.87 3.98-8.86 8.85-8.86h41.37c4.87 0 8.86 3.99 8.86 8.86v25.66c0 4.87-3.99 8.85-8.86 8.85z"/><path id="Path 10" class="shp2" d="M378.23 205.78v-5.77a2.65 2.65 0 012.66-2.65h5.79c1.46 0 2.65 1.18 2.65 2.65v5.77c0 1.47-1.19 2.66-2.65 2.66h-5.79c-1.47 0-2.66-1.19-2.66-2.66zm0 68.54v-5.77c0-1.47 1.19-2.66 2.66-2.66h5.79c1.46 0 2.65 1.19 2.65 2.66v5.77c0 1.47-1.19 2.66-2.65 2.66h-5.79c-1.47 0-2.66-1.19-2.66-2.66zm0 68.54v-5.77c0-1.47 1.19-2.66 2.66-2.66h5.79c1.46 0 2.65 1.19 2.65 2.66v5.77c0 1.47-1.19 2.65-2.65 2.65h-5.79a2.65 2.65 0 01-2.66-2.65zm0 68.54v-5.77c0-1.47 1.19-2.66 2.66-2.66h5.79c1.46 0 2.65 1.19 2.65 2.66v5.77c0 1.46-1.19 2.65-2.65 2.65h-5.79c-1.47 0-2.66-1.19-2.66-2.65zm0 68.54v-5.78c0-1.46 1.19-2.65 2.66-2.65h5.79c1.46 0 2.65 1.19 2.65 2.65v5.78c0 1.46-1.19 2.65-2.65 2.65h-5.79c-1.47 0-2.66-1.19-2.66-2.65zm0 68.53v-5.77c0-1.46 1.19-2.65 2.66-2.65h5.79c1.46 0 2.65 1.19 2.65 2.65v5.77c0 1.47-1.19 2.66-2.65 2.66h-5.79c-1.47 0-2.66-1.19-2.66-2.66zm0 68.54v-5.77a2.65 2.65 0 012.66-2.65h5.79c1.46 0 2.65 1.18 2.65 2.65v5.77c0 1.47-1.19 2.66-2.65 2.66h-5.79c-1.47 0-2.66-1.19-2.66-2.66zm-17.09-479.77v-5.77c0-1.46 1.19-2.65 2.65-2.65h5.79c1.47 0 2.66 1.19 2.66 2.65v5.77c0 1.47-1.19 2.66-2.66 2.66h-5.79c-1.46 0-2.65-1.19-2.65-2.66zm0 68.54v-5.77c0-1.47 1.19-2.65 2.65-2.65h5.79a2.65 2.65 0 012.66 2.65v5.77c0 1.47-1.19 2.66-2.66 2.66h-5.79c-1.46 0-2.65-1.19-2.65-2.66zm0 68.54v-5.77c0-1.47 1.19-2.66 2.65-2.66h5.79c1.47 0 2.66 1.19 2.66 2.66v5.77c0 1.47-1.19 2.66-2.66 2.66h-5.79c-1.46 0-2.65-1.19-2.65-2.66zm0 68.54v-5.77c0-1.47 1.19-2.66 2.65-2.66h5.79c1.47 0 2.66 1.19 2.66 2.66v5.77a2.65 2.65 0 01-2.66 2.65h-5.79c-1.46 0-2.65-1.18-2.65-2.65zm0 68.54v-5.77c0-1.47 1.19-2.66 2.65-2.66h5.79c1.47 0 2.66 1.19 2.66 2.66v5.77c0 1.46-1.19 2.65-2.66 2.65h-5.79c-1.46 0-2.65-1.19-2.65-2.65zm0 68.54v-5.78c0-1.46 1.19-2.65 2.65-2.65h5.79c1.47 0 2.66 1.19 2.66 2.65v5.78c0 1.46-1.19 2.65-2.66 2.65h-5.79c-1.46 0-2.65-1.19-2.65-2.65zm0 68.53v-5.77c0-1.46 1.19-2.65 2.65-2.65h5.79c1.47 0 2.66 1.19 2.66 2.65v5.77c0 1.47-1.19 2.66-2.66 2.66h-5.79c-1.46 0-2.65-1.19-2.65-2.66zm0 68.54v-5.77c0-1.47 1.19-2.65 2.65-2.65h5.79a2.65 2.65 0 012.66 2.65v5.77c0 1.47-1.19 2.66-2.66 2.66h-5.79c-1.46 0-2.65-1.19-2.65-2.66zm-38.29-482.65c0 3.87-3.14 7-7.01 7-3.87 0-7.01-3.13-7.01-7s3.14-7.01 7.01-7.01c3.87 0 7.01 3.14 7.01 7.01zm-20.02 0c0 3.87-3.14 7-7.01 7-3.87 0-7.01-3.13-7.01-7s3.14-7.01 7.01-7.01c3.87 0 7.01 3.14 7.01 7.01zm-20.03 0c0 3.87-3.13 7-7 7s-7.01-3.13-7.01-7 3.14-7.01 7.01-7.01c3.87 0 7 3.14 7 7.01zm-20.02 0c0 3.87-3.13 7-7 7s-7.01-3.13-7.01-7 3.14-7.01 7.01-7.01c3.87 0 7 3.14 7 7.01zm60.07 68.54c0 3.87-3.14 7-7.01 7-3.87 0-7.01-3.13-7.01-7s3.14-7.01 7.01-7.01c3.87 0 7.01 3.14 7.01 7.01zm-20.02 0c0 3.87-3.14 7-7.01 7-3.87 0-7.01-3.13-7.01-7s3.14-7.01 7.01-7.01c3.87 0 7.01 3.14 7.01 7.01zm-20.03 0c0 3.87-3.13 7-7 7s-7.01-3.13-7.01-7 3.14-7.01 7.01-7.01c3.87 0 7 3.14 7 7.01zm-20.02 0c0 3.87-3.13 7-7 7s-7.01-3.13-7.01-7 3.14-7.01 7.01-7.01c3.87 0 7 3.14 7 7.01zm60.07 68.54c0 3.86-3.14 7-7.01 7-3.87 0-7.01-3.14-7.01-7 0-3.88 3.14-7.01 7.01-7.01 3.87 0 7.01 3.13 7.01 7.01zm-20.02 0c0 3.86-3.14 7-7.01 7-3.87 0-7.01-3.14-7.01-7 0-3.88 3.14-7.01 7.01-7.01 3.87 0 7.01 3.13 7.01 7.01zm-20.03 0c0 3.86-3.13 7-7 7s-7.01-3.14-7.01-7c0-3.88 3.14-7.01 7.01-7.01 3.87 0 7 3.13 7 7.01zm-20.02 0c0 3.86-3.13 7-7 7s-7.01-3.14-7.01-7c0-3.88 3.14-7.01 7.01-7.01 3.87 0 7 3.13 7 7.01zm60.07 68.53c0 3.87-3.14 7.01-7.01 7.01-3.87 0-7.01-3.14-7.01-7.01 0-3.87 3.14-7 7.01-7 3.87 0 7.01 3.13 7.01 7zm-20.02 0c0 3.87-3.14 7.01-7.01 7.01-3.87 0-7.01-3.14-7.01-7.01 0-3.87 3.14-7 7.01-7 3.87 0 7.01 3.13 7.01 7zm-20.03 0c0 3.87-3.13 7.01-7 7.01s-7.01-3.14-7.01-7.01c0-3.87 3.14-7 7.01-7 3.87 0 7 3.13 7 7zm-20.02 0c0 3.87-3.13 7.01-7 7.01s-7.01-3.14-7.01-7.01c0-3.87 3.14-7 7.01-7 3.87 0 7 3.13 7 7zm60.07 68.54c0 3.87-3.14 7.01-7.01 7.01-3.87 0-7.01-3.14-7.01-7.01 0-3.87 3.14-7.01 7.01-7.01 3.87 0 7.01 3.14 7.01 7.01zm-20.02 0c0 3.87-3.14 7.01-7.01 7.01-3.87 0-7.01-3.14-7.01-7.01 0-3.87 3.14-7.01 7.01-7.01 3.87 0 7.01 3.14 7.01 7.01zm-20.03 0c0 3.87-3.13 7.01-7 7.01s-7.01-3.14-7.01-7.01c0-3.87 3.14-7.01 7.01-7.01 3.87 0 7 3.14 7 7.01zm-20.02 0c0 3.87-3.13 7.01-7 7.01s-7.01-3.14-7.01-7.01c0-3.87 3.14-7.01 7.01-7.01 3.87 0 7 3.14 7 7.01zm60.07 68.54c0 3.87-3.14 7.01-7.01 7.01-3.87 0-7.01-3.14-7.01-7.01 0-3.87 3.14-7.01 7.01-7.01 3.87 0 7.01 3.14 7.01 7.01zm-20.02 0c0 3.87-3.14 7.01-7.01 7.01-3.87 0-7.01-3.14-7.01-7.01 0-3.87 3.14-7.01 7.01-7.01 3.87 0 7.01 3.14 7.01 7.01zm-20.03 0c0 3.87-3.13 7.01-7 7.01s-7.01-3.14-7.01-7.01c0-3.87 3.14-7.01 7.01-7.01 3.87 0 7 3.14 7 7.01zm-20.02 0c0 3.87-3.13 7.01-7 7.01s-7.01-3.14-7.01-7.01c0-3.87 3.14-7.01 7.01-7.01 3.87 0 7 3.14 7 7.01zm60.07 68.54c0 3.87-3.14 7-7.01 7-3.87 0-7.01-3.13-7.01-7s3.14-7.01 7.01-7.01c3.87 0 7.01 3.14 7.01 7.01zm-20.02 0c0 3.87-3.14 7-7.01 7-3.87 0-7.01-3.13-7.01-7s3.14-7.01 7.01-7.01c3.87 0 7.01 3.14 7.01 7.01zm-20.03 0c0 3.87-3.13 7-7 7s-7.01-3.13-7.01-7 3.14-7.01 7.01-7.01c3.87 0 7 3.14 7 7.01zm-20.02 0c0 3.87-3.13 7-7 7s-7.01-3.13-7.01-7 3.14-7.01 7.01-7.01c3.87 0 7 3.14 7 7.01zm60.07 68.54c0 3.87-3.14 7-7.01 7-3.87 0-7.01-3.13-7.01-7s3.14-7.01 7.01-7.01c3.87 0 7.01 3.14 7.01 7.01zm-20.02 0c0 3.87-3.14 7-7.01 7-3.87 0-7.01-3.13-7.01-7s3.14-7.01 7.01-7.01c3.87 0 7.01 3.14 7.01 7.01zm-20.03 0c0 3.87-3.13 7-7 7s-7.01-3.13-7.01-7 3.14-7.01 7.01-7.01c3.87 0 7 3.14 7 7.01zm-20.02 0c0 3.87-3.13 7-7 7s-7.01-3.13-7.01-7 3.14-7.01 7.01-7.01c3.87 0 7 3.14 7 7.01z"/><path id="Path 11" class="shp0" d="M234.8 134.36c0 8.38-6.79 15.18-15.18 15.18-8.38 0-15.17-6.8-15.17-15.18 0-8.38 6.79-15.18 15.17-15.18 8.39 0 15.18 6.8 15.18 15.18zm0 68.54c0 8.38-6.79 15.18-15.18 15.18-8.38 0-15.17-6.8-15.17-15.18 0-8.39 6.79-15.18 15.17-15.18 8.39 0 15.18 6.79 15.18 15.18zm0 68.54c0 8.38-6.79 15.17-15.18 15.17-8.38 0-15.17-6.79-15.17-15.17 0-8.39 6.79-15.18 15.17-15.18 8.39 0 15.18 6.79 15.18 15.18zm0 68.53c0 8.39-6.79 15.18-15.18 15.18-8.38 0-15.17-6.79-15.17-15.18 0-8.38 6.79-15.18 15.17-15.18 8.39 0 15.18 6.8 15.18 15.18zm0 68.54c0 8.38-6.79 15.18-15.18 15.18-8.38 0-15.17-6.8-15.17-15.18 0-8.38 6.79-15.18 15.17-15.18 8.39 0 15.18 6.8 15.18 15.18zm0 68.54c0 8.38-6.79 15.18-15.18 15.18-8.38 0-15.17-6.8-15.17-15.18 0-8.38 6.79-15.18 15.17-15.18 8.39 0 15.18 6.8 15.18 15.18zm0 68.54c0 8.38-6.79 15.18-15.18 15.18-8.38 0-15.17-6.8-15.17-15.18 0-8.39 6.79-15.18 15.17-15.18 8.39 0 15.18 6.79 15.18 15.18zm0 68.54c0 8.38-6.79 15.17-15.18 15.17-8.38 0-15.17-6.79-15.17-15.17 0-8.39 6.79-15.18 15.17-15.18 8.39 0 15.18 6.79 15.18 15.18z"/><path id="Path 12" class="shp1" d="M818.07 654.06H573.68v28.77h244.39v-28.77z"/><path id="Path 13" class="shp0" d="M818.07 654.06h40.71v28.77h-40.71v-28.77z"/><path id="Path 14" class="shp2" d="M818.07 654.06H560.1V145.84h257.97v508.22z"/><path id="Path 15" class="shp1" d="M854.36 141.5H578.1v4.34h276.26v-4.34zm-36.29 512.56h54.28V145.84h-54.28v508.22zM566.49 207.62h245.19v-55.69H566.49v55.69zm0 440.04h245.19v-55.69H566.49v55.69zm0-62.86h245.19v-55.69H566.49v55.69zm0-62.87h245.19v-55.68H566.49v55.68zm0-62.86h245.19v-55.69H566.49v55.69zm0-62.86h245.19v-55.69H566.49v55.69zm0-62.86h245.19v-55.69H566.49v55.69zm0-62.87h245.19V214.8H566.49v55.68z"/><path id="Path 16" class="shp0" d="M582.63 199.67h118.04c4.54 0 8.26-3.72 8.26-8.27v-23.25c0-4.54-3.72-8.26-8.26-8.26H582.63c-4.55 0-8.27 3.72-8.27 8.26v23.25c0 4.55 3.72 8.27 8.27 8.27z"/><path id="Path 17" class="shp2" d="M591.45 182.38v-5.21a2.48 2.48 0 00-2.48-2.48h-5.58a2.48 2.48 0 00-2.48 2.48v5.21a2.48 2.48 0 002.48 2.48h5.58a2.48 2.48 0 002.48-2.48z"/><path id="Path 18" class="shp0" d="M582.63 262.53h118.04c4.54 0 8.26-3.72 8.26-8.27v-23.25c0-4.54-3.72-8.26-8.26-8.26H582.63c-4.55 0-8.27 3.72-8.27 8.26v23.25c0 4.55 3.72 8.27 8.27 8.27z"/><path id="Path 19" class="shp2" d="M591.45 245.24v-5.2a2.48 2.48 0 00-2.48-2.48h-5.58a2.48 2.48 0 00-2.48 2.48v5.2a2.48 2.48 0 002.48 2.48h5.58a2.48 2.48 0 002.48-2.48z"/><path id="Path 20" class="shp0" d="M582.63 325.39h118.04c4.54 0 8.26-3.72 8.26-8.26v-23.25c0-4.55-3.72-8.27-8.26-8.27H582.63c-4.55 0-8.27 3.72-8.27 8.27v23.25c0 4.54 3.72 8.26 8.27 8.26z"/><path id="Path 21" class="shp2" d="M591.45 308.11v-5.21a2.48 2.48 0 00-2.48-2.48h-5.58a2.48 2.48 0 00-2.48 2.48v5.21a2.48 2.48 0 002.48 2.48h5.58a2.48 2.48 0 002.48-2.48z"/><path id="Path 22" class="shp0" d="M582.63 388.25h118.04c4.54 0 8.26-3.71 8.26-8.26v-23.25c0-4.55-3.72-8.26-8.26-8.26H582.63c-4.55 0-8.27 3.71-8.27 8.26v23.25c0 4.55 3.72 8.26 8.27 8.26z"/><path id="Path 23" class="shp2" d="M591.45 370.97v-5.21a2.48 2.48 0 00-2.48-2.48h-5.58a2.48 2.48 0 00-2.48 2.48v5.21a2.48 2.48 0 002.48 2.48h5.58a2.48 2.48 0 002.48-2.48z"/><path id="Path 24" class="shp0" d="M582.63 451.12h118.04c4.54 0 8.26-3.72 8.26-8.27V419.6c0-4.54-3.72-8.26-8.26-8.26H582.63c-4.55 0-8.27 3.72-8.27 8.26v23.25c0 4.55 3.72 8.27 8.27 8.27z"/><path id="Path 25" class="shp2" d="M591.45 433.83v-5.21c0-1.37-1.11-2.47-2.48-2.47h-5.58c-1.37 0-2.48 1.1-2.48 2.47v5.21a2.48 2.48 0 002.48 2.48h5.58a2.48 2.48 0 002.48-2.48z"/><path id="Path 26" class="shp0" d="M582.63 513.98h118.04c4.54 0 8.26-3.72 8.26-8.27v-23.25c0-4.54-3.72-8.26-8.26-8.26H582.63c-4.55 0-8.27 3.72-8.27 8.26v23.25c0 4.55 3.72 8.27 8.27 8.27z"/><path id="Path 27" class="shp2" d="M591.45 496.69v-5.2a2.48 2.48 0 00-2.48-2.48h-5.58a2.48 2.48 0 00-2.48 2.48v5.2a2.48 2.48 0 002.48 2.48h5.58a2.48 2.48 0 002.48-2.48z"/><path id="Path 28" class="shp0" d="M582.63 576.84h118.04c4.54 0 8.26-3.72 8.26-8.26v-23.25c0-4.55-3.72-8.27-8.26-8.27H582.63c-4.55 0-8.27 3.72-8.27 8.27v23.25c0 4.54 3.72 8.26 8.27 8.26z"/><path id="Path 29" class="shp2" d="M591.45 559.56v-5.21a2.48 2.48 0 00-2.48-2.48h-5.58a2.48 2.48 0 00-2.48 2.48v5.21c0 1.37 1.11 2.47 2.48 2.47h5.58c1.37 0 2.48-1.1 2.48-2.47z"/><path id="Path 30" class="shp0" d="M582.63 639.71h118.04c4.54 0 8.26-3.72 8.26-8.27v-23.25c0-4.54-3.72-8.26-8.26-8.26H582.63c-4.55 0-8.27 3.72-8.27 8.26v23.25c0 4.55 3.72 8.27 8.27 8.27z"/><path id="Path 31" class="shp2" d="M591.45 622.42v-5.21a2.48 2.48 0 00-2.48-2.48h-5.58a2.48 2.48 0 00-2.48 2.48v5.21a2.48 2.48 0 002.48 2.48h5.58a2.48 2.48 0 002.48-2.48zm16.23-440.04v-5.21a2.48 2.48 0 00-2.48-2.48h-5.58a2.48 2.48 0 00-2.48 2.48v5.21a2.48 2.48 0 002.48 2.48h5.58a2.48 2.48 0 002.48-2.48zm0 62.86v-5.2a2.48 2.48 0 00-2.48-2.48h-5.58a2.48 2.48 0 00-2.48 2.48v5.2a2.48 2.48 0 002.48 2.48h5.58a2.48 2.48 0 002.48-2.48zm0 62.87v-5.21a2.48 2.48 0 00-2.48-2.48h-5.58a2.48 2.48 0 00-2.48 2.48v5.21a2.48 2.48 0 002.48 2.48h5.58a2.48 2.48 0 002.48-2.48zm0 62.86v-5.21a2.48 2.48 0 00-2.48-2.48h-5.58a2.48 2.48 0 00-2.48 2.48v5.21a2.48 2.48 0 002.48 2.48h5.58a2.48 2.48 0 002.48-2.48zm0 62.86v-5.21c0-1.37-1.11-2.47-2.48-2.47h-5.58c-1.37 0-2.48 1.1-2.48 2.47v5.21a2.48 2.48 0 002.48 2.48h5.58a2.48 2.48 0 002.48-2.48zm0 62.86v-5.2a2.48 2.48 0 00-2.48-2.48h-5.58a2.48 2.48 0 00-2.48 2.48v5.2a2.48 2.48 0 002.48 2.48h5.58a2.48 2.48 0 002.48-2.48zm0 62.87v-5.21a2.48 2.48 0 00-2.48-2.48h-5.58a2.48 2.48 0 00-2.48 2.48v5.21c0 1.37 1.11 2.47 2.48 2.47h5.58c1.37 0 2.48-1.1 2.48-2.47zm0 62.86v-5.21a2.48 2.48 0 00-2.48-2.48h-5.58a2.48 2.48 0 00-2.48 2.48v5.21a2.48 2.48 0 002.48 2.48h5.58a2.48 2.48 0 002.48-2.48zm16.23-440.04v-5.21a2.48 2.48 0 00-2.48-2.48h-5.58c-1.36 0-2.47 1.11-2.47 2.48v5.21c0 1.37 1.11 2.48 2.47 2.48h5.58a2.48 2.48 0 002.48-2.48zm0 62.86v-5.2a2.48 2.48 0 00-2.48-2.48h-5.58c-1.36 0-2.47 1.11-2.47 2.48v5.2c0 1.37 1.11 2.48 2.47 2.48h5.58a2.48 2.48 0 002.48-2.48zm0 62.87v-5.21a2.48 2.48 0 00-2.48-2.48h-5.58c-1.36 0-2.47 1.11-2.47 2.48v5.21c0 1.37 1.11 2.48 2.47 2.48h5.58a2.48 2.48 0 002.48-2.48zm0 62.86v-5.21a2.48 2.48 0 00-2.48-2.48h-5.58c-1.36 0-2.47 1.11-2.47 2.48v5.21c0 1.37 1.11 2.48 2.47 2.48h5.58a2.48 2.48 0 002.48-2.48zm0 62.86v-5.21c0-1.37-1.11-2.47-2.48-2.47h-5.58c-1.36 0-2.47 1.1-2.47 2.47v5.21c0 1.37 1.11 2.48 2.47 2.48h5.58a2.48 2.48 0 002.48-2.48zm0 62.86v-5.2a2.48 2.48 0 00-2.48-2.48h-5.58c-1.36 0-2.47 1.11-2.47 2.48v5.2c0 1.37 1.11 2.48 2.47 2.48h5.58a2.48 2.48 0 002.48-2.48zm0 62.87v-5.21a2.48 2.48 0 00-2.48-2.48h-5.58c-1.36 0-2.47 1.11-2.47 2.48v5.21c0 1.37 1.11 2.47 2.47 2.47h5.58c1.37 0 2.48-1.1 2.48-2.47zm0 62.86v-5.21a2.48 2.48 0 00-2.48-2.48h-5.58c-1.36 0-2.47 1.11-2.47 2.48v5.21c0 1.37 1.11 2.48 2.47 2.48h5.58a2.48 2.48 0 002.48-2.48zm16.24-440.04v-5.21c0-1.37-1.12-2.48-2.49-2.48h-5.58c-1.37 0-2.47 1.11-2.47 2.48v5.21c0 1.37 1.1 2.48 2.47 2.48h5.58c1.37 0 2.49-1.11 2.49-2.48zm0 62.86v-5.2c0-1.37-1.12-2.48-2.49-2.48h-5.58c-1.37 0-2.47 1.11-2.47 2.48v5.2c0 1.37 1.1 2.48 2.47 2.48h5.58c1.37 0 2.49-1.11 2.49-2.48zm0 62.87v-5.21c0-1.37-1.12-2.48-2.49-2.48h-5.58c-1.37 0-2.47 1.11-2.47 2.48v5.21c0 1.37 1.1 2.48 2.47 2.48h5.58c1.37 0 2.49-1.11 2.49-2.48zm0 62.86v-5.21c0-1.37-1.12-2.48-2.49-2.48h-5.58c-1.37 0-2.47 1.11-2.47 2.48v5.21c0 1.37 1.1 2.48 2.47 2.48h5.58c1.37 0 2.49-1.11 2.49-2.48zm0 62.86v-5.21a2.48 2.48 0 00-2.49-2.47h-5.58c-1.37 0-2.47 1.1-2.47 2.47v5.21c0 1.37 1.1 2.48 2.47 2.48h5.58c1.37 0 2.49-1.11 2.49-2.48zm0 62.86v-5.2c0-1.37-1.12-2.48-2.49-2.48h-5.58c-1.37 0-2.47 1.11-2.47 2.48v5.2c0 1.37 1.1 2.48 2.47 2.48h5.58c1.37 0 2.49-1.11 2.49-2.48zm0 62.87v-5.21c0-1.37-1.12-2.48-2.49-2.48h-5.58c-1.37 0-2.47 1.11-2.47 2.48v5.21c0 1.37 1.1 2.47 2.47 2.47h5.58c1.37 0 2.49-1.1 2.49-2.47zm0 62.86v-5.21c0-1.37-1.12-2.48-2.49-2.48h-5.58c-1.37 0-2.47 1.11-2.47 2.48v5.21c0 1.37 1.1 2.48 2.47 2.48h5.58c1.37 0 2.49-1.11 2.49-2.48zm82.36-442.64c0 3.55 2.98 6.42 6.65 6.42 3.68 0 6.65-2.87 6.65-6.42s-2.97-6.43-6.65-6.43c-3.67 0-6.65 2.88-6.65 6.43zm19.01 0c0 3.55 2.98 6.42 6.65 6.42 3.68 0 6.65-2.87 6.65-6.42s-2.97-6.43-6.65-6.43c-3.67 0-6.65 2.88-6.65 6.43zm19.01 0c0 3.55 2.97 6.42 6.65 6.42 3.67 0 6.65-2.87 6.65-6.42s-2.98-6.43-6.65-6.43c-3.68 0-6.65 2.88-6.65 6.43zm19.01 0c0 3.55 2.97 6.42 6.65 6.42 3.67 0 6.65-2.87 6.65-6.42s-2.98-6.43-6.65-6.43c-3.68 0-6.65 2.88-6.65 6.43zm-57.03 62.86c0 3.55 2.98 6.42 6.65 6.42 3.68 0 6.65-2.87 6.65-6.42s-2.97-6.43-6.65-6.43c-3.67 0-6.65 2.88-6.65 6.43zm19.01 0c0 3.55 2.98 6.42 6.65 6.42 3.68 0 6.65-2.87 6.65-6.42s-2.97-6.43-6.65-6.43c-3.67 0-6.65 2.88-6.65 6.43zm19.01 0c0 3.55 2.97 6.42 6.65 6.42 3.67 0 6.65-2.87 6.65-6.42s-2.98-6.43-6.65-6.43c-3.68 0-6.65 2.88-6.65 6.43zm19.01 0c0 3.55 2.97 6.42 6.65 6.42 3.67 0 6.65-2.87 6.65-6.42s-2.98-6.43-6.65-6.43c-3.68 0-6.65 2.88-6.65 6.43zm-57.03 62.86c0 3.55 2.98 6.43 6.65 6.43 3.68 0 6.65-2.88 6.65-6.43s-2.97-6.42-6.65-6.42c-3.67 0-6.65 2.87-6.65 6.42zm19.01 0c0 3.55 2.98 6.43 6.65 6.43 3.68 0 6.65-2.88 6.65-6.43s-2.97-6.42-6.65-6.42c-3.67 0-6.65 2.87-6.65 6.42zm19.01 0c0 3.55 2.97 6.43 6.65 6.43 3.67 0 6.65-2.88 6.65-6.43s-2.98-6.42-6.65-6.42c-3.68 0-6.65 2.87-6.65 6.42zm19.01 0c0 3.55 2.97 6.43 6.65 6.43 3.67 0 6.65-2.88 6.65-6.43s-2.98-6.42-6.65-6.42c-3.68 0-6.65 2.87-6.65 6.42zm-57.03 62.86c0 3.55 2.98 6.43 6.65 6.43 3.68 0 6.65-2.88 6.65-6.43s-2.97-6.42-6.65-6.42c-3.67 0-6.65 2.87-6.65 6.42zm19.01 0c0 3.55 2.98 6.43 6.65 6.43 3.68 0 6.65-2.88 6.65-6.43s-2.97-6.42-6.65-6.42c-3.67 0-6.65 2.87-6.65 6.42zm19.01 0c0 3.55 2.97 6.43 6.65 6.43 3.67 0 6.65-2.88 6.65-6.43s-2.98-6.42-6.65-6.42c-3.68 0-6.65 2.87-6.65 6.42zm19.01 0c0 3.55 2.97 6.43 6.65 6.43 3.67 0 6.65-2.88 6.65-6.43s-2.98-6.42-6.65-6.42c-3.68 0-6.65 2.87-6.65 6.42zm-57.03 62.87c0 3.55 2.98 6.42 6.65 6.42 3.68 0 6.65-2.87 6.65-6.42s-2.97-6.43-6.65-6.43c-3.67 0-6.65 2.88-6.65 6.43zm19.01 0c0 3.55 2.98 6.42 6.65 6.42 3.68 0 6.65-2.87 6.65-6.42s-2.97-6.43-6.65-6.43c-3.67 0-6.65 2.88-6.65 6.43zm19.01 0c0 3.55 2.97 6.42 6.65 6.42 3.67 0 6.65-2.87 6.65-6.42s-2.98-6.43-6.65-6.43c-3.68 0-6.65 2.88-6.65 6.43zm19.01 0c0 3.55 2.97 6.42 6.65 6.42 3.67 0 6.65-2.87 6.65-6.42s-2.98-6.43-6.65-6.43c-3.68 0-6.65 2.88-6.65 6.43zm-57.03 62.86c0 3.55 2.98 6.43 6.65 6.43 3.68 0 6.65-2.88 6.65-6.43s-2.97-6.43-6.65-6.43c-3.67 0-6.65 2.88-6.65 6.43zm19.01 0c0 3.55 2.98 6.43 6.65 6.43 3.68 0 6.65-2.88 6.65-6.43s-2.97-6.43-6.65-6.43c-3.67 0-6.65 2.88-6.65 6.43zm19.01 0c0 3.55 2.97 6.43 6.65 6.43 3.67 0 6.65-2.88 6.65-6.43s-2.98-6.43-6.65-6.43c-3.68 0-6.65 2.88-6.65 6.43zm19.01 0c0 3.55 2.97 6.43 6.65 6.43 3.67 0 6.65-2.88 6.65-6.43s-2.98-6.43-6.65-6.43c-3.68 0-6.65 2.88-6.65 6.43zm-57.03 62.86c0 3.55 2.98 6.43 6.65 6.43 3.68 0 6.65-2.88 6.65-6.43s-2.97-6.42-6.65-6.42c-3.67 0-6.65 2.87-6.65 6.42zm19.01 0c0 3.55 2.98 6.43 6.65 6.43 3.68 0 6.65-2.88 6.65-6.43s-2.97-6.42-6.65-6.42c-3.67 0-6.65 2.87-6.65 6.42zm19.01 0c0 3.55 2.97 6.43 6.65 6.43 3.67 0 6.65-2.88 6.65-6.43s-2.98-6.42-6.65-6.42c-3.68 0-6.65 2.87-6.65 6.42zm19.01 0c0 3.55 2.97 6.43 6.65 6.43 3.67 0 6.65-2.88 6.65-6.43s-2.98-6.42-6.65-6.42c-3.68 0-6.65 2.87-6.65 6.42zm-57.03 62.87c0 3.54 2.98 6.42 6.65 6.42 3.68 0 6.65-2.88 6.65-6.42 0-3.55-2.97-6.43-6.65-6.43-3.67 0-6.65 2.88-6.65 6.43zm19.01 0c0 3.54 2.98 6.42 6.65 6.42 3.68 0 6.65-2.88 6.65-6.42 0-3.55-2.97-6.43-6.65-6.43-3.67 0-6.65 2.88-6.65 6.43zm19.01 0c0 3.54 2.97 6.42 6.65 6.42 3.67 0 6.65-2.88 6.65-6.42 0-3.55-2.98-6.43-6.65-6.43-3.68 0-6.65 2.88-6.65 6.43zm19.01 0c0 3.54 2.97 6.42 6.65 6.42 3.67 0 6.65-2.88 6.65-6.42 0-3.55-2.98-6.43-6.65-6.43-3.68 0-6.65 2.88-6.65 6.43z"/><path id="Path 32" d="M924.77 753.33c0 13.02-180.85 23.58-403.94 23.58-223.08 0-403.93-10.56-403.93-23.58 0-13.03 180.85-23.6 403.93-23.6 223.09 0 403.94 10.57 403.94 23.6z" fill="#eaf5fc"/><path id="Path 33" class="shp5" d="M491.28 727.41H247.67v27.8h243.61v-27.8z"/><path id="Path 34" d="M260.1 751.26H254v-19.89h6.1v19.89zm10.72 0h-6.1v-19.89h6.1v19.89zm10.71 0h-6.1v-19.89h6.1v19.89zm10.71 0h-6.1v-19.89h6.1v19.89zm10.71 0h-6.09v-19.89h6.09v19.89zm10.72 0h-6.1v-19.89h6.1v19.89zm10.71 0h-6.1v-19.89h6.1v19.89zm10.71 0H329v-19.89h6.09v19.89zm10.72 0h-6.1v-19.89h6.1v19.89zm10.71 0h-6.1v-19.89h6.1v19.89zm10.71 0h-6.09v-19.89h6.09v19.89zm10.72 0h-6.1v-19.89h6.1v19.89zm10.71 0h-6.1v-19.89h6.1v19.89zm10.71 0h-6.09v-19.89h6.09v19.89zm10.72 0h-6.1v-19.89h6.1v19.89zm10.71 0h-6.1v-19.89h6.1v19.89zm10.71 0h-6.1v-19.89h6.1v19.89zm10.72 0h-6.1v-19.89h6.1v19.89zm10.71 0h-6.1v-19.89h6.1v19.89zm10.71 0h-6.1v-19.89h6.1v19.89zm10.71 0h-6.09v-19.89h6.09v19.89zm10.72 0h-6.1v-19.89h6.1v19.89z" fill="#0d50ab"/><path id="Path 35" d="M491.28 727.41h38v27.8h-38v-27.8z" fill="#0f58af"/><path id="Path 36" class="shp8" d="M491.28 727.41H234.99V236.26h256.29v491.15z"/><path id="Path 37" d="M525.16 232.06H251.79v4.2h273.37v-4.2z" fill="#1971be"/><path id="Path 38" class="shp10" d="M226.91 485.83h-2.08v-20.7h2.08v20.7zm0 60.75h-2.08v-53.82h2.08v53.82zm264.37 180.83h50.68V236.26h-50.68v491.15z"/><path id="Path 39" d="M478.51 414.93H454.9v-48.74h23.61c3.76 0 6.81 3.05 6.81 6.81v35.12c0 3.76-3.05 6.81-6.81 6.81z" fill="#256dbb"/><path id="Path 40" class="shp10" d="M464.74 384l-9.84-20.35v53.82H485.32v-26.91h-10.11c-4.46 0-8.52-2.55-10.47-6.56z"/><path id="Path 41" d="M485.32 295.96H240.95v-53.81h244.37v53.81zm0 425.27H240.95v-53.82h244.37v53.82zm0-60.76H240.95v-53.81h244.37v53.81zm0-60.74H240.95v-53.82h244.37v53.82zm0-60.76H240.95v-53.81h244.37v53.81zm0-60.75H240.95V424.4h244.37v53.82zm-30.42-60.75H210.54v-53.82H454.9v53.82zm30.42-60.75H240.95V302.9h244.37v53.82z" fill="#3a98d3"/><path id="Path 42" class="shp10" d="M470.11 288.28H377.2c-4.32 0-7.85-3.53-7.85-7.85v-22.74c0-4.32 3.53-7.85 7.85-7.85h92.91c4.32 0 7.85 3.53 7.85 7.85v22.74c0 4.32-3.53 7.85-7.85 7.85z"/><path id="Path 43" class="shp13" d="M460.32 273.97h-30.11c-1.83 0-3.32-1.49-3.32-3.33v-3.16c0-1.84 1.49-3.34 3.32-3.34h30.11c1.84 0 3.33 1.5 3.33 3.34v3.16c0 1.84-1.49 3.33-3.33 3.33z"/><path id="Path 44" class="shp10" d="M470.11 349.03H377.2c-4.32 0-7.85-3.53-7.85-7.85v-22.74c0-4.32 3.53-7.85 7.85-7.85h92.91c4.32 0 7.85 3.53 7.85 7.85v22.74c0 4.32-3.53 7.85-7.85 7.85z"/><path id="Path 45" class="shp13" d="M460.32 334.72h-30.11c-1.83 0-3.32-1.49-3.32-3.33v-3.16c0-1.84 1.49-3.33 3.32-3.33h30.11c1.84 0 3.33 1.49 3.33 3.33v3.16c0 1.84-1.49 3.33-3.33 3.33z"/><path id="Path 46" class="shp10" d="M439.7 409.78h-92.92c-4.32 0-7.85-3.53-7.85-7.85v-22.74c0-4.32 3.53-7.85 7.85-7.85h92.92c4.31 0 7.85 3.53 7.85 7.85v22.74c0 4.32-3.54 7.85-7.85 7.85z"/><path id="Path 47" class="shp13" d="M429.91 395.47H399.8c-1.84 0-3.33-1.49-3.33-3.33v-3.16c0-1.84 1.49-3.33 3.33-3.33h30.11c1.83 0 3.33 1.49 3.33 3.33v3.16c0 1.84-1.5 3.33-3.33 3.33z"/><path id="Path 48" class="shp10" d="M470.11 470.53H377.2c-4.32 0-7.85-3.53-7.85-7.85v-22.74c0-4.31 3.53-7.85 7.85-7.85h92.91c4.32 0 7.85 3.54 7.85 7.85v22.74c0 4.32-3.53 7.85-7.85 7.85z"/><path id="Path 49" class="shp13" d="M460.32 456.22h-30.11c-1.83 0-3.32-1.49-3.32-3.33v-3.16c0-1.84 1.49-3.33 3.32-3.33h30.11c1.84 0 3.33 1.49 3.33 3.33v3.16c0 1.84-1.49 3.33-3.33 3.33z"/><path id="Path 50" class="shp10" d="M470.11 531.29H377.2c-4.32 0-7.85-3.54-7.85-7.85v-22.75c0-4.31 3.53-7.85 7.85-7.85h92.91c4.32 0 7.85 3.54 7.85 7.85v22.75c0 4.31-3.53 7.85-7.85 7.85z"/><path id="Path 51" class="shp13" d="M460.32 516.98h-30.11c-1.83 0-3.32-1.49-3.32-3.33v-3.17c0-1.84 1.49-3.33 3.32-3.33h30.11c1.84 0 3.33 1.49 3.33 3.33v3.17c0 1.84-1.49 3.33-3.33 3.33z"/><path id="Path 52" class="shp10" d="M470.11 592.04H377.2c-4.32 0-7.85-3.54-7.85-7.85v-22.75c0-4.31 3.53-7.84 7.85-7.84h92.91c4.32 0 7.85 3.53 7.85 7.84v22.75c0 4.31-3.53 7.85-7.85 7.85z"/><path id="Path 53" class="shp13" d="M460.32 577.73h-30.11c-1.83 0-3.32-1.49-3.32-3.33v-3.17c0-1.83 1.49-3.33 3.32-3.33h30.11c1.84 0 3.33 1.5 3.33 3.33v3.17c0 1.84-1.49 3.33-3.33 3.33z"/><path id="Path 54" class="shp10" d="M470.11 652.79H377.2c-4.32 0-7.85-3.53-7.85-7.85V622.2c0-4.32 3.53-7.85 7.85-7.85h92.91c4.32 0 7.85 3.53 7.85 7.85v22.74c0 4.32-3.53 7.85-7.85 7.85z"/><path id="Path 55" class="shp13" d="M460.32 638.48h-30.11c-1.83 0-3.32-1.49-3.32-3.33v-3.16c0-1.84 1.49-3.33 3.32-3.33h30.11c1.84 0 3.33 1.49 3.33 3.33v3.16c0 1.84-1.49 3.33-3.33 3.33z"/><path id="Path 56" class="shp10" d="M470.11 713.54H377.2c-4.32 0-7.85-3.53-7.85-7.85v-22.74c0-4.32 3.53-7.85 7.85-7.85h92.91c4.32 0 7.85 3.53 7.85 7.85v22.74c0 4.32-3.53 7.85-7.85 7.85z"/><path id="Path 57" class="shp13" d="M460.32 699.23h-30.11c-1.83 0-3.32-1.49-3.32-3.33v-3.16c0-1.84 1.49-3.33 3.32-3.33h30.11c1.84 0 3.33 1.49 3.33 3.33v3.16c0 1.84-1.49 3.33-3.33 3.33z"/><path id="Path 58" class="shp10" d="M356.67 269.06a6.21 6.21 0 11-12.42 0 6.21 6.21 0 1112.42 0zm-17.74 0a6.21 6.21 0 11-12.42 0 6.21 6.21 0 1112.42 0z"/><path id="Path 59" class="shp14" d="M321.18 269.06a6.21 6.21 0 11-12.42 0 6.21 6.21 0 1112.42 0z"/><path id="Path 60" class="shp10" d="M303.44 269.06a6.216 6.216 0 01-12.43 0 6.216 6.216 0 0112.43 0zm53.23 60.75a6.21 6.21 0 11-12.42 0 6.21 6.21 0 1112.42 0zm-17.74 0a6.21 6.21 0 11-12.42 0 6.21 6.21 0 1112.42 0zm-17.75 0a6.21 6.21 0 11-12.42 0 6.21 6.21 0 1112.42 0z"/><path id="Path 61" class="shp14" d="M303.44 329.81a6.216 6.216 0 01-12.43 0 6.216 6.216 0 0112.43 0zm22.82 60.75a6.21 6.21 0 11-12.42 0 6.21 6.21 0 1112.42 0z"/><path id="Path 62" class="shp10" d="M308.51 390.56a6.21 6.21 0 11-12.42 0 6.21 6.21 0 1112.42 0z"/><path id="Path 63" class="shp14" d="M290.76 390.56a6.21 6.21 0 11-12.42 0 6.21 6.21 0 1112.42 0z"/><path id="Path 64" class="shp10" d="M273.02 390.56a6.21 6.21 0 11-12.42 0 6.21 6.21 0 1112.42 0z"/><path id="Path 65" class="shp14" d="M356.67 451.31a6.21 6.21 0 11-12.42 0 6.21 6.21 0 1112.42 0zm-17.74 0a6.21 6.21 0 11-12.42 0 6.21 6.21 0 1112.42 0z"/><path id="Path 66" class="shp10" d="M321.18 451.31a6.21 6.21 0 11-12.42 0 6.21 6.21 0 1112.42 0zm-17.74 0a6.216 6.216 0 01-12.43 0 6.216 6.216 0 0112.43 0zm53.23 60.75a6.21 6.21 0 11-12.42 0 6.21 6.21 0 0112.42 0z"/><path id="Path 67" class="shp14" d="M338.93 512.06a6.21 6.21 0 11-12.42 0 6.21 6.21 0 0112.42 0z"/><path id="Path 68" class="shp10" d="M321.18 512.06a6.21 6.21 0 11-12.42 0 6.21 6.21 0 0112.42 0zm-17.74 0a6.216 6.216 0 01-12.43 0c0-3.42 2.79-6.21 6.21-6.21 3.43 0 6.22 2.79 6.22 6.21zm53.23 60.76a6.21 6.21 0 11-12.42 0 6.21 6.21 0 1112.42 0zm-17.74 0a6.21 6.21 0 11-12.42 0 6.21 6.21 0 1112.42 0z"/><path id="Path 69" class="shp14" d="M321.18 572.82a6.21 6.21 0 11-12.42 0 6.21 6.21 0 1112.42 0zm-17.74 0a6.216 6.216 0 01-12.43 0 6.216 6.216 0 0112.43 0zm53.23 60.75a6.21 6.21 0 11-12.42 0 6.21 6.21 0 1112.42 0z"/><path id="Path 70" class="shp10" d="M338.93 633.57a6.21 6.21 0 11-12.42 0 6.21 6.21 0 1112.42 0zm-17.75 0a6.21 6.21 0 11-12.42 0 6.21 6.21 0 1112.42 0zm-17.74 0a6.216 6.216 0 01-12.43 0 6.216 6.216 0 0112.43 0zm53.23 60.75a6.21 6.21 0 11-12.42 0 6.21 6.21 0 1112.42 0zm-17.74 0a6.21 6.21 0 11-12.42 0 6.21 6.21 0 1112.42 0z"/><path id="Path 71" class="shp14" d="M321.18 694.32a6.21 6.21 0 11-12.42 0 6.21 6.21 0 1112.42 0z"/><path id="Path 72" class="shp10" d="M303.44 694.32a6.216 6.216 0 01-12.43 0 6.216 6.216 0 0112.43 0z"/><path id="Path 73" d="M265.18 282.51c-7.43 0-13.45-6.02-13.45-13.45s6.02-13.46 13.45-13.46 13.45 6.03 13.45 13.46c0 7.43-6.02 13.45-13.45 13.45zm0 60.75c-7.43 0-13.45-6.02-13.45-13.45s6.02-13.46 13.45-13.46 13.45 6.03 13.45 13.46c0 7.43-6.02 13.45-13.45 13.45zm-30.42 60.75c-7.43 0-13.45-6.02-13.45-13.45s6.02-13.45 13.45-13.45 13.46 6.02 13.46 13.45-6.03 13.45-13.46 13.45zm30.42 60.76c-7.43 0-13.45-6.03-13.45-13.46 0-7.43 6.02-13.45 13.45-13.45s13.45 6.02 13.45 13.45-6.02 13.46-13.45 13.46zm0 60.75c-7.43 0-13.45-6.03-13.45-13.46 0-7.42 6.02-13.45 13.45-13.45s13.45 6.03 13.45 13.45c0 7.43-6.02 13.46-13.45 13.46zm0 60.75c-7.43 0-13.45-6.02-13.45-13.45s6.02-13.46 13.45-13.46 13.45 6.03 13.45 13.46c0 7.43-6.02 13.45-13.45 13.45zm0 60.75c-7.43 0-13.45-6.02-13.45-13.45s6.02-13.46 13.45-13.46 13.45 6.03 13.45 13.46c0 7.43-6.02 13.45-13.45 13.45zm0 60.75c-7.43 0-13.45-6.02-13.45-13.45s6.02-13.46 13.45-13.46 13.45 6.03 13.45 13.46c0 7.43-6.02 13.45-13.45 13.45z" fill="#51afe0"/><path id="Path 74" class="shp10" d="M463.65 189.24c-1.83-10.32-8.25-19.07-17.06-24.07h-.02c.01-.28.04-.54.04-.81 0-19.22-15.57-34.79-34.78-34.79h-13.32v2.66c-8.87 3.69-15.88 10.96-19.25 20-1.13-.19-2.28-.31-3.46-.31-8.75 0-16.23 5.42-19.3 13.09-4.41-1.02-9.22-.98-14.34 1.07-9.3 3.74-15.89 12.59-16.1 22.61-.29 13.98 10.95 25.41 24.87 25.41h94.2c10.3 0 19.02-8.17 19.08-18.47v-.21c0-2.11-.19-4.18-.56-6.18z"/><path id="Path 75" class="shp8" d="M450.33 189.24c-1.83-10.32-8.25-19.07-17.06-24.07l-.02-.01c.01-.27.04-.53.04-.8 0-19.22-15.57-34.79-34.78-34.79-14.94 0-27.64 9.44-32.57 22.66-1.13-.19-2.28-.31-3.46-.31-8.76 0-16.23 5.42-19.3 13.09-4.41-1.02-9.22-.98-14.33 1.07-9.31 3.74-15.9 12.59-16.11 22.61-.29 13.98 10.95 25.41 24.87 25.41h94.19c10.31 0 19.03-8.17 19.09-18.47v-.21c0-2.11-.19-4.18-.56-6.18z"/><path id="Path 76" class="shp5" d="M401.05 112.9h-1.74v-5.23h1.74v5.23zm49.21-49.22h-10.41v-1.74h10.41v1.74zm20.81 0h-10.4v-1.74h10.4v1.74zm20.81 0h-10.4v-1.74h10.4v1.74zm20.81 0h-10.4v-1.74h10.4v1.74zm20.81 0h-10.4v-1.74h10.4v1.74zm20.81 0h-10.4v-1.74h10.4v1.74zm20.81 0h-10.4v-1.74h10.4v1.74zm20.82 0h-10.41v-1.74h10.41v1.74zm20.81 0h-10.41v-1.74h10.41v1.74zm20.8 0h-10.4v-1.74h10.4v1.74zm20.82 0h-10.41v-1.74h10.41v1.74zm20.81 0h-10.41v-1.74h10.41v1.74zm20.81 0h-10.41v-1.74h10.41v1.74zm-280.55 1.24l-.52-1.66c2.75-.88 5.63-1.32 8.55-1.32h1.98v1.74h-1.98c-2.74 0-5.44.42-8.03 1.24zm300.5 1.59a26.053 26.053 0 00-9.63-2.73l.15-1.74c3.6.31 7.05 1.29 10.27 2.91l-.79 1.56zM404.28 77.43l-1.53-.83c1.73-3.16 4.02-5.93 6.8-8.23l1.11 1.35a26.468 26.468 0 00-6.38 7.71zm328.66 3.83a26.26 26.26 0 00-5.08-8.63l1.31-1.15c2.39 2.71 4.21 5.8 5.42 9.19l-1.65.59zm-331.89 16h-1.74V90.1c0-1.12.07-2.24.2-3.34l1.73.21a25.05 25.05 0 00-.19 3.13v7.16zm335.15 4.33h-1.74v-10.4h1.74v10.4zm0 20.82h-1.74V112h1.74v10.41zm0 20.81h-1.74v-10.41h1.74v10.41zm0 20.81h-1.74v-10.41h1.74v10.41zm0 20.81h-1.74v-10.41h1.74v10.41zm0 20.81h-1.74v-10.41h1.74v10.41zm0 20.81h-1.74v-10.41h1.74v10.41zm0 15.69h-1.74v-5.23h1.74v5.23z"/><path id="Path 77" class="shp16" d="M596.26 739.59h15.3l1.64-35.45h-15.3l-1.64 35.45z"/><path id="Path 78" class="shp17" d="M612.09 737.81h-16.71c-.63 0-1.16.44-1.27 1.05l-2.53 13.6c-.27 1.41.85 2.75 2.3 2.73 6.02-.11 14.72-.46 22.3-.46 8.86 0 10.11.48 20.5.48 6.28 0 7.8-6.35 5.14-6.92-12.06-2.62-15.42-2.9-26-9.28-1.15-.7-2.41-1.2-3.73-1.2z"/><path id="Path 79" class="shp18" d="M613.2 704.15l-.84 18.27h-15.32l.85-18.27h15.31z"/><path id="Path 80" class="shp16" d="M698.84 230.16c-.3 4.81-.63 10.08-.77 15.12-.13 5.1-.27 10.17-.19 15.2.04 5.02.25 10 .68 14.8.39 4.8 1.13 9.46 2.2 13.41.51 1.98 1.19 3.67 1.8 4.83.07.22.5.86.79 1.33l.94 1.52c.61 1.01 1.34 2.02 2 3.04 2.72 4.07 5.76 8.11 8.87 12.17 6.29 8.02 13.06 16.13 19.75 24.05l-7.97 9.33c-9.31-6.05-17.83-12.73-25.99-20.28a156.9 156.9 0 01-11.75-12.11c-.93-1.1-1.89-2.15-2.77-3.33l-1.35-1.74c-.47-.63-.85-1.04-1.44-1.97-2.21-3.35-3.64-6.57-4.75-9.64-2.2-6.17-3.31-12.02-4.18-17.76-.85-5.75-1.23-11.38-1.52-16.98-.19-5.59-.28-11.13-.06-16.65.2-5.57.43-10.91 1.06-16.69l24.65 2.35z"/><path id="Path 81" class="shp19" d="M704.25 261.54l-6.5 2.6-10.94 4.35-19.41 7.77s-8.86-46.06-4.09-60.06c5.25-15.37 23.8-15.02 33.81 2.5 9.75 17.09 7.13 42.84 7.13 42.84z"/><path id="Path 82" class="shp20" d="M696.79 264.52l-9.98 3.97c-1.66-7.22-3.21-19.33 1.73-28.39 6.74 5.64 7.79 17.05 8.25 24.42z"/><path id="Path 83" class="shp19" d="M686.88 328.51H603.1c-.6-7.51 1.3-27.89.05-55.64-.3-6.39-.75-13.17-1.44-20.27-1.42-14.77-3.88-30.94-7.96-47.92 0 0 14.27-2.89 27.92-3.54 10.68-.52 26.16-.85 35.62 0 12.44 1.13 24.29 4.46 24.29 4.46s19.69 34.85 5.3 122.91z"/><path id="Path 84" class="shp20" d="M603.15 272.87c-.3-6.39-.75-13.17-1.44-20.27 2.71-1.69 6.25-1.79 6.98 8.12.66 9.17-2.54 11.71-5.54 12.15z"/><path id="Path 85" class="shp16" d="M758.69 346.8l-12.08 7.53-14.93-3.19 11.88-14.74 15.13 10.4zm-29.08-12.64l13.95 2.24-11.88 14.74s-7.45-.75-9.47-10.83l7.4-6.15zM623.76 161.04c2.66 11.46 5.65 32.45-2.09 40.09 0 0 3.89 7.69 25.17 7.69 19.46 0 10.44-7.68 10.44-7.68-12.88-3.06-12.89-12.53-10.99-21.44l-22.53-18.66z"/><path id="Path 86" class="shp18" d="M632.95 168.65l13.33 11.04c-.46 2.11-.79 4.25-.87 6.32-4.06 3.96-11.8-6.06-12.5-11.17-.35-2.55-.34-5 .04-6.19z"/><path id="Path 87" class="shp21" d="M669.25 131.89c5.34 6.63-.89 27.51-11.94 26.98-11.04-.53 1.82-39.54 11.94-26.98z"/><path id="Path 88" class="shp16" d="M626.03 142c-1.19 15.44-2.68 24.39 3.98 33.6 10.04 13.83 29.99 10.16 35.8-4.45 5.23-13.15 6.3-36.2-7.9-44.91-13.98-8.59-30.68.32-31.88 15.76z"/><path id="Path 89" class="shp21" d="M620.46 122.56l16.69 5.9c-7.32 9.79 3.3 32.82-9.62 28.52-5.92-1.97-25.23-23.29-7.07-34.42zm8.08 3.99c6.3 4.63 31.9 10.13 46.54 1.97-3.79-.81-8.73-3.3-8.73-3.3s10.96-.52 15.82-8.62c-10.44 1.59-17.48-1.39-20.12-2.55 4.77-1.04 9.82-5.96 11.18-9.49-20.23.25-63.79 4.34-56.16 18.58 7.63 14.24 11.47 3.41 11.47 3.41zm-8.75-1.87s-5.04-2.32-8.23-5.9c-.96 2.39-.95 8.88 8.23 5.9z"/><path id="Path 90" class="shp16" d="M616.73 157.63c1.69 3.89 4.99 6.71 8.23 8.02 4.86 1.97 7.71-2.17 6.72-7.01-.9-4.35-4.51-10.63-9.56-10.54-4.98.08-7.32 5.07-5.39 9.53zm26.49 581.96h15.31l3.16-35.45h-15.3l-3.17 35.45z"/><path id="Path 91" class="shp17" d="M659.23 737.81h-16.72c-.62 0-1.15.44-1.26 1.05l-2.54 13.6c-.26 1.41.86 2.75 2.3 2.73 6.03-.11 14.73-.46 22.3-.46 8.87 0 16.53.48 26.93.48 6.28 0 7.8-6.35 5.14-6.92-12.06-2.62-21.85-2.9-32.42-9.28-1.15-.7-2.41-1.2-3.73-1.2z"/><path id="Path 92" class="shp18" d="M661.69 704.15l-1.63 18.27h-15.31l1.63-18.27h15.31z"/><path id="Path 93" fill-rule="evenodd" class="shp22" d="M661.62 738.96l-.24-.33.21-.35c.61-.26 6.02-2.53 7.62-1.39.25.18.54.52.5 1.13-.05.83-.38 1.44-1 1.82-.77.48-1.9.51-3.09.32-1.43-.23-2.95-.77-4-1.2zm1.13-.34c2.58.94 4.62 1.17 5.56.59.41-.26.63-.67.66-1.25.02-.29-.08-.4-.18-.47a1.08 1.08 0 00-.46-.17c-1.19-.18-3.7.56-5.58 1.3z"/><path id="Path 94" fill-rule="evenodd" class="shp22" d="M661.51 738.9l-.12-.36c.04-.19.95-4.6 2.94-5.78.51-.31 1.06-.39 1.62-.22.87.24 1.04.82 1.06 1.14.12 1.78-3.41 4.68-5.12 5.3l-.18.01-.2-.09zm3.21-5.5c-1.27.76-2.08 3.28-2.42 4.56 1.74-.96 4.04-3.21 3.97-4.26-.01-.09-.02-.32-.49-.45l-.17-.04c-.3-.05-.59.02-.89.19z"/><path id="Path 95" class="shp5" d="M638.98 718.04h24.89s38.37-146.5 37.63-196.19c-.72-47.79-14.63-193.34-14.63-193.34h-55.06s4.28 32.38 9.15 72.32c4.35 35.25 9.14 76.44 11.89 106.43.8 8.92 1.44 16.84 1.81 23.34 2.86 48.79-15.68 187.44-15.68 187.44z"/><path id="Path 96" d="M640.96 400.83c4.35 35.25 9.14 76.44 11.89 106.43 5.81-26.18 20.01-102.31-1.29-140.81-5.33 7.61-8.59 20.75-10.6 34.38z" fill="#0b55ad"/><path id="Path 97" class="shp5" d="M657.16 328.52s-2.07 140.35-10.22 185.19c-8.92 49.1-26.68 204.33-26.68 204.33h-28.68s4.18-151.26 8.53-199.88c4.73-52.76 2.99-189.64 2.99-189.64h54.06z"/><path id="Path 98" class="shp21" d="M590.49 718.66h30.91l2.27-11.67-34.24-.95 1.06 12.62zm47.07 0h30.91l2.27-11.67-34.11.6.93 11.07z"/><path id="Path 99" class="shp19" d="M602.53 701.09h-.04l-.23-.31c.19-1.45 2.32-137.2 6.23-180.86 4.25-47.4 1.59-173.16 1.68-174.21l.29-.24.24.3c-.08 1.06 2.57 126.81-1.67 174.21-3.91 43.68-6.05 179.44-6.24 180.89l-.26.22z"/><path id="Path 100" class="shp21" d="M648.76 150.49c-.17 1.24.35 2.37 1.17 2.51.82.14 1.62-.75 1.8-1.99.17-1.25-.35-2.37-1.17-2.52-.82-.14-1.62.75-1.8 2zm14.45 1.73c-.18 1.24.34 2.37 1.16 2.51.82.14 1.63-.75 1.8-1.99.17-1.25-.35-2.37-1.17-2.51-.81-.15-1.62.75-1.79 1.99z"/><path id="Path 101" d="M658.32 152.66s1.84 7.67 4.49 11.68c-2.5 1.67-6.13.07-6.13.07l1.64-11.75z" fill="#ff5c58"/><path id="Path 102" class="shp21" d="M654.07 169.4c.2.03.38-.12.4-.32.02-.2-.13-.39-.33-.42-5.52-.73-7.72-4.92-7.74-4.96l-.51-.17-.15.49c.09.19 2.41 4.59 8.33 5.38zm-9.1-27.9c.21.06.45.02.64-.13 2.54-2.02 5.17-1.16 5.19-1.15.36.14.81-.07.93-.46s-.1-.81-.49-.94c-.14-.05-3.43-1.14-6.58 1.38-.32.25-.36.72-.1 1.04l.41.26z"/><path id="Path 103" class="shp25" d="M606.07 201.84l3.95-.34c.39-.04.76.24.85.63 13.12 59.1 9.2 121.84 9.2 121.84h-4.36c1.23-65.1-8.83-114.41-10.3-121.24a.73.73 0 01.66-.89z"/><path id="Path 104" class="shp21" d="M616.53 325.38h3.02c.78 0 1.39-.64 1.36-1.41-.03-.78-.69-1.41-1.46-1.41h-3.02c-.78 0-1.39.63-1.36 1.41.03.77.68 1.41 1.46 1.41zm3.48 3.67l-.14-3.95c-.03-1.01-.89-1.84-1.91-1.84-1.01 0-1.81.83-1.77 1.84l.14 3.95c.03 1.02.9 1.85 1.91 1.85 1.01 0 1.81-.83 1.77-1.85zm49.73-184.32l.33-.02c.38-.11.59-.53.47-.93-1.26-3.98-4.52-5.02-4.66-5.06-.37-.13-.79.1-.9.5-.1.4.13.82.52.94.1.03 2.64.87 3.64 4.04.09.29.33.49.6.53z"/><path id="Path 105" class="shp16" d="M603.18 229.41c-2.39 9.82-4.79 20.03-6.94 29.96-1.02 4.99-2.02 9.94-2.8 14.82-.73 4.82-1.37 9.69-1.32 13.64.12 8.02 3.03 15.96 8.48 23.2 2.7 3.62 5.95 7.04 9.54 10.2 1.8 1.59 3.67 3.14 5.63 4.58.98.72 1.98 1.42 2.99 2.08.96.67 2.1 1.4 2.88 1.9l-4.54 11.39c-1.67-.51-2.91-.93-4.32-1.45-1.35-.53-2.68-1.09-4-1.68a81.954 81.954 0 01-7.75-3.96c-5.03-2.97-9.83-6.52-14.18-10.81-4.34-4.28-8.21-9.34-11.17-15.09-2.92-5.74-4.92-12.17-5.62-18.7-.61-6.62-.41-12.36.05-18.04.5-5.63 1.19-11.13 2.08-16.55 1.77-10.88 4.1-21.31 7.09-31.97l23.9 6.48z"/><path id="Path 106" class="shp19" d="M593.76 204.68c-16.57 2.97-25.94 47.22-25.94 47.22l40.95 14.66s3.12-14.49.05-33.7c-3.02-18.84.65-31-15.06-28.18z"/><path id="Path 107" class="shp25" d="M672.42 202.64l3.94.74c.33.06.59.32.65.65 10.42 59.13 3.5 119.94 3.5 119.94h-4.36c4.21-64.36-3.32-112.84-4.6-120.48a.73.73 0 01.87-.85z"/><path id="Path 108" class="shp21" d="M676.91 325.38h3.02c.77 0 1.42-.64 1.42-1.41.01-.78-.62-1.41-1.39-1.41h-3.02c-.78 0-1.42.63-1.43 1.41 0 .77.63 1.41 1.4 1.41zm3.31 3.67l.04-3.95c.02-1.01-.8-1.84-1.82-1.84-1.01 0-1.85.83-1.86 1.84l-.04 3.95c-.01 1.02.81 1.85 1.82 1.85 1.02 0 1.85-.83 1.86-1.85z"/><path id="Path 109" fill-rule="evenodd" class="shp22" d="M614.49 738.96l-.24-.33.21-.35c.61-.26 6.02-2.53 7.62-1.39.25.18.53.52.5 1.13-.05.83-.38 1.44-1 1.82-.78.48-1.91.51-3.09.32-1.44-.23-2.95-.77-4-1.2zm1.13-.34c2.57.94 4.62 1.17 5.56.59.41-.26.62-.67.66-1.25.01-.29-.09-.4-.18-.47-.12-.08-.27-.14-.47-.17-1.19-.18-3.69.56-5.57 1.3z"/><path id="Path 110" fill-rule="evenodd" class="shp22" d="M614.38 738.9l-.13-.36c.04-.19.96-4.6 2.94-5.78.52-.31 1.06-.39 1.63-.22.87.24 1.03.82 1.06 1.14.12 1.78-3.41 4.68-5.13 5.3l-.18.01-.19-.09zm3.21-5.5c-1.27.76-2.09 3.28-2.43 4.56 1.75-.96 4.05-3.21 3.98-4.26-.01-.09-.03-.32-.5-.45l-.16-.04c-.31-.05-.6.02-.89.19z"/><path id="Path 111" class="shp16" d="M609.26 338.17l4.8-8.72 13.15.46 10.23 4.25 6.96 10.25-17.89-1.09s-10.94 3.11-17.25-5.15z"/><path id="Path 112" class="shp20" d="M645.56 208.81l-3.14-2.22-6.28 6.26 9.42-4.04z"/><path id="Path 113" class="shp25" d="M642.42 206.59s-5.11 7.52-5.95 12.96c-6.52-2.66-18.9-9.33-20.86-18.75 2.47-.5 6.53-3.12 6.53-3.12s6.68 5.49 20.28 8.91z"/><path id="Path 114" class="shp20" d="M645.56 208.81l1.17-2.56 8.65 6.6-9.82-4.04z"/><path id="Path 115" class="shp25" d="M646.73 206.25s5.59 4.88 6.62 11.99c6.33-2.66 8.53-11.36 6.64-17.15-3.56-1.67-7.7-2.49-7.7-2.49s.87 5.62-5.56 7.65zm150.03 62.07l-131.18-4.64-18.97 76.69 131.18 4.64 18.97-76.69z"/><path id="Path 116" class="shp21" d="M800.8 268.46l-131.18-4.64-18.97 76.7 131.18 4.63 18.97-76.69zm-18.97 76.69l-.53 4.26-131.19-4.64.53-4.26 131.19 4.64z"/><path id="Path 117" class="shp25" d="M650.64 340.51l-.53 4.26-51.49-1.82.53-4.25 51.49 1.81z"/></g></svg>