<?xml version="1.0" encoding="UTF-8" standalone="no"?><!-- Generator: Gravit.io --><svg xmlns="http://www.w3.org/2000/svg" xmlns:xlink="http://www.w3.org/1999/xlink" style="isolation:isolate" viewBox="0 0 272 220" width="272pt" height="220pt"><defs><clipPath id="_clipPath_oUjbhuuFi23DyeCt45oXpPhQSrciiV6w"><rect width="272" height="220"/></clipPath></defs><g clip-path="url(#_clipPath_oUjbhuuFi23DyeCt45oXpPhQSrciiV6w)"><g><g><path d=" M 224.595 175.922 C 234.916 169.616 238.17 156.133 231.86 145.813 C 230.454 143.509 228.675 141.58 226.667 140.008 C 229.28 136.31 232.275 132.737 235.675 129.341 C 237.25 127.768 238.85 126.282 240.467 124.86 C 241.115 125.405 241.748 125.969 242.366 126.558 L 247.746 123.27 C 250.498 121.588 254.092 122.454 255.775 125.208 L 261.106 133.929 C 262.788 136.68 261.919 140.276 259.168 141.957 L 253.788 145.245 C 254.996 149.333 255.559 153.521 255.511 157.677 L 261.591 159.374 C 264.698 160.241 266.514 163.462 265.647 166.569 L 262.9 176.416 C 262.032 179.522 258.811 181.338 255.704 180.472 L 249.63 178.777 C 248.018 181.51 246.086 184.08 243.848 186.428 L 247.138 191.806 C 248.82 194.56 247.952 198.154 245.2 199.837 L 236.479 205.168 C 233.727 206.848 230.131 205.981 228.45 203.228 L 225.162 197.849 C 222.012 198.781 218.802 199.32 215.592 199.5 C 213.759 192.93 212.944 186.06 213.19 179.114 C 217.084 179.116 221.028 178.102 224.595 175.922 Z " fill="rgb(72,154,255)"/></g><g><path d=" M 209.353 201.333 L 21.35 201.333 C 16.249 201.333 12.113 197.197 12.113 192.095 L 12.113 63.863 C 12.113 58.762 16.249 54.626 21.35 54.626 L 209.353 54.626 C 214.454 54.626 218.59 58.762 218.59 63.863 L 218.59 192.095 C 218.59 197.197 214.454 201.333 209.353 201.333 Z " fill="rgb(227,234,255)"/></g><g><path d=" M 208.552 199.403 L 22.151 199.403 C 18.108 199.403 14.829 196.124 14.829 192.081 L 14.829 63.877 C 14.829 59.833 18.108 56.556 22.151 56.556 L 208.552 56.556 C 212.595 56.556 215.872 59.833 215.872 63.877 L 215.872 192.081 C 215.872 196.124 212.595 199.403 208.552 199.403 Z " fill="rgb(109,184,255)"/></g><g><path d=" M 202.668 186.797 L 28.035 186.797 C 25.543 186.797 23.524 184.777 23.524 182.287 L 23.524 67.789 C 23.524 65.297 25.543 63.279 28.035 63.279 L 202.668 63.279 C 205.16 63.279 207.18 65.297 207.18 67.789 L 207.18 182.287 C 207.18 184.777 205.16 186.797 202.668 186.797 Z " fill="rgb(47,109,255)"/></g><g><path d=" M 7.099 193.726 C 6.505 194.822 6.137 196.059 6.137 197.394 C 6.137 201.67 9.602 205.136 13.879 205.136 L 216.823 205.136 C 221.099 205.136 224.566 201.67 224.566 197.394 C 224.566 196.059 224.198 194.822 223.602 193.726 L 7.099 193.726 Z " fill="rgb(227,234,255)"/></g><g><path d=" M 7.099 201.062 C 8.41 203.478 10.938 205.136 13.879 205.136 L 216.823 205.136 C 219.766 205.136 222.293 203.478 223.602 201.062 L 7.099 201.062 Z " fill="rgb(200,214,242)"/></g><g><g><clipPath id="_clipPath_ZIYrmrHMHwbTmLB9Geq1Za7ywkZw2BHV"><path d=" M 71.574 54.626 L 218.59 54.626 L 218.59 150.388 L 71.574 150.388 L 71.574 54.626 Z " fill="rgb(255,255,255)"/></clipPath><g clip-path="url(#_clipPath_ZIYrmrHMHwbTmLB9Geq1Za7ywkZw2BHV)"><g style="opacity:0.19999701;"><g style="opacity:0.19999701;"><g opacity="0.19999701"><path d=" M 209.353 54.626 L 71.573 54.626 L 71.573 146.701 C 71.573 148.737 73.223 150.387 75.261 150.387 L 218.59 150.387 L 218.59 63.863 C 218.59 58.762 214.454 54.626 209.353 54.626 Z " fill="rgb(66,66,97)"/></g></g></g></g></g></g><g><g><clipPath id="_clipPath_4M2aixUel5l8MLlTqSwxdOt6hCQRVHBc"><path d=" M 76.642 43.938 L 237.93 43.938 L 237.93 146.24 L 76.642 146.24 L 76.642 43.938 Z " fill="rgb(255,255,255)"/></clipPath><g clip-path="url(#_clipPath_4M2aixUel5l8MLlTqSwxdOt6hCQRVHBc)"><g style="opacity:0.21000701;"><g style="opacity:0.21000701;"><g opacity="0.21000701"><path d=" M 234.243 146.24 L 80.329 146.24 C 78.293 146.24 76.642 144.591 76.642 142.553 L 76.642 47.624 C 76.642 45.588 78.293 43.937 80.329 43.937 L 234.243 43.937 C 236.279 43.937 237.931 45.588 237.931 47.624 L 237.931 142.553 C 237.931 144.591 236.279 146.24 234.243 146.24 Z " fill="rgb(227,234,255)"/></g></g></g></g></g></g><g><path d=" M 240.695 139.329 L 86.779 139.329 C 84.745 139.329 83.094 137.678 83.094 135.641 L 83.094 40.713 C 83.094 38.675 84.745 37.025 86.779 37.025 L 240.695 37.025 C 242.731 37.025 244.382 38.675 244.382 40.713 L 244.382 135.641 C 244.382 137.678 242.731 139.329 240.695 139.329 Z " fill="rgb(249,251,252)"/></g><g><g><clipPath id="_clipPath_dELUQvcA0i9hGcRSPwukC21UzqtDAKdQ"><path d=" M 34.65 84.951 L 55.618 84.951 L 55.618 106.84 L 34.65 106.84 L 34.65 84.951 Z " fill="rgb(255,255,255)"/></clipPath><g clip-path="url(#_clipPath_dELUQvcA0i9hGcRSPwukC21UzqtDAKdQ)"><g style="opacity:0.19999701;"><g style="opacity:0.19999701;"><g opacity="0.19999701"><path d=" M 53.314 106.84 L 36.954 106.84 C 35.68 106.84 34.65 105.808 34.65 104.535 L 34.65 87.255 C 34.65 85.982 35.68 84.951 36.954 84.951 L 53.314 84.951 C 54.586 84.951 55.618 85.982 55.618 87.255 L 55.618 104.535 C 55.618 105.808 54.586 106.84 53.314 106.84 Z " fill="rgb(66,66,97)"/></g></g></g></g></g></g><g><path d=" M 52.104 138.637 L 35.744 138.637 C 34.471 138.637 33.44 137.605 33.44 136.332 L 33.44 119.052 C 33.44 117.779 34.471 116.748 35.744 116.748 L 52.104 116.748 C 53.376 116.748 54.408 117.779 54.408 119.052 L 54.408 136.332 C 54.408 137.605 53.376 138.637 52.104 138.637 Z " fill="rgb(109,184,255)"/></g><g><path d=" M 52.104 169.743 L 35.744 169.743 C 34.471 169.743 33.44 168.711 33.44 167.437 L 33.44 150.157 C 33.44 148.884 34.471 147.853 35.744 147.853 L 52.104 147.853 C 53.376 147.853 54.408 148.884 54.408 150.157 L 54.408 167.437 C 54.408 168.711 53.376 169.743 52.104 169.743 Z " fill="rgb(109,184,255)"/></g><g><path d=" M 48.505 156.387 C 48.505 153.635 46.273 151.403 43.521 151.403 C 40.768 151.403 38.536 153.635 38.536 156.387 C 38.536 156.387 37.834 161.666 43.521 165.863 C 49.206 161.666 48.505 156.387 48.505 156.387 Z " fill="rgb(149,112,238)"/></g><g><path d=" M 43.814 159.985 C 41.59 160.161 39.747 158.318 39.922 156.094 C 40.06 154.345 41.478 152.926 43.228 152.789 C 45.452 152.614 47.294 154.457 47.119 156.679 C 46.98 158.43 45.563 159.846 43.814 159.985 Z " fill="rgb(249,251,252)"/></g><g><path d=" M 50.318 127.403 C 50.318 131.211 47.231 134.299 43.423 134.299 C 39.615 134.299 36.527 131.211 36.527 127.403 C 36.527 123.596 39.615 120.508 43.423 120.508 C 47.231 120.508 50.318 123.596 50.318 127.403 Z " fill="rgb(149,112,238)"/></g><g><path d=" M 48.983 127.403 C 48.983 130.475 46.494 132.964 43.423 132.964 C 40.351 132.964 37.862 130.475 37.862 127.403 C 37.862 124.332 40.351 121.843 43.423 121.843 C 46.494 121.843 48.983 124.332 48.983 127.403 Z " fill="rgb(249,251,252)"/></g><g><path d=" M 43.423 121.843 C 45.943 121.843 48.07 123.519 48.754 125.818 C 48.782 125.914 48.867 125.98 48.966 125.98 C 49.115 125.98 49.223 125.838 49.18 125.696 C 48.446 123.211 46.146 121.398 43.423 121.398 C 40.699 121.398 38.4 123.211 37.666 125.696 C 37.622 125.838 37.73 125.98 37.879 125.98 C 37.978 125.98 38.063 125.914 38.092 125.818 C 38.775 123.519 40.902 121.843 43.423 121.843 Z " fill="rgb(187,135,238)"/></g><g><path d=" M 49.591 127.581 C 49.26 127.581 48.975 127.823 48.932 128.151 C 48.566 130.868 46.239 132.964 43.423 132.964 C 40.606 132.964 38.279 130.868 37.914 128.151 C 37.87 127.823 37.584 127.581 37.254 127.581 C 36.852 127.581 36.538 127.935 36.591 128.331 C 37.046 131.7 39.93 134.299 43.423 134.299 C 46.915 134.299 49.8 131.7 50.254 128.331 C 50.307 127.935 49.992 127.581 49.591 127.581 Z " fill="rgb(127,87,238)"/></g><g><path d=" M 48.983 127.403 C 48.983 130.475 46.494 132.964 43.423 132.964 C 40.351 132.964 37.862 130.475 37.862 127.403 C 37.862 124.332 40.351 121.843 43.423 121.843 C 46.494 121.843 48.983 124.332 48.983 127.403 Z " fill="rgb(249,251,252)"/></g><g><path d=" M 48.842 129.197 C 48.749 129.197 48.665 129.257 48.633 129.345 C 47.845 131.458 45.81 132.964 43.424 132.964 C 41.036 132.964 39 131.458 38.212 129.345 C 38.18 129.257 38.096 129.197 38.002 129.197 C 37.848 129.197 37.738 129.352 37.793 129.498 C 38.642 131.781 40.842 133.408 43.424 133.408 C 46.002 133.408 48.204 131.781 49.053 129.498 C 49.106 129.352 48.997 129.197 48.842 129.197 Z " fill="rgb(149,112,238)"/></g><g><path d=" M 43.407 127.892 L 43.407 127.892 C 43.261 127.892 43.141 127.772 43.141 127.626 L 43.141 123.71 C 43.141 123.563 43.261 123.444 43.407 123.444 C 43.554 123.444 43.674 123.563 43.674 123.71 L 43.674 127.626 C 43.674 127.772 43.554 127.892 43.407 127.892 Z " fill="rgb(149,112,238)"/></g><g><path d=" M 43.215 127.477 L 43.215 127.477 C 43.309 127.365 43.479 127.35 43.591 127.446 L 46.007 129.486 C 46.119 129.581 46.132 129.75 46.037 129.862 C 45.943 129.976 45.775 129.989 45.661 129.893 L 43.247 127.853 C 43.133 127.758 43.12 127.59 43.215 127.477 Z " fill="rgb(149,112,238)"/></g><path d=" M 43.467 122.755 L 43.267 122.755 L 43.267 122.222 L 43.467 122.222 L 43.467 122.755 Z " fill="rgb(206,214,255)"/><path d=" M 43.467 132.496 L 43.267 132.496 L 43.267 131.963 L 43.467 131.963 L 43.467 132.496 Z " fill="rgb(206,214,255)"/><path d=" M 38.763 127.459 L 38.23 127.459 L 38.23 127.259 L 38.763 127.259 L 38.763 127.459 Z " fill="rgb(206,214,255)"/><path d=" M 48.505 127.459 L 47.971 127.459 L 47.971 127.259 L 48.505 127.259 L 48.505 127.459 Z " fill="rgb(206,214,255)"/><g><path d=" M 40.182 124.032 L 40.041 124.173 L 39.662 123.796 L 39.805 123.654 L 40.182 124.032 Z " fill="rgb(206,214,255)"/></g><g><path d=" M 47.071 130.921 L 46.93 131.062 L 46.551 130.685 L 46.694 130.544 L 47.071 130.921 Z " fill="rgb(206,214,255)"/></g><g><path d=" M 40.04 130.543 L 40.182 130.685 L 39.804 131.063 L 39.663 130.921 L 40.04 130.543 Z " fill="rgb(206,214,255)"/></g><g><path d=" M 46.93 123.654 L 47.071 123.795 L 46.694 124.174 L 46.552 124.031 L 46.93 123.654 Z " fill="rgb(206,214,255)"/></g><g><path d=" M 52.104 106.149 L 35.744 106.149 C 34.471 106.149 33.44 105.118 33.44 103.844 L 33.44 86.564 C 33.44 85.292 34.471 84.26 35.744 84.26 L 52.104 84.26 C 53.376 84.26 54.408 85.292 54.408 86.564 L 54.408 103.844 C 54.408 105.118 53.376 106.149 52.104 106.149 Z " fill="rgb(109,184,255)"/></g><g><path d=" M 32.432 103.903 L 34.16 102.693 L 34.938 99.841 L 34.074 99.668 L 33.556 100.705 L 34.074 95.78 L 33.21 95.953 L 32.347 100.705 L 31.308 102.952 L 32.259 103.556" fill="rgb(247,211,169)"/></g><g><path d=" M 42.656 109.029 L 42.887 106.954 L 45.421 104.421 L 45.997 105.226 L 45.075 106.264 L 49.913 105.112 L 49.913 106.149 L 45.421 107.877 L 44.5 109.49 L 42.656 109.029 Z " fill="rgb(247,211,169)"/></g><g><path d=" M 11.111 160.296 L 20.535 206.399 L 27.667 205.635 L 22.828 203.852 L 24.611 203.343 L 22.064 160.296 L 11.111 160.296 Z " fill="rgb(84,77,184)"/></g><g><path d=" M 26.139 159.533 C 26.139 159.533 38.111 170.74 36.327 184.238 C 34.289 194.937 29.959 199.012 29.959 199.012 L 28.686 198.758 L 30.661 203.98 L 24.929 197.866 C 24.929 197.866 31.998 188.124 27.603 178 C 23.21 167.874 13.658 164.244 13.658 164.244 C 13.658 164.244 21.873 156.794 22.445 156.985 C 23.018 157.176 26.139 159.533 26.139 159.533 Z " fill="rgb(84,77,184)"/></g><g><path d=" M 31.233 102.159 C 31.233 102.159 11.557 126.038 9.264 130.814 C 9.264 130.814 8.309 132.533 8.309 137.501 C 8.309 142.466 10.028 160.806 10.028 160.806 L 30.088 161.953 C 30.088 161.953 23.592 139.601 23.401 139.027 C 23.209 138.455 19.962 135.017 16.905 134.251 L 33.716 103.878 L 31.233 102.159 Z " fill="rgb(255,139,64)"/></g><g><path d=" M 18.773 131.946 C 18.773 131.946 19.609 134.424 20.071 135.924 C 20.071 135.924 15.976 135.838 14.535 133.935 L 16.063 130.274 L 18.773 131.946 Z " fill="rgb(247,211,169)"/></g><g><path d=" M 21.887 124.196 C 21.887 124.196 23.097 131.248 21.887 132.85 C 20.676 134.453 16.525 131.728 14.795 129.165 C 13.064 126.6 12.719 120.83 15.66 120.349 C 18.6 119.868 21.195 121.63 21.887 124.196 Z " fill="rgb(247,211,169)"/></g><g><path d=" M 20.025 137.25 C 20.025 137.25 35.801 127.328 37.073 125.29 C 38.345 123.256 41.908 108.116 41.908 108.116 L 44.961 108.88 C 44.961 108.88 43.18 125.8 42.671 127.581 C 42.161 129.362 26.64 145.901 23.079 145.901 C 19.516 145.901 18.244 141.321 20.025 137.25 Z " fill="rgb(255,139,64)"/></g><g><path d=" M 13.394 120.665 C 13.394 120.665 15.468 117.785 19.154 118.475 C 22.841 119.167 23.762 118.361 23.762 118.361 C 23.762 118.361 22.957 122.393 20.422 123.314 C 17.888 124.237 17.196 124.006 17.196 124.006 C 17.196 124.006 18.578 125.389 18.924 126.425 C 19.27 127.462 17.772 125.158 17.196 125.965 C 16.62 126.77 17.196 128.499 18.348 128.383 C 19.501 128.269 18.809 129.19 18.348 130.111 C 17.888 131.033 17.196 132.186 16.505 131.839 C 15.813 131.494 13.394 130.111 12.473 127.231 C 11.552 124.351 11.321 121.586 13.394 120.665 Z " fill="rgb(84,77,184)"/></g><g><path d=" M 139.66 129.305 L 94.729 129.305 C 93.775 129.305 93.001 128.532 93.001 127.577 L 93.001 49.468 C 93.001 48.513 93.775 47.74 94.729 47.74 L 139.66 47.74 C 140.615 47.74 141.388 48.513 141.388 49.468 L 141.388 127.577 C 141.388 128.532 140.615 129.305 139.66 129.305 Z " fill="rgb(227,234,255)"/></g><g><path d=" M 131.25 61.219 L 102.678 61.219 C 101.915 61.219 101.297 60.6 101.297 59.836 L 101.297 55.689 C 101.297 54.925 101.915 54.305 102.678 54.305 L 131.25 54.305 C 132.013 54.305 132.633 54.925 132.633 55.689 L 132.633 59.836 C 132.633 60.6 132.013 61.219 131.25 61.219 Z " fill="rgb(109,184,255)"/></g><g><path d=" M 111.781 99.638 L 105.559 99.638 C 104.095 99.638 102.909 98.453 102.909 96.99 C 102.909 95.528 104.095 94.341 105.559 94.341 L 111.781 94.341 C 113.244 94.341 114.429 95.528 114.429 96.99 C 114.429 98.453 113.244 99.638 111.781 99.638 Z " fill="rgb(109,184,255)"/></g><g><path d=" M 129.753 99.638 L 123.53 99.638 C 122.067 99.638 120.882 98.453 120.882 96.99 C 120.882 95.528 122.067 94.341 123.53 94.341 L 129.753 94.341 C 131.217 94.341 132.402 95.528 132.402 96.99 C 132.402 98.453 131.217 99.638 129.753 99.638 Z " fill="rgb(149,112,238)"/></g><path d=" M 134.245 73.43 L 100.606 73.43 L 100.606 68.13 L 134.245 68.13 L 134.245 73.43 Z " fill="rgb(249,251,252)"/><path d=" M 134.245 82.416 L 100.606 82.416 L 100.606 77.116 L 134.245 77.116 L 134.245 82.416 Z " fill="rgb(249,251,252)"/><path d=" M 127.218 86.967 L 107.863 86.967 L 107.863 85.756 L 127.218 85.756 L 127.218 86.967 Z " fill="rgb(205,212,255)"/><g><path d=" M 241.099 114.213 L 180.616 114.213 C 176.894 114.213 173.876 111.195 173.876 107.473 C 173.876 103.751 176.894 100.734 180.616 100.734 L 241.099 100.734 C 244.82 100.734 247.839 103.751 247.839 107.473 C 247.839 111.195 244.82 114.213 241.099 114.213 Z " fill="rgb(149,112,238)"/></g><g><path d=" M 188.738 57.071 L 151.065 57.071 C 148.011 57.071 145.535 54.596 145.535 51.541 C 145.535 48.487 148.011 46.012 151.065 46.012 L 188.738 46.012 C 191.791 46.012 194.267 48.487 194.267 51.541 C 194.267 54.596 191.791 57.071 188.738 57.071 Z " fill="rgb(227,234,255)"/></g><g><path d=" M 160.052 51.541 C 160.052 52.495 159.277 53.269 158.323 53.269 C 157.368 53.269 156.595 52.495 156.595 51.541 C 156.595 50.587 157.368 49.813 158.323 49.813 C 159.277 49.813 160.052 50.587 160.052 51.541 Z " fill="rgb(255,194,64)"/></g><g><path d=" M 171.918 51.541 C 171.918 52.495 171.145 53.269 170.19 53.269 C 169.235 53.269 168.461 52.495 168.461 51.541 C 168.461 50.587 169.235 49.813 170.19 49.813 C 171.145 49.813 171.918 50.587 171.918 51.541 Z " fill="rgb(144,194,64)"/></g><g><path d=" M 182.862 51.541 C 182.862 52.495 182.089 53.269 181.134 53.269 C 180.179 53.269 179.406 52.495 179.406 51.541 C 179.406 50.587 180.179 49.813 181.134 49.813 C 182.089 49.813 182.862 50.587 182.862 51.541 Z " fill="rgb(235,79,36)"/></g><g><path d=" M 47.893 96.551 C 47.893 98.876 46.009 100.76 43.684 100.76 C 41.36 100.76 39.475 98.876 39.475 96.551 C 39.475 94.225 41.36 92.341 43.684 92.341 C 46.009 92.341 47.893 94.225 47.893 96.551 Z " fill="rgb(255,255,255)"/></g><g><path d=" M 43.747 99.655 C 42.041 99.655 40.655 98.271 40.655 96.563 C 40.655 94.855 42.041 93.471 43.747 93.471 C 45.455 93.471 46.839 94.855 46.839 96.563 C 46.839 98.271 45.455 99.655 43.747 99.655 Z  M 48.047 91.467 L 47.306 91.467 L 46.239 89.966 C 46.157 89.847 46.019 89.777 45.874 89.777 L 41.621 89.777 C 41.475 89.777 41.339 89.847 41.255 89.966 L 40.19 91.467 L 39.447 91.467 C 38.294 91.467 37.35 92.411 37.35 93.565 L 37.35 99.667 C 37.35 100.821 38.294 101.765 39.447 101.765 L 48.047 101.765 C 49.202 101.765 50.145 100.821 50.145 99.667 L 50.145 93.565 C 50.145 92.411 49.202 91.467 48.047 91.467 Z " fill="rgb(149,112,238)"/></g><g><path d=" M 45.792 96.564 C 45.792 97.693 44.876 98.608 43.748 98.608 C 42.618 98.608 41.704 97.693 41.704 96.564 C 41.704 95.434 42.618 94.52 43.748 94.52 C 44.876 94.52 45.792 95.434 45.792 96.564 Z " fill="rgb(109,184,255)"/></g><g><path d=" M 194.21 92.747 L 162.584 92.747 C 161.079 92.747 159.859 91.526 159.859 90.021 L 159.859 71.119 C 159.859 69.613 161.079 68.393 162.584 68.393 L 194.21 68.393 C 195.715 68.393 196.936 69.613 196.936 71.119 L 196.936 90.021 C 196.936 91.526 195.715 92.747 194.21 92.747 Z " fill="rgb(227,234,255)"/></g><g><path d=" M 178.433 80.382 L 178.36 80.382 C 178.195 80.382 178.032 80.339 177.888 80.259 L 163.596 72.319 C 163.127 72.058 162.956 71.466 163.217 70.994 C 163.479 70.525 164.072 70.354 164.543 70.617 L 178.397 78.313 L 192.252 70.617 C 192.723 70.354 193.315 70.523 193.576 70.994 C 193.839 71.466 193.669 72.058 193.197 72.319 L 178.905 80.259 C 178.761 80.339 178.599 80.382 178.433 80.382 Z " fill="rgb(253,73,64)"/></g><g><path d=" M 248.875 90.25 L 207.746 90.25 C 206.41 90.25 205.327 89.168 205.327 87.832 L 205.327 33.222 C 205.327 31.888 206.41 30.804 207.746 30.804 L 248.875 30.804 C 250.211 30.804 251.294 31.888 251.294 33.222 L 251.294 87.832 C 251.294 89.168 250.211 90.25 248.875 90.25 Z " fill="rgb(84,77,184)"/></g><g><path d=" M 215.598 38.773 L 212.535 38.773 C 212.371 38.773 212.239 38.507 212.239 38.181 C 212.239 37.854 212.371 37.589 212.535 37.589 L 215.598 37.589 C 215.76 37.589 215.892 37.854 215.892 38.181 C 215.892 38.507 215.76 38.773 215.598 38.773 Z " fill="rgb(0,204,255)"/></g><g><path d=" M 234.559 38.773 L 217.039 38.773 C 216.876 38.773 216.744 38.507 216.744 38.181 C 216.744 37.854 216.876 37.589 217.039 37.589 L 234.559 37.589 C 234.721 37.589 234.853 37.854 234.853 38.181 C 234.853 38.507 234.721 38.773 234.559 38.773 Z " fill="rgb(0,204,255)"/></g><g><path d=" M 222.627 41.221 L 217.039 41.221 C 216.877 41.221 216.743 40.955 216.743 40.629 C 216.743 40.302 216.877 40.035 217.039 40.035 L 222.627 40.035 C 222.79 40.035 222.923 40.302 222.923 40.629 C 222.923 40.955 222.79 41.221 222.627 41.221 Z " fill="rgb(255,86,169)"/></g><g><path d=" M 231.819 41.221 L 223.766 41.221 C 223.603 41.221 223.47 40.955 223.47 40.629 C 223.47 40.302 223.603 40.035 223.766 40.035 L 231.819 40.035 C 231.982 40.035 232.115 40.302 232.115 40.629 C 232.115 40.955 231.982 41.221 231.819 41.221 Z " fill="rgb(227,234,255)"/></g><g><path d=" M 234.559 53.138 L 217.039 53.138 C 216.876 53.138 216.744 52.873 216.744 52.546 C 216.744 52.219 216.876 51.954 217.039 51.954 L 234.559 51.954 C 234.721 51.954 234.853 52.219 234.853 52.546 C 234.853 52.873 234.721 53.138 234.559 53.138 Z " fill="rgb(227,234,255)"/></g><g><path d=" M 215.598 55.586 L 212.535 55.586 C 212.371 55.586 212.239 55.32 212.239 54.994 C 212.239 54.667 212.371 54.402 212.535 54.402 L 215.598 54.402 C 215.76 54.402 215.892 54.667 215.892 54.994 C 215.892 55.32 215.76 55.586 215.598 55.586 Z " fill="rgb(0,204,255)"/></g><g><path d=" M 222.627 55.586 L 217.039 55.586 C 216.877 55.586 216.743 55.32 216.743 54.994 C 216.743 54.667 216.877 54.402 217.039 54.402 L 222.627 54.402 C 222.79 54.402 222.923 54.667 222.923 54.994 C 222.923 55.32 222.79 55.586 222.627 55.586 Z " fill="rgb(227,234,255)"/></g><g><path d=" M 231.819 55.586 L 223.766 55.586 C 223.603 55.586 223.47 55.32 223.47 54.994 C 223.47 54.667 223.603 54.402 223.766 54.402 L 231.819 54.402 C 231.982 54.402 232.115 54.667 232.115 54.994 C 232.115 55.32 231.982 55.586 231.819 55.586 Z " fill="rgb(255,86,169)"/></g><g><path d=" M 238.904 43.668 L 217.04 43.668 C 216.876 43.668 216.744 43.402 216.744 43.076 C 216.744 42.749 216.876 42.484 217.04 42.484 L 238.904 42.484 C 239.066 42.484 239.198 42.749 239.198 43.076 C 239.198 43.402 239.066 43.668 238.904 43.668 Z " fill="rgb(255,86,169)"/></g><g><path d=" M 234.32 46.116 L 229.231 46.116 C 229.058 46.116 228.918 45.977 228.918 45.804 L 228.918 45.244 C 228.918 45.07 229.059 44.932 229.231 44.932 L 234.32 44.932 C 234.494 44.932 234.632 45.07 234.632 45.244 L 234.632 45.804 C 234.632 45.976 234.494 46.116 234.32 46.116 Z " fill="rgb(0,204,255)"/></g><g><path d=" M 224.302 46.116 L 217.039 46.116 C 216.877 46.116 216.743 45.85 216.743 45.524 C 216.743 45.197 216.877 44.932 217.039 44.932 L 224.302 44.932 C 224.465 44.932 224.597 45.197 224.597 45.524 C 224.597 45.85 224.465 46.116 224.302 46.116 Z " fill="rgb(227,234,255)"/></g><g><path d=" M 228.167 46.116 L 225.287 46.116 C 225.124 46.116 224.992 45.85 224.992 45.524 C 224.992 45.197 225.124 44.932 225.287 44.932 L 228.167 44.932 C 228.329 44.932 228.463 45.197 228.463 45.524 C 228.463 45.85 228.329 46.116 228.167 46.116 Z " fill="rgb(0,204,255)"/></g><g><path d=" M 215.598 48.482 L 212.535 48.482 C 212.371 48.482 212.239 48.216 212.239 47.89 C 212.239 47.563 212.371 47.298 212.535 47.298 L 215.598 47.298 C 215.76 47.298 215.892 47.563 215.892 47.89 C 215.892 48.216 215.76 48.482 215.598 48.482 Z " fill="rgb(227,234,255)"/></g><g><path d=" M 238.904 48.482 L 217.04 48.482 C 216.876 48.482 216.744 48.216 216.744 47.89 C 216.744 47.563 216.876 47.298 217.04 47.298 L 238.904 47.298 C 239.066 47.298 239.198 47.563 239.198 47.89 C 239.198 48.216 239.066 48.482 238.904 48.482 Z " fill="rgb(227,234,255)"/></g><g><path d=" M 215.598 57.853 L 212.535 57.853 C 212.371 57.853 212.239 57.587 212.239 57.261 C 212.239 56.934 212.371 56.669 212.535 56.669 L 215.598 56.669 C 215.76 56.669 215.892 56.934 215.892 57.261 C 215.892 57.587 215.76 57.853 215.598 57.853 Z " fill="rgb(227,234,255)"/></g><g><path d=" M 236.457 57.853 L 229.285 57.853 C 229.082 57.853 228.918 57.689 228.918 57.486 L 228.918 57.035 C 228.918 56.833 229.082 56.669 229.285 56.669 L 236.457 56.669 C 236.66 56.669 236.824 56.833 236.824 57.035 L 236.824 57.486 C 236.824 57.689 236.66 57.853 236.457 57.853 Z " fill="rgb(227,234,255)"/></g><g><path d=" M 224.302 57.853 L 217.039 57.853 C 216.877 57.853 216.743 57.587 216.743 57.261 C 216.743 56.934 216.877 56.669 217.039 56.669 L 224.302 56.669 C 224.465 56.669 224.597 56.934 224.597 57.261 C 224.597 57.587 224.465 57.853 224.302 57.853 Z " fill="rgb(227,234,255)"/></g><g><path d=" M 228.167 57.853 L 225.287 57.853 C 225.124 57.853 224.992 57.587 224.992 57.261 C 224.992 56.934 225.124 56.669 225.287 56.669 L 228.167 56.669 C 228.329 56.669 228.463 56.934 228.463 57.261 C 228.463 57.587 228.329 57.853 228.167 57.853 Z " fill="rgb(227,234,255)"/></g><g><path d=" M 215.598 60.219 L 212.535 60.219 C 212.371 60.219 212.239 59.953 212.239 59.627 C 212.239 59.3 212.371 59.035 212.535 59.035 L 215.598 59.035 C 215.76 59.035 215.892 59.3 215.892 59.627 C 215.892 59.953 215.76 60.219 215.598 60.219 Z " fill="rgb(255,195,89)"/></g><g><path d=" M 220.824 60.219 L 217.039 60.219 C 216.876 60.219 216.743 59.953 216.743 59.627 C 216.743 59.3 216.876 59.035 217.039 59.035 L 220.824 59.035 C 220.987 59.035 221.12 59.3 221.12 59.627 C 221.12 59.953 220.987 60.219 220.824 60.219 Z " fill="rgb(0,204,255)"/></g><g><path d=" M 212.535 50.929 C 212.371 50.929 212.239 50.664 212.239 50.337 C 212.239 50.011 212.371 49.745 212.535 49.745 L 215.598 49.745 C 215.76 49.745 215.892 50.011 215.892 50.337 C 215.892 50.664 215.76 50.929 215.598 50.929" fill="rgb(0,204,255)"/></g><g><path d=" M 237.461 50.929 L 229.309 50.929 C 229.093 50.929 228.918 50.755 228.918 50.54 L 228.918 50.135 C 228.918 49.92 229.093 49.745 229.309 49.745 L 237.461 49.745 C 237.677 49.745 237.851 49.92 237.851 50.135 L 237.851 50.54 C 237.851 50.755 237.677 50.929 237.461 50.929 Z " fill="rgb(227,234,255)"/></g><g><path d=" M 224.302 50.929 L 217.039 50.929 C 216.877 50.929 216.743 50.664 216.743 50.337 C 216.743 50.011 216.877 49.745 217.039 49.745 L 224.302 49.745 C 224.465 49.745 224.597 50.011 224.597 50.337 C 224.597 50.664 224.465 50.929 224.302 50.929 Z " fill="rgb(255,195,89)"/></g><g><path d=" M 228.167 50.929 L 225.287 50.929 C 225.124 50.929 224.992 50.664 224.992 50.337 C 224.992 50.011 225.124 49.745 225.287 49.745 L 228.167 49.745 C 228.329 49.745 228.463 50.011 228.463 50.337 C 228.463 50.664 228.329 50.929 228.167 50.929 Z " fill="rgb(255,195,89)"/></g><g><path d=" M 234.559 62.735 L 217.039 62.735 C 216.876 62.735 216.744 62.47 216.744 62.143 C 216.744 61.817 216.876 61.551 217.039 61.551 L 234.559 61.551 C 234.721 61.551 234.853 61.817 234.853 62.143 C 234.853 62.47 234.721 62.735 234.559 62.735 Z " fill="rgb(227,234,255)"/></g><g><path d=" M 222.627 65.183 L 217.039 65.183 C 216.877 65.183 216.743 64.917 216.743 64.591 C 216.743 64.264 216.877 63.999 217.039 63.999 L 222.627 63.999 C 222.79 63.999 222.923 64.264 222.923 64.591 C 222.923 64.917 222.79 65.183 222.627 65.183 Z " fill="rgb(227,234,255)"/></g><g><path d=" M 231.819 65.183 L 223.766 65.183 C 223.603 65.183 223.47 64.917 223.47 64.591 C 223.47 64.264 223.603 63.999 223.766 63.999 L 231.819 63.999 C 231.982 63.999 232.115 64.264 232.115 64.591 C 232.115 64.917 231.982 65.183 231.819 65.183 Z " fill="rgb(227,234,255)"/></g><g><path d=" M 234.559 77.101 L 217.039 77.101 C 216.876 77.101 216.744 76.835 216.744 76.509 C 216.744 76.182 216.876 75.917 217.039 75.917 L 234.559 75.917 C 234.721 75.917 234.853 76.182 234.853 76.509 C 234.853 76.835 234.721 77.101 234.559 77.101 Z " fill="rgb(227,234,255)"/></g><g><path d=" M 215.598 79.549 L 212.535 79.549 C 212.371 79.549 212.239 79.283 212.239 78.957 C 212.239 78.63 212.371 78.365 212.535 78.365 L 215.598 78.365 C 215.76 78.365 215.892 78.63 215.892 78.957 C 215.892 79.283 215.76 79.549 215.598 79.549 Z " fill="rgb(255,86,169)"/></g><g><path d=" M 222.627 79.549 L 217.039 79.549 C 216.877 79.549 216.743 79.283 216.743 78.957 C 216.743 78.63 216.877 78.365 217.039 78.365 L 222.627 78.365 C 222.79 78.365 222.923 78.63 222.923 78.957 C 222.923 79.283 222.79 79.549 222.627 79.549 Z " fill="rgb(0,204,255)"/></g><g><path d=" M 231.819 79.549 L 223.766 79.549 C 223.603 79.549 223.47 79.283 223.47 78.957 C 223.47 78.63 223.603 78.365 223.766 78.365 L 231.819 78.365 C 231.982 78.365 232.115 78.63 232.115 78.957 C 232.115 79.283 231.982 79.549 231.819 79.549 Z " fill="rgb(227,234,255)"/></g><g><path d=" M 215.598 67.631 L 212.535 67.631 C 212.371 67.631 212.239 67.365 212.239 67.039 C 212.239 66.712 212.371 66.447 212.535 66.447 L 215.598 66.447 C 215.76 66.447 215.892 66.712 215.892 67.039 C 215.892 67.365 215.76 67.631 215.598 67.631 Z " fill="rgb(255,86,169)"/></g><g><path d=" M 232.678 67.631 L 217.1 67.631 C 216.904 67.631 216.744 67.471 216.744 67.275 L 216.744 66.803 C 216.744 66.605 216.904 66.447 217.1 66.447 L 232.678 66.447 C 232.874 66.447 233.036 66.605 233.036 66.803 L 233.036 67.275 C 233.036 67.471 232.874 67.631 232.678 67.631 Z " fill="rgb(255,86,169)"/></g><g><path d=" M 215.598 70.079 L 212.535 70.079 C 212.371 70.079 212.239 69.813 212.239 69.487 C 212.239 69.16 212.371 68.895 212.535 68.895 L 215.598 68.895 C 215.76 68.895 215.892 69.16 215.892 69.487 C 215.892 69.813 215.76 70.079 215.598 70.079 Z " fill="rgb(227,234,255)"/></g><g><path d=" M 224.302 70.079 L 217.039 70.079 C 216.877 70.079 216.743 69.813 216.743 69.487 C 216.743 69.16 216.877 68.895 217.039 68.895 L 224.302 68.895 C 224.465 68.895 224.597 69.16 224.597 69.487 C 224.597 69.813 224.465 70.079 224.302 70.079 Z " fill="rgb(227,234,255)"/></g><g><path d=" M 228.167 70.079 L 225.287 70.079 C 225.124 70.079 224.992 69.813 224.992 69.487 C 224.992 69.16 225.124 68.895 225.287 68.895 L 228.167 68.895 C 228.329 68.895 228.463 69.16 228.463 69.487 C 228.463 69.813 228.329 70.079 228.167 70.079 Z " fill="rgb(227,234,255)"/></g><g><path d=" M 215.598 72.444 L 212.535 72.444 C 212.371 72.444 212.239 72.179 212.239 71.852 C 212.239 71.526 212.371 71.26 212.535 71.26 L 215.598 71.26 C 215.76 71.26 215.892 71.526 215.892 71.852 C 215.892 72.179 215.76 72.444 215.598 72.444 Z " fill="rgb(227,234,255)"/></g><g><path d=" M 236.858 72.444 L 217.143 72.444 C 216.923 72.444 216.743 72.266 216.743 72.046 L 216.743 71.66 C 216.743 71.439 216.923 71.26 217.143 71.26 L 236.858 71.26 C 237.079 71.26 237.258 71.439 237.258 71.66 L 237.258 72.046 C 237.258 72.266 237.079 72.444 236.858 72.444 Z " fill="rgb(227,234,255)"/></g><g><path d=" M 215.598 81.816 L 212.535 81.816 C 212.371 81.816 212.239 81.55 212.239 81.224 C 212.239 80.897 212.371 80.632 212.535 80.632 L 215.598 80.632 C 215.76 80.632 215.892 80.897 215.892 81.224 C 215.892 81.55 215.76 81.816 215.598 81.816 Z " fill="rgb(227,234,255)"/></g><g><path d=" M 238.88 81.816 L 229.213 81.816 C 229.051 81.816 228.917 81.55 228.917 81.224 C 228.917 80.897 229.051 80.632 229.213 80.632 L 238.88 80.632 C 239.043 80.632 239.175 80.897 239.175 81.224 C 239.175 81.55 239.043 81.816 238.88 81.816 Z " fill="rgb(227,234,255)"/></g><g><path d=" M 224.302 81.816 L 217.039 81.816 C 216.877 81.816 216.743 81.55 216.743 81.224 C 216.743 80.897 216.877 80.632 217.039 80.632 L 224.302 80.632 C 224.465 80.632 224.597 80.897 224.597 81.224 C 224.597 81.55 224.465 81.816 224.302 81.816 Z " fill="rgb(227,234,255)"/></g><g><path d=" M 228.167 81.816 L 225.287 81.816 C 225.124 81.816 224.992 81.55 224.992 81.224 C 224.992 80.897 225.124 80.632 225.287 80.632 L 228.167 80.632 C 228.329 80.632 228.463 80.897 228.463 81.224 C 228.463 81.55 228.329 81.816 228.167 81.816 Z " fill="rgb(227,234,255)"/></g><g><path d=" M 229.971 84.181 L 217.069 84.181 C 216.889 84.181 216.743 84.036 216.743 83.857 L 216.743 83.321 C 216.743 83.143 216.889 82.997 217.069 82.997 L 229.971 82.997 C 230.15 82.997 230.295 83.143 230.295 83.321 L 230.295 83.857 C 230.295 84.036 230.15 84.181 229.971 84.181 Z " fill="rgb(255,195,89)"/></g><g><path d=" M 237.975 74.892 L 229.319 74.892 C 229.098 74.892 228.918 74.712 228.918 74.491 L 228.918 74.11 C 228.918 73.888 229.098 73.708 229.319 73.708 L 237.975 73.708 C 238.197 73.708 238.377 73.888 238.377 74.11 L 238.377 74.491 C 238.377 74.712 238.197 74.892 237.975 74.892 Z " fill="rgb(255,86,169)"/></g><g><path d=" M 224.302 74.892 L 217.039 74.892 C 216.877 74.892 216.743 74.627 216.743 74.3 C 216.743 73.974 216.877 73.708 217.039 73.708 L 224.302 73.708 C 224.465 73.708 224.597 73.974 224.597 74.3 C 224.597 74.627 224.465 74.892 224.302 74.892 Z " fill="rgb(255,195,89)"/></g><g><path d=" M 228.167 74.892 L 225.287 74.892 C 225.124 74.892 224.992 74.627 224.992 74.3 C 224.992 73.974 225.124 73.708 225.287 73.708 L 228.167 73.708 C 228.329 73.708 228.463 73.974 228.463 74.3 C 228.463 74.627 228.329 74.892 228.167 74.892 Z " fill="rgb(255,195,89)"/></g><g><path d=" M 257.266 32.032 C 257.266 37.376 252.932 41.709 247.588 41.709 C 242.243 41.709 237.91 37.376 237.91 32.032 C 237.91 26.688 242.243 22.354 247.588 22.354 C 252.932 22.354 257.266 26.688 257.266 32.032 Z " fill="rgb(255,77,209)"/></g><g><path d=" M 246.887 31.124 L 243.043 32.532 L 246.887 33.929 L 246.887 35.372 L 241.392 33.283 L 241.392 31.781 L 246.887 29.693 L 246.887 31.124 Z " fill="rgb(249,251,252)"/></g><g><path d=" M 248.142 29.693 L 253.637 31.781 L 253.637 33.283 L 248.142 35.372 L 248.142 33.929 L 251.986 32.532 L 248.142 31.124 L 248.142 29.693 Z " fill="rgb(249,251,252)"/></g><g><path d=" M 194.074 195.206 C 194.074 201.005 189.374 205.703 183.577 205.703 C 177.778 205.703 173.079 201.005 173.079 195.206 C 173.079 189.409 177.778 184.709 183.577 184.709 C 189.374 184.709 194.074 189.409 194.074 195.206 Z " fill="rgb(255,194,64)"/></g><g><path d=" M 182.168 195.455 C 182.168 196.41 182.557 196.887 183.336 196.887 C 183.743 196.887 184.052 196.743 184.265 196.456 C 184.477 196.168 184.607 195.702 184.652 195.054 L 184.741 193.554 C 184.511 193.504 184.251 193.479 183.96 193.479 C 183.395 193.479 182.955 193.655 182.64 194.008 C 182.325 194.362 182.168 194.843 182.168 195.455 Z  M 189.12 194.606 C 189.12 195.258 189.016 195.854 188.807 196.395 C 188.599 196.935 188.305 197.36 187.924 197.667 C 187.544 197.976 187.103 198.13 186.6 198.13 C 186.265 198.13 185.971 198.048 185.711 197.888 C 185.453 197.727 185.268 197.516 185.155 197.254 L 185.045 197.254 C 184.557 197.836 183.935 198.13 183.18 198.13 C 182.379 198.13 181.748 197.888 181.285 197.407 C 180.824 196.924 180.592 196.264 180.592 195.427 C 180.592 194.472 180.896 193.704 181.503 193.119 C 182.109 192.536 182.901 192.244 183.879 192.244 C 184.268 192.244 184.696 192.28 185.165 192.356 C 185.633 192.43 186.02 192.52 186.323 192.624 L 186.167 195.943 C 186.167 196.572 186.339 196.887 186.683 196.887 C 186.972 196.887 187.201 196.675 187.375 196.252 C 187.547 195.828 187.633 195.275 187.633 194.592 C 187.633 193.864 187.48 193.22 187.177 192.66 C 186.875 192.102 186.448 191.676 185.899 191.382 C 185.348 191.088 184.72 190.94 184.015 190.94 C 183.1 190.94 182.307 191.128 181.632 191.503 C 180.957 191.879 180.44 192.422 180.081 193.13 C 179.721 193.838 179.54 194.655 179.54 195.584 C 179.54 196.832 179.875 197.791 180.541 198.459 C 181.209 199.126 182.177 199.46 183.444 199.46 C 183.923 199.46 184.451 199.407 185.027 199.3 C 185.6 199.194 186.167 199.039 186.723 198.835 L 186.723 200.139 C 185.753 200.55 184.68 200.756 183.499 200.756 C 181.779 200.756 180.437 200.304 179.476 199.399 C 178.515 198.494 178.033 197.235 178.033 195.624 C 178.033 194.507 178.28 193.491 178.771 192.58 C 179.261 191.667 179.961 190.952 180.868 190.434 C 181.775 189.916 182.819 189.656 184.001 189.656 C 184.996 189.656 185.885 189.862 186.669 190.268 C 187.452 190.675 188.056 191.255 188.48 192.006 C 188.907 192.758 189.12 193.624 189.12 194.606 Z " fill="rgb(255,255,255)"/></g><g><path d=" M 130.824 13.601 L 64.968 13.601 C 59.62 13.601 55.284 17.937 55.284 23.287 C 55.284 28.635 59.62 32.971 64.968 32.971 L 69.811 32.971 L 74.492 37.652 L 79.173 32.971 L 130.824 32.971 C 136.173 32.971 140.509 28.635 140.509 23.287 C 140.509 17.937 136.173 13.601 130.824 13.601 Z " fill="rgb(149,112,238)"/></g><g><path d=" M 111.98 26.373 L 68.646 26.373 C 68.047 26.373 67.563 25.888 67.563 25.291 C 67.563 24.692 68.047 24.207 68.646 24.207 L 111.98 24.207 C 112.578 24.207 113.063 24.692 113.063 25.291 C 113.063 25.888 112.578 26.373 111.98 26.373 Z " fill="rgb(255,255,255)"/></g><g><path d=" M 98.437 20.415 L 68.645 20.415 C 68.047 20.415 67.563 19.93 67.563 19.333 C 67.563 18.734 68.047 18.249 68.645 18.249 L 98.437 18.249 C 99.036 18.249 99.52 18.734 99.52 19.333 C 99.52 19.93 99.036 20.415 98.437 20.415 Z " fill="rgb(255,255,255)"/></g><g><path d=" M 220.836 136.321 C 220.836 136.321 220.031 138.711 219.585 140.157 C 219.585 140.157 223.533 140.073 224.923 138.238 L 223.451 134.707 L 220.836 136.321 Z " fill="rgb(247,211,169)"/></g><g><path d=" M 220.242 202.254 L 220.581 203.758 L 222.761 203.881 L 222.299 202.04 L 220.242 202.254 Z " fill="rgb(247,154,116)"/></g><g><path d=" M 220.581 203.758 C 220.581 203.758 216.927 205.662 216.957 205.785 C 216.989 205.908 223.129 205.262 223.129 205.262 L 222.761 203.881 L 220.581 203.758 Z " fill="rgb(84,77,184)"/></g><g><path d=" M 238.667 199.223 L 239.523 200.506 L 241.6 199.835 L 240.508 198.283 L 238.667 199.223 Z " fill="rgb(247,154,116)"/></g><g><path d=" M 239.522 200.506 C 239.522 200.506 236.798 203.596 236.871 203.7 C 236.943 203.804 242.441 200.991 242.441 200.991 L 241.601 199.835 L 239.522 200.506 Z " fill="rgb(84,77,184)"/></g><g><path d=" M 216.19 162.493 C 216.19 162.493 209.927 182.942 219.875 202.653 L 222.822 202.653 C 222.822 202.653 216.927 180.362 224.295 162.309 L 216.19 162.493 Z " fill="rgb(255,194,64)"/></g><g><path d=" M 221.627 163.217 C 221.627 163.217 222.599 184.579 238.591 199.803 L 241.367 198.813 C 241.367 198.813 228.325 179.799 229.201 160.319 L 221.627 163.217 Z " fill="rgb(255,194,64)"/></g><g><path d=" M 218.759 115.079 L 218.767 113.819 C 218.767 113.763 218.76 113.708 218.746 113.655 L 218.507 112.752 L 217.787 112.936 L 217.055 112.259 C 216.744 111.973 216.247 112.067 216.068 112.447 C 215.842 112.927 215.584 113.545 215.504 114.016 C 215.471 114.204 215.534 114.392 215.662 114.533 L 216.783 115.76 C 216.943 115.936 217.19 116.004 217.419 115.937 L 218.312 115.672 C 218.576 115.595 218.758 115.353 218.759 115.079 Z " fill="rgb(247,154,116)"/></g><g><path d=" M 229.564 142.731 C 229.564 142.731 221.394 133.976 220.857 130.699 C 220.317 127.423 219.124 115.232 219.124 115.232 L 216.604 115.719 C 216.604 115.719 215.74 133.154 216.504 135.162 C 217.269 137.17 222.181 147.403 225.38 148.347 C 228.58 149.292 230.826 146.138 229.564 142.731 Z " fill="rgb(255,79,114)"/></g><g><path d=" M 218.216 128.289 C 218.216 128.289 216.373 134.42 217.54 135.965 C 218.708 137.511 223.005 136.111 224.673 133.639 C 226.341 131.165 226.676 125.6 223.84 125.137 C 221.004 124.673 218.884 125.817 218.216 128.289 Z " fill="rgb(247,154,116)"/></g><g><path d=" M 229.269 164.151 C 229.269 164.151 230.927 146.466 230.927 141.677 C 230.927 141.457 230.923 141.251 230.92 141.046 C 229.687 137.931 226.627 137.993 225.401 138.237 C 224.173 138.483 219.383 140.018 219.413 140.202 L 219.401 140.186 C 217.751 141.385 216.489 142.805 216.373 143.15 C 216.373 143.15 211.953 152.361 215.821 163.414 L 229.269 164.151 Z " fill="rgb(255,79,114)"/></g><g><path d=" M 205.857 115.982 L 205.642 114.74 C 205.633 114.685 205.615 114.632 205.593 114.582 L 205.198 113.736 L 204.523 114.044 L 203.682 113.506 C 203.329 113.28 202.855 113.458 202.745 113.865 C 202.606 114.377 202.461 115.03 202.465 115.509 C 202.466 115.698 202.559 115.874 202.711 115.989 L 204.029 117 C 204.218 117.145 204.474 117.17 204.687 117.064 L 205.521 116.645 C 205.767 116.522 205.903 116.253 205.857 115.982 Z " fill="rgb(247,154,116)"/></g><g><path d=" M 221.348 141.308 C 221.348 141.308 211.768 134.124 210.664 130.992 C 209.558 127.86 206.242 116.069 206.242 116.069 L 203.848 116.992 C 203.848 116.992 206.058 134.308 207.162 136.15 C 208.268 137.993 214.901 147.204 218.216 147.572 C 221.533 147.941 223.19 144.44 221.348 141.308 Z " fill="rgb(255,79,114)"/></g><g><path d=" M 225.033 125.097 C 225.033 125.097 220.119 123.01 217.786 127.307 C 216.559 130.01 220.489 127.43 221.226 128.29 C 221.962 129.15 220.242 130.869 220.734 131.483 C 221.226 132.097 222.085 130.378 222.577 131.359 C 223.067 132.343 221.839 132.465 220.979 133.57 C 220.119 134.677 221.717 136.273 220.489 137.255 C 219.261 138.237 215.822 138.974 217.909 144.255 C 219.998 149.537 214.47 150.887 216.805 158.133 C 219.138 165.379 234.981 169.433 237.929 160.835 C 240.875 152.238 231.051 150.15 231.665 146.343 C 232.279 142.535 234.49 141.554 231.542 137.746 C 228.594 133.939 226.751 131.729 227.613 129.273 C 228.471 126.815 226.138 125.097 225.033 125.097 Z " fill="rgb(84,77,184)"/></g><g><path d=" M 242.478 106.433 C 241.766 106.433 241.187 105.854 241.187 105.142 C 241.187 104.429 241.766 103.851 242.478 103.851 C 243.19 103.851 243.768 104.429 243.768 105.142 C 243.768 105.854 243.19 106.433 242.478 106.433 Z  M 238.43 111.727 C 236.728 111.727 235.328 110.462 235.104 108.825 L 241.755 108.825 C 241.531 110.462 240.13 111.727 238.43 111.727 Z  M 233.091 105.142 C 233.091 104.429 233.668 103.851 234.382 103.851 C 235.094 103.851 235.672 104.429 235.672 105.142 C 235.672 105.854 235.094 106.433 234.382 106.433 C 233.668 106.433 233.091 105.854 233.091 105.142 Z  M 238.43 95.403 C 232.598 95.403 227.868 100.131 227.868 105.963 C 227.868 111.795 232.598 116.523 238.43 116.523 C 244.262 116.523 248.991 111.795 248.991 105.963 C 248.991 100.131 244.262 95.403 238.43 95.403 Z " fill="rgb(254,200,0)"/></g><g><path d=" M 81.56 181.075 L 80.941 179.837 L 97.683 171.468 L 118.803 171.813 L 141.735 163.176 L 159.249 163.176 L 177.949 156.941 L 178.101 156.959 L 193.099 158.663 L 201.552 154.268 L 202.191 155.493 L 193.364 160.084 L 193.152 160.06 L 178.097 158.349 L 159.361 164.557 L 141.861 164.557 L 119.044 173.201 L 118.913 173.199 L 97.999 172.856 L 81.56 181.075 Z " fill="rgb(249,251,252)"/></g><g><path d=" M 143.001 147.909 C 143.001 147.909 159.591 174.779 157.517 193.472 L 168.807 193.705 L 163.969 190.901 L 165.352 190.667 C 165.352 190.667 161.203 161.695 157.287 151.413 C 153.184 140.645 151.987 144.637 151.987 144.637 L 143.001 147.909 Z " fill="rgb(84,77,184)"/></g><g><path d=" M 137.01 146.24 C 137.01 146.24 137.932 164.904 136.549 172.045 C 135.166 179.189 131.02 193.244 131.02 193.244 L 141.618 193.475 L 138.834 191.509 L 137.068 190.48 C 137.068 190.48 144.613 170.204 145.305 160.527 C 145.996 150.848 147.149 145.319 147.149 145.319 L 137.01 146.24 Z " fill="rgb(84,77,184)"/></g><g><path d=" M 158.698 90.999 L 160.426 89.79 L 161.203 86.938 L 160.339 86.766 L 159.822 87.802 L 160.339 82.878 L 159.475 83.05 L 158.613 87.802 L 157.574 90.049 L 158.525 90.654" fill="rgb(247,211,169)"/></g><g><path d=" M 168.922 96.126 L 169.152 94.051 L 171.687 91.517 L 172.263 92.323 L 171.34 93.361 L 176.179 92.209 L 176.179 93.246 L 171.687 94.974 L 170.766 96.586 L 168.922 96.126 Z " fill="rgb(247,211,169)"/></g><g><path d=" M 157.499 89.256 C 157.499 89.256 137.821 113.134 135.529 117.91 C 135.529 117.91 134.575 119.629 134.575 124.597 C 134.575 129.564 136.295 147.902 136.295 147.902 L 156.353 149.049 C 156.353 149.049 149.857 126.698 149.667 126.125 C 149.475 125.553 146.228 122.114 143.171 121.349 L 159.981 90.976 L 157.499 89.256 Z " fill="rgb(109,184,255)"/></g><g><path d=" M 145.039 119.042 C 145.039 119.042 145.875 121.522 146.336 123.021 C 146.336 123.021 142.242 122.935 140.8 121.031 L 142.33 117.37 L 145.039 119.042 Z " fill="rgb(247,211,169)"/></g><g><path d=" M 148.152 111.292 C 148.152 111.292 149.363 118.345 148.152 119.947 C 146.942 121.549 142.791 118.825 141.06 116.261 C 139.331 113.697 138.984 107.927 141.926 107.445 C 144.866 106.965 147.46 108.728 148.152 111.292 Z " fill="rgb(247,211,169)"/></g><g><path d=" M 146.292 124.347 C 146.292 124.347 162.066 114.424 163.338 112.388 C 164.61 110.353 168.173 95.213 168.173 95.213 L 171.226 95.977 C 171.226 95.977 169.445 112.897 168.936 114.679 C 168.428 116.46 152.906 132.997 149.344 132.997 C 145.782 132.997 144.51 128.419 146.292 124.347 Z " fill="rgb(109,184,255)"/></g><g><path d=" M 147.034 109.721 C 147.034 109.721 147.839 106.955 146.112 105.573 C 144.384 104.191 141.388 104.421 140.927 104.882 C 140.927 105.689 142.771 106.149 142.31 106.61 C 141.848 107.071 139.43 106.61 138.854 109.029 C 138.278 111.449 139.084 111.91 139.084 111.91 C 139.084 111.91 137.816 113.407 139.314 115.481 C 140.812 117.554 144.196 119.263 145.039 119.042 C 145.882 118.821 145.42 115.595 145.42 115.595 C 145.42 115.595 143.462 115.365 143.346 114.098 C 143.231 112.831 144.268 112.715 144.728 113.177 C 145.19 113.638 145.304 114.674 145.651 114.443 C 145.996 114.213 145.535 111.794 145.535 111.794 C 145.535 111.794 146.803 110.757 147.034 109.721 Z " fill="rgb(84,77,184)"/></g><g><path d=" M 156.319 180.305 L 144.471 183.554 C 141.214 184.448 139.28 187.844 140.174 191.102 L 142.414 199.273 C 143.307 202.53 146.704 204.465 149.962 203.572 L 153.514 202.597 L 157.012 206.054 L 158.256 201.296 L 161.81 200.322 C 165.068 199.429 167.002 196.032 166.108 192.774 L 163.867 184.604 C 162.972 181.345 159.576 179.41 156.319 180.305 Z " fill="rgb(149,112,238)"/></g><g><path d=" M 148.479 193.694 C 148.678 194.418 148.252 195.166 147.528 195.364 C 146.804 195.562 146.058 195.137 145.858 194.413 C 145.66 193.689 146.086 192.942 146.81 192.742 C 147.532 192.545 148.282 192.97 148.479 193.694 Z " fill="rgb(255,255,255)"/></g><g><path d=" M 154.45 192.056 C 154.648 192.78 154.222 193.528 153.498 193.727 C 152.774 193.924 152.028 193.499 151.829 192.775 C 151.63 192.051 152.056 191.304 152.78 191.104 C 153.504 190.907 154.252 191.332 154.45 192.056 Z " fill="rgb(255,255,255)"/></g><g><path d=" M 160.421 190.418 C 160.619 191.142 160.194 191.89 159.47 192.089 C 158.746 192.286 157.999 191.861 157.799 191.137 C 157.602 190.413 158.027 189.666 158.751 189.468 C 159.475 189.269 160.223 189.694 160.421 190.418 Z " fill="rgb(255,255,255)"/></g><g><path d=" M 99.914 171.816 C 99.914 173.025 98.934 174.005 97.725 174.005 C 96.515 174.005 95.537 173.025 95.537 171.816 C 95.537 170.608 96.515 169.626 97.725 169.626 C 98.934 169.626 99.914 170.608 99.914 171.816 Z " fill="rgb(255,194,64)"/></g><g><path d=" M 180.328 157.761 C 180.328 158.969 179.348 159.95 178.139 159.95 C 176.929 159.95 175.951 158.969 175.951 157.761 C 175.951 156.553 176.929 155.571 178.139 155.571 C 179.348 155.571 180.328 156.553 180.328 157.761 Z " fill="rgb(255,79,114)"/></g></g></g></svg>