<svg xmlns="http://www.w3.org/2000/svg" width="1385" height="1042"><defs><linearGradient id="grd1" gradientUnits="userSpaceOnUse" x1="369.34" y1="551.535" x2="995.234" y2="551.535"><stop offset="0" stop-color="#40d5e6"/><stop offset="1" stop-color="#57f"/></linearGradient><linearGradient id="grd2" gradientUnits="userSpaceOnUse" x1="403.608" y1="523.831" x2="926.171" y2="523.831"><stop offset="0" stop-color="#404b61"/><stop offset="1" stop-color="#2f3e5c"/></linearGradient><linearGradient id="grd3" gradientUnits="userSpaceOnUse" x1="1098.309" y1="716.777" x2="1227.652" y2="716.777"><stop offset="0" stop-color="#3076a1"/><stop offset="1" stop-color="#639c38"/></linearGradient><linearGradient id="grd4" gradientUnits="userSpaceOnUse" x1="1081.517" y1="697.321" x2="1252.465" y2="697.321"><stop offset="0" stop-color="#3076a1"/><stop offset="1" stop-color="#639c38"/></linearGradient><linearGradient id="grd5" gradientUnits="userSpaceOnUse" x1="1043.459" y1="670.794" x2="1152.709" y2="670.794"><stop offset="0" stop-color="#3076a1"/><stop offset="1" stop-color="#639c38"/></linearGradient><linearGradient id="grd6" gradientUnits="userSpaceOnUse" x1="1073.359" y1="695.1" x2="1101.083" y2="695.1"><stop offset="0" stop-color="#3076a1"/><stop offset="1" stop-color="#639c38"/></linearGradient><linearGradient id="grd7" gradientUnits="userSpaceOnUse" x1="1005.358" y1="701.904" x2="1096.13" y2="701.904"><stop offset="0" stop-color="#3076a1"/><stop offset="1" stop-color="#639c38"/></linearGradient><linearGradient id="grd8" gradientUnits="userSpaceOnUse" x1="1079.345" y1="914.081" x2="1161.891" y2="593.071"><stop offset="0" stop-color="#3076a1"/><stop offset="1" stop-color="#639c38"/></linearGradient><linearGradient id="grd9" gradientUnits="userSpaceOnUse" x1="1104.207" y1="765.044" x2="1144.037" y2="765.044"><stop offset="0" stop-color="#3076a1"/><stop offset="1" stop-color="#639c38"/></linearGradient><linearGradient id="grd10" gradientUnits="userSpaceOnUse" x1="1067.879" y1="838.919" x2="1143.632" y2="838.919"><stop offset="0" stop-color="#ff9340"/><stop offset="1" stop-color="#ffce45"/></linearGradient><linearGradient id="grd11" gradientUnits="userSpaceOnUse" x1="1067.879" y1="838.919" x2="1143.632" y2="838.919"><stop offset="0" stop-color="#c97332"/><stop offset="1" stop-color="#ffce45"/></linearGradient><linearGradient id="grd12" gradientUnits="userSpaceOnUse" x1="665.475" y1="677.673" x2="665.475" y2="1024.706"><stop offset="0" stop-color="#40d5e6"/><stop offset="1" stop-color="#57f"/></linearGradient><linearGradient id="grd13" gradientUnits="userSpaceOnUse" x1="4.112" y1="939.258" x2="690.539" y2="939.258"><stop offset="0" stop-color="#40d5e6"/><stop offset="1" stop-color="#57f"/></linearGradient><linearGradient id="grd14" gradientUnits="userSpaceOnUse" x1="366.698" y1="551.538" x2="992.592" y2="551.538"><stop offset="0" stop-color="#d1f5f9"/><stop offset="1" stop-color="#d6deff"/></linearGradient><linearGradient id="grd15" gradientUnits="userSpaceOnUse" x1="403.608" y1="523.831" x2="926.171" y2="523.831"><stop offset="0" stop-color="#d1d4d9"/><stop offset="1" stop-color="#cdd1d8"/></linearGradient><linearGradient id="grd16" gradientUnits="userSpaceOnUse" x1="996.419" y1="701.904" x2="1096.235" y2="701.904"><stop offset="0" stop-color="#cddee9"/><stop offset="1" stop-color="#dae7cf"/></linearGradient></defs><style>.shp2{fill:#6aafe8}.shp8{fill:#fff}.shp13{fill:#1487e3}.shp14{fill:#78c2ff}.shp15{fill:#ff7e55}.shp16{fill:#424773}.shp17{fill:#292c47}.shp18{fill:#eea886}.shp19{fill:#754836}.shp22{fill:#a1d4ff}.shp26{fill:#e0e0e0}.shp27{fill:#ff8761}.shp37{fill:#414773}.shp38{fill:#2d314f}.shp41{fill:#353a3d}.shp44{fill:#6069a8}.shp45{fill:#202338}.shp46{fill:#464240}.shp48{fill:#325bb3}</style><g id="Page 1"><path id="Path 2" d="M947.08 760.19H383.69V362.62c0-10.9 8.84-19.74 19.74-19.74h523.92c10.9 0 19.73 8.84 19.73 19.74v102.72h-20.91V363.32H403.61v321.02h522.56v-33.46h20.91v109.31z" fill="url(#grd1)"/><path id="Path 3" d="M926.17 684.34H403.61V363.32h522.56v102.02h-166.6c-4.62 0-8.36 3.75-8.36 8.37v168.8c0 4.62 3.74 8.37 8.36 8.37h166.6v33.46z" fill="url(#grd2)"/><path id="Path 4" fill-rule="evenodd" class="shp2" d="M348.72 364.81H215.8l.23-1.19c2.13-10.95 11.79-18.89 22.97-18.89 1.61 0 3.22.16 4.79.5 6.92-13.17 20.38-21.31 35.3-21.31 12.71 0 24.7 6.1 32.21 16.36 2.74-.83 5.59-1.25 8.47-1.25 14.47 0 26.57 10.36 28.77 24.63l.18 1.15zm-130.48-1.99h128.13c-2.5-12.51-13.73-21.81-26.6-21.81-2.92 0-5.8.47-8.54 1.38l-.7.23-.43-.6c-7.11-10.09-18.7-16.11-31.01-16.11-14.42 0-27.41 8.01-33.88 20.9l-.36.71-.77-.19c-1.65-.41-3.36-.62-5.08-.62-9.82 0-18.36 6.71-20.76 16.11zm618.64-161.63l-.45-.23c-47.17-24.08-40.84-70.72-40.77-71.19l.13-.85h.85c29.99 0 39.42-9.66 39.51-9.76l.73-.78.73.78c.09.1 9.51 9.76 39.5 9.76h.86l.13.85c.06.47 6.4 47.11-40.77 71.19l-.45.23zm-39.35-70.29c-.59 6.32-2.58 46.36 39.35 68.06 41.93-21.7 39.94-61.74 39.34-68.06-26.04-.16-36.63-7.41-39.34-9.71-2.71 2.3-13.31 9.55-39.35 9.71z"/><path id="Path 5" d="M1094.99 821.05c-7.1-32.45 8.24-40.55 23.07-48.37 12.13-6.4 23.58-12.45 22.97-31.57-.81-25.35 16.46-34.57 31.7-42.71 11.33-6.05 22.03-11.77 23.63-23.3 3.84-27.76 29.44-62.25 29.7-62.6l1.59 1.19c-.25.34-25.55 34.43-29.32 61.68-1.74 12.53-12.88 18.48-24.67 24.78-15.45 8.25-31.42 16.78-30.65 40.9.65 20.36-11.89 26.98-24.02 33.38-14.83 7.83-28.84 15.22-22.07 46.19l-1.93.43z" fill="url(#grd3)"/><path id="Path 6" fill-rule="evenodd" d="M1102.78 812.78c-.34 0-.68-.01-1.03-.04-6.41-.47-12.7-5.35-19.79-15.34l-.44-.63.49-.58c.12-.14 11.48-13.99 7.31-39.98-.98-6.07-2.28-10.71-3.32-14.44-1.53-5.44-2.54-9.03-.85-11.9 2.15-3.64 7.94-5.55 24.25-9.43 17.37-4.14 23.17-23.71 28.3-40.98 4.83-16.26 9.4-31.6 22.91-31.12 12.42.47 31.29-18.99 47.93-36.15 15.44-15.91 30.01-30.91 39.33-30.62 2.24.08 4.13 1.02 5.61 2.79 8.31 9.89.56 24.9-6.93 39.42-6.4 12.38-12.44 24.08-8.55 31.79 4.89 9.69 5.57 18.47 1.98 25.36-4.25 8.16-14.16 13.43-29.45 15.64-13.98 2.03-15.49 17.28-17.09 33.42-1.87 18.84-3.99 40.19-27.45 42.22-17.42 1.51-29.16 13.74-39.52 24.53-8.24 8.58-15.4 16.04-23.69 16.04zm-18.77-15.93c6.45 8.95 12.31 13.5 17.89 13.91 7.8.58 14.91-6.82 23.14-15.4 10.6-11.04 22.62-23.55 40.78-25.12 21.82-1.89 23.76-21.49 25.64-40.44 1.68-16.94 3.27-32.94 18.78-35.19 14.63-2.12 24.04-7.03 27.98-14.6 3.28-6.3 2.59-14.45-1.99-23.55-4.35-8.61 1.92-20.75 8.55-33.59 7.2-13.94 14.64-28.35 7.18-37.23-1.12-1.34-2.48-2.02-4.16-2.08-8.42-.28-22.71 14.42-37.84 30.01-17.53 18.08-35.65 36.76-48.91 36.76l-.51-.01c-11.99-.44-16.14 13.53-20.94 29.71-5.27 17.78-11.25 37.94-29.74 42.34-14.76 3.52-21.21 5.47-23 8.51-1.26 2.14-.39 5.23 1.05 10.36 1.06 3.77 2.37 8.47 3.37 14.65 3.87 24.16-5.03 37.94-7.27 40.96z" fill="url(#grd4)"/><path id="Path 7" fill-rule="evenodd" d="M1103.5 805.98c-.23 0-.46-.01-.69-.03-10.53-.96-18.62-24.01-26.44-46.31-3.72-10.57-7.22-20.56-10.64-26.97-2.64-4.98-6.01-10.16-9.27-15.18-8.67-13.35-17.63-27.17-14.71-39.29 1.53-6.37 6.11-11.68 13.99-16.22 17.24-9.94 14.59-15.55 8.78-27.85-4.27-9.02-10.11-21.38-10.34-40.83-.09-8.36-.29-15.59-.46-21.97-.55-20.5-.82-30.78 3.55-34.51 1.82-1.54 4.35-1.93 7.98-1.25 6.21 1.19 8.89 6.2 11.74 11.51 3.62 6.77 7.73 14.44 20.13 17.03 11.64 2.44 22.84 5.76 25.93 13.49 2.17 5.44.11 12.59-6.29 21.87-1.55 2.25-2.09 4.16-1.63 5.84 1.02 3.74 6.81 6.44 13.53 9.58 9.55 4.46 21.45 10.01 24.82 21.5 2.71 9.26-.43 20.81-9.61 35.31-21.7 34.31-20.83 57.58-20.06 78.1.57 15.22 1.11 29.58-8.06 45.64-4.05 7.08-8.06 10.54-12.25 10.54zm-41.36-268.75c-1.55 0-2.71.37-3.58 1.1-3.65 3.11-3.37 13.71-2.85 32.95.17 6.38.36 13.62.46 21.99.22 19.02 5.96 31.15 10.14 40.01 5.77 12.21 9.25 19.57-9.58 30.42-7.38 4.26-11.66 9.15-13.06 14.97-2.71 11.29 6.02 24.74 14.46 37.74 3.28 5.05 6.67 10.27 9.35 15.32 3.49 6.55 7.02 16.61 10.76 27.26 7.26 20.69 15.5 44.14 24.75 44.98 3.53.32 7.24-2.88 11.03-9.52 8.9-15.56 8.39-29 7.81-44.57-.78-20.82-1.67-44.41 20.37-79.24 8.85-13.99 11.92-25.02 9.37-33.7-3.11-10.62-14.08-15.74-23.75-20.25-7.16-3.34-13.35-6.23-14.61-10.85-.61-2.29.01-4.74 1.92-7.5 5.99-8.69 7.98-15.23 6.07-20-2.75-6.88-13.92-10.07-24.48-12.28-13.31-2.79-17.84-11.25-21.48-18.05-2.73-5.09-5.09-9.48-10.36-10.48-1.02-.2-1.93-.3-2.74-.3z" fill="url(#grd5)"/><path id="Path 8" d="M1103.71 818.28l-1.89-.59c10.6-33.54-8.58-108.77-14.3-127.08-2.81-9-.22-22.55 2.3-35.66 3.24-16.92 6.6-34.43-1.96-40.99-16.07-12.32-15.22-40.83-15.18-42.04l1.98.07c-.01.29-.85 28.7 14.41 40.39 9.53 7.31 6.06 25.43 2.7 42.94-2.47 12.87-5.02 26.17-2.36 34.7 7.08 22.64 24.88 94.81 14.3 128.26z" fill="url(#grd6)"/><path id="Path 9" d="M1089.49 810.52c-7.75 0-14.95-27.34-24.8-39.88-11.63-14.8-16.38-38.05-30.12-54.96-13.74-16.91-52.32-22.19-35.41-49.14 3.74-5.95 6.1-11.41 7.51-16.48a8.358 8.358 0 004.77-7.55v-49.05a9.68 9.68 0 011.86-.17c4.09 0 8.29 2.43 10.17 7.2 13.74 34.87 40.57 28.98 37.49 44.23-6.99 34.56 14.3 39.26 35.46 54.58 21.17 15.32 0 30.38-1.05 54.16-1.06 23.78 7.89 40.96-1.62 54.17-1.45 2.01-2.86 2.89-4.26 2.89z" fill="url(#grd7)"/><path id="Path 10" class="shp8" d="M1109.15 810.69c-.12-.71-11.87-70.36-38.18-89.45-26.83-19.47-31.7-37.45-41.07-79.85l1.94-.43c9.25 41.88 14.06 59.64 40.3 78.68 26.97 19.56 38.49 87.82 38.97 90.72l-1.96.33z"/><path id="Path 11" d="M1085.41 808.19s7.82-19.33-6.41-46.81c-14.23-27.49-25.74-23.26 8.56-44.4 34.29-21.14.21-87.73 29.41-96.18 29.19-8.46 54.56-116.24 76.76-102.51 22.19 13.72-7.4 66.57 8.45 82.42 15.86 15.86 17.97 36.04-14.79 52.37-32.77 16.34 23.25 78.7-21.14 97.73-44.4 19.02-31.66 93.62-80.84 57.38z" fill="url(#grd8)"/><path id="Path 12" class="shp8" d="M1098.97 828.69c-.05-.24-4.82-25 10.26-56.98 15.37-32.59 22.72-68.21 19.68-95.29-1.66-14.67 7.74-20.4 16.83-25.95 8.94-5.47 18.19-11.11 17.68-25.56-.46-13.06 5.07-43.66 5.3-44.96l1.96.36c-.06.32-5.73 31.69-5.27 44.53.55 15.61-9.21 21.56-18.64 27.32-8.95 5.47-17.4 10.63-15.89 24.04 3.08 27.43-4.34 63.45-19.85 96.35-14.79 31.36-10.16 55.51-10.11 55.75l-1.95.39zm35.88-136.59c9.96-9.26 23.15-10.59 20.4 3.14-2.74 13.74-12.16 17.66-7.45 26.3 4.71 8.63 12.55 17.26-.79 27.86-13.34 10.6-20.8 11.77-24.72 31.79-3.93 20.01-3.14 33.68-20.41 34.54-17.27.85-10.6-24.34-5.1-35.72 0 0 8.24-12.99 2.74-30.04-5.49-17.05-16.09-26.26 6.28-32.06 22.37-5.79 22.33-19.57 29.05-25.81z"/><path id="Path 13" d="M1103.13 828.52c-.06-2.45-1.24-60.11 9.54-69.81 11.01-9.91 13.13-27.43 13.41-36.98.37-12.46 16.46-19.86 17.14-20.16l.82 1.81c-.16.07-15.65 7.19-15.98 18.4-.35 12.06-3.08 28.52-14.06 38.41-10.11 9.1-8.9 67.69-8.89 68.28l-1.98.05z" fill="url(#grd9)"/><path id="Path 14" d="M1143.63 804.99l-17.89 67.86h-39.98l-17.88-67.86h75.75z" fill="url(#grd10)"/><path id="Path 15" d="M1143.63 804.99s-39.38 7.39-39.38 67.86h-18.49l-17.88-67.86h75.75z" fill="url(#grd11)"/><path id="Path 16" class="shp13" d="M438.89 633.6h-52.65v-5.96h52.65v5.96z"/><path id="Path 17" class="shp14" d="M375.25 463.16h-84.03V355.69h1.98v105.48h82.05v1.99zm355.68-70.81h-1.98V281.54h106.93v-93.2h1.99v95.18H730.93v108.83zm345.47 123.44H965.13v-1.99h109.28v-64.61h1.99v66.6z"/><path id="Path 18" class="shp15" d="M244.55 605.57S242.17 639 248.7 643c4.09 2.51 20.41 10.96 19.92 12.55-.48 1.59-9.21 14.1-9.21 14.1s-31.34-20.63-32.35-27.14c-.99-6.35 1.54-48.94 5.85-50.91 3.23-1.47 4.93-.25 9 2.77 5.7 4.23 2.64 11.2 2.64 11.2z"/><path id="Path 19" class="shp16" d="M240.91 848.85s-.98 6.77-1.1 7.78c-.12 1.02-10.84-.6-10.84-.6l-.87-8.05s11.47-.08 12.81.87z"/><path id="Path 20" class="shp17" d="M239.93 855.77s3.39 4.08 6.68 5.86c3.28 1.77 8.44 2.47 10.39 4.32 1.4 1.32 5.1 7.04-8.54 6.92-13.64-.11-20.22.81-21.68-1.38-1.46-2.19 2.12-16.18 2.12-16.18s3.22 1.16 11.03.46z"/><path id="Path 21" class="shp16" d="M294.55 848.85s-.97 6.77-1.09 7.78c-.13 1.02-10.84-.6-10.84-.6l-.87-8.05s11.47-.08 12.8.87z"/><path id="Path 22" fill-rule="evenodd" class="shp17" d="M293.57 855.77s3.4 4.08 6.68 5.86c3.29 1.77 15.38 3.23 17.32 5.07 1.4 1.33 3.73 6.67-15.46 6.17-13.64-.36-20.22.81-21.69-1.38-1.46-2.19 2.12-16.18 2.12-16.18s3.04 1.24 11.03.46zm-40.07-77.15c-3.01 7.12-9.21 75.62-9.21 75.62l-17.47.13s-.58-33.91-.33-42.92c.25-9.01 4.85-44.07 6.53-60.91 1.52-15.11 3.17-30.56 2.41-45.03-.45-8.63 2.96-17.81 5.78-23.81-.6-2.25-1.12-4.73-1.52-7.47 0 0 52.46-5.95 58.08 2.98 0 0 3.98 39.33 4.98 48.18 1 8.85.32 47.21.82 52.75.5 5.53-3.35 64.05-4.3 75.2l-19.2-.13s-1.32-47.34-1.32-70.34c0-20.96-4.9-45.05-10.89-60.65-3.47 16.19-11.94 50.67-14.36 56.4z"/><path id="Path 23" class="shp18" d="M255.39 540.13s12-8.02 20.43.57 12.57 28.77 6.52 32.81c-6.05 4.03-16.32 5.08-21.19-.39-4.87-5.46-10.08-13.8-11.35-19.89-1.29-6.09 2.55-10.54 5.59-13.1zm22.87 34.73s-.16 8.44.77 10.24c.93 1.8-17.51 1.84-17.51 1.84s-1.5-9.78-4.34-18.04 21.08 5.96 21.08 5.96z"/><path id="Path 24" class="shp19" d="M257.64 568.76s1.72 1.76 6.6-.23c4.87-1.98 9.45-10.17 11.39-11.4 1.94-1.24 1.66-2.48 1.66-2.48l1.78 1.62 2.28-.39s-3.47-5.54-.96-8.72c2.51-3.18-7.79-18.73-22.68-9.24 0 0-11.65 6.37-9.53 13.35 2.13 6.98 5.84 14.62 9.46 17.49z"/><path id="Path 25" d="M280.13 584.88s-.06-3.43-1.62-3.76c-1.56-.33-17.19-1.84-19.1-1.08v4s3.69 2.26 20.72.84z" fill="#e2d2ca"/><path id="Path 26" class="shp18" d="M276.35 552.15c-.56-1.12-4.39-3.81-4.69.1-.3 3.91 3.76 8.11 5.28 7.32 1.53-.8.84-4.58-.59-7.42z"/><path id="Path 27" class="shp19" d="M251.93 542.19s-17.17 4.61 5.02 25.91l-5.02-25.91z"/><path id="Path 28" class="shp18" d="M405.26 633.44l-17.49-.16c1.51-.88 3.95-2.46 3.41-3.18-.77-1.02-5.72 1.23-7.73 1.44-1.85.18-4.94-.05-7.29.8l-5.52 2.36 5.06 4.68s9.15 1.31 11.82 1.5c4.36.31 17.68-4.88 17.9-5.67.4-1.41-.16-1.77-.16-1.77z"/><path id="Path 29" class="shp15" d="M302.96 589.64c-11.13-1.95-22.83-4.76-22.83-4.76l-20.72-.84s-19.01 4.18-26.5 7.56c-.71.32-.71 16.96-2.66 21.33l6.21 13.09s3.58 25.94 4.33 37.48c.34 5.3-7.4 49.67-7.4 49.67s8.29 2.44 22.43 3.99c14.14 1.56 49.46-.56 49.68-2.23.23-1.67-6.84-62.17-7.15-65.31-.48-4.81 1.39-27.03 1.39-27.03 2.66 3.58 18.06 17 25.58 21.27 5.35 3.03 18.47 1.18 22.33.78 8.37-.85 31.47-2.51 31.92-3.33.36-.49-1.33-8.91-2.29-9.24-.85-.28-30.67-1.75-38.16-1.37-3.03.16-12.93-10.89-12.93-10.89s-17.1-27.41-23.23-30.17z"/><path id="Path 30" d="M175.56 505.91h54.76v48.04l-8.36-8.36h-46.4v-39.68z" fill="#ffcb55"/><path id="Path 31" fill-rule="evenodd" class="shp2" d="M1057.3 379.61h-53.2v-53.2h53.2v53.2zm-51.42-1.78h49.65v-49.65h-49.65v49.65zm183.82-31.92h-121.76v-13h121.76v13zm-119.99-1.77h118.22v-9.45h-118.22v9.45zm119.99 62.25h-185.6v-13h185.6v13zm-183.82-1.77h182.05v-9.46h-182.05v9.46zm116.44 26.74H1004.1v-13h118.22v13zm-116.44-1.77h114.66v-9.46h-114.66v9.46z"/><path id="Path 32" fill-rule="evenodd" class="shp2" d="M1150.39 370.72h-82.45v-13h82.45v13zm-80.68-1.77h78.91v-9.46h-78.91v9.46z"/><path id="Path 33" fill-rule="evenodd" class="shp2" d="M1210.83 459.64H982.97V298.13h227.86v161.51zm-226.09-1.77h224.32V299.9H984.74v157.97zm-82.11-232.08h-17.05v-1.98h15.06v-15.05h1.99v17.03zm-114.64 0h-17.06v-17.03h1.99v15.05h15.07v1.98zm-15.06-114.63h-1.99V94.11h17.04v1.99h-15.05v15.06zm129.7-.01h-1.99V96.1h-15.06v-1.98h17.05v17.03zm0 72.15h-1.99v-46.69h1.99v46.69zm-129.71 0h-1.99v-46.69h1.99v46.69z"/><path id="Path 34" fill-rule="evenodd" class="shp14" d="M292.21 356.69c-4.02 0-7.3-3.28-7.3-7.3s3.28-7.3 7.3-7.3c4.03 0 7.3 3.28 7.3 7.3s-3.27 7.3-7.3 7.3zm0-12.61c-2.93 0-5.31 2.38-5.31 5.31 0 2.93 2.38 5.31 5.31 5.31 2.93 0 5.31-2.38 5.31-5.31 0-2.93-2.38-5.31-5.31-5.31zm544.67-154.74c-4.03 0-7.3-3.28-7.3-7.3s3.27-7.29 7.3-7.29c4.02 0 7.3 3.27 7.3 7.29s-3.28 7.3-7.3 7.3zm0-12.61c-2.93 0-5.31 2.38-5.31 5.31 0 2.93 2.38 5.31 5.31 5.31 2.93 0 5.31-2.38 5.31-5.31 0-2.93-2.38-5.31-5.31-5.31zm238.52 273.8c-4.02 0-7.29-3.28-7.29-7.3s3.27-7.3 7.29-7.3c4.03 0 7.3 3.28 7.3 7.3s-3.27 7.3-7.3 7.3zm0-12.61a5.32 5.32 0 00-5.31 5.31 5.32 5.32 0 005.31 5.31c2.93 0 5.31-2.38 5.31-5.31 0-2.93-2.38-5.31-5.31-5.31z"/><path id="Path 35" fill-rule="evenodd" class="shp22" d="M340.61 154.06h-50.09v-50.09h50.09v50.09zm-48.1-1.99h46.11v-46.11h-46.11v46.11zm24.05-11.1h-1.99v-10.68h-10.68v-1.99h10.68v-10.68h1.99v10.68h10.68v1.99h-10.68v10.68zm787.35 73.51h-71.6v-51.11h71.6v51.11zm-3.3-1.98l-23.93-25.23-8.57 7.06-8.57-7.06-23.92 25.23h64.99zm-66.31-46.03V211l23.71-25-23.71-19.53zm67.62 0l-23.7 19.53 23.7 25v-44.53zm-33.81 25.29l32.04-26.4h-64.07l32.03 26.4zM465.6 265.83l-.75-1.95c-.67-.09-1.32-.24-1.96-.45l-1.52 1.43-4.41-3.14.85-1.91c-.41-.53-.77-1.1-1.07-1.7l-2.08-.07-.9-5.34 1.95-.74c.08-.67.24-1.32.45-1.96l-1.43-1.52 3.14-4.41 1.9.85c.54-.41 1.11-.77 1.71-1.07l.06-2.08 5.34-.9.75 1.94c.66.09 1.32.24 1.96.45l1.52-1.42 4.41 3.14-.85 1.9c.41.53.76 1.1 1.07 1.71l2.08.06.9 5.34-1.95.75c-.09.66-.24 1.32-.45 1.96l1.43 1.51-3.14 4.42-1.9-.85c-.54.41-1.1.76-1.71 1.06l-.06 2.09-5.34.9zm-3.06-4.12l.44.17c.79.3 1.62.49 2.47.57l.46.04.64 1.66 2.94-.49.05-1.78.43-.2c.78-.34 1.5-.79 2.14-1.34l.36-.3 1.63.73 1.73-2.42-1.23-1.31.17-.43c.31-.79.49-1.62.57-2.47l.04-.47 1.67-.63-.5-2.94-1.78-.06-.19-.42c-.35-.78-.8-1.5-1.35-2.15l-.3-.36.73-1.62-2.42-1.73-1.3 1.22-.44-.17c-.79-.3-1.62-.49-2.47-.56l-.46-.04-.64-1.67-2.93.49-.06 1.79-.43.19c-.78.35-1.5.8-2.15 1.34l-.35.3-1.63-.72-1.73 2.42 1.22 1.3-.16.44c-.31.79-.5 1.62-.57 2.47l-.04.46-1.67.64.5 2.93 1.78.06.19.43c.35.77.8 1.5 1.35 2.14l.3.36-.73 1.63 2.42 1.73 1.3-1.23zm3.69-2.47c-1.22 0-2.4-.38-3.4-1.1a5.881 5.881 0 01-1.39-8.2 5.893 5.893 0 0110.61 2.43c.26 1.55-.1 3.11-1.01 4.39a5.846 5.846 0 01-3.82 2.39c-.33.06-.66.09-.99.09zm.02-10.29c-1.38 0-2.74.65-3.59 1.85a4.39 4.39 0 00-.76 3.28c.2 1.16.84 2.17 1.79 2.85.96.68 2.12.95 3.28.75 1.16-.19 2.17-.83 2.85-1.78a4.4 4.4 0 00.76-3.28c-.2-1.16-.83-2.17-1.79-2.85-.77-.55-1.66-.82-2.54-.82z"/><path id="Path 36" fill-rule="evenodd" class="shp22" d="M424.23 272.05l-1.66-4.34c-1.78-.2-3.54-.6-5.22-1.2l-3.39 3.19-9.21-6.56 1.9-4.24a23.2 23.2 0 01-2.84-4.54l-4.66-.15-1.87-11.15 4.34-1.66c.2-1.78.6-3.54 1.2-5.22l-3.18-3.39 6.55-9.21 4.25 1.9c1.39-1.12 2.92-2.07 4.54-2.84l.14-4.65 11.15-1.88 1.66 4.34c1.78.2 3.53.6 5.22 1.2l3.39-3.18 9.21 6.55-1.9 4.24c1.12 1.4 2.07 2.93 2.85 4.55l4.65.14 1.88 11.15-4.35 1.66c-.2 1.79-.6 3.54-1.2 5.22l3.19 3.39-6.56 9.21-4.24-1.89c-1.4 1.11-2.92 2.06-4.54 2.84l-.15 4.65-11.15 1.87zm-7.34-7.83l.58.22c1.89.72 3.87 1.18 5.89 1.35l.62.06 1.53 3.98 7.93-1.34.14-4.26.57-.26c1.85-.82 3.58-1.9 5.12-3.2l.48-.4 3.89 1.73 4.66-6.55-2.91-3.11.22-.58c.72-1.88 1.18-3.87 1.35-5.89l.05-.62 3.99-1.53-1.34-7.93-4.26-.14-.26-.56a21.24 21.24 0 00-3.2-5.13l-.4-.47 1.73-3.89-6.55-4.67-3.11 2.91-.58-.22c-1.89-.72-3.87-1.18-5.89-1.35l-.62-.05-1.52-3.98-7.94 1.33-.14 4.26-.57.26c-1.85.82-3.57 1.9-5.12 3.2l-.48.4-3.89-1.73-4.66 6.55 2.91 3.11-.22.58c-.72 1.89-1.18 3.87-1.35 5.89l-.05.62-3.98 1.53 1.33 7.93 4.26.14.26.57c.82 1.85 1.9 3.58 3.2 5.12l.4.48-1.73 3.89 6.56 4.66 3.1-2.91zm8.34-7.29c-2.57 0-5.18-.77-7.43-2.38-5.78-4.11-7.13-12.15-3.02-17.92 4.11-5.78 12.15-7.13 17.92-3.02 5.78 4.11 7.14 12.15 3.02 17.92-2.5 3.52-6.47 5.4-10.49 5.4zm.03-23.71c-3.39 0-6.75 1.58-8.86 4.56a10.786 10.786 0 00-1.87 8.11c.49 2.86 2.05 5.36 4.42 7.05 4.88 3.47 11.68 2.32 15.16-2.56a10.8 10.8 0 001.86-8.1c-.48-2.87-2.05-5.37-4.42-7.05a10.806 10.806 0 00-6.29-2.01z"/><path id="Path 37" fill-rule="evenodd" class="shp14" d="M164.24 282.51c-20.44 0-37.07-16.63-37.07-37.07h1.99c0 19.34 15.74 35.08 35.08 35.08 19.34 0 35.08-15.74 35.08-35.08 0-19.35-15.74-35.08-35.08-35.08v-1.99c20.44 0 37.07 16.63 37.07 37.07s-16.63 37.07-37.07 37.07zm0-5.16c-17.6 0-31.91-14.31-31.91-31.91s14.31-31.92 31.91-31.92 31.92 14.32 31.92 31.92h-1.99c0-16.5-13.43-29.93-29.93-29.93s-29.93 13.43-29.93 29.93 13.43 29.93 29.93 29.93v1.98zm-4.54-19.63l-13.37-13.37 1.4-1.41 11.97 11.97 21.05-21.05 1.4 1.4-22.45 22.46z"/><path id="Path 38" d="M947.06 699.94H383.89l-61.63 230.35H1008.69l-61.63-230.35z" fill="url(#grd12)"/><path id="Path 39" fill-rule="evenodd" class="shp8" d="M405.2 740.35h34.6c1.44 0 2.53 1.13 2.26 2.34l-3.35 15.05c-.21.93-1.16 1.6-2.26 1.6h-35.2c-1.48 0-2.57-1.16-2.25-2.4l3.94-15.05c.24-.89 1.17-1.54 2.26-1.54zm50.46 0h26.16l-3.48 18.99h-26.66l3.98-18.99zm39.24 0h26.16l-2.74 18.99-26.66.03 3.24-19.02zm39.24 0h26.15l-1.99 18.99h-26.65l2.49-18.99zm39.23 0h26.16l-1.24 18.99h-26.66l1.74-18.99zm39.24 0h26.16l-.5 18.99-26.66.03 1-19.02zm318.96 18.99h-39.99l-4.22-18.99h39.23l4.98 18.99zm-53.31 0H851.6l-3.48-18.99h26.16l3.98 18.99zm-39.98.03l-26.66-.03-2.74-18.99h26.16l3.24 19.02zm-39.99-.03h-26.66l-1.99-18.99h26.16l2.49 18.99zm-39.98 0h-26.66l-1.24-18.99h26.16l1.74 18.99zm-39.99.03l-26.65-.03-.5-18.99h26.16l.99 19.02zm-66.47-19.02h26.16l.43 18.99h-26.59v-18.99zm-258.16 33.14h54.66l-3.12 19.59h-55.69l4.15-19.59zm546.57 19.59h-68.85l-3.85-19.59h67.57l5.13 19.59zm-82.62 0H830.1l-3.08-19.59h27.03l3.59 19.59zm-41.31 0h-27.54l-2.31-19.59h27.03l2.82 19.59zm-41.31 0h-27.54l-1.53-19.59h27.02l2.05 19.59zm-41.31 0h-27.54l-.76-19.59h27.02l1.28 19.59zm-348.19 15.33h55.88l-4.07 19.45h-56.91l5.1-19.45zm69.85 0h27.94L480 827.86h-28.45l3.82-19.45zm41.91 0h209.54l.78 19.45H494.22l3.06-19.45zm223.53 0h27.94l1.52 19.45h-28.44l-1.02-19.45zm41.91 0h27.94l2.29 19.45H764.5l-1.78-19.45zm41.91 0h27.94l3.06 19.45h-28.45l-2.55-19.45zm41.91 0h27.94l3.82 19.45h-28.45l-3.31-19.45zm41.91 0h55.88l5.1 19.45h-56.9l-4.08-19.45zm-195.99-15.33h-27.32v-19.59h26.81l.51 19.59zm-41.31 0h-27.54l.78-19.59h27.02l-.26 19.59zm-41.3 0h-27.54l1.54-19.59h27.02l-1.02 19.59zm-41.31 0H541l2.31-19.59h27.03l-1.8 19.59zm-41.31 0h-27.54l3.08-19.59h27.03l-2.57 19.59zm-41.31 0h-27.54l3.85-19.59h27.03l-3.34 19.59zm-79.45-64.66l4.44-16.95h12.7l-4.14 16.95h-13zm29.84-16.95h25.4l-3.55 16.95h-25.84l3.99-16.95zm38.11 0h25.4l-2.89 16.95h-25.84l3.33-16.95zm38.1 0h25.4l-2.22 16.95h-25.85l2.67-16.95zm38.1 0h25.4l-1.55 16.95h-25.85l2-16.95zm38.1 0h25.4l-.88 16.95h-25.85l1.33-16.95zm38.1 0h25.4l-.22 16.95h-25.84l.66-16.95zm38.11 0h25.4l.44 16.95h-25.84v-16.95zm38.1 0h25.4l1.11 16.95h-25.85l-.66-16.95zm38.1 0h25.4l1.78 16.95h-25.85l-1.33-16.95zm38.1 0h25.4l2.44 16.95h-25.84l-2-16.95zm38.1 0h25.41l3.1 16.95H820l-2.67-16.95zm38.11 0h25.4l3.77 16.95h-25.84l-3.33-16.95zm38.1 0h25.4l4.44 16.95h-25.85l-3.99-16.95z"/><path id="Path 40" d="M990.75 948.22H340.19c-9.9 0-17.93-8.03-17.93-17.93h686.43c0 9.9-8.03 17.93-17.94 17.93z" fill="url(#grd13)"/><path id="Path 41" d="M745.27 855.85a8.399 8.399 0 00-8.29-7.02H593.96c-4.11 0-7.61 2.97-8.28 7.02l-8.94 54.07c-.84 5.12 3.11 9.77 8.29 9.77h160.89c5.18 0 9.13-4.65 8.29-9.77l-8.94-54.07z" fill="#4d78eb"/><path id="Path 42" class="shp26" d="M497.11 396.52h-58.22v-5.96h58.22v5.96zm58.32 44.88H513.4v-5.96h42.03v5.96z"/><path id="Path 43" class="shp13" d="M589.87 441.4h-27.89v-5.96h27.89v5.96zM467.44 554.27h-27.89v-5.96h27.89v5.96z"/><path id="Path 44" class="shp26" d="M662.72 441.4h-67.34v-5.96h67.34v5.96zm-179.9 90.27h-43.27v-5.96h43.27v5.96zm43.47 45.04h-26.42v-5.95h26.42v5.95z"/><path id="Path 45" class="shp13" d="M491.89 576.71h-52.34v-5.95h52.34v5.95z"/><path id="Path 46" class="shp26" d="M468.42 599.16h-28.87v-5.96h28.87v5.96z"/><path id="Path 47" class="shp14" d="M549.76 396.52h-41.33v-5.96h41.33v5.96z"/><path id="Path 48" class="shp13" d="M549.76 463.85h-41.33v-5.96h41.33v5.96z"/><path id="Path 49" class="shp26" d="M505.43 486.29h-17.66v-5.97h17.66v5.97z"/><path id="Path 50" class="shp14" d="M509.77 509.06h-39.66v-5.96h39.66v5.96z"/><path id="Path 51" class="shp13" d="M570.52 509.06h-54.75v-5.96h54.75v5.96zm-89.64-22.61h-41.33v-5.96h41.33v5.96zm-16.81 22.61h-24.52v-5.96h24.52v5.96z"/><path id="Path 52" class="shp27" d="M536.89 486.45h-23.14v-5.96h23.14v5.96zM463.38 621.6h-23.13v-5.96h23.13v5.96z"/><path id="Path 53" class="shp14" d="M480.71 441.4h-41.32v-5.96h41.32v5.96zm36.55 112.87h-41.33v-5.96h41.33v5.96zm.51 44.89h-41.33v-5.96h41.33v5.96zm73.41 0h-41.32v-5.96h41.32v5.96zM498.3 463.85h-58.91v-5.96h58.91v5.96zm258.47-67.33h-41.32v-5.96h41.32v5.96zM609.55 621.6h-41.33v-5.96h41.33v5.96zm187.74-225.08h-27.66v-5.96h27.66v5.96zm93.6 22.44h-27.67V413h27.67v5.96z"/><path id="Path 54" class="shp13" d="M613.54 396.52h-52.66v-5.96h52.66v5.96zm205.14 22.44h-52.65V413h52.65v5.96zm-64.57 22.44h-52.65v-5.96h52.65v5.96zm-68.55 22.45h-52.65v-5.96h52.65v5.96z"/><path id="Path 55" class="shp14" d="M798.16 441.4h-37.43v-5.96h37.43v5.96z"/><path id="Path 56" class="shp27" d="M705.13 396.52h-52.65v-5.96h52.65v5.96zm-81.86 67.33H592.4v-5.96h30.87v5.96zm-24.17 90.76h-30.88v-5.97h30.88v5.97z"/><path id="Path 57" class="shp26" d="M642.54 396.52h-19.27v-5.96h19.27v5.96zm-62.39 67.33h-19.27v-5.96h19.27v5.96zm270.5-44.89h-19.27V413h19.27v5.96z"/><path id="Path 58" class="shp13" d="M469.04 418.96h-30.15V413h30.15v5.96zm74.1 112.87h-23.8v-5.96h23.8v5.96zm-56.96-112.87h-9.74V413h9.74v5.96z"/><path id="Path 59" class="shp26" d="M756.77 418.96H676.3V413h80.47v5.96zm-77.21 180.2H599.1v-5.96h80.46v5.96z"/><path id="Path 60" class="shp27" d="M503.26 418.96h-9.93V413h9.93v5.96z"/><path id="Path 61" class="shp13" d="M668.87 418.96h-26.33V413h26.33v5.96z"/><path id="Path 62" class="shp27" d="M695.2 441.4h-26.33v-5.96h26.33v5.96zM559.83 621.6H533.5v-5.96h26.33v5.96z"/><path id="Path 63" class="shp13" d="M635.57 418.96h-56.01V413h56.01v5.96zm-75.42 135.65h-32.73v-5.97h32.73v5.97zm-18.47 44.55h-16.36v-5.96h16.36v5.96z"/><path id="Path 64" class="shp14" d="M571.61 418.96h-19.27V413h19.27v5.96z"/><path id="Path 65" class="shp27" d="M506.74 441.4h-19.27v-5.96h19.27v5.96zm3.84 90.43h-19.27v-5.96h19.27v5.96z"/><path id="Path 66" class="shp13" d="M544.99 418.96h-33.58V413h33.58v5.96z"/><path id="Path 67" d="M1003.08 650.88h-56V465.34h56c4.62 0 8.36 3.75 8.36 8.37v40.09h-46.31v1.99h46.31v77.67c-4.78.89-8.86 5.29-8.05 13.37 1.24 12.35 8.25 25.35 3.28 43.23-1.09.52-2.31.82-3.59.82z" fill="#fdfdfd"/><path id="Path 68" d="M947.08 650.88h-20.91V465.34h20.91v185.54z" fill="url(#grd14)"/><path id="Path 69" d="M926.17 650.88h-166.6c-4.62 0-8.36-3.75-8.36-8.37v-168.8c0-4.62 3.74-8.37 8.36-8.37h166.6v185.54z" fill="url(#grd15)"/><path id="Path 70" d="M1006.67 650.06c4.97-17.88-2.04-30.88-3.28-43.23-.81-8.08 3.27-12.48 8.05-13.37v49.05c0 3.33-1.95 6.21-4.77 7.55z" fill="url(#grd16)"/><path id="Path 71" d="M1011.44 515.79h-46.31v-1.99h46.31v1.99z" fill="#dff0ff"/><path id="Path 72" fill-rule="evenodd" d="M983.34 573.72h-41.93c-1.77 0-3.21-1.44-3.21-3.21v-6.47c0-1.78 1.44-3.21 3.21-3.21h41.93c1.77 0 3.21 1.43 3.21 3.21v6.47c0 1.77-1.44 3.21-3.21 3.21zm0 24.14h-41.93c-1.77 0-3.21-1.44-3.21-3.21v-6.48c0-1.77 1.44-3.21 3.21-3.21h41.93c1.77 0 3.21 1.44 3.21 3.21v6.48c0 1.77-1.44 3.21-3.21 3.21zm0 24.13h-41.93c-1.77 0-3.21-1.43-3.21-3.2v-6.48c0-1.77 1.44-3.21 3.21-3.21h41.93c1.77 0 3.21 1.44 3.21 3.21v6.48c0 1.77-1.44 3.2-3.21 3.2zm-111.95 1.91c-28.94 10.34-60.13 1-78.93-21.09a71.748 71.748 0 01-11.13-17.88c-.63-1.47-1.22-2.96-1.77-4.48-5.47-15.29-5.44-31.21-.93-45.6 6.5-20.76 22.32-38.33 44.38-46.23 7.28-2.6 14.7-3.96 22.04-4.18 30.29-.91 59.02 17.56 69.78 47.63 13.36 37.36-6.09 78.46-43.44 91.83zm26.51-85.78c-8.06-22.54-29.61-36.39-52.32-35.71-5.49.17-11.06 1.19-16.52 3.14-16.54 5.91-28.4 19.09-33.27 34.66-3.38 10.78-3.4 22.72.7 34.18.41 1.14.85 2.27 1.33 3.36 2.15 4.97 4.98 9.46 8.34 13.41 14.09 16.57 37.48 23.57 59.17 15.81 28.01-10.02 42.59-40.84 32.57-68.85z" fill="#4aafff"/><path id="Path 73" d="M795.79 540.21l-17.16-5.36c6.5-20.76 22.32-38.33 44.38-46.23 7.28-2.6 14.7-3.96 22.04-4.18l.53 17.97c-5.49.17-11.06 1.19-16.52 3.14-16.54 5.91-28.4 19.09-33.27 34.66z" fill="#1a598c"/><path id="Path 74" d="M797.82 577.75l-16.49 7.18c-.63-1.47-1.22-2.96-1.77-4.48-5.47-15.29-5.44-31.21-.93-45.6l17.16 5.36c-3.38 10.78-3.4 22.72.7 34.18.41 1.14.85 2.27 1.33 3.36z" fill="#2273b5"/><path id="Path 75" d="M792.46 602.81a71.748 71.748 0 01-11.13-17.88l16.49-7.18c2.15 4.97 4.98 9.46 8.34 13.41l-13.7 11.65z" fill="#3788cc"/><path id="Path 76" fill-rule="evenodd" class="shp18" d="M871.18 598.86s-3.48-6.09 2.03-22.41c5.34-15.78 23.81-14.35 29.68-4.24 5.87 10.11 3.89 16.4-4.75 27.81-8.65 11.42-23.38 4.06-26.96-1.16zm54.91 279.9l-.81 7.98s-10.06 1.59-10.17.59c-.11-1.01-1.03-7.71-1.03-7.71 1.26-.94 12.01-.86 12.01-.86z"/><path id="Path 77" class="shp37" d="M915 886.48s-3.19 4.03-6.26 5.79c-3.09 1.77-7.93 2.46-9.75 4.28-1.31 1.32-4.79 6.98 8.01 6.86 12.79-.11 18.96.81 20.34-1.36 1.37-2.18-1.99-16.03-1.99-16.03s-3.13.89-10.35.46z"/><path id="Path 78" class="shp18" d="M844.46 879.62s.92 6.7 1.03 7.71c.11 1 10.17-.59 10.17-.59l.81-7.98s-10.75-.08-12.01.86z"/><path id="Path 79" class="shp37" d="M845.39 886.48s-3.19 4.03-6.27 5.79c-3.08 1.77-14.42 3.21-16.24 5.03-1.32 1.32-3.51 6.61 14.5 6.11 12.79-.35 18.96.81 20.34-1.36 1.37-2.18-1.99-16.03-1.99-16.03s-3.97.71-10.34.46z"/><path id="Path 80" fill-rule="evenodd" class="shp38" d="M910.7 712.75s5.15 16.02 4.47 29.82c-.68 13.81 2.67 28.92 4.03 43.34 1.53 16.08 7.77 54.14 7.99 62.74.23 8.6-.96 36.07-.96 36.07l-12.49.29s-10.49-66.54-13.2-73.33c-2.21-5.52-11.54-38.58-15.18-53.64.51-1.26 1-2.46 1.48-3.59 6.11-14.49 20.1-14.83 23.86-41.7 0 0-46.69-10.19-51.77-1.67 0 0-7.58 42.36-8.49 50.81-.9 8.45-1.51 40.89-1.96 46.17-.45 5.28-3.02 69.11-5.43 76.95h13.92s14.29-46.39 14.29-68.35c0-20.24 8.05-43.73 14.1-58.62-.84-3.46-1.38-5.97-1.46-6.98-.45-5.44 26.8-38.31 26.8-38.31z"/><path id="Shape 1" class="shp38" d="M873 717h37v41h-37v-41z"/><path id="Path 81" class="shp18" d="M876.22 603.17s1.57 4.57 0 7.83 20.07 1.31 20.07 1.31-.98-6.74 1.85-12.29c2.82-5.55-21.92 3.15-21.92 3.15z"/><path id="Path 82" d="M911.7 716.24s-7.78 7.99-53.47-1.25l.7-3.91 51.93 1.96.84 3.2z" fill="#2b3b57"/><path id="Path 83" class="shp18" d="M872.95 612.06s-7.99.82-10.28 1.25c-2.28.44-17.65-2.75-20.8-3.07-3.16-.33-16.6-9.54-17.03-10.63-.44-1.08-8.18-20.69-8.62-24.93-.43-4.25-7.54-2.05-6.93.87 1.14 5.46 2.6 18.73 3.41 22.58.86 4.15 3.19 13.55 4.49 14.71 1.3 1.16 13.41 10.37 25.26 14.28 11.85 3.91 20.77 9.68 20.77 9.68h58.41s22.72-32.48 23.21-37.37c.48-4.89-15.87-37.41-19.13-41.49-3.27-4.08-7.98 1.33-7.98 1.33s9.77 28.68 11.07 32.76c1.31 4.08-11.36 21.99-14.84 22.05-3.48.05-12.41-1.09-16.39-1.26-3.96-.16-8.15-1.9-8.15-1.9l-16.47 1.14z"/><path id="Path 84" d="M847.78 633.75s7.15 4.76 7.8 12.91c.65 8.15 3.26 21.04 4.57 25.44 1.3 4.41-1.14 36.37-1.47 38.65-.33 2.29 45.19 7.71 52.18 2.29 0 0 1.96-29.85 2.78-38.33.81-8.48 4.73-29.03 6.03-31.8 1.31-2.77 17.13-24.96 17.78-27.89 0 0-8.19-13.05-14.06-13.21 0 0-9.32 10.93-12.36 11.42-3.04.49-21.68-2.93-21.68-2.96 0 0-2.03 2.78-12.85-.49 0 0-12.87 1.45-14.97 1.72-2.53.33-20.17-2.21-20.17-2.21s-7.07 11.95-5.83 17.97l12.25 6.49z" fill="#ffc655"/><path id="Path 85" fill-rule="evenodd" class="shp18" d="M816.63 577.22s-1.6-7.55.33-9.72c1.09-1.24 3.72-4.51 3.96-4.99.24-.48 3.07-2.1 3.07-2.89 0-.78-2.77-1.74-5.17.49-2.4 2.22-3.9 2.7-4.86 2.46-.97-.24-2.35-8.23-2.47-10.21-.12-1.99-.88-7.21-2.12-6.85-1.24.36-1.18 2.64-1.18 2.64s-1.44-3.96-2.4-3.18c-.97.78-.85 2.7-.85 2.7s-1.8-2.22-2.28-.6c-.48 1.62 0 3.06 0 3.06s-1.86-1.02-1.98 1.51c-.12 2.52.54 9.91 1.86 12.55 1.32 2.65 6.27 9.56 6.86 12.26.59 2.7 7.23.77 7.23.77zm109.08-19.28c-2.32-2.25-5.03-11.6-5.63-14.54-.59-2.93-2.44-8.75-4.35-9.78-1.9-1.04-.59 2.06-.59 2.06-6.2-9.35-5.93-3.59-5.93-3.59s-2.34-2.39-3.59-2.06c-1.25.32 1.96 7.06 1.96 7.06-.65-.7-4.68-4.13-5.71-3.2-1.03.92 5.16 7.15 6.03 8.24.88 1.09 2.68 5.69 2.41 6.35-.27.65-1.53 1.25-4.42 0-2.88-1.25-5.57-1.46-5.73-.92-.16.54 2.85 1.9 5.14 3.53 2.28 1.63 4.89 2.1 6.74 2.91 1.85.82 7.28 9.95 7.28 9.95s8.7-3.75 6.39-6.01z"/><path id="Path 86" class="shp41" d="M898.14 600.02s-2.87.25-8.95-1.85c-6.09-2.1-6.55-12.75-7.86-11.49-2.69 2.58-5.23.8-6.24-.72 0 0 2.97-3.91 1.59-5.8-1.38-1.89-3.62-3.26-3.62-3.26s4.28-20.64 23.77-11.24c22.83 11.02 1.31 34.36 1.31 34.36z"/><path id="Path 87" d="M876.22 611l.69-2.98s12.44-.25 19.22.73l.72 3.57s-8.69 3.94-20.63-1.32z" fill="#d4d8e8"/><path id="Path 88" class="shp18" d="M879.29 584.07c1.13-1.87 5.31-3.14 5.8 2.18.38 4.12-7.47 8.63-7.54 4.78-.07-3.84.99-5.71 1.74-6.96z"/><path id="Path 89" d="M816.34 575.51s-4.49.11-6.67 2.08c0 0-.14 1.25.36 2.23 0 0 3.89-1.82 6.88-2.16 0 0-.05-1.63-.57-2.15z" fill="#e55353"/><path id="Path 90" class="shp41" d="M811.04 576.63c-.41.98.05 2.11 1.03 2.53.98.41 2.12-.05 2.53-1.03.41-.98-.04-2.12-1.03-2.53a1.94 1.94 0 00-2.53 1.03z"/><path id="Path 91" class="shp44" d="M700.81 417.13s6.41 10.88 9.12 12.65c3.68 2.41 1.37 4.85-.37 4.85-1.75.01-10.66.64-12.63-1.59-1.97-2.23-2.94-8.91-4.77-10.66-1.82-1.74-3.71-8.69.89-10.38 4.08-1.49 7.76 5.13 7.76 5.13z"/><path id="Path 92" class="shp45" d="M698.03 412.35s7.35 12.73 8.61 14.62c1.27 1.88-2.38 1.87-4.64.98-2.26-.89-7.95-10.03-8.77-11.69-.98-1.98-.18-4.26-.18-4.26l4.98.35z"/><path id="Path 93" fill-rule="evenodd" class="shp44" d="M690.59 419.2l1.69 13.06.9.04-.28-9.4-2.31-3.7zm-61.15-7.2c-4.67 1.51-2.71 8.64-.89 10.38 1.83 1.75 2.8 8.43 4.77 10.66 1.96 2.23 10.88 1.6 12.63 1.59 1.74 0 4.05-2.44.37-4.85-2.71-1.77-9.13-12.65-9.13-12.65s-3.66-6.45-7.75-5.13z"/><path id="Path 94" class="shp45" d="M634.8 412.37s6.96 12.71 8.23 14.6c1.27 1.88-2.39 1.87-4.65.98-2.26-.89-7.95-10.03-8.77-11.69-.97-1.98-.17-4.26-.17-4.26l5.36.37z"/><path id="Path 95" class="shp44" d="M626.97 419.2l1.7 13.06.9.04-.28-9.4-2.32-3.7z"/><path id="Path 96" class="shp45" d="M608.73 318.16l58.05 26.45s6.48 2.11 7.21 9.31c2.27 22.46 19.06 58.08 19.06 58.08 5.39 2.64 4.98.35 4.98.35-3.39-10.9-7.53-55.84-9.01-73.91-.31-3.83-.5-6.45-.55-7.28-.02-.57-.64-1.32-1.72-2.19-7.97-6.46-40.74-19.83-40.74-19.83-24.61-.63-37.28 9.02-37.28 9.02zm-10.94 11.36c1.8 15.69 24.2 13.9 24.2 13.9h27.14s-7.13 15.86-9.88 29.25c-2.92 14.2-9.81 39.33-9.81 39.33s.45.85 5.36.37c0 0 21.31-42.46 29.47-53.14 1.75-2.3 6.78-14.77 7.65-22.21.29-2.5.11-4.44-.82-5.22-.95-.79-3.11-2.28-6-4.1-8.5-5.36-23.27-13.61-31.5-15.46-11.01-2.48-28.44-7.12-28.44-7.12s-9.16 8.71-7.37 24.4z"/><path id="Path 97" class="shp46" d="M616.27 208.66s-4.07-7.71-2.09-15.93c1.98-8.21 9.61-16.4 20.77-12.64 11.16 3.76 20.18 12.43 13.49 22.46-6.69 10.02 6.06 14.55 2.81 19.32-3.25 4.77-2.02 9.75-.64 10.86 1.37 1.11 5.81 5.07 5.32 9.75-.49 4.68-21.66-13.65-21.66-13.65s-11.52-23.16-18-20.17z"/><path id="Path 98" d="M650.28 307.26s-1.68 8.16-45.03-2.15c0 0 14.53-4.83 45.03 2.15z" fill="#eb4747"/><path id="Path 99" class="shp48" d="M604.76 307.4c-.68 1.29-1.35 2.57-2.02 3.85 15.85.46 31.7.93 47.54 1.39-2.5-8.4-1.69-19.77-1.25-28.39.54-10.54 6.36-17.87 5.74-28.53 3.13.51 3.67.6 6.82 1.08-4.81-13.68-6.45-20.46-21.37-25.73-4.86-1.71-8.05-2.05-13.31-1.62-17.27 1.43-22.48 1.63-30.97 17.29 13.29 2.11 11.1 6.88 15.13 20.1 1.96 6.44 4.01 13.63 2.96 20.43-1.04 6.69-9.27 14.03-9.27 20.13z"/><path id="Path 100" fill-rule="evenodd" class="shp18" d="M641.22 231.74c2.57 12.75-2.85 17.64-2.85 17.64-5.27-3.81-19.53-20.28-19.53-20.28 3.01-.62 5.7-.98 8.07-1.15-.08.73-.15 1.17-.15 1.17s-1.5 3.94 5.57 5.27c4.87.92 8.02-.65 8.89-2.65zm-14-7.64c.03-.72.05-1.48.04-2.24 3.26-.63 6.61-3.24 9.28-5.95 1.92.25 3.36.55 3.36.55s-.77 9.61 1.08 12.48c.58.9.64 1.89.24 2.8-.14-.74-.32-1.5-.52-2.28 0 0-4.39-2.2-13.79-1.51.1-.92.24-2.3.31-3.85zm.04-2.25c0-1.16-.06-2.35-.19-3.47-.39-3.19 5.54-2.96 9.47-2.47 2.9-2.93 5-6 5.34-6.82.93-2.28 5.88-15.16-3.96-19.07-9.85-3.91-16.6-4.43-18.69-.56 0 0-7.41 14.27-.07 27.79 2.24 4.11 5.13 5.18 8.1 4.61v-.01z"/><path id="Path 101" class="shp46" d="M621.69 194.52s-5.1 6.7-5.7 11.65c0 0-2.03-9.36 3.71-18.34 5.73-8.99 20.33-.43 22.28 3.16 1.96 3.59 7.68 6.76-1.94 22.19 0 0-17.3-12.02-18.35-18.66z"/><path id="Path 102" d="M633.53 218.68s-1.29 2.81-6.31 5.42c.03-.72.05-1.48.04-2.25 0 0 3.4-.41 6.27-3.17z" fill="#a77860"/><path id="Path 103" class="shp18" d="M558.67 294.56s-3.52 1.57-5.2.86c-1.66-.71-4.25-.85-5.06-.85-1.09-.01-4.5-1.22-4.44.11.06 1.33 5.53 2.26 6.65 2.68 1.13.41-3.35 2.88-3.76 3.97-.42 1.09 4.63 8.27 7.48 6.23 2.85-2.05 4.39-6.13 4.97-6.39.58-.26 2.14-1.41 2.14-1.41l-2.78-5.2zm-11.27 6.13s-8.26 6.85-8.39 7.77c-.13.93.31 1.36 1.11.75.8-.6 8.19-6.38 8.19-6.38s-8.28 9.77-8.56 10.5c-.16.42.63 1.31 1.1 1.02.46-.28 9.26-9.48 9.26-9.48s-7.71 9.14-7.75 9.82c-.04.6.89 1.24 1.51.61.62-.64 8.29-8.7 8.29-8.7s-5.15 7.01-4.83 7.63c.19.38.84 1.17 2.11-.68 1.27-1.86 4.76-5.9 4.76-5.9l-6.8-6.96z"/><path id="Path 104" class="shp15" d="M646.3 343.42h-24.31s-22.4 1.79-24.2-13.9c-1.79-15.69 7.37-24.4 7.37-24.4s11.83 3.15 22.16 5.64c5.17-1.09 11.41-1.81 18.69-1.62 0 0 43.79 14.47 42.47 22.09 0 0-18.32-9.8-42.18 12.19z"/><path id="Path 105" d="M630.47 316.25l46.36-.69-23.4 11.89-22.96-11.2z" fill="#5e5853"/><path id="Path 106" class="shp48" d="M644.88 310.33s-10.43 4.03-23.22.38l-.59-4.77 26.32 1.46-2.51 2.93z"/><path id="Path 107" d="M653.43 327.45l-22.96-8.89v-2.31l24.77 8.93-1.81 2.27z" fill="#91887f"/><path id="Path 108" d="M644.71 312.53c-.12 1.72 1.61 2.95 3.19 2.28l2.69-1.15c.81-.35 1.28-1.2 1.14-2.07-1.12-7.01-3.52-34.3 0-38.99 1.29-1.73 2.1-3.25 2.56-4.57 2.32 5.98 5.21 13.68 6.35 17.83l21.9 29.13 7.35 1.87c-9.17-22.08-16.53-33.78-16.53-33.78-1.43-3.85-5.54-15.5-9.18-25.88-2.3-6.55-4.41-12.59-5.54-15.84a7.432 7.432 0 00-3.21-3.92c-3.39-2.03-9.04-5.23-14.17-7.71l-.06-.03-.49-.24h-.01v-.01c9.74 14.75 5.94 56.39 4.02 83.03l-.01.05zm-36.17-81.82c-3.13.48-10.87 8-14.98 15.59-4.69 8.65-9.47 18.51-13.05 21.75-6.58 5.97-25 27.04-25.88 26.53-.33-.19 5.06 6.3 5.74 6.6.34.15 30.28-25.79 33.16-29.74 2.73-3.75 10.02-19.48 12.2-19.13v.01l.01.01c.16.35 2.81 6.1 5.33 14.51l.12.42c1.73 5.86 1.57 12.22.63 19.38-.7 5.39-4.73 14.22-7.16 18.51-.3.52-.22 1.5.1 2.25.19.45.46.81.79.93l8.79 3.26 2.07.77c1.49.55 3.05.26 4.21-.59.96-.69 1.65-1.76 1.82-3.05 1.95-15.04 4.42-30.4 6.39-36.18 8.65-25.39-3.38-44.47-3.38-44.47s-14.18 1.62-16.91 2.64z" fill="#eddad3"/><path id="Path 109" d="M653.43 327.45l13.78-37.65 44.45.73-13.14 34.69-45.09 2.23z" fill="#6e6760"/><path id="Path 110" d="M681.44 306.46c-1.36 2.71-.95 5.66.91 6.59 1.86.93 4.47-.51 5.83-3.22 1.36-2.71.95-5.67-.92-6.6-1.86-.93-4.47.52-5.82 3.23z" fill="#807066"/><path id="Path 111" class="shp46" d="M634.58 203.67s2.84 4.43.22 8.26c-2.64 3.82.66 7.58 1.23 11.62.57 4.04-10.98 14.8 1.87 20.21 12.84 5.41 16.93-3.54 13.65-8.46-3.27-4.92-5.6-8.92-5.88-15.93-.27-7.02-2.58-17.96-11.09-15.7z"/><path id="Path 112" class="shp14" d="M541.53 150.51h54.75v48.05l-8.36-8.36h-46.39v-39.69z"/></g></svg>