<svg xmlns="http://www.w3.org/2000/svg" viewBox="0 0 1000 600" width="1000" height="600"><defs><clipPath clipPathUnits="userSpaceOnUse" id="cp1"><path d="M1 -119L1001 -119L1001 881L1 881Z" /></clipPath></defs><style>tspan { white-space:pre }.shp0 { fill: #496dfa } .shp1 { fill: #6a95f9 } .shp2 { fill: #ffffff } .shp3 { fill: #dee6fc } .shp4 { fill: #88d4ef } .shp5 { fill: #524cb3 } .shp6 { fill: #e488c7 } .shp7 { fill: #e6ca76 } .shp8 { fill: #716ef1 } .shp9 { fill: #514db5 } .shp10 { fill: #f0ca76 } .txt11 { font-size: 24px;fill: #dee6fc;font-family: "Antipasto Pro";font-weight: bold } .shp12 { fill: none;stroke: #88d4ef;stroke-width: 8 } .shp13 { fill: none;stroke: #88d4ef;stroke-linecap:round;stroke-linejoin:round;stroke-width: 8 } .shp14 { fill: #f9f9f9 } .shp15 { fill: #70c4ea } </style><g clip-path="url(#cp1)"><path class="shp0" d="M545.26 543.49L456.74 543.49L456.74 426.35L545.26 426.35L545.26 543.49Z" /><path class="shp1" d="M621.27 543.72L380.73 543.72C376.97 543.72 373.92 540.67 373.92 536.9C373.92 533.36 376.79 530.48 380.34 530.48L621.66 530.48C625.21 530.48 628.08 533.36 628.08 536.9C628.08 540.67 625.03 543.72 621.27 543.72ZM229.1 484.92L772.9 484.92C778.8 484.92 783.59 480.13 783.59 474.22L783.59 143.65C783.59 137.74 778.8 132.95 772.9 132.95L229.1 132.95C223.2 132.95 218.41 137.74 218.41 143.65L218.41 474.22C218.41 480.13 223.2 484.92 229.1 484.92Z" /><path class="shp2" d="M240.08 154.62L761.92 154.62L761.92 449.01L240.08 449.01L240.08 154.62Z" /><path class="shp3" d="M405.55 413.1L269.17 413.1L269.17 358.67L405.55 358.67L405.55 413.1ZM569.11 413.1L432.72 413.1L432.72 358.67L569.11 358.67L569.11 413.1ZM732.67 413.1L596.28 413.1L596.28 358.67L732.67 358.67L732.67 413.1ZM385.86 189.82L269.17 189.82L269.17 178.85L385.86 178.85L385.86 189.82ZM499.89 190.21L468.98 190.21L468.98 183.12L499.89 183.12L499.89 190.21ZM583.67 190.21L538.79 190.21L538.79 183.12L583.67 183.12L583.67 190.21ZM660.8 190.21L615.92 190.21L615.92 183.12L660.8 183.12L660.8 190.21ZM737.93 190.21L693.05 190.21L693.05 183.12L737.93 183.12L737.93 190.21Z" /><path class="shp4" d="M920.55 244.56L636.17 244.56C631.8 244.56 628.27 241.02 628.27 236.66L628.27 66.38C628.27 62.02 631.8 58.48 636.17 58.48L920.55 58.48C924.92 58.48 928.45 62.02 928.45 66.38L928.45 236.66C928.45 241.02 924.92 244.56 920.55 244.56Z" /><path class="shp5" d="M861.17 317.3L695.55 317.3C691.19 317.3 687.65 313.76 687.65 309.4L687.65 141.14C687.65 136.78 691.19 133.24 695.55 133.24L861.17 133.24C865.54 133.24 869.07 136.78 869.07 141.14L869.07 309.4C869.07 313.76 865.54 317.3 861.17 317.3Z" /><path class="shp6" d="M352.5 58.48L96.93 58.48C83.82 58.48 73.19 69.11 73.19 82.22C73.19 95.33 83.82 105.96 96.93 105.96L331.66 105.96L346.16 124.25L346.16 105.96L352.5 105.96C365.61 105.96 376.24 95.33 376.24 82.22C376.24 69.11 365.61 58.48 352.5 58.48ZM726.67 159.2L711.54 159.2L711.54 154.67L726.67 154.67L726.67 159.2Z" /><path class="shp2" d="M795.63 159.2L734.74 159.2L734.74 154.67L795.63 154.67L795.63 159.2ZM744.7 167.15L734.74 167.15L734.74 162.61L744.7 162.61L744.7 167.15Z" /><path class="shp6" d="M845.18 175.09L788.64 175.09L788.64 170.55L845.18 170.55L845.18 175.09Z" /><path class="shp2" d="M778.49 167.15L747.03 167.15L747.03 162.61L778.49 162.61L778.49 167.15ZM744.7 190.97L734.74 190.97L734.74 186.44L744.7 186.44L744.7 190.97Z" /><path class="shp7" d="M758.32 190.97L747.03 190.97L747.03 186.44L758.32 186.44L758.32 190.97Z" /><path class="shp6" d="M786.3 175.09L734.74 175.09L734.74 170.55L786.3 170.55L786.3 175.09Z" /><path class="shp2" d="M845.18 183.03L734.74 183.03L734.74 178.49L845.18 178.49L845.18 183.03Z" /><path class="shp6" d="M726.67 211.65L711.54 211.65L711.54 207.12L726.67 207.12L726.67 211.65Z" /><path class="shp2" d="M795.63 211.65L734.74 211.65L734.74 207.12L795.63 207.12L795.63 211.65ZM744.7 219.6L734.74 219.6L734.74 215.06L744.7 215.06L744.7 219.6Z" /><path class="shp6" d="M845.18 227.54L788.64 227.54L788.64 223L845.18 223L845.18 227.54Z" /><path class="shp2" d="M778.49 219.6L747.03 219.6L747.03 215.06L778.49 215.06L778.49 219.6ZM744.7 243.42L734.74 243.42L734.74 238.89L744.7 238.89L744.7 243.42Z" /><path class="shp7" d="M758.32 243.42L747.03 243.42L747.03 238.89L758.32 238.89L758.32 243.42Z" /><path class="shp6" d="M786.3 227.54L734.74 227.54L734.74 223L786.3 223L786.3 227.54Z" /><path class="shp2" d="M845.18 235.48L734.74 235.48L734.74 230.94L845.18 230.94L845.18 235.48Z" /><path class="shp6" d="M726.67 264.11L711.54 264.11L711.54 259.57L726.67 259.57L726.67 264.11Z" /><path class="shp2" d="M795.63 264.11L734.74 264.11L734.74 259.57L795.63 259.57L795.63 264.11ZM744.7 272.05L734.74 272.05L734.74 267.51L744.7 267.51L744.7 272.05Z" /><path class="shp6" d="M845.18 279.99L788.64 279.99L788.64 275.45L845.18 275.45L845.18 279.99Z" /><path class="shp2" d="M778.49 272.05L747.03 272.05L747.03 267.51L778.49 267.51L778.49 272.05ZM744.7 295.88L734.74 295.88L734.74 291.34L744.7 291.34L744.7 295.88Z" /><path class="shp7" d="M758.32 295.88L747.03 295.88L747.03 291.34L758.32 291.34L758.32 295.88Z" /><path class="shp6" d="M786.3 279.99L734.74 279.99L734.74 275.45L786.3 275.45L786.3 279.99Z" /><path class="shp2" d="M845.18 287.93L734.74 287.93L734.74 283.39L845.18 283.39L845.18 287.93Z" /><path class="shp8" d="M251.29 401.51L81.45 401.51C77.08 401.51 73.55 397.97 73.55 393.61L73.55 223.77C73.55 219.41 77.08 215.87 81.45 215.87L251.29 215.87C255.65 215.87 259.19 219.41 259.19 223.77L259.19 393.61C259.19 397.97 255.65 401.51 251.29 401.51Z" /><path fill-rule="evenodd" class="shp9" d="M166.44 385.97C124.02 385.97 89.51 351.46 89.51 309.03C89.51 266.61 124.02 232.1 166.44 232.1C208.87 232.1 243.38 266.61 243.38 309.03C243.38 351.46 208.87 385.97 166.44 385.97ZM166.44 241.25C129.07 241.25 98.66 271.66 98.66 309.03C98.66 346.41 129.07 376.81 166.44 376.81C203.82 376.81 234.23 346.41 234.23 309.03C234.23 271.66 203.82 241.25 166.44 241.25Z" /><path fill-rule="evenodd" class="shp9" d="M166.44 369.95C132.85 369.95 105.53 342.62 105.53 309.03C105.53 275.44 132.85 248.12 166.44 248.12C200.03 248.12 227.36 275.44 227.36 309.03C227.36 342.62 200.03 369.95 166.44 369.95ZM166.44 257.27C137.9 257.27 114.68 280.49 114.68 309.03C114.68 337.58 137.9 360.8 166.44 360.8C194.99 360.8 218.21 337.58 218.21 309.03C218.21 280.49 194.99 257.27 166.44 257.27Z" /><path class="shp4" d="M166.44 369.95C163.92 369.95 161.87 367.9 161.87 365.37C161.87 362.85 163.92 360.8 166.44 360.8C194.99 360.8 218.21 337.58 218.21 309.03C218.21 280.49 194.99 257.27 166.44 257.27C163.92 257.27 161.87 255.22 161.87 252.69C161.87 250.17 163.92 248.12 166.44 248.12C200.03 248.12 227.36 275.44 227.36 309.03C227.36 342.62 200.03 369.95 166.44 369.95Z" /><path fill-rule="evenodd" class="shp9" d="M166.44 353.93C141.69 353.93 121.55 333.79 121.55 309.03C121.55 284.28 141.69 264.13 166.44 264.13C191.2 264.13 211.34 284.28 211.34 309.03C211.34 333.79 191.2 353.93 166.44 353.93ZM166.44 273.29C146.73 273.29 130.7 289.32 130.7 309.03C130.7 328.74 146.73 344.78 166.44 344.78C186.15 344.78 202.19 328.74 202.19 309.03C202.19 289.32 186.15 273.29 166.44 273.29Z" /><path fill-rule="evenodd" class="shp9" d="M166.44 337.91C150.52 337.91 137.56 324.96 137.56 309.03C137.56 301.73 140.3 294.76 145.26 289.4C150.71 283.52 158.43 280.15 166.44 280.15C182.37 280.15 195.32 293.11 195.32 309.03C195.32 324.96 182.37 337.91 166.44 337.91ZM166.44 289.31C160.89 289.31 155.75 291.55 151.97 295.63C148.58 299.28 146.72 304.04 146.72 309.03C146.72 319.91 155.57 328.76 166.44 328.76C177.32 328.76 186.17 319.91 186.17 309.03C186.17 298.16 177.32 289.31 166.44 289.31Z" /><path class="shp6" d="M166.44 337.91C150.52 337.91 137.56 324.96 137.56 309.03C137.56 306.51 139.61 304.46 142.14 304.46C144.67 304.46 146.72 306.51 146.72 309.03C146.72 319.91 155.57 328.76 166.44 328.76C177.32 328.76 186.17 319.91 186.17 309.03C186.17 298.15 177.32 289.31 166.44 289.31C163.92 289.31 161.87 287.26 161.87 284.73C161.87 282.2 163.92 280.15 166.44 280.15C182.37 280.15 195.32 293.11 195.32 309.03C195.32 324.96 182.37 337.91 166.44 337.91Z" /><path class="shp2" d="M238.8 314.3C235.89 314.3 233.54 311.94 233.54 309.03C233.54 272.04 203.44 241.94 166.44 241.94C163.54 241.94 161.18 239.58 161.18 236.68C161.18 233.77 163.54 231.41 166.44 231.41C209.25 231.41 244.07 266.23 244.07 309.03C244.07 311.94 241.71 314.3 238.8 314.3Z" /><path class="shp10" d="M166.44 354.62C153.46 354.62 141.05 349.04 132.39 339.32C130.46 337.15 130.65 333.82 132.82 331.88C135 329.95 138.32 330.14 140.26 332.31C146.92 339.8 156.47 344.09 166.44 344.09C185.77 344.09 201.5 328.36 201.5 309.03C201.5 289.7 185.77 273.98 166.44 273.98C163.54 273.98 161.18 271.62 161.18 268.71C161.18 265.8 163.54 263.44 166.44 263.44C191.58 263.44 212.03 283.9 212.03 309.03C212.03 334.17 191.58 354.62 166.44 354.62Z" /><path class="shp8" d="M255.27 246.75L271.79 233.65L255.27 233.65" /><text style="transform: matrix(1,0,0,1,269.167,273)" ><tspan x="0" y="0" class="txt11">Web Design</tspan></text><path class="shp3" d="M299.8 294.76L269.17 294.76L269.17 288.78L299.8 288.78L299.8 294.76ZM448.42 308.08L269.17 308.08L269.17 301.04L448.42 301.04L448.42 308.08ZM448.42 320.24L269.17 320.24L269.17 313.2L448.42 313.2L448.42 320.24ZM365.13 325.35L269.17 325.35L269.17 332.39L365.13 332.39L365.13 325.35Z" /><path class="shp2" d="M922.45 449.33L814 449.33C810.69 449.33 808 446.64 808 443.33L808 334.87C808 331.56 810.69 328.87 814 328.87L922.45 328.87C925.77 328.87 928.45 331.56 928.45 334.87L928.45 443.33C928.45 446.64 925.77 449.33 922.45 449.33Z" /><path class="shp6" d="M844.62 420.26L834.15 420.26L834.15 400.66L844.62 400.66L844.62 420.26Z" /><path class="shp7" d="M859.46 420.26L848.99 420.26L848.99 375.45L859.46 375.45L859.46 420.26Z" /><path class="shp8" d="M874.31 420.26L863.84 420.26L863.84 390.84L874.31 390.84L874.31 420.26Z" /><path class="shp1" d="M889.15 420.26L878.68 420.26L878.68 361.42L889.15 361.42L889.15 420.26Z" /><path class="shp4" d="M904 420.26L893.53 420.26L893.53 353.03L904 353.03L904 420.26Z" /><path class="shp3" d="M844.62 428.81L834.15 428.81L834.15 426.57L844.62 426.57L844.62 428.81ZM859.46 428.81L848.99 428.81L848.99 426.57L859.46 426.57L859.46 428.81ZM874.31 428.81L863.84 428.81L863.84 426.57L874.31 426.57L874.31 428.81ZM889.15 428.81L878.68 428.81L878.68 426.57L889.15 426.57L889.15 428.81ZM904 428.81L893.53 428.81L893.53 426.57L904 426.57L904 428.81Z" /><path class="shp12" d="M166.44 163C166.44 168.12 162.29 172.27 157.18 172.27C152.06 172.27 147.91 168.12 147.91 163C147.91 157.88 152.06 153.73 157.18 153.73C162.29 153.73 166.44 157.88 166.44 163ZM830.18 499.16C830.18 504.28 826.03 508.43 820.91 508.43C815.8 508.43 811.65 504.28 811.65 499.16C811.65 494.04 815.8 489.89 820.91 489.89C826.03 489.89 830.18 494.04 830.18 499.16Z" /><path class="shp3" d="M194.61 182.9C194.61 187.21 191.12 190.7 186.81 190.7C182.49 190.7 179 187.21 179 182.9C179 178.58 182.49 175.09 186.81 175.09C191.12 175.09 194.61 178.58 194.61 182.9Z" /><path class="shp4" d="M302.61 533.27L146.82 533.27C143.5 533.27 140.82 530.58 140.82 527.27L140.82 426.26C140.82 422.95 143.5 420.26 146.82 420.26L302.61 420.26C305.93 420.26 308.61 422.95 308.61 426.26L308.61 527.27C308.61 530.58 305.93 533.27 302.61 533.27Z" /><path class="shp5" d="M149.38 428.82L300.05 428.82L300.05 524.7L149.38 524.7L149.38 428.82Z" /><path class="shp7" d="M222.24 463.88C222.24 470.83 227.87 476.46 234.82 476.46C241.76 476.46 247.39 470.83 247.39 463.88C247.39 456.94 241.76 451.31 234.82 451.31C227.87 451.31 222.24 456.94 222.24 463.88Z" /><path class="shp2" d="M300.05 510.99L262.11 473.05L235.59 499.58L181.33 445.33L149.38 477.29L149.38 524.7L300.05 524.7L300.05 510.99Z" /><path class="shp13" d="M561.23 95.21L561.23 111.05M569.15 103.13L553.31 103.13M898.76 275.47L898.76 291.31M906.69 283.39L890.84 283.39M337.36 499.08L337.36 514.92M345.28 507L329.44 507" /><path class="shp2" d="M373.92 497.39C373.92 499.82 371.95 501.79 369.52 501.79C367.1 501.79 365.13 499.82 365.13 497.39C365.13 494.97 367.1 493 369.52 493C371.95 493 373.92 494.97 373.92 497.39ZM391.07 504.39C391.07 505.83 389.9 507 388.46 507C387.03 507 385.86 505.83 385.86 504.39C385.86 502.96 387.03 501.79 388.46 501.79C389.9 501.79 391.07 502.96 391.07 504.39Z" /><path class="shp3" d="M113.67 442.1C113.67 445.96 110.53 449.1 106.67 449.1C102.8 449.1 99.67 445.96 99.67 442.1C99.67 438.23 102.8 435.1 106.67 435.1C110.53 435.1 113.67 438.23 113.67 442.1Z" /><path class="shp2" d="M799.72 510.83C799.72 515.29 796.11 518.9 791.66 518.9C787.2 518.9 783.59 515.29 783.59 510.83C783.59 506.38 787.2 502.77 791.66 502.77C796.11 502.77 799.72 506.38 799.72 510.83ZM539.31 83.77C539.31 86.8 536.85 89.26 533.82 89.26C530.79 89.26 528.33 86.8 528.33 83.77C528.33 80.73 530.79 78.28 533.82 78.28C536.85 78.28 539.31 80.73 539.31 83.77ZM590.33 113C590.33 115.58 588.24 117.67 585.67 117.67C583.09 117.67 581 115.58 581 113C581 110.42 583.09 108.33 585.67 108.33C588.24 108.33 590.33 110.42 590.33 113ZM596.98 98.53C596.98 100.37 595.5 101.86 593.66 101.86C591.82 101.86 590.33 100.37 590.33 98.53C590.33 96.7 591.82 95.21 593.66 95.21C595.5 95.21 596.98 96.7 596.98 98.53Z" /><path class="shp6" d="M468.17 104.57L500.7 104.57C502.12 104.57 503.27 105.72 503.27 107.13L503.27 135.88C503.27 137.29 502.12 138.44 500.7 138.44L491.02 138.44L484.43 145.02L477.85 138.44L468.17 138.44C466.75 138.44 465.6 137.29 465.6 135.88L465.6 107.13C465.6 105.72 466.75 104.57 468.17 104.57Z" /><path class="shp14" d="M491.73 117.81C490.1 116.17 487.46 116.17 485.82 117.81L484.43 119.2L483.04 117.81C481.41 116.17 478.77 116.17 477.14 117.81C475.51 119.44 475.51 122.08 477.14 123.71L484.43 131.01L491.73 123.71C493.36 122.08 493.36 119.44 491.73 117.81Z" /><path class="shp4" d="M749 497.39C749 512.33 736.89 524.44 721.96 524.44C707.02 524.44 694.91 512.33 694.91 497.39C694.91 482.46 707.02 470.35 721.96 470.35C736.89 470.35 749 482.46 749 497.39Z" /><path fill-rule="evenodd" class="shp2" d="M739.72 497.4C739.72 507.19 731.75 515.16 721.95 515.16C718.5 515.16 715.14 514.16 712.24 512.26C711.73 511.92 711.09 511.85 710.52 512.06L705.47 513.88L707.29 508.83C707.5 508.25 707.43 507.62 707.09 507.11C705.19 504.21 704.19 500.85 704.19 497.4C704.19 487.6 712.16 479.63 721.95 479.63C731.75 479.63 739.72 487.6 739.72 497.4ZM730.16 493.23L723.92 497.39L720.45 493.23L713.75 501.56L720.22 498.55L723.23 501.56L730.16 493.23Z" /><path class="shp15" d="M667.36 78.08L653 92.93C652.77 93.18 652.63 93.51 652.63 93.85L652.63 107.01C652.63 107.74 653.23 108.33 653.96 108.33L663.67 108.33C664.4 108.33 665 107.74 665 107.01L665 100.6C665 98.78 666.48 97.29 668.31 97.29C670.14 97.29 671.62 98.78 671.62 100.6L671.62 107.01C671.62 107.74 672.21 108.33 672.95 108.33L682.66 108.33C683.39 108.33 683.99 107.74 683.99 107.01L683.99 93.85C683.99 93.51 683.85 93.18 683.61 92.93L669.26 78.08C668.74 77.54 667.88 77.54 667.36 78.08Z" /><path class="shp10" d="M121.73 487.42L81.15 487.42C76.95 487.42 73.55 484.02 73.55 479.82L73.55 439.24C73.55 435.04 76.95 431.64 81.15 431.64L121.73 431.64C125.93 431.64 129.33 435.04 129.33 439.24L129.33 479.82C129.33 484.02 125.93 487.42 121.73 487.42Z" /><path fill-rule="evenodd" class="shp2" d="M115.75 477.77L108.19 470.22C105.61 472.02 102.48 473.09 99.1 473.09C90.33 473.09 83.2 465.96 83.2 457.19C83.2 448.42 90.33 441.29 99.1 441.29C107.87 441.29 115 448.42 115 457.19C115 460.57 113.93 463.7 112.13 466.28L119.68 473.84L115.75 477.77ZM109.43 457.19C109.43 451.49 104.8 446.86 99.1 446.86C93.4 446.86 88.77 451.49 88.77 457.19C88.77 462.89 93.4 467.52 99.1 467.52C104.8 467.52 109.43 462.89 109.43 457.19Z" /></g></svg>