<svg xmlns="http://www.w3.org/2000/svg" width="1000" height="600"><defs><clipPath clipPathUnits="userSpaceOnUse" id="cp1"><path d="M1-119h1000V881H1z"/></clipPath></defs><style>.shp1{fill:#6a95f9}.shp2{fill:#fff}.shp3{fill:#dee6fc}.shp4{fill:#88d4ef}.shp5{fill:#524cb3}.shp6{fill:#e488c7}.shp7{fill:#e6ca76}.shp8{fill:#716ef1}.shp9{fill:#514db5}.shp10{fill:#f0ca76}</style><g clip-path="url(#cp1)"><path d="M545.26 543.49h-88.52V426.35h88.52v117.14z" fill="#496dfa"/><path class="shp1" d="M621.27 543.72H380.73c-3.76 0-6.81-3.05-6.81-6.82a6.42 6.42 0 016.42-6.42h241.32a6.42 6.42 0 016.42 6.42c0 3.77-3.05 6.82-6.81 6.82zm-392.17-58.8h543.8c5.9 0 10.69-4.79 10.69-10.7V143.65c0-5.91-4.79-10.7-10.69-10.7H229.1c-5.9 0-10.69 4.79-10.69 10.7v330.57c0 5.91 4.79 10.7 10.69 10.7z"/><path class="shp2" d="M240.08 154.62h521.84v294.39H240.08V154.62z"/><path class="shp3" d="M405.55 413.1H269.17v-54.43h136.38v54.43zm163.56 0H432.72v-54.43h136.39v54.43zm163.56 0H596.28v-54.43h136.39v54.43zM385.86 189.82H269.17v-10.97h116.69v10.97zm114.03.39h-30.91v-7.09h30.91v7.09zm83.78 0h-44.88v-7.09h44.88v7.09zm77.13 0h-44.88v-7.09h44.88v7.09zm77.13 0h-44.88v-7.09h44.88v7.09z"/><path class="shp4" d="M920.55 244.56H636.17c-4.37 0-7.9-3.54-7.9-7.9V66.38c0-4.36 3.53-7.9 7.9-7.9h284.38c4.37 0 7.9 3.54 7.9 7.9v170.28c0 4.36-3.53 7.9-7.9 7.9z"/><path class="shp5" d="M861.17 317.3H695.55c-4.36 0-7.9-3.54-7.9-7.9V141.14c0-4.36 3.54-7.9 7.9-7.9h165.62c4.37 0 7.9 3.54 7.9 7.9V309.4c0 4.36-3.53 7.9-7.9 7.9z"/><path class="shp6" d="M352.5 58.48H96.93c-13.11 0-23.74 10.63-23.74 23.74 0 13.11 10.63 23.74 23.74 23.74h234.73l14.5 18.29v-18.29h6.34c13.11 0 23.74-10.63 23.74-23.74 0-13.11-10.63-23.74-23.74-23.74zM726.67 159.2h-15.13v-4.53h15.13v4.53z"/><path class="shp2" d="M795.63 159.2h-60.89v-4.53h60.89v4.53zm-50.93 7.95h-9.96v-4.54h9.96v4.54z"/><path class="shp6" d="M845.18 175.09h-56.54v-4.54h56.54v4.54z"/><path class="shp2" d="M778.49 167.15h-31.46v-4.54h31.46v4.54zm-33.79 23.82h-9.96v-4.53h9.96v4.53z"/><path class="shp7" d="M758.32 190.97h-11.29v-4.53h11.29v4.53z"/><path class="shp6" d="M786.3 175.09h-51.56v-4.54h51.56v4.54z"/><path class="shp2" d="M845.18 183.03H734.74v-4.54h110.44v4.54z"/><path class="shp6" d="M726.67 211.65h-15.13v-4.53h15.13v4.53z"/><path class="shp2" d="M795.63 211.65h-60.89v-4.53h60.89v4.53zm-50.93 7.95h-9.96v-4.54h9.96v4.54z"/><path class="shp6" d="M845.18 227.54h-56.54V223h56.54v4.54z"/><path class="shp2" d="M778.49 219.6h-31.46v-4.54h31.46v4.54zm-33.79 23.82h-9.96v-4.53h9.96v4.53z"/><path class="shp7" d="M758.32 243.42h-11.29v-4.53h11.29v4.53z"/><path class="shp6" d="M786.3 227.54h-51.56V223h51.56v4.54z"/><path class="shp2" d="M845.18 235.48H734.74v-4.54h110.44v4.54z"/><path class="shp6" d="M726.67 264.11h-15.13v-4.54h15.13v4.54z"/><path class="shp2" d="M795.63 264.11h-60.89v-4.54h60.89v4.54zm-50.93 7.94h-9.96v-4.54h9.96v4.54z"/><path class="shp6" d="M845.18 279.99h-56.54v-4.54h56.54v4.54z"/><path class="shp2" d="M778.49 272.05h-31.46v-4.54h31.46v4.54zm-33.79 23.83h-9.96v-4.54h9.96v4.54z"/><path class="shp7" d="M758.32 295.88h-11.29v-4.54h11.29v4.54z"/><path class="shp6" d="M786.3 279.99h-51.56v-4.54h51.56v4.54z"/><path class="shp2" d="M845.18 287.93H734.74v-4.54h110.44v4.54z"/><path class="shp8" d="M251.29 401.51H81.45c-4.37 0-7.9-3.54-7.9-7.9V223.77c0-4.36 3.53-7.9 7.9-7.9h169.84c4.36 0 7.9 3.54 7.9 7.9v169.84c0 4.36-3.54 7.9-7.9 7.9z"/><path fill-rule="evenodd" class="shp9" d="M166.44 385.97c-42.42 0-76.93-34.51-76.93-76.94 0-42.42 34.51-76.93 76.93-76.93 42.43 0 76.94 34.51 76.94 76.93 0 42.43-34.51 76.94-76.94 76.94zm0-144.72c-37.37 0-67.78 30.41-67.78 67.78 0 37.38 30.41 67.78 67.78 67.78 37.38 0 67.79-30.4 67.79-67.78 0-37.37-30.41-67.78-67.79-67.78z"/><path fill-rule="evenodd" class="shp9" d="M166.44 369.95c-33.59 0-60.91-27.33-60.91-60.92s27.32-60.91 60.91-60.91c33.59 0 60.92 27.32 60.92 60.91 0 33.59-27.33 60.92-60.92 60.92zm0-112.68c-28.54 0-51.76 23.22-51.76 51.76 0 28.55 23.22 51.77 51.76 51.77 28.55 0 51.77-23.22 51.77-51.77 0-28.54-23.22-51.76-51.77-51.76z"/><path class="shp4" d="M166.44 369.95a4.575 4.575 0 010-9.15c28.55 0 51.77-23.22 51.77-51.77 0-28.54-23.22-51.76-51.77-51.76a4.575 4.575 0 010-9.15c33.59 0 60.92 27.32 60.92 60.91 0 33.59-27.33 60.92-60.92 60.92z"/><path fill-rule="evenodd" class="shp9" d="M166.44 353.93c-24.75 0-44.89-20.14-44.89-44.9 0-24.75 20.14-44.9 44.89-44.9 24.76 0 44.9 20.15 44.9 44.9 0 24.76-20.14 44.9-44.9 44.9zm0-80.64c-19.71 0-35.74 16.03-35.74 35.74s16.03 35.75 35.74 35.75 35.75-16.04 35.75-35.75-16.04-35.74-35.75-35.74z"/><path fill-rule="evenodd" class="shp9" d="M166.44 337.91c-15.92 0-28.88-12.95-28.88-28.88 0-7.3 2.74-14.27 7.7-19.63a28.966 28.966 0 0121.18-9.25c15.93 0 28.88 12.96 28.88 28.88 0 15.93-12.95 28.88-28.88 28.88zm0-48.6c-5.55 0-10.69 2.24-14.47 6.32a19.624 19.624 0 00-5.25 13.4c0 10.88 8.85 19.73 19.72 19.73 10.88 0 19.73-8.85 19.73-19.73 0-10.87-8.85-19.72-19.73-19.72z"/><path class="shp6" d="M166.44 337.91c-15.92 0-28.88-12.95-28.88-28.88 0-2.52 2.05-4.57 4.58-4.57 2.53 0 4.58 2.05 4.58 4.57 0 10.88 8.85 19.73 19.72 19.73 10.88 0 19.73-8.85 19.73-19.73s-8.85-19.72-19.73-19.72c-2.52 0-4.57-2.05-4.57-4.58 0-2.53 2.05-4.58 4.57-4.58 15.93 0 28.88 12.96 28.88 28.88 0 15.93-12.95 28.88-28.88 28.88z"/><path class="shp2" d="M238.8 314.3c-2.91 0-5.26-2.36-5.26-5.27 0-36.99-30.1-67.09-67.1-67.09-2.9 0-5.26-2.36-5.26-5.26 0-2.91 2.36-5.27 5.26-5.27 42.81 0 77.63 34.82 77.63 77.62a5.27 5.27 0 01-5.27 5.27z"/><path class="shp10" d="M166.44 354.62c-12.98 0-25.39-5.58-34.05-15.3a5.278 5.278 0 01.43-7.44 5.278 5.278 0 017.44.43c6.66 7.49 16.21 11.78 26.18 11.78 19.33 0 35.06-15.73 35.06-35.06 0-19.33-15.73-35.05-35.06-35.05-2.9 0-5.26-2.36-5.26-5.27 0-2.91 2.36-5.27 5.26-5.27 25.14 0 45.59 20.46 45.59 45.59 0 25.14-20.45 45.59-45.59 45.59z"/><path class="shp8" d="M255.27 246.75l16.52-13.1h-16.52"/><text transform="translate(269.167 273)"><tspan x="0" y="0" style="white-space:pre" font-size="24" fill="#dee6fc" font-family="Antipasto Pro" font-weight="700">Web Design</tspan></text><path class="shp3" d="M299.8 294.76h-30.63v-5.98h30.63v5.98zm148.62 13.32H269.17v-7.04h179.25v7.04zm0 12.16H269.17v-7.04h179.25v7.04zm-83.29 5.11h-95.96v7.04h95.96v-7.04z"/><path class="shp2" d="M922.45 449.33H814c-3.31 0-6-2.69-6-6V334.87c0-3.31 2.69-6 6-6h108.45c3.32 0 6 2.69 6 6v108.46c0 3.31-2.68 6-6 6z"/><path class="shp6" d="M844.62 420.26h-10.47v-19.6h10.47v19.6z"/><path class="shp7" d="M859.46 420.26h-10.47v-44.81h10.47v44.81z"/><path class="shp8" d="M874.31 420.26h-10.47v-29.42h10.47v29.42z"/><path class="shp1" d="M889.15 420.26h-10.47v-58.84h10.47v58.84z"/><path class="shp4" d="M904 420.26h-10.47v-67.23H904v67.23z"/><path class="shp3" d="M844.62 428.81h-10.47v-2.24h10.47v2.24zm14.84 0h-10.47v-2.24h10.47v2.24zm14.85 0h-10.47v-2.24h10.47v2.24zm14.84 0h-10.47v-2.24h10.47v2.24zm14.85 0h-10.47v-2.24H904v2.24z"/><path d="M166.44 163c0 5.12-4.15 9.27-9.26 9.27a9.27 9.27 0 01-9.27-9.27 9.27 9.27 0 019.27-9.27c5.11 0 9.26 4.15 9.26 9.27zm663.74 336.16a9.27 9.27 0 01-9.27 9.27c-5.11 0-9.26-4.15-9.26-9.27 0-5.12 4.15-9.27 9.26-9.27a9.27 9.27 0 019.27 9.27z" fill="none" stroke="#88d4ef" stroke-width="8"/><path class="shp3" d="M194.61 182.9c0 4.31-3.49 7.8-7.8 7.8a7.8 7.8 0 01-7.81-7.8c0-4.32 3.49-7.81 7.81-7.81a7.8 7.8 0 017.8 7.81z"/><path class="shp4" d="M302.61 533.27H146.82c-3.32 0-6-2.69-6-6V426.26c0-3.31 2.68-6 6-6h155.79c3.32 0 6 2.69 6 6v101.01c0 3.31-2.68 6-6 6z"/><path class="shp5" d="M149.38 428.82h150.67v95.88H149.38v-95.88z"/><path class="shp7" d="M222.24 463.88c0 6.95 5.63 12.58 12.58 12.58 6.94 0 12.57-5.63 12.57-12.58 0-6.94-5.63-12.57-12.57-12.57-6.95 0-12.58 5.63-12.58 12.57z"/><path class="shp2" d="M300.05 510.99l-37.94-37.94-26.52 26.53-54.26-54.25-31.95 31.96v47.41h150.67v-13.71z"/><path d="M561.23 95.21v15.84m7.92-7.92h-15.84m345.45 172.34v15.84m7.93-7.92h-15.85M337.36 499.08v15.84m7.92-7.92h-15.84" fill="none" stroke="#88d4ef" stroke-linecap="round" stroke-linejoin="round" stroke-width="8"/><path class="shp2" d="M373.92 497.39a4.4 4.4 0 01-4.4 4.4 4.396 4.396 0 114.4-4.4zm17.15 7c0 1.44-1.17 2.61-2.61 2.61a2.61 2.61 0 01-2.6-2.61c0-1.43 1.17-2.6 2.6-2.6a2.61 2.61 0 012.61 2.6z"/><path class="shp3" d="M113.67 442.1c0 3.86-3.14 7-7 7-3.87 0-7-3.14-7-7 0-3.87 3.13-7 7-7 3.86 0 7 3.13 7 7z"/><path class="shp2" d="M799.72 510.83c0 4.46-3.61 8.07-8.06 8.07-4.46 0-8.07-3.61-8.07-8.07 0-4.45 3.61-8.06 8.07-8.06 4.45 0 8.06 3.61 8.06 8.06zM539.31 83.77c0 3.03-2.46 5.49-5.49 5.49-3.03 0-5.49-2.46-5.49-5.49 0-3.04 2.46-5.49 5.49-5.49 3.03 0 5.49 2.45 5.49 5.49zM590.33 113c0 2.58-2.09 4.67-4.66 4.67-2.58 0-4.67-2.09-4.67-4.67s2.09-4.67 4.67-4.67c2.57 0 4.66 2.09 4.66 4.67zm6.65-14.47a3.32 3.32 0 01-3.32 3.33c-1.84 0-3.33-1.49-3.33-3.33 0-1.83 1.49-3.32 3.33-3.32s3.32 1.49 3.32 3.32z"/><path class="shp6" d="M468.17 104.57h32.53c1.42 0 2.57 1.15 2.57 2.56v28.75c0 1.41-1.15 2.56-2.57 2.56h-9.68l-6.59 6.58-6.58-6.58h-9.68c-1.42 0-2.57-1.15-2.57-2.56v-28.75c0-1.41 1.15-2.56 2.57-2.56z"/><path d="M491.73 117.81a4.165 4.165 0 00-5.91 0l-1.39 1.39-1.39-1.39a4.153 4.153 0 00-5.9 0 4.17 4.17 0 000 5.9l7.29 7.3 7.3-7.3a4.17 4.17 0 000-5.9z" fill="#f9f9f9"/><path class="shp4" d="M749 497.39c0 14.94-12.11 27.05-27.04 27.05-14.94 0-27.05-12.11-27.05-27.05 0-14.93 12.11-27.04 27.05-27.04 14.93 0 27.04 12.11 27.04 27.04z"/><path fill-rule="evenodd" class="shp2" d="M739.72 497.4c0 9.79-7.97 17.76-17.77 17.76-3.45 0-6.81-1-9.71-2.9a1.91 1.91 0 00-1.72-.2l-5.05 1.82 1.82-5.05c.21-.58.14-1.21-.2-1.72-1.9-2.9-2.9-6.26-2.9-9.71 0-9.8 7.97-17.77 17.76-17.77 9.8 0 17.77 7.97 17.77 17.77zm-9.56-4.17l-6.24 4.16-3.47-4.16-6.7 8.33 6.47-3.01 3.01 3.01 6.93-8.33z"/><path d="M667.36 78.08L653 92.93c-.23.25-.37.58-.37.92v13.16c0 .73.6 1.32 1.33 1.32h9.71c.73 0 1.33-.59 1.33-1.32v-6.41c0-1.82 1.48-3.31 3.31-3.31s3.31 1.49 3.31 3.31v6.41c0 .73.59 1.32 1.33 1.32h9.71c.73 0 1.33-.59 1.33-1.32V93.85c0-.34-.14-.67-.38-.92l-14.35-14.85c-.52-.54-1.38-.54-1.9 0z" fill="#70c4ea"/><path class="shp10" d="M121.73 487.42H81.15c-4.2 0-7.6-3.4-7.6-7.6v-40.58c0-4.2 3.4-7.6 7.6-7.6h40.58c4.2 0 7.6 3.4 7.6 7.6v40.58c0 4.2-3.4 7.6-7.6 7.6z"/><path fill-rule="evenodd" class="shp2" d="M115.75 477.77l-7.56-7.55c-2.58 1.8-5.71 2.87-9.09 2.87-8.77 0-15.9-7.13-15.9-15.9s7.13-15.9 15.9-15.9 15.9 7.13 15.9 15.9c0 3.38-1.07 6.51-2.87 9.09l7.55 7.56-3.93 3.93zm-6.32-20.58c0-5.7-4.63-10.33-10.33-10.33s-10.33 4.63-10.33 10.33 4.63 10.33 10.33 10.33 10.33-4.63 10.33-10.33z"/></g></svg>