<svg xmlns="http://www.w3.org/2000/svg" width="117.46" height="215.706" viewBox="0 0 110.119 202.224"><path d="M84.23 146.266l12.58 18.874 8.425-10.832-10.576-21.474-10.43 13.432z" fill="#2f7789"/><path d="M24.379 150.207L0 180.192v22.032l22.513-22.138 1.866-29.879z" fill="#797c58"/><path d="M45.575 123.914l1.345 32.376 26.684-25.996-15.016-22.534-13.013 16.154z" fill="#26a594"/><path d="M73.3 89.518l-14.714 18.24 15.02 22.533 13.392-13.041L73.3 89.518z" fill="#83111f"/><path d="M110.119 112.96l-6.067-12.331-17.054 16.621 7.66 15.584 15.46-19.873z" fill="#489cbc"/><path d="M84.23 146.266l10.429-13.432-7.663-15.584-13.392 13.045 10.625 15.97z" fill="#261417"/><path d="M41.649 43.028H30.946L24.38 150.207l21.197-26.294-3.927-80.885z" fill="#60bd8d"/><path d="M24.379 150.207l-1.866 29.879L46.92 156.29l-1.344-32.376-21.197 26.293z" fill="#0b4843"/><path d="M39.613 9.158L35.168 0s-9.496 14.528-9.496 20.17c0 8.96 4.208 14.867 4.208 14.867h13.037l2.306-14.06h-8.368l2.758-11.819z" fill="#83111f"/></svg>