<svg xmlns="http://www.w3.org/2000/svg" height="160.16" width="160.16"><path fill="#4b2e83" d="M80.245 159.296c-43.604 0-79.078-35.477-79.078-79.082C1.165 36.61 36.64 1.137 80.245 1.137c43.602-.001 79.077 35.473 79.082 79.077 0 43.602-35.475 79.077-79.078 79.082z"/><path fill="#fff" d="M80.245 3.525c-42.288 0-76.69 34.404-76.69 76.689.002 42.286 34.404 76.689 76.69 76.689 42.286 0 76.689-34.407 76.689-76.69 0-42.288-34.407-76.688-76.69-76.688z"/><path fill="#4b2e83" d="M80.245 139.315c-32.675 0-59.257-26.582-59.257-59.257S47.57 20.801 80.245 20.801s59.257 26.583 59.257 59.257c0 32.675-26.584 59.257-59.257 59.257z"/><path fill="#fff" d="M80.245 23.193c-31.357 0-56.87 25.511-56.87 56.87 0 31.356 25.512 56.868 56.87 56.868 31.357 0 56.868-25.51 56.868-56.869 0-31.356-25.511-56.869-56.868-56.869z"/><path fill="#4b2e83" d="M80.245 136.543l-.4-.231c-29.025-16.78-44.367-45.21-44.367-82.21 0-5.575 1.854-11.576 5.926-11.576 2.582 0 5.31 1.556 7.948 3.06 2.306 1.316 4.484 2.558 6.193 2.558.792 0 1.349-.147 1.49-.394.34-.598-.692-2.35-1.247-3.292l-.159-.27c-.664-1.134-.437-2.011-.13-2.547 1.335-2.327 7.295-3.364 19.325-3.364 1.277 0 2.456.01 3.467.02.755.006 1.415.011 1.953.011.537 0 1.197-.005 1.952-.012 1.01-.009 2.189-.02 3.467-.02 12.03 0 17.99 1.038 19.325 3.365.307.536.533 1.413-.13 2.547l-.161.274c-.554.94-1.584 2.691-1.243 3.288.14.247.697.394 1.488.394 1.71 0 3.887-1.242 6.193-2.557 2.638-1.505 5.365-3.06 7.948-3.06 4.071 0 5.926 6 5.926 11.575 0 37-15.342 65.429-44.367 82.21l-.4.23z"/><path fill="#fff" d="M41.404 44.118c-2.814 0-4.333 5.143-4.333 9.983 0 36.228 14.928 64.091 43.174 80.6 28.244-16.51 43.17-44.373 43.17-80.6 0-4.84-1.517-9.983-4.33-9.983-2.161 0-4.702 1.45-7.16 2.851-2.494 1.423-4.85 2.767-6.983 2.767-1.472 0-2.411-.391-2.87-1.196-.8-1.4.337-3.334 1.252-4.888l.158-.27c.338-.576.187-.838.123-.95-.67-1.17-4.327-2.564-17.942-2.564-1.273 0-2.446.01-3.452.02-.76.006-1.425.012-1.967.012-.541 0-1.207-.006-1.966-.013-1.007-.008-2.182-.02-3.454-.02-13.614 0-17.272 1.395-17.942 2.565-.064.112-.214.374.123.95l.156.266c.917 1.554 2.058 3.49 1.258 4.891-.46.805-1.4 1.197-2.873 1.197-2.133 0-4.488-1.344-6.983-2.766-2.458-1.402-5-2.852-7.158-2.852z"/><path d="M86.192 7.113c-2.66.024-5.3.065-7.961.09-1.222-.015-2.425-.043-3.649-.057l.002.595c2.06-.056 2.02.723 2.024 2.078l.015 5.592c.004 1.356.05 2.132-2.01 2.088l.002.596c1.223-.02 2.424-.056 3.647-.075 1.268.012 2.532.041 3.799.055l-.002-.596c-2.167.056-2.147-.606-2.152-2.077l-.007-2.449.88-.002c1.375.028 1.976.738 2.11 1.764l.855-.003c-.021-.71-.07-1.422-.09-2.133.019-.745.059-1.471.078-2.215h-.857c-.299 1.324-1.026 1.823-2.185 1.827l-.815.002-.008-3.143c-.003-1.124-.154-1.157 1.347-1.161 2.169-.006 3.778.17 4.319 2.071l.86-.002-.202-2.845zM66.517 8.661a11.966 11.966 0 00-3.079.341c-4.195 1.006-7.277 3.905-6.455 7.346.81 3.393 4.816 4.643 9.012 3.637 4.216-1.01 7.314-3.93 6.496-7.356-.613-2.569-3.027-3.893-5.974-3.968zm33.489.424l-.233.545c1.29.755 1.195 1.023 1.229 2.136l.144 9.931.965.417 5.754-5.278.081 7.796.946.41 7.28-6.925c.601-.587 1.001-.864 2.048-.52l.233-.548c-.776-.317-1.537-.611-2.313-.927-.663-.304-1.319-.624-1.981-.929l-.239.547c.823.48 1.52.87 1.153 1.722-.25.577-1.564 1.9-2.094 2.428l-2.111 2.078-.12-8.246-.888-.383-5.857 5.791.065-4.764c.005-.447-.01-1.552.152-1.931.309-.715 1.309-.21 1.997-.021l.23-.547c-1.17-.487-2.325-.95-3.495-1.437-.977-.44-1.969-.905-2.95-1.345zm-35.249.51c2.59-.046 3.698 2.112 4.147 3.997.53 2.22.337 4.834-3.085 5.656-3.36.805-4.757-1.804-5.247-3.862-.492-2.059-.359-4.829 2.981-5.629a5.599 5.599 0 011.204-.162zm28.975 2.299l-2.966 3.382 4.447.87-1.48-4.252zM43.652 16.7c-.671.502-1.35 1.03-2.02 1.534-.602.412-1.198.798-1.8 1.211l.347.484c.61-.44 1.34-.82 1.753-.243.252.349.258 1.28.262 1.765l-.124 3.368-3.484-1.18c-.35-.115-1.236-.394-1.428-.662-.365-.51.442-1.152.894-1.518l-.346-.483c-.985.728-1.96 1.468-2.944 2.196-.88.614-1.79 1.226-2.672 1.84l.347.483c1.022-.49 1.216-.404 2.12-.138l5.98 1.968.848 1.181c.792 1.18 1.258 1.682-.478 2.91l.346.484c.916-.679 1.837-1.383 2.752-2.06 1.108-.778 2.209-1.528 3.316-2.305l-.346-.483c-1.715 1.293-2.094.691-2.922-.464l-1.041-1.45.195-5.962c.01-.76.044-1.375.79-1.992l-.346-.484zm6.317.973l-.334 4.486 4.072-1.987-3.738-2.499zm73.366 3.225l-8.073 3.832c-1.055.496-2.493 1.407-3.921.379l-.353.48c.666.47 1.345.926 2.011 1.396.719.546 1.425 1.106 2.142 1.653l.35-.478c-.61-.51-1.378-1.136-.899-1.79.266-.36.838-.596 1.236-.814l.493-.235 3.825 2.808-.193 1.027c-.045.276-.159.908-.317 1.123-.418.573-1.318-.127-1.875-.456l-.352.48c.909.646 1.847 1.295 2.755 1.942 1.031.776 2.048 1.565 3.078 2.341l.352-.48c-.387-.346-.787-.742-.943-1.185-.152-.52-.01-1.442.065-1.941l1.45-9.473-.83-.61zm-2.328 2.125l-.722 4.185-3.15-2.312 3.872-1.873zm-90.737 3.68l-9.154 10.373 2.264 2.176.612-.693c-.85-1.21-1.078-2.473.415-3.964.957-.96.865-.956 1.756-.167l4.662 4.128c1.1.976 1.61 1.398.123 3.008l.445.394c.826-.96 1.64-1.933 2.466-2.894.851-.94 1.714-1.868 2.565-2.807l-.445-.394c-1.413 1.675-1.88 1.205-2.98.23l-4.661-4.129c-1.008-.833-.975-.72-.051-1.766 1.237-1.402 2.625-1.577 3.806-.819l.612-.692-2.435-1.985zm101.372 3.07c-.6-.013-1.16.168-1.64.582-1.38 1.184-.831 3.097.13 5.211.754 1.642 1.986 3.718.819 4.718-.774.667-2.154.022-3.09-1.07-1.787-2.09-1.476-3.861-.785-5.367l-.647-.754-2.606 2.238.708.829.915-.327c.148 1.342.921 2.802 1.951 4.008 1.982 2.318 4.697 3.71 6.39 2.258 1.68-1.442.64-3.85-.505-6.36-.594-1.353-1.556-3.01-.617-3.819.678-.58 1.837.06 2.624.984 1.404 1.638 1.483 3.432.806 4.6l.695.81 2.156-2.05-.69-.81-.7.175c-.18-1.152-.93-2.337-1.803-3.353-1.283-1.502-2.792-2.472-4.111-2.502zM19.685 39.572c-.625 1.078-1.258 2.202-1.894 3.3-.62 1.006-1.244 1.985-1.864 2.99l.51.306c1.04-1.805 1.673-1.351 2.85-.647l4.76 2.855c1.162.696 1.86 1.04.748 2.805l.51.304c.592-1.023 1.17-2.053 1.761-3.076.665-1.08 1.345-2.151 1.998-3.213l-.51-.306c-1.018 1.77-1.602 1.394-2.764.698l-4.818-2.889c-1.162-.697-1.86-1.04-.776-2.82l-.506-.308zm122.122.139l-.532.267c.971 1.822.26 2.133-.948 2.743l-4.987 2.514c-1.21.609-1.882.997-2.766-.868l-.53.267c.545 1.05 1.096 2.071 1.641 3.12.554 1.14 1.094 2.287 1.65 3.428l.532-.269c-.972-1.82-.26-2.131.949-2.741l2.196-1.107 2.857 5.683-2.197 1.108c-1.207.61-1.892.978-2.772-.887l-.532.267c.553 1.069 1.113 2.109 1.67 3.177.545 1.121 1.083 2.268 1.629 3.39l.532-.269c-.971-1.82-.26-2.131.952-2.741l4.982-2.514c1.21-.61 1.884-.996 2.767.87l.53-.27c-.605-1.164-1.23-2.339-1.835-3.502-.497-1.025-.97-2.039-1.464-3.064l-.534.268c.971 1.821.269 2.151-.94 2.76l-2.05 1.034-2.856-5.682 2.05-1.034c1.209-.61 1.883-.998 2.764.868l.532-.27c-.584-1.124-1.19-2.26-1.777-3.385-.507-1.045-1.008-2.116-1.513-3.161zm-61.56.445l-2.016 6.017H71.73l5.225 3.745-1.976 5.974 5.267-3.684 5.265 3.684-1.974-5.974 5.224-3.745h-6.479l-2.036-6.017zM70.05 46.15c-7.63 6.81-13.358 4.646-20.212 10.38h-13.44c5.062-4.517 8.449.518 15.17-6.886-7.073 5.37-10.957 2.085-15.289 4.674v2.215a.774.774 0 00.035 1.549h87.882a.776.776 0 00.024-1.551v.102c-.04-.037-.08-.068-.119-.104h-13.44c.088.074.176.143.264.219l-3.186-.165-.054-.054h-1.588c.18.108.36.213.546.327l-3.884-.049c-.104-.096-.21-.187-.316-.278h-2.313c.096.075.192.148.288.228a5.09 5.09 0 00-.528-.228H60.613c3.504-1.302 9.194.56 13.264-3.606-3.806 2.734-8.762-.08-13.505 3.606h-2.314c4.462-3.837 10.635-2.522 14.625-7.192-5.761 4.492-9.228 1.81-18.276 7.192h-1.59c5.074-5.203 11.718-2.44 17.236-10.38zM99.89 56.53h.24c-4.744-3.685-9.699-.873-13.505-3.607 4.07 4.166 9.761 2.304 13.264 3.606zm2.553 0h3.654c-9.05-5.383-12.518-2.7-18.278-7.192 3.989 4.67 10.163 3.355 14.624 7.191zm5.241 0h2.977c-6.854-5.734-12.582-3.57-20.212-10.38 5.517 7.94 12.162 5.177 17.236 10.38zm16.417 0h.094l.025.001v-2.213c-4.333-2.59-8.216.697-15.286-4.674 6.718 7.405 10.105 2.369 15.167 6.886zm-76.662-8.385c-4.832 3.583-7.421 1.79-11.004 3.208a12.36 12.36 0 00-.102 1.57c4.88-2.291 7.07-.4 11.106-4.778zm65.632 0c4.034 4.379 6.224 2.487 11.104 4.777 0-.473-.032-1.048-.103-1.57-3.582-1.417-6.17.376-11.001-3.207zm-99.247 1.923l-.376.999.487.529c-.921.711-1.597 1.94-2.07 3.193-1.016 2.692-.82 5.259 1.079 5.979 1.698.644 3.11-.758 4.5-2.618 1.078-1.45 2.304-3.531 3.741-2.987.957.362 1.054 1.885.545 3.232-.973 2.574-2.673 3.15-4.324 3.268l-.349.928 3.211 1.218.386-1.022-.727-.647c1.104-.775 2.013-2.155 2.575-3.64 1.078-2.854.994-5.908-1.09-6.698-2.07-.785-3.68 1.284-5.327 3.498-.901 1.17-1.892 2.811-3.05 2.372-.833-.315-.828-1.638-.4-2.775.763-2.02 2.298-2.95 3.645-2.918l.375-.996-2.831-.915zm22.56 8.372a.777.777 0 000 1.553h87.766a.777.777 0 100-1.553H36.383zm113.897.148l-.575.147c.545 2.012-.222 2.142-1.551 2.481l-5.373 1.374c-1.314.335-2.05.59-2.516-1.444l-.575.147c.307 1.142.63 2.28.94 3.421.295 1.233.576 2.472.867 3.685l.576-.149c-.535-1.97.14-2.121 1.453-2.457l5.44-1.39c1.31-.335 2.05-.59 2.547 1.436l.574-.148c-.323-1.204-.674-2.446-1-3.671-.279-1.15-.53-2.282-.807-3.432zm-58.816 2.384c-1.323 0-2.394.579-2.394 1.657 0 .965.835 1.403 1.859 1.745.797.262 1.892.481 1.892 1.296 0 .543-.639.878-1.302.878-1.262 0-1.785-.738-2.106-1.534h-.454v1.822h.5l.16-.482c.514.403 1.253.596 1.982.596 1.401 0 2.699-.613 2.699-1.796 0-1.175-1.148-1.587-2.368-1.99-.65-.228-1.517-.412-1.517-1.07 0-.473.57-.719 1.13-.719.99 0 1.64.589 1.845 1.263h.489l-.069-1.578h-.489l-.15.343c-.453-.325-1.092-.431-1.707-.431zm-41.316.08v.315c1.094-.026 1.072.386 1.072 1.105v2.962c0 .719.022 1.13-1.072 1.104v.317c.65-.01 1.288-.027 1.938-.035.682.008 2.756.025 4.817.035l.08-1.675h-.49c-.319.99-.877 1.272-2.164 1.272-1.39 0-1.366-.545-1.366-1.43v-2.55c0-.719-.013-1.131 1.081-1.105v-.316c-.694.01-1.4.027-2.096.035-.603-.008-1.196-.025-1.8-.035zm15.765 0v.314c.308.063.513.115.741.28.204.15.444.405.614.589l1.983 2.024-1.698 1.517c-.387.36-.831.737-1.482.762v.316c.456-.009.913-.027 1.369-.035.524.008 1.035.026 1.56.035v-.316c-.32-.033-.832-.044-.832-.376 0-.246.456-.658.65-.851l.774-.71 1.014.999c.136.123.512.465.512.632 0 .114-.08.2-.227.237a6.45 6.45 0 01-.707.07v.315c.616-.009 1.241-.027 1.856-.035.708.008 1.414.026 2.12.035v-.316c-.626-.008-.797-.235-1.15-.594l-2.313-2.325 1.436-1.376c.456-.438.831-.823 1.594-.876v-.316c-.513.008-1.013.025-1.526.033-.456-.008-.923-.024-1.379-.033v.316c.297.018.868.052.868.376 0 .227-.275.508-.434.683l-.866.86-.717-.718c-.182-.194-.662-.66-.662-.878 0-.316.571-.315.844-.323v-.316c-.694.008-1.38.025-2.075.033-.625-.008-1.241-.024-1.867-.033zm30.173 0v.315c1.104-.018 1.07.394 1.07 1.122v2.946c0 .717.034 1.129-1.07 1.103v.316c.628-.009 1.253-.026 1.88-.034.671.008 1.344.025 2.004.034v-.316c-1.08.018-1.072-.35-1.072-1.07v-2.98c0-.718-.034-1.13 1.072-1.12v-.317c-.66.01-1.341.026-2.014.035-.629-.01-1.242-.025-1.87-.035zm5.469 0l-.07 1.664h.49c.183-.761.604-1.297 1.722-1.227.715.044.684.01.684.64v3.305c0 .78.008 1.13-1.152 1.104v.316c.671-.008 1.344-.027 2.016-.035.673.008 1.344.027 2.017.035v-.316c-1.165.027-1.142-.324-1.142-1.104v-3.305c-.023-.692-.057-.64.685-.64.993 0 1.55.491 1.66 1.227h.493l-.068-1.665h-7.335zm-44.333 0v.315c.935.121.922.202 1.299.937l2.392 4.647h.546l2.506-4.636c.285-.536.467-.913 1.31-.948v-.315c-.489.008-.978.025-1.469.033-.455-.008-.911-.024-1.367-.033v.315c.434.026.946.053.946.482 0 .36-.32 1-.502 1.34l-1.08 2.104-1.415-2.919c-.056-.139-.204-.446-.204-.586 0-.412.558-.413.956-.421v-.315c-.684.008-1.366.025-2.05.033-.626-.008-1.241-.024-1.868-.033zm20.567 1.149l-1.308 2.245h2.621L77.79 62.2zm6.103 0l-1.31 2.245h2.62l-1.31-2.245zM19.1 65.226c-.168.587-.319.893-.732 1.3-.486.463-1.082.87-1.608 1.263l-3.145 2.598c-.01-1.777-.742-3.484-2.201-3.654-1.15-.133-2.118.49-2.705 1.828-.421.902-.652 2.454-.804 3.476-.117 1.156-.22 2.311-.336 3.467-.158 1.215-.33 2.407-.487 3.622l.59.068c.189-2.055.955-1.922 2.3-1.766l5.542.645c1.345.157 2.12.205 1.833 2.248l.59.069c.126-1.22.233-2.42.358-3.639.157-1.214.333-2.448.491-3.664l-.59-.067c-.19 2.053-.957 1.943-2.302 1.787l-2.165-.25c.013-.107.012-.236.024-.343.037-.602.964-1.424 1.8-2.041l3.648-2.65c.066-.706.115-1.413.18-2.12.098-.703.212-1.403.31-2.105l-.59-.07zm18.009 2.672a.797.797 0 100 1.594h86.296a.797.797 0 000-1.594H37.11zm116.007 1.492l-.594.021c-.037 1.184-.324 1.476-1.042 2.192l-6.63.252c-1.173.044-1.855-.057-2.054-1.835l-.592.022c.046.816.11 1.631.159 2.446.015.86.015 1.743.03 2.602l.596-.023c-.012-2.066 1.273-2.114 2.527-2.162l5.097-.194-8.159 10.077.04 1.053 7.932-.304c.545-.02 1.551-.058 2.043.246.456.283.547.969.653 1.567l.593-.022c-.05-.859-.114-1.718-.164-2.574-.013-.818-.01-1.635-.024-2.452l-.595.021c.014 2.045-1.192 2.09-2.446 2.14l-4.388.167 7.185-8.774c-.046-.815-.111-1.608-.158-2.424-.01-.689 0-1.355-.01-2.042zm-105.222.46c.354 0 .684.089.981.235.893.301 2.22.788 4.616.788 2.396 0 3.721-.487 4.613-.788.298-.146.627-.235.982-.235-.853 0-3.915.4-5.595.4-1.681 0-4.744-.4-5.597-.4zc-1.234 0-2.235 1-2.235 2.231s1.001 2.23 2.235 2.23c.887 0 1.647-.52 2.008-1.268h7.176a2.228 2.228 0 002.008 1.269c1.233 0 2.234-.999 2.234-2.23s-1.001-2.232-2.234-2.232c-.26 0-.593.104-.982.235-.489.24-.879.65-1.086 1.156h-7.056a2.231 2.231 0 00-1.086-1.156c-.39-.131-.723-.235-.982-.235zm17.529 0c.354 0 .684.089.981.235.893.301 2.219.788 4.616.788 2.395 0 3.72-.487 4.613-.788.297-.146.627-.235.981-.235-.853 0-3.914.4-5.594.4-1.682 0-4.744-.4-5.597-.4zc-1.234 0-2.235 1-2.235 2.231s1.001 2.23 2.235 2.23c.887 0 1.647-.52 2.008-1.268h7.176a2.229 2.229 0 004.242-.962c0-1.232-1-2.231-2.234-2.231-.26 0-.593.104-.982.235-.49.24-.88.65-1.086 1.156H67.49a2.231 2.231 0 00-1.086-1.156c-.388-.131-.722-.235-.981-.235zm18.326 0c.353 0 .683.089.98.235.892.301 2.218.788 4.616.788 2.393 0 3.719-.486 4.611-.787.298-.147.63-.236.985-.236-.852 0-3.915.4-5.596.4-1.68 0-4.744-.4-5.596-.4zc-1.237 0-2.235 1-2.235 2.231s.998 2.23 2.235 2.23a2.23 2.23 0 002.008-1.268h7.175a2.228 2.228 0 004.24-.962 2.231 2.231 0 00-2.231-2.231c-.26 0-.594.104-.985.236a2.23 2.23 0 00-1.084 1.155h-7.055a2.235 2.235 0 00-1.087-1.156c-.389-.131-.722-.235-.98-.235zm17.528 0c.353 0 .683.089.98.235.892.301 2.219.788 4.617.788 2.393 0 3.72-.487 4.612-.788.298-.146.628-.235.982-.235-.852 0-3.915.4-5.594.4-1.682 0-4.744-.4-5.597-.4zc-1.236 0-2.236 1-2.236 2.231s1 2.23 2.236 2.23a2.23 2.23 0 002.008-1.268h7.175a2.229 2.229 0 004.241-.962c0-1.232-1-2.231-2.232-2.231-.26 0-.593.104-.983.235-.49.24-.879.65-1.086 1.156h-7.055a2.235 2.235 0 00-1.087-1.156c-.389-.131-.722-.235-.98-.235zm-90.622.426c.168-.007.344 0 .53.022 1.624.188 2.11 1.305 1.872 3.355l-.094.81-2.806-.325c-.23-.027-1.343-.157-1.516-.242-.19-.087-.088-.812-.062-1.045.205-1.757.905-2.527 2.076-2.575zm37.24 1.343a.463.463 0 110 .926.463.463 0 010-.926zm11.192 0a.462.462 0 11.001.925.462.462 0 010-.925zm6.337 0a.463.463 0 110 .926.463.463 0 010-.926zm11.192 0a.462.462 0 11.001.925.462.462 0 01-.001-.925zm7.135 0a.463.463 0 110 .926.463.463 0 010-.926zm11.192 0c.254 0 .46.206.46.462a.46.46 0 11-.924 0 .46.46 0 01.464-.462zm6.336 0a.463.463 0 110 .926.463.463 0 010-.926zm11.192 0c.255 0 .46.206.46.462s-.205.463-.46.463a.462.462 0 110-.925zm-61.932 1.628v.574h5.862v-.574H50.54zm17.528 0v.574h5.863v-.574h-5.863zm18.324 0v.574h5.864v-.574h-5.864zm17.53 0v.574h5.863v-.574h-5.864zm-52.502 1.184a.4.4 0 00-.398.398v33.612a.399.399 0 00.797 0V74.83a.399.399 0 00-.399-.398zm2.074 0a.399.399 0 00-.399.398v36.7a.399.399 0 00.797 0v-36.7a.4.4 0 00-.398-.398zm2.07 0a.4.4 0 00-.398.398v39.862a.399.399 0 00.797 0V74.829a.4.4 0 00-.399-.398zm13.385 0a.399.399 0 00-.398.398v52.981a.399.399 0 00.797 0V74.83a.4.4 0 00-.399-.4zm2.073 0a.4.4 0 00-.399.398v54.601a.399.399 0 00.797 0v-54.6a.399.399 0 00-.398-.4zm2.071 0a.4.4 0 00-.398.398V131a.399.399 0 00.797 0V74.83a.4.4 0 00-.399-.4zm14.341 0a.399.399 0 00-.398.398V131a.399.399 0 00.797 0V74.83a.399.399 0 00-.399-.4zm2.072 0a.399.399 0 00-.399.398v54.601a.398.398 0 10.797 0v-54.6a.399.399 0 00-.398-.4zm2.07 0a.399.399 0 00-.399.398v52.981a.398.398 0 10.798 0V74.83a.4.4 0 00-.4-.4zm13.386 0a.399.399 0 00-.399.398v39.862a.398.398 0 10.798 0V74.829a.4.4 0 00-.4-.398zm2.073 0a.399.399 0 00-.399.398v36.7a.399.399 0 00.797 0v-36.7a.399.399 0 00-.398-.398zm2.07 0a.4.4 0 00-.4.398v33.612a.4.4 0 00.798 0V74.83a.399.399 0 00-.399-.398zm-59.757.398a.4.4 0 00-.398.399v30.126a.4.4 0 00.798 0V75.228a.4.4 0 00-.4-.399zm8.287 0a.399.399 0 00-.398.399v41.829a.398.398 0 10.797-.001V75.228a.4.4 0 00-.399-.399zm9.243 0a.4.4 0 00-.4.399v50.59a.4.4 0 00.798 0v-50.59a.399.399 0 00-.398-.399zm8.284 0a.4.4 0 00-.399.399v57.366a.399.399 0 00.797 0V75.228a.399.399 0 00-.398-.399zm10.2 0a.4.4 0 00-.399.399v57.366a.4.4 0 00.798 0V75.228a.399.399 0 00-.398-.399zm8.285 0a.4.4 0 00-.4.399v50.59a.4.4 0 00.798 0v-50.59a.399.399 0 00-.398-.399zm9.242 0a.399.399 0 00-.398.399v41.829a.397.397 0 10.797-.001V75.228a.399.399 0 00-.399-.399zm8.285 0a.399.399 0 00-.398.399v30.126a.399.399 0 10.797 0V75.228a.399.399 0 00-.399-.399zm-74.931 4.256l-.398.008.03 1.595.013-.001c-.25.249-.488.506-.71.77l-.46-1.316-.376.13.54 1.55c-.251.324-.483.66-.698 1.004l-.547-1.263-.365.158.661 1.531c-.215.385-.406.78-.577 1.19l-.638-1.332-.36.17.8 1.67c-.172.475-.315.966-.43 1.471l-.731-1.369-.352.188.916 1.714.065-.034c-.063.338-.114.683-.152 1.033l-.967-1.405-.329.228 1.236 1.793.008-.006c-.03.456-.04.923-.03 1.398l-1.233-1.136-.27.294 1.514 1.394.01-.012c.018.339.045.683.083 1.03l-1.124-.735-.218.333 1.405.92c.067.5.155 1.011.263 1.53l-1.274-.606-.171.36 1.552.738c.203.884.462 1.793.779 2.728.105.311.217.625.335.94-.54-.345-1.06-.707-1.542-1.097l.057-2.126-.398-.012-.049 1.812a15.52 15.52 0 01-1.103-1.042l.45-1.831-.388-.096-.386 1.577c-.33-.366-.638-.744-.924-1.133l.618-1.887-.378-.124-.527 1.606a13.776 13.776 0 01-.768-1.271l1.133-1.76-.335-.214-1.007 1.564a12.858 12.858 0 01-.524-1.234l1.15-1.285-.296-.265-1.001 1.118a11.8 11.8 0 01-.354-1.382l1.46-1.058-.233-.322-1.302.942c-.044-.39-.082-.775-.101-1.155l1.442-.926-.216-.336-1.24.796c-.006-.805.075-1.615.248-2.419l-.389-.083c-.111.514-.186 1.03-.225 1.547l-.961-.856-.265.297 1.198 1.069c-.012.39-.003.778.024 1.166l-1.435-.767-.188.351 1.665.89c.049.44.123.88.221 1.315l-1.515-.65-.156.367 1.793.768c.127.473.285.941.47 1.402l-1.582-.532-.127.378 1.916.644c.223.495.478.982.764 1.455l-1.741-.545-.12.38 2.151.674.01-.033c.2.302.412.6.637.89l-1.86-.404-.085.39 2.345.51c.33.392.685.772 1.063 1.14l-1.823-.268-.058.394 2.311.34.008-.057c.385.347.794.68 1.223 1l-.14-.036-.723-.55v.132a3.15 3.15 0 00-.187-.088 2.542 2.542 0 01-.262-.13l-.225-.127.081.247.006.017-.105-.053c-.183-.096-.355-.186-.461-.211l-.174-.04.057.17.027.074c-.134-.061-.285-.138-.33-.203l-.18-.272v.362a.264.264 0 00-.243.07c-.087-.05-.165-.082-.235-.111-.098-.041-.183-.076-.278-.152l-.15.122c.03.061.08.118.129.172l.033.037a1.038 1.038 0 00-.082-.03l-.19-.064.064.189c.04.117-.063.242-.264.467-.072.082-.153.172-.236.277l-.13.161h.207c.041 0 .076.005.109.006l.027.003c-.06.055-.116.113-.113.189-.01.04-.01.103.047.175.076.099.246.198.396.266h-.188l.169.17c.16.16.284.208.413.235l-.073.18c.103.058.19.112.275.164.085.054.166.104.26.157l-.047.051c.124.165.334.34.513.428l.058.027c.014.014.03.031.041.045.05.055.106.117.179.166.076.039.17.02.249-.004-.008.136.003.289.11.387.087.08.216.1.38.066.007 0 .016-.003.023-.004v.162a.85.85 0 01.275.078l-.72 1.298a16.63 16.63 0 01-.248-.691l.023-.048-.045-.023a14.59 14.59 0 01-.308-1.078l-.388.096c.062.25.13.496.203.741l-1.333-.651-.174.36 1.674.817c.165.485.352.961.561 1.426l-1.642-.22-.055.395 1.9.267c.237.49.5.97.785 1.432l-1.694-.063-.014.398 1.968.073c.318.484.66.95 1.026 1.395l-1.747.127.029.396 2.035-.146c.372.429.765.837 1.177 1.224l-1.81.16.035.397 2.176-.193c.378.331.77.645 1.175.937l-1.917.417.085.39 2.277-.496c.466.313.946.6 1.439.858l-1.683.486.111.383 2.097-.606c.43.205.869.39 1.315.55L38.59 112l.111.383 2.186-.63c.586.178 1.183.316 1.789.414.4.498.808.995 1.226 1.49l-1.652.164.04.397 1.926-.193c.21.244.42.488.634.732l-1.604.16.04.397 1.89-.189c.297.334.599.67.905 1.002l-1.855.327.07.393 2.032-.359-.02-.117c.194.21.391.42.588.63l-.003.014.02.004c.203.214.41.429.616.643l-2.066.344.065.393 2.34-.39c.389.397.782.791 1.182 1.184l-1.688.23.053.394 1.996-.272c.292.284.588.567.887.849l-1.642.222.054.395 1.963-.267a84.825 84.825 0 004.222 3.68c-.68-.054-1.433-.115-2.069-.237h-.006a.87.87 0 00.027-.207v-.048l-.039-.03c-.06-.049-.117-.09-.172-.13a1.57 1.57 0 01-.322-.28c-.045-.076-.045-.145-.045-.218 0-.086 0-.191-.094-.283a3.853 3.853 0 00-.244-.198c-.22-.165-.32-.242-.32-.525v-.067l-.061-.026c-.119-.048-.212-.069-.31-.092a2.847 2.847 0 01-.255-.068l-.13-.042v.137c0 .022.006.043.014.065-.227-.166-.509-.37-.778-.405l-.16-.025.032.093-1.05-.453.074.154a1.836 1.836 0 00-.28-.034 3.483 3.483 0 01-.21-.02l-.043.137c-.328-.116-.543-.162-.637-.133l-.07.02v.076c0 .037.005.073.014.107-.146-.028-.307-.062-.377-.108l-.155-.107v.189c0 .024.001.045.004.064a.27.27 0 00-.223.097c-.078-.02-.148-.03-.216-.04-.02-.002-.038-.006-.057-.009l-.247-1.734-.394.056.23 1.615a19.375 19.375 0 01-1.558-.973l.463-1.835-.386-.097-.426 1.688c-.163-.12-.324-.24-.48-.363l-.002-.022h-.028c-.276-.216-.538-.44-.793-.667l.818-1.361-.341-.206-.779 1.295c-.382-.359-.735-.73-1.061-1.11l1.233-1.657-.319-.238-1.178 1.582c-.271-.337-.52-.68-.744-1.028l1.16-1.384-.305-.255-1.073 1.28c-.13-.221-.253-.444-.364-.668a8.78 8.78 0 01-.65-1.729.196.196 0 00-.242-.144.198.198 0 00-.143.241c.13.51.314 1.017.542 1.518l-1.479-.344-.088.388 1.792.416c.184.356.393.708.625 1.054l-2.098-.17-.033.398 2.426.196c.276.378.58.75.91 1.112l-2.161-.035-.007.399 2.55.04c.37.376.77.74 1.195 1.094l-2.313.06.011.399 2.782-.074c.36.279.735.55 1.128.808l-2.095.122.023.399 2.65-.155c.239.146.482.287.73.425.031.017.064.025.097.025.013 0 .025-.008.039-.01l.01.02c.029.059.029.117.008.187v-.004l-2.063.112.022.399 1.84-.101c-.041.072-.082.144-.127.233l-.097.195.211-.053a.619.619 0 01.09-.016c-.046.063-.08.136-.052.224.047.181.399.283.598.326a.945.945 0 01-.054.054l-.1.098.126.062c.18.092.3.12.438.128l-.02.16c.141.036.25.072.36.107.062.02.125.04.194.06l.029.036c.132.173.369.293.553.387l.09.046.028-.056c.026.01.063.03.089.042a.938.938 0 00.114.051c.085.038.194.009.276-.017.023.124.067.26.187.332.096.06.223.065.39.01l.052.156c.105-.031.285-.001.442.024l.056.009-.132.129h.245c.316 0 1.38-.039 1.856-.539.062-.04.08-.104.1-.172.015-.055.035-.125.083-.221a.495.495 0 00.42-.038l.01-.008a.2.2 0 00.124.081c.687.132 1.497.196 2.211.252l.359.028.015.001c.03 0 .057-.008.082-.02.448.36.896.72 1.343 1.062l-2.18.222.04.396 2.605-.264c.348.263.696.52 1.044.774l-2.097.21.04.397 2.48-.25-.005-.055c.399.287.798.567 1.195.84l-1.999.436.085.39 2.367-.518c.46.31.92.613 1.378.906l-2.24.54.093.387 2.617-.63c.336.21.672.416 1.007.617l-2.087.532.099.386 2.472-.631c.403.236.802.465 1.202.686l-2.268.453.077.39 2.735-.546c.44.238.88.466 1.316.684l-2.44.537.085.389 2.926-.644c.376.182.748.356 1.118.524l-1.85.53.11.384 2.309-.662c.408.177.811.344 1.214.504l-1.992.594.114.381 2.486-.741c.69.26 1.373.494 2.044.698l-2.162.617.11.383 2.77-.79c.494.138.982.26 1.463.367l-1.656.49.112.382 2.376-.706c1.355.253 2.644.376 3.887.362l-.006-.4c-1.29.019-2.666-.132-4.094-.425l-1.855-2.674-.328.226 1.613 2.324a28.048 28.048 0 01-1.81-.481l-1.708-2.903-.343.2 1.484 2.527a35.674 35.674 0 01-1.726-.606l-1.246-2.812-.364.162 1.084 2.445a42.038 42.038 0 01-1.64-.696l-.906-2.651-.377.13.784 2.294c-.47-.218-.943-.445-1.417-.685l-1.182-3.254-.375.135 1.037 2.853a54.846 54.846 0 01-1.77-.96l.017-.005-.896-3.165-.383.108.79 2.792a59.804 59.804 0 01-1.316-.786 16.23 16.23 0 00-1.037-2.77l.53-1.925-.385-.105-.412 1.497a18.617 18.617 0 00-.598-1.058l.267-2.08-.394-.05-.207 1.601c-.245-.374-.505-.74-.775-1.096l-.108-2.338-.398.02.082 1.78c-.312-.381-.637-.749-.974-1.102l-.291-2.207-.395.05.223 1.686c-.369-.362-.751-.706-1.143-1.03l-.46-2.32-.392.078.37 1.856a16.64 16.64 0 00-1.163-.821l-.497-2.041-.386.093.401 1.65a14.21 14.21 0 00-1.14-.61l-.685-1.939-.376.134.557 1.577c-.351-.15-.704-.283-1.06-.398l-1.046-1.624-.335.216.798 1.239a9.839 9.839 0 00-1.33-.256l-.048.394a9.874 9.874 0 011.704.366l.008.012.01-.007c.198.061.395.128.592.202l-.945.937.28.282 1.07-1.061c.359.146.717.314 1.07.498l-1.169 1.084.27.29 1.27-1.174c.45.252.893.53 1.328.837l-1.2.549.164.362 1.379-.629-.023-.05c.346.256.686.528 1.018.815l-1.467.406.108.384 1.714-.476c.388.354.763.728 1.125 1.118l-1.454-.021-.006.398 1.822.027c.339.387.662.79.969 1.206l-1.467-.149-.041.397 1.817.183c.315.453.61.92.883 1.398l-1.763-.502-.109.383 2.142.61c.494.935.896 1.91 1.197 2.904-.337-.211-.673-.42-1.01-.64l-.446-1.953-.388.09.354 1.547a70.279 70.279 0 01-2.49-1.73l.014-.002-.125-1.745-.397.028.101 1.421-.676-.503-.123-2.139-.398.024.104 1.798a70.94 70.94 0 01-1.068-.832l-.072-2.203-.399.014.06 1.862c-.351-.282-.703-.57-1.052-.86l.191-.037-.497-2.63-.391.074.45 2.387a73.68 73.68 0 01-1.153-.986l-.298-2.417-.396.05.242 1.973c-.384-.34-.765-.684-1.145-1.032l-.398-2.256-.391.07.306 1.74a80.209 80.209 0 01-1.959-1.881l-.385-2.2-.392.069.287 1.64a79.6 79.6 0 01-1.054-1.085l.362-2.07-.393-.07-.311 1.78c-.191-.202-.374-.41-.562-.613.216-.639.37-1.287.462-1.938l1.624-1.222-.24-.319-1.322.996c.03-.335.043-.669.04-1.002l1.401-1.323-.273-.29-1.145 1.082a10.413 10.413 0 00-.122-1.101l1.167-1.673-.326-.229-.946 1.356c-.06-.272-.13-.54-.211-.803l.097.058.956-1.631-.342-.203-.83 1.416c-.14-.403-.306-.795-.495-1.174l.875-1.639-.351-.188-.748 1.402a9.57 9.57 0 00-.59-.921l.699-1.541-.362-.163-.612 1.345a9.132 9.132 0 00-.7-.779l.487-1.459-.378-.125-.43 1.284a8.696 8.696 0 00-.742-.596l-.035-1.346-.398.01.027 1.062a.145.145 0 01-.014-.01l-.213.337c.08.05.161.104.24.159l.009.005c.135.092.265.188.393.287l-.634.158.095.387.923-.23c.194.169.38.346.558.532l-1.671.42.097.386 1.879-.47c.24.279.463.573.667.88l-1.405.035.01.399 1.633-.041v-.016c.142.239.274.484.395.736l-1.616-.161-.039.396 1.845.184c.135.32.253.65.354.986l-1.32-.44-.125.378 1.571.525c.087.347.155.7.203 1.057l-1.357-.56-.152.368 1.56.646c.032.348.046.703.041 1.057l-1.351-.936-.227.328 1.553 1.076.009-.013a10.237 10.237 0 01-.46 2.468c-.263-.288-.532-.574-.79-.865l.374-1.797-.39-.081-.313 1.504a76.646 76.646 0 01-1-1.165h.075v-2.273h-.399v1.885a72.236 72.236 0 01-1.735-2.175l.139.022.4-2.668-.395-.06-.362 2.42a65.458 65.458 0 01-1.158-1.573l.411-1.174-.376-.131-.318.907a59.124 59.124 0 01-2.438-3.759l.1.044.836-1.912-.366-.16-.751 1.72a48.48 48.48 0 01-.916-1.631l.001.001.836-1.911-.365-.16-.71 1.623c-.212-.406-.416-.81-.612-1.214l.015-.067-.053-.011c-.01-.025-.022-.046-.033-.069a11.89 11.89 0 001.398-1.604l2.01-.867-.157-.367-1.438.622c.223-.356.424-.72.604-1.09l1.987-.859-.158-.366-1.586.686c.14-.336.262-.676.366-1.018l1.815-1.024-.196-.346-1.47.83c.079-.327.142-.656.189-.984l1.604-1.02-.212-.336-1.333.847c.027-.294.04-.588.039-.88l1.523-1.195-.246-.313-1.292 1.013a8.972 8.972 0 00-.145-1.176l1.29-1.102-.257-.302-1.128.961a8.713 8.713 0 00-.326-1.038l1.116-1.116-.282-.282-1 1a8.203 8.203 0 00-.398-.776l.613-1.258-.36-.176-.502 1.032a8.348 8.348 0 00-.722-.94l-.298.264c.428.48.785 1.002 1.076 1.552l-1.204-.262-.084.388 1.51.33c.105.232.197.47.279.71l-1.359-.352-.1.384 1.595.416c.089.323.158.652.207.986l-1.296-.543-.153.368 1.505.63c.029.297.04.597.038.898l-1.451-.79-.19.348 1.627.889c-.02.362-.063.725-.126 1.089l-1.136-.988-.262.301 1.308 1.136a9.9 9.9 0 01-.292 1.037l-.998-1.062-.291.272 1.135 1.209c-.15.387-.326.768-.526 1.143l-.892-1.439-.338.21 1.006 1.626a11.3 11.3 0 01-1.817 2.314c-.205-.438-.4-.873-.585-1.309l.087.045.798-1.516-.354-.184-.68 1.297a35.484 35.484 0 01-.553-1.42l.884-1.45-.341-.208-.715 1.175a29.018 29.018 0 01-.466-1.464l1.016-1.405-.323-.232-.83 1.146a24.178 24.178 0 01-.445-1.964l1.185-1.301-.295-.269-.974 1.071a19 19 0 01-.143-1.1l1.422-1.367-.276-.288-1.191 1.146c-.037-.501-.054-1.006-.046-1.51l1.406-.937-.22-.332-1.172.78c.02-.405.055-.808.108-1.21l1.554-.907-.202-.344-1.276.746c.073-.427.168-.852.286-1.272l1.863-.546-.112-.381-1.613.472c.04-.12.081-.242.125-.361l.092-.044-.043-.089c.066-.175.136-.349.212-.521l1.681-.334-.078-.391-1.396.278c.103-.212.214-.421.334-.629l.05-.022-.016-.037c.086-.148.176-.295.27-.44l1.631-.05-.013-.399-1.34.041c.19-.267.396-.53.617-.787l1.655.089.022-.398-1.335-.07c.477-.51 1.02-.995 1.632-1.453l-.238-.32c-.357.268-.695.548-1.013.839l-.024-1.242zm88.042.005l-.022 1.24a13.21 13.21 0 00-1.014-.837l-.239.318c.613.458 1.156.944 1.633 1.453l-1.334.07.021.399 1.656-.089c.22.257.426.52.617.786l-1.34-.04-.013.398 1.63.05c.095.145.184.292.27.44l-.016.037.05.022c.12.207.231.418.335.63l-1.398-.279-.079.39 1.684.336c.075.172.144.345.211.52l-.042.09.09.044c.045.12.086.24.126.36l-1.613-.472-.114.381 1.866.547c.117.419.212.844.285 1.27l-1.276-.744-.2.343 1.553.908c.052.401.088.806.107 1.21l-1.172-.78-.221.331 1.407.936c.008.505-.009 1.01-.047 1.512l-1.19-1.146-.276.287 1.421 1.369c-.037.369-.085.735-.142 1.1l-.974-1.072-.296.268 1.185 1.301c-.121.67-.272 1.328-.444 1.966l-.83-1.148-.323.232 1.016 1.407c-.122.423-.253.836-.39 1.238l-.076.224-.716-1.174-.34.207.884 1.45a36.5 36.5 0 01-.553 1.421l-.682-1.297-.353.184.798 1.516.088-.046c-.186.436-.38.871-.585 1.309a11.286 11.286 0 01-1.818-2.315l1.007-1.624-.34-.21-.89 1.438a10.52 10.52 0 01-.526-1.142l1.135-1.21-.29-.272-.998 1.063c-.116-.342-.215-.69-.293-1.037l1.31-1.135-.262-.302-1.138.988a9.377 9.377 0 01-.127-1.09l1.63-.887-.191-.35-1.453.79c-.002-.301.011-.6.04-.898l1.504-.628-.154-.368-1.297.54c.05-.332.118-.66.207-.984l1.598-.415-.102-.385-1.358.352c.08-.24.174-.477.277-.709l1.512-.33-.087-.389-1.202.262c.29-.55.649-1.07 1.076-1.55l-.298-.265c-.267.3-.507.613-.722.94l-.502-1.031-.359.174.613 1.258a8.21 8.21 0 00-.398.776l-.999-1-.282.283 1.115 1.115c-.13.339-.24.687-.326 1.04l-1.128-.962-.26.302 1.292 1.1c-.074.389-.121.78-.143 1.179l-1.295-1.014-.245.312 1.523 1.197c0 .291.014.586.04.88l-1.334-.848-.214.336 1.607 1.021c.045.328.11.656.19.981l-1.47-.83-.196.349 1.813 1.021c.104.344.226.683.367 1.02l-1.586-.687-.16.366 1.989.86c.18.37.38.732.605 1.089l-1.438-.622-.158.367 2.01.868c.408.562.874 1.099 1.397 1.601l-.033.07-.054.012.016.067c-.195.404-.4.809-.613 1.213l-.71-1.622-.364.16.836 1.911h.002a50.975 50.975 0 01-.916 1.631l-.754-1.72-.364.16.837 1.91.1-.042a59.05 59.05 0 01-2.44 3.758l-.316-.908-.376.132.409 1.176a66.195 66.195 0 01-1.16 1.574l-.36-2.423-.395.06.398 2.667.143-.02a75.535 75.535 0 01-1.738 2.175V110.9h-.398v2.273h.076c-.328.39-.66.777-.999 1.163l-.314-1.503-.389.082.374 1.795c-.258.291-.527.576-.79.864a10.273 10.273 0 01-.46-2.465l.007.01 1.554-1.077-.227-.328-1.35.935a10.38 10.38 0 01.04-1.057l1.56-.645-.153-.368-1.356.56c.049-.358.117-.71.203-1.058l1.57-.523-.125-.378-1.318.438c.101-.336.22-.665.355-.985l1.843-.183-.04-.396-1.614.16c.12-.25.253-.495.395-.734l1.632.055.01-.397-1.405-.036c.205-.307.429-.601.67-.88l1.877.47.097-.387-1.671-.417c.177-.186.364-.365.557-.535l.922.23.098-.386-.636-.158c.128-.099.26-.195.396-.287l.006-.004c.08-.055.16-.108.242-.16l-.213-.336-.018.01.028-1.063-.399-.01-.034 1.348a8.726 8.726 0 00-.74.595l-.43-1.285-.379.125.488 1.46c-.25.246-.483.507-.702.78l-.61-1.347-.362.163.698 1.544c-.214.295-.41.603-.59.92l-.748-1.403-.35.186.873 1.643c-.189.378-.354.771-.494 1.174l-.83-1.416-.343.2.954 1.63.103-.059a9.944 9.944 0 00-.213.808l-.95-1.359-.325.23 1.17 1.676c-.06.36-.1.728-.122 1.098l-1.147-1.082-.272.29 1.402 1.324c-.003.332.01.666.04 1l-1.322-.995-.24.319 1.624 1.221c.09.651.244 1.3.46 1.939-.188.204-.37.411-.56.613l-.312-1.778-.392.07.363 2.068c-.348.365-.7.725-1.055 1.085l.288-1.639-.393-.07-.385 2.2a83.595 83.595 0 01-1.959 1.882l.307-1.74-.394-.069-.395 2.255c-.38.348-.761.69-1.147 1.031l.242-1.973-.394-.048-.298 2.417c-.383.333-.768.661-1.154.985l.45-2.386-.39-.075-.498 2.631.19.036c-.349.29-.7.578-1.052.862l.06-1.863-.398-.013-.071 2.202c-.356.281-.712.558-1.07.832l.106-1.798-.4-.023-.124 2.138c-.223.17-.45.338-.675.503l.102-1.42-.397-.029-.125 1.745.014.001c-.826.6-1.658 1.18-2.49 1.732l.352-1.55-.387-.087-.447 1.953c-.338.22-.675.431-1.012.643.3-.997.7-1.974 1.196-2.913l2.142-.61-.109-.383-1.762.502c.272-.479.567-.944.881-1.397l1.82-.184-.04-.396-1.47.148c.308-.415.63-.82.969-1.206l1.822-.026-.006-.399-1.454.022c.362-.392.738-.765 1.126-1.12l1.716.478.106-.384-1.466-.408c.332-.287.673-.56 1.02-.816l-.025.052 1.379.63.166-.363-1.203-.549c.435-.306.879-.586 1.33-.838l1.27 1.176.27-.29-1.17-1.086c.354-.184.71-.351 1.07-.498l1.068 1.063.28-.282-.944-.94c.197-.071.395-.138.592-.2l.01.008.009-.012a9.903 9.903 0 011.703-.366l-.03-.38c-.441.052-.887.14-1.33.255l.797-1.238-.335-.216-1.045 1.624c-.355.114-.71.247-1.06.398l.559-1.577-.375-.134-.688 1.938c-.384.183-.765.388-1.14.61l.403-1.648-.387-.094-.499 2.042c-.394.252-.782.526-1.161.819l.368-1.856-.39-.078-.46 2.32c-.391.325-.775.669-1.144 1.031l.223-1.685-.395-.051-.29 2.206a19.78 19.78 0 00-.975 1.103l.084-1.781-.398-.019-.11 2.337c-.271.357-.53.723-.777 1.098l-.206-1.603-.394.052.267 2.08c-.21.345-.41.699-.597 1.057l-.41-1.497-.384.104.527 1.925a16.219 16.219 0 00-1.04 2.78 60.18 60.18 0 01-1.31.782l.791-2.792-.384-.109-.896 3.165.017.005c-.593.336-1.183.656-1.772.961l1.037-2.853-.374-.135-1.182 3.254a45.31 45.31 0 01-1.418.685l.786-2.294-.378-.13-.906 2.652c-.55.246-1.098.48-1.64.695l1.085-2.446-.365-.162-1.247 2.812c-.58.22-1.158.425-1.727.607l1.484-2.526-.343-.203-1.707 2.906c-.612.184-1.214.344-1.81.48l1.611-2.324-.327-.228-1.854 2.676c-1.426.292-2.798.45-4.092.425l-.005.399c1.235.015 2.529-.11 3.884-.36l2.374.7.113-.379-1.654-.489c.481-.107.969-.229 1.462-.366l2.771.79.11-.385-2.15-.62a34.673 34.673 0 002.045-.698l2.485.74.114-.382-1.992-.592c.4-.16.807-.329 1.215-.506l2.307.663.11-.384-1.849-.53a47.42 47.42 0 001.12-.524l2.924.644.086-.39-2.44-.535c.436-.219.875-.447 1.316-.684l2.735.545.077-.39-2.268-.453c.4-.221.799-.45 1.201-.686l2.473.63.098-.386-2.086-.53c.335-.202.67-.408 1.007-.62l2.618.63.093-.386-2.241-.54c.458-.292.917-.595 1.378-.904l2.368.516.086-.388-2-.437a82.17 82.17 0 001.195-.84l-.005.056 2.48.249.04-.397-2.098-.21c.347-.253.696-.512 1.044-.775l2.606.266.04-.398-2.18-.22c.446-.344.894-.704 1.342-1.063a.196.196 0 00.08.018l.016-.001.36-.029c.713-.055 1.523-.119 2.21-.252a.197.197 0 00.123-.08l.01.01c.114.074.26.086.42.036.046.095.067.165.082.219.02.069.04.135.103.176.477.497 1.539.536 1.855.536h.247l-.134-.128.056-.009c.158-.024.34-.053.442-.023l.052-.155c.16.053.29.05.39-.011.12-.074.164-.211.186-.333.083.026.19.057.268.021.04-.013.08-.034.123-.055a.893.893 0 01.096-.043l.036.05.09-.045c.172-.088.408-.208.537-.381l.025-.035c.073-.021.14-.043.206-.064.107-.034.214-.068.352-.104l-.02-.16c.137-.008.257-.036.438-.128l.124-.061-.098-.098a1.234 1.234 0 01-.054-.055c.2-.043.555-.146.599-.32.028-.092-.006-.166-.053-.23a.648.648 0 01.093.016l.209.053-.097-.194c-.045-.09-.085-.162-.126-.235l1.838.1.022-.398-2.06-.112-.002.014a.24.24 0 01.008-.195l.01-.021c.013.002.024.01.036.01a.19.19 0 00.096-.026c.25-.137.492-.28.73-.425l2.652.155.023-.399-2.095-.122c.394-.259.769-.53 1.129-.807l2.782.073.01-.399-2.31-.06c.425-.353.826-.717 1.196-1.094l2.549-.04-.007-.398-2.162.034c.33-.362.633-.733.91-1.112l2.425-.196-.032-.397-2.098.17c.231-.347.44-.699.625-1.055l1.793-.416-.09-.387-1.479.343c.228-.5.412-1.007.541-1.518a.198.198 0 10-.385-.096 9.165 9.165 0 01-1.012 2.395l-1.072-1.28-.305.257 1.158 1.382c-.224.348-.473.691-.744 1.028l-1.18-1.581-.318.238 1.234 1.656c-.326.38-.679.753-1.062 1.113l-.779-1.297-.34.206.818 1.361c-.255.227-.517.451-.794.668h-.026v.02c-.157.123-.319.244-.483.363l-.426-1.687-.386.097.464 1.835c-.493.34-1.012.666-1.558.972l.23-1.614-.394-.056-.247 1.735-.059.011c-.067.01-.138.019-.217.039a.26.26 0 00-.22-.098.414.414 0 00.005-.064v-.187l-.155.104c-.071.048-.235.082-.38.11a.415.415 0 00.014-.11v-.072l-.07-.022c-.04-.011-.144-.043-.635.132l-.041-.136c-.074.01-.145.015-.21.02-.097.006-.192.013-.282.033l.075-.152-1.049.45.031-.091-.158.02c-.271.035-.553.238-.781.405a.202.202 0 00.014-.066v-.136l-.13.042a3.294 3.294 0 01-.255.069c-.098.022-.19.043-.309.09l-.062.026v.068c0 .283-.1.358-.32.525a3.89 3.89 0 00-.247.2c-.09.09-.091.195-.091.28 0 .073 0 .143-.038.207-.104.128-.21.205-.332.293-.053.04-.11.08-.17.128l-.038.03v.049a.87.87 0 00.027.206h-.006c-.634.122-1.386.183-2.066.237a84.02 84.02 0 004.22-3.678l1.965.268.053-.395-1.643-.223c.298-.281.594-.564.887-.848l1.998.271.053-.394-1.689-.23c.399-.392.793-.787 1.182-1.183l2.34.39.065-.393-2.067-.345c.206-.214.412-.429.615-.644l.022-.004-.003-.016c.199-.209.394-.418.59-.628l-.021.118 2.03.358.068-.392-1.854-.327c.306-.333.609-.668.907-1.002l1.889.188.04-.396-1.605-.16c.215-.243.425-.488.635-.732l1.925.193.04-.397-1.651-.164c.418-.495.826-.993 1.226-1.491a13.458 13.458 0 001.79-.416l2.185.63.111-.381-1.628-.47c.445-.161.884-.345 1.314-.55l2.095.606.112-.383-1.682-.486c.493-.258.972-.545 1.438-.858l2.278.495.083-.389-1.916-.416c.404-.293.796-.606 1.175-.938l2.175.193.036-.396-1.81-.161c.412-.387.806-.795 1.178-1.224l2.035.147.028-.397-1.746-.127c.365-.445.707-.911 1.025-1.394l1.97-.073-.016-.4-1.694.064c.285-.463.548-.941.786-1.432l1.898-.267-.056-.394-1.641.23c.208-.464.397-.94.56-1.425l1.676-.818-.176-.359-1.334.652c.074-.245.142-.493.203-.742l-.387-.096c-.089.363-.191.724-.307 1.078l-.048.022.025.05c-.077.23-.16.462-.246.689l-.721-1.298a.833.833 0 01.272-.077v-.161l.02.003c.173.037.299.011.385-.067.106-.098.118-.252.11-.387.078.024.173.044.257-.002a.94.94 0 00.17-.162c.014-.013.027-.028.04-.042l.058-.028a1.61 1.61 0 00.514-.428l-.047-.05c.09-.052.17-.102.252-.153.088-.054.176-.109.284-.169l-.072-.18a.75.75 0 00.41-.235l.17-.17h-.187c.149-.068.318-.167.394-.264.058-.074.058-.138.05-.153 0-.097-.055-.158-.115-.214l.03-.003c.031-.002.067-.005.108-.005h.207l-.13-.162c-.083-.104-.163-.193-.235-.274-.201-.228-.306-.352-.268-.47l.062-.188-.188.063-.08.03.033-.038c.049-.053.1-.11.13-.17l-.152-.124c-.093.076-.178.11-.276.152-.07.03-.148.062-.236.113a.262.262 0 00-.245-.071c.002-.012.002-.023.002-.035v-.334l-.182.279c-.042.064-.192.14-.326.201l.026-.073.058-.17-.174.04c-.108.025-.28.116-.464.21-.035.02-.071.038-.105.056l.006-.018.084-.248-.228.129c-.092.053-.18.092-.26.129-.065.028-.128.055-.188.088v-.133l-.723.55-.139.036c.428-.319.837-.652 1.222-1l.008.058 2.309-.34-.058-.394-1.822.268c.377-.367.731-.746 1.062-1.14l2.346-.51-.083-.389-1.863.405a14.4 14.4 0 00.638-.89l.009.031 2.151-.673-.118-.38-1.742.546c.286-.475.54-.96.764-1.456l1.919-.645-.128-.378-1.583.533c.185-.461.34-.93.468-1.403l1.795-.768-.156-.366-1.518.65c.099-.434.173-.872.221-1.314l1.668-.892-.187-.35-1.438.767c.028-.387.036-.776.025-1.165l1.2-1.071-.266-.297-.963.859a11.358 11.358 0 00-.224-1.55l-.39.084c.175.802.256 1.612.249 2.417l-1.24-.794-.215.336 1.441.924c-.019.381-.058.763-.115 1.141l-1.303-.94-.232.322 1.46 1.055c-.09.465-.208.927-.354 1.383l-.999-1.116-.298.265 1.149 1.282c-.15.418-.325.83-.524 1.236l-1.005-1.563-.336.215 1.133 1.759c-.23.433-.486.856-.768 1.27l-.524-1.605-.38.124.618 1.886c-.285.388-.594.766-.924 1.133l-.387-1.576-.387.095.45 1.83c-.345.361-.714.71-1.104 1.046l-.048-1.814-.4.011.058 2.127c-.48.389-1 .75-1.539 1.095.117-.314.23-.626.334-.936.318-.934.577-1.842.779-2.726l1.553-.739-.171-.36-1.275.607c.107-.52.195-1.031.263-1.532l1.405-.919-.217-.334-1.125.737c.039-.349.066-.693.084-1.032l.011.013 1.513-1.395-.27-.293-1.234 1.136c.01-.476 0-.943-.03-1.4l.01.008 1.236-1.793-.328-.228-.97 1.407a13.505 13.505 0 00-.15-1.036l.066.035.914-1.714-.352-.188-.73 1.371a12.223 12.223 0 00-.43-1.472l.8-1.67-.358-.171-.641 1.332c-.17-.408-.362-.805-.577-1.19l.66-1.531-.365-.158-.545 1.263a11.35 11.35 0 00-.698-1.002l.542-1.551-.376-.131-.461 1.317a12.497 12.497 0 00-.711-.771l.042-1.594-.399-.006zM18.082 81.262c-.442.076-.863.167-1.303.24-.625.054-1.236.08-1.862.131l.1.855c1.916.318 2.582 1.19 2.865 3.604.295 2.519-.696 2.572-2.237 2.752l-1.92.224c-.23-1.963-.03-2.549 1.43-3.134l-.1-.852c-.67.1-1.353.224-2.023.323-.757.069-1.516.112-2.273.18l.1.854c1.535-.094 1.911.99 2.113 2.717l-3.032.357c-.132.016-.853.1-.942.046-.197-.108-.357-1.475-.387-1.73-.239-2.051.126-3.326 1.707-3.881l-.107-.917-2.866.51c.322 2.601.662 5.225.983 7.827.126 1.22.233 2.418.359 3.638l.59-.07c-.288-2.044.488-2.094 1.832-2.249l5.541-.651c1.344-.159 2.11-.292 2.3 1.765l.59-.07c-.159-1.215-.332-2.406-.49-3.62-.328-2.95-.64-5.901-.968-8.849zm128.682 4.942c-2.718.087-4.83 2.444-5.573 6.151-.261 1.308-.223 2.213-.124 3.483.086 1.4.056 1.808-.088 3.27l1.684.34c.89.181 1.36.187 1.127 1.61l.581.115 1.26-6.281-.58-.116c-.403 1.41-.674 1.662-1.74 1.448-1.421-.286-1.794-1.304-1.42-3.159.638-3.18 3.43-3.495 5.388-3.103 2.089.42 4.669 1.818 3.992 5.188-.435 2.172-1.84 3.206-3.445 3.408l-.186.927 3.404.485.178-.884-.838-.518c.982-1.032 1.535-2.453 1.836-3.95.86-4.277-1.054-7.665-4.256-8.31a5.216 5.216 0 00-1.2-.104zM9.342 95.762l-.566.187c.304.872.621 1.739.925 2.614.251.822.488 1.65.74 2.472l.565-.188c-.207-.79-.461-1.723.307-1.98.643-.21 1.976-.014 2.695.113l4.4.703-4.395 4.248c-.217.183-.68.631-.93.712-.739.244-1.065-.758-1.315-1.468l-.565.187c.417 1.22.85 2.438 1.266 3.657.352 1.126.682 2.24 1.034 3.371l.564-.187c-.329-1.746-.18-1.775.916-2.879l6.911-7.02-.321-.981-9.77-1.768c-1.123-.196-1.904-.302-2.462-1.793zm20.35 1.068c.062.027.129.06.203.11l.087.058.054-.09c.04-.065.073-.076.139-.046-.075.138-.203.265-.328.387-.051.05-.104.102-.153.154l-.012-.033c-.024-.022-.037-.114-.03-.216l.026-.044a.284.284 0 00.039-.2v-.002l-.001-.001a.358.358 0 00-.025-.077zm101.146 0a.306.306 0 00-.024.077h-.001v.002a.278.278 0 00.04.202l.025.041a.688.688 0 01-.005.172l-.004.006.002.004c-.002.015-.006.027-.01.031l-.007-.002-.018.043c-.05-.054-.103-.107-.154-.157-.125-.122-.254-.248-.328-.386v-.001c.066-.029.1-.02.141.048l.054.088.086-.058c.073-.05.14-.083.203-.11zm-99.912.012c.069.034.144.073.213.109l.194.1c-.064.136-.02.307.02.452l.009.034a1.886 1.886 0 01-.262.196c-.01-.122-.047-.254-.082-.38-.048-.173-.098-.352-.092-.51zm98.677 0c.006.159-.044.338-.093.511-.034.125-.071.257-.08.38a1.893 1.893 0 01-.262-.194l.007-.034c.04-.147.086-.317.02-.455a10.52 10.52 0 01.407-.208zm-99.157.034c.09.047.191.091.291.131.006.048.015.097.025.144l-.026-.01c-.057.144-.175.284-.289.418-.021.025-.043.05-.064.077-.042-.149-.015-.287.017-.452.019-.092.038-.196.046-.308zm99.642 0c.008.112.028.216.046.31.032.166.059.304.018.452-.023-.026-.043-.053-.065-.078-.114-.134-.232-.273-.29-.419l-.025.011c.01-.048.018-.096.024-.144.103-.042.204-.085.292-.132zm-98.482.103l.054.026c.156.07.28.124.37.236l.059.076a2.652 2.652 0 01-.024.23c-.074.032-.147.053-.218.074-.08.022-.163.045-.243.087a1.81 1.81 0 00-.054-.256c-.046-.173-.06-.262-.03-.32l.09.036v-.148c0-.014-.002-.027-.004-.04zm97.327 0c-.002.013-.002.026-.002.04v.149l.089-.036c.032.059.017.15-.028.322-.023.079-.046.164-.056.253-.08-.04-.16-.063-.241-.086a1.619 1.619 0 01-.218-.074c0-.004 0-.008-.002-.011a2.49 2.49 0 01-.022-.223l.058-.073c.09-.112.213-.167.37-.236l.052-.025zm-99.507.037a.25.25 0 01.045.04.92.92 0 00-.011.19 1.49 1.49 0 01-.091.06c-.109.066-.23.141-.259.284a.31.31 0 01-.103.016l.105-.118c.152-.172.281-.318.314-.472zm101.692 0c.034.155.164.301.318.475l.103.115a.31.31 0 01-.101-.017c-.03-.142-.152-.216-.26-.284a1.713 1.713 0 01-.093-.06.905.905 0 00-.01-.189.305.305 0 01.043-.04zm-100.912.156a1.456 1.456 0 00-.037.343l-.006-.005c-.096.105-.204.183-.308.26-.048.035-.098.07-.145.108-.054-.136.052-.26.283-.488a3.34 3.34 0 00.213-.219zm100.132.002c.066.076.137.147.21.216.232.227.338.352.282.488a2.693 2.693 0 00-.142-.108c-.104-.076-.213-.155-.309-.26l-.005.005a1.48 1.48 0 00-.036-.341zm-98.047.128l.538.41a.56.56 0 00-.173.198l-.01-.014a1.37 1.37 0 01-.307.168c-.12-.145-.1-.304-.073-.504.01-.079.023-.166.025-.258zm95.962 0c.004.093.015.18.026.26.026.199.047.357-.074.502a1.408 1.408 0 01-.308-.168l-.01.013a.559.559 0 00-.171-.197l.537-.41zm-97.422.095c.002.004.002.008.002.01.063.224.095.37.069.465a.879.879 0 00-.228.235c-.084.05-.18.088-.276.123-.109-.138-.019-.273.209-.543.078-.092.158-.188.224-.29zm98.882 0c.067.103.148.199.227.292.228.27.317.402.208.54a1.766 1.766 0 01-.277-.122.88.88 0 00-.228-.236c-.027-.095.006-.24.068-.464 0-.003 0-.007.002-.01zm1.323.055a1.58 1.58 0 01.111.071l.111.185a.892.892 0 00.19.22c.05.046.074.069.076.1-.02.065-.244.189-.39.251a.767.767 0 00-.15-.259c.11-.175.068-.333-.03-.48a.181.181 0 00.051-.042.236.236 0 00.031-.046zm-101.526 0a.183.183 0 00.084.089c-.1.146-.14.305-.03.48a.755.755 0 00-.15.257c-.148-.063-.371-.188-.389-.263 0-.018.022-.04.073-.086a.945.945 0 00.19-.22l.113-.187c.021-.015.047-.03.075-.049l.034-.02zm97.911.26l-.104.301.231-.174c.246.14.225.342.168.66-.031.177-.066.371-.01.55a1.516 1.516 0 01-.359-.233l-.01.012-.082-.145c-.097-.172-.198-.35-.256-.537.103-.13.254-.31.422-.433zm-94.296.002c.167.122.315.3.422.433a2.801 2.801 0 01-.256.537c-.027.049-.055.096-.081.145l-.011-.013a1.53 1.53 0 01-.358.233c.054-.179.02-.373-.011-.55-.057-.318-.077-.52.168-.66l.226.172-.1-.297zm-2.912.026c.01.028.023.057.037.085-.096.153-.143.313-.045.475-.204.077-.392.17-.448.354a.594.594 0 01-.236-.085.512.512 0 00.082-.1l.11-.154h-.101c.067-.17.2-.267.361-.385.076-.055.16-.116.24-.19zm100.122.002c.081.073.165.133.24.19.163.117.296.215.362.384h-.098l.107.156c.029.042.056.074.083.097a.573.573 0 01-.237.085c-.055-.184-.243-.276-.447-.352.098-.164.05-.324-.045-.476a.846.846 0 00.035-.084zm-98.921.02a.493.493 0 010 .085l.002.001-.02.022c-.233.265-.162.548-.095.822l.024.096a1.755 1.755 0 01-.356.064c-.056.007-.114.014-.172.024-.003-.028-.008-.054-.012-.08a1.004 1.004 0 01-.011-.402.519.519 0 01.098-.223.36.36 0 00.198-.176c.035-.024.073-.049.112-.073.073-.048.153-.098.232-.16zm97.721 0c.079.06.157.112.23.159l.113.074a.362.362 0 00.198.176c.046.06.08.132.098.223a.994.994 0 01-.01.404c-.006.024-.01.05-.014.078-.058-.01-.114-.017-.17-.024a1.78 1.78 0 01-.357-.064l.022-.096c.068-.275.14-.558-.096-.823a.469.469 0 00-.019-.02h.003a.463.463 0 01.002-.088zm-97.086.005a.615.615 0 00.103.377c-.205.094-.39.217-.419.496a.729.729 0 00-.004.094c-.049.072-.108.14-.17.206-.016-.105-.04-.203-.063-.296-.063-.255-.114-.456.05-.643.104-.116.217-.149.359-.189.045-.013.093-.026.144-.045zm96.451 0c.05.019.1.032.144.045.142.04.253.073.356.189.166.187.115.388.052.642-.022.092-.047.191-.062.296a1.74 1.74 0 01-.171-.205.498.498 0 00-.003-.093c-.028-.281-.213-.403-.42-.497a.616.616 0 00.104-.377zm-94.691.29c.109.07.218.141.33.21-.069.303.06.456.227.64.041.044.086.092.132.148-.225.151-.46.256-.69.357a4.62 4.62 0 00-.5.245c-.176-.254-.053-.502.159-.875.103-.182.21-.37.273-.577l.01-.016a.413.413 0 00.059-.132zm92.936.001c.01.039.026.083.059.132l.009.01c.063.21.171.399.275.582.21.373.335.62.157.874a5.083 5.083 0 00-.498-.244c-.23-.1-.466-.206-.691-.357.045-.056.09-.103.13-.147.168-.183.297-.338.23-.64.112-.069.22-.14.33-.21zm-94.146.106c-.005.125.017.252.038.37.042.241.08.451-.076.606l.026.025-.06.024c-.095.041-.193.083-.287.13-.047-.098-.104-.178-.154-.25-.072-.103-.13-.185-.148-.286a1.34 1.34 0 00.027-.047l-.033-.016c0-.02 0-.04.002-.059.023-.209.17-.28.426-.389.076-.031.158-.065.239-.108zm95.356 0c.08.043.162.077.239.108.258.108.405.18.424.389.002.021.004.04.004.059l-.033.016.026.046c-.018.101-.075.183-.147.284-.05.073-.107.155-.153.253-.093-.048-.193-.088-.29-.13l-.057-.024.024-.024c-.155-.156-.118-.366-.075-.608.02-.116.043-.244.038-.369zm-97.382.215c-.031.178-.009.31.015.453l.016.096a.467.467 0 00-.288.29 5.816 5.816 0 01-.345-.202l-.087-.054c.021-.038.033-.084.046-.138l.032-.127h-.006c.049-.105.2-.165.424-.245.064-.024.13-.047.193-.073zm99.397 0c.065.027.13.05.196.073.222.08.375.141.423.245l-.005.001.03.126c.014.053.025.101.047.139l-.095.058a5.937 5.937 0 01-.337.197.469.469 0 00-.289-.29l.016-.094c.023-.142.046-.276.014-.455zm-95.656.026l.101.26c-.069-.085-.106-.16-.101-.26zm91.916.011a.363.363 0 01-.095.241c.033-.08.063-.16.095-.241zm2.523.564c.061.072.127.139.193.206.267.27.363.398.243.569l.03.02c-.019.043-.013.094-.003.176.012.105.032.281-.035.343-.045.041-.136.035-.21.018a.534.534 0 01-.206-.064c0-.039.01-.075.028-.1l-.017-.015c.107-.372-.077-.587-.34-.743l.05.024c.04-.086.09-.16.14-.23.046-.064.092-.13.127-.203zm-96.962.001c.035.074.082.14.127.205.05.07.1.143.14.228l.044-.02c-.259.156-.44.37-.333.74l-.018.014a.172.172 0 01.027.1.544.544 0 01-.208.065c-.07.015-.162.021-.208-.019-.067-.063-.046-.239-.034-.345.01-.08.015-.132-.003-.175l.028-.02c-.119-.17-.022-.298.246-.568.065-.066.131-.134.192-.205zm-.429.006c.006.049.01.096.01.146-.188.196-.354.416-.219.674l-.02.005v.029c-.011.002-.023.007-.035.01-.031.011-.123.032-.128.037-.042-.03-.09-.082-.132-.129-.072-.08-.12-.131-.189-.133a1.286 1.286 0 01-.217-.151l.035-.033.097-.097-.07-.034c.058-.198.22-.226.496-.257.117-.013.247-.028.372-.067zm97.817 0c.126.039.255.054.372.067.276.031.438.06.497.257l-.068.033.095.097a.402.402 0 00.035.032c-.072.06-.148.114-.217.152h-.002c-.069.001-.117.056-.186.132a.941.941 0 01-.123.124.521.521 0 01-.173-.04l-.002-.03-.02-.003c.136-.26-.03-.48-.219-.677.001-.05.005-.096.01-.144zm-96.122.172c-.063.201-.065.405.077.61-.192.146-.35.332-.446.608l.016.005-.007.013a.785.785 0 00-.05.097c-.073.07-.237.162-.308.203l-.012.007c-.049-.016-.095-.037-.142-.056l-.175-.098-.011.022c-.038-.016-.076-.034-.114-.047v-.001a.427.427 0 00.082-.198.25.25 0 00.01-.021c.023-.062.016-.13-.022-.201l.007-.002c-.12-.383.148-.518.634-.724.156-.065.315-.133.461-.217zm94.422 0c.146.084.305.152.46.217.487.206.757.341.635.723l.008.003c-.04.071-.047.14-.023.2a.127.127 0 00.01.023.48.48 0 00.08.198c-.036.013-.074.03-.111.045l-.011-.018-.158.087c-.051.022-.105.046-.16.065l-.011-.006c-.07-.04-.235-.134-.308-.203a.93.93 0 00-.049-.097l-.008-.014.016-.006a1.254 1.254 0 00-.448-.606c.142-.205.14-.41.078-.61zm-92.932.099a.336.336 0 01-.007.027c-.02.078-.045.176-.024.303l.009.027c.1.203.204.3.336.426l.073.07c-.071.157-.155.251-.248.282-.083.028-.183.004-.299-.069l-.066-.04-.056.055c-.112.11-.158.204-.188.265-.03.057-.035.062-.053.068l-.026.014c-.33.235-.918.212-1.324.165.08-.056.105-.12.128-.199l.019-.057a.232.232 0 00.06-.15v-.018c.17-.462.554-.633 1-.83.22-.098.445-.197.666-.34zm91.452.005c.221.14.447.242.666.339.445.197.83.366 1.001.829v.018c0 .054.02.103.06.15l.018.056c.023.08.048.144.128.199-.407.047-.996.071-1.326-.165l-.026-.014c-.017-.006-.022-.01-.05-.067-.03-.061-.076-.154-.188-.266l-.057-.055-.066.041c-.116.072-.215.097-.3.069-.095-.032-.177-.127-.248-.282l.073-.07c.133-.125.236-.223.336-.426l.01-.026a.677.677 0 00-.031-.33zm-91.272.14c.055.126.104.251.16.377a.969.969 0 01-.168-.236.403.403 0 01.008-.14zm91.097.001a.41.41 0 01.008.14.947.947 0 01-.166.233c.055-.125.104-.248.158-.373zm-90.727.837c.088.19.172.38.263.572l-1.027-.23c.01-.017.013-.027.028-.045.14.071.273.087.394.047.135-.044.25-.163.342-.344zm5.537 0l-.181.275c-.07.106-.191.097-.456.065a3.809 3.809 0 00-.457-.032h-.184l.1.153c.03.044.052.082.074.119a.28.28 0 00-.234.018c-.126.056-.128.266-.077.625l-.006-.007-.142-.145-.028.2c-.033.23-.015.362.03.503l-.19.031c0 .129.008.241.017.363.006.075.011.153.016.243l-.063-.016c-.094.188-.132.49-.088.703l.004.017-.01.05a1.214 1.214 0 00-.036.231c0 .087.072.16.168.235-.111.06-.223.146-.25.28-.026.116.02.24.137.375l-.117.083c.064.097.095.292.12.464l.002.008-.06-.04v.187c0 .175.502 1.312 1.171 1.605.068.036.13.015.188-.003.053-.017.119-.039.238-.036.021.218.115.335.195.395.063.047.16.091.305.091a.912.912 0 00.262-.042l-.01-.065.03.015c.052-.104.082-.2.11-.286a.957.957 0 01.16-.337c.04-.054.097-.077.163-.103.083-.032.186-.072.253-.208.027-.104.045-.195.06-.278.05-.265.069-.374.347-.451l.073-.022v-.075c0-.086-.005-.157-.01-.225a1.358 1.358 0 01.01-.357l.027-.164-.159.053a1.297 1.297 0 00-.095.04c.082-.256.175-.604.106-.882l-.043-.173-.092.094.076-1.154-.14.142c-.008-.06-.021-.118-.034-.175-.021-.094-.043-.192-.043-.304l-.187-.044-.009-.092c-.017-.212-.036-.432-.094-.546l-.091-.18-.088.18a.14.14 0 01-.015.024 3.068 3.068 0 01-.075-.42v-.162l-.145.073-.025.015a.308.308 0 00-.18-.158c.002-.099-.015-.185-.03-.263a.762.762 0 01-.02-.284l-.188-.06c-.024.048-.042.11-.06.173-.011.04-.02.072-.03.1v-.439zm79.277.001v.439a1.707 1.707 0 01-.03-.1 1.055 1.055 0 00-.059-.173l-.188.058c.017.101-.002.189-.02.282a1.09 1.09 0 00-.03.267.31.31 0 00-.18.158l-.024-.015-.145-.074v.163c0 .076-.042.264-.077.42l-.016-.026-.09-.171-.087.172c-.06.115-.077.336-.095.55l-.009.087-.187.045c0 .112-.022.209-.043.303a1.697 1.697 0 00-.033.176l-.14-.142.075 1.15-.089-.092-.043.173c-.07.278.022.628.104.884a1.069 1.069 0 00-.099-.04l-.158-.052.028.165c.025.142.018.236.009.355-.005.068-.01.139-.01.225v.075l.073.022c.28.077.302.187.351.452.015.083.032.174.067.297.059.115.163.156.246.188.065.026.122.049.164.104.082.104.117.21.156.333.027.086.06.185.112.289l.03-.016-.01.067c.102.03.19.042.263.042h.001a.487.487 0 00.303-.092c.08-.06.174-.175.195-.394.108.005.185.02.24.035.056.017.118.038.181.006.675-.297 1.176-1.432 1.176-1.607v-.186l-.06.04c0-.003 0-.006.002-.01.025-.172.055-.366.12-.463l-.116-.082c.116-.133.163-.26.138-.376-.028-.135-.14-.22-.253-.28.097-.076.17-.149.17-.236 0-.067-.019-.151-.035-.227l-.012-.05.004-.02c.044-.216.005-.519-.09-.704l-.06.016c.003-.089.008-.168.015-.242.008-.121.016-.234.016-.363l-.19-.03c.045-.141.063-.274.03-.504l-.03-.201-.14.146a.022.022 0 01-.007.007c.052-.36.051-.569-.075-.624-.087-.053-.166-.04-.233-.018.022-.037.044-.076.073-.119l.099-.153h-.183c-.174 0-.323.017-.455.032-.266.033-.389.039-.458-.066l-.182-.275zm5.539 0c.091.18.204.297.34.342.12.04.255.024.396-.047.016.019.018.03.03.046l-1.03.23c.092-.19.177-.38.264-.57zm.808.407c.007.014.023.034.029.046.031.064.064.128.15.163.251.174.611.225.95.225h.001c.354 0 .686-.056.848-.08l.08-.014h.003l.849 1.53c-.176.416-.368.822-.578 1.219l-.932-1.862-.356.179 1.036 2.07.057-.029c-.284.506-.596.997-.931 1.467l-.407-1.693-.386.094.483 2.018c-.289.38-.594.746-.915 1.096l-.273-2.149-.395.049.314 2.476c-.393.404-.805.786-1.236 1.143l.2-2.03-.396-.04-.236 2.39.029.003c-.416.324-.848.625-1.292.904l.3-2.012-.395-.06-.348 2.337c-.495.286-1.004.543-1.527.769l.711-2.3-.38-.12-.808 2.615c-.734.285-1.49.502-2.261.655a69.627 69.627 0 002.606-3.507h1.112v-.399h-.838c.154-.226.305-.452.454-.677l1.573-.355-.088-.389-1.17.266c.19-.294.378-.59.56-.883l1.633-.357-.086-.389-1.256.274c.278-.454.545-.906.804-1.358l1.977-.387-.076-.39-1.644.32c.413-.739.8-1.475 1.159-2.204l1.363-.307-.071-.317zm-91.972.005l-.07.31 1.365.306c.359.73.745 1.465 1.158 2.205l-1.644-.321-.077.391 1.979.387c.258.452.526.904.804 1.358l-1.258-.274-.084.389 1.633.357c.182.294.37.588.56.882l-1.172-.265-.087.389 1.574.355c.15.226.3.45.454.676h-.838v.399h1.111a69.679 69.679 0 002.608 3.51 13.44 13.44 0 01-2.262-.656l-.809-2.613-.38.118.711 2.3a14.736 14.736 0 01-1.527-.768l-.35-2.337-.394.059.302 2.012c-.444-.278-.876-.58-1.292-.904l.03-.003-.24-2.39-.396.04.203 2.03c-.43-.358-.844-.74-1.236-1.143l.314-2.475-.394-.05-.274 2.15a16.29 16.29 0 01-.918-1.098l.487-2.017-.387-.093-.408 1.69c-.336-.47-.648-.96-.932-1.466l.059.03 1.036-2.071-.357-.178-.932 1.862c-.21-.396-.403-.803-.578-1.217l.854-1.515c.013 0 .039.007.079.013.162.027.495.082.85.082.339 0 .698-.05.95-.224.087-.035.12-.1.152-.163.006-.012.02-.03.026-.041zm5.435.1c.091.007.174.016.251.025.169.02.325.037.453-.004l-.01.057a.974.974 0 00-.15.095c-.03-.012-.062-.028-.094-.043-.072-.035-.152-.074-.242-.074a.314.314 0 00-.15.039 2.671 2.671 0 01-.058-.095zm81.102 0a2.985 2.985 0 01-.058.095c-.151-.083-.283-.019-.391.035a1.1 1.1 0 01-.095.042.913.913 0 00-.15-.094l-.01-.055c.128.04.285.024.454.003.077-.009.16-.019.25-.026zm-80.066.133c.009.06.012.12.001.184l-.016.1.098.015c.102.017.12.052.145.125-.143.02-.315-.014-.48-.043a3.52 3.52 0 00-.24-.038l.018-.02c-.001-.004.004-.023.031-.056l.007-.01.004.002v-.006a.634.634 0 01.148-.111h.024c.127 0 .206-.061.26-.142zm79.036 0c.053.08.132.14.259.14h.023c.056.033.11.071.147.11v.009l.006-.001.007.007c.028.034.032.054.03.058 0 0 0 .002-.004.006l.016.015c-.075.008-.153.022-.233.037-.165.029-.336.064-.48.043.025-.073.042-.108.146-.125l.099-.017-.017-.099a.562.562 0 01.001-.183zm1.322.114a.045.045 0 01.035.01h.001c.013.036.02.144-.027.467a.79.79 0 00-.317-.01.35.35 0 00-.127-.174.416.416 0 00-.215-.07.238.238 0 00-.019-.105.385.385 0 00-.02-.039l.037-.017c.09-.044.138-.063.19-.048l-.037.053h.19c.104 0 .182-.027.239-.046a.381.381 0 01.07-.02zm-81.721.01c.025-.014.036-.013.107.01.057.02.134.047.236.047h.187l-.034-.052c.048-.02.098-.002.193.046a1.9 1.9 0 01.037.018.242.242 0 00-.038.144.42.42 0 00-.217.07.344.344 0 00-.127.175.783.783 0 00-.317.009c-.047-.322-.039-.43-.027-.467zm.79.412c.086.005.185.023.283.04.082.015.165.03.248.04a1.24 1.24 0 00-.289.157c-.128-.022-.244-.061-.356-.1l-.136-.044a.149.149 0 01.046-.06c.045-.031.118-.038.204-.033zm80.176 0c.087-.006.16.001.206.033a.14.14 0 01.045.06l-.135.045a2.19 2.19 0 01-.357.1 1.256 1.256 0 00-.289-.158 4.49 4.49 0 00.248-.04c.097-.017.196-.034.282-.04zm-.917.12c.094.052.184.091.266.125.156.065.285.12.39.247a4.523 4.523 0 00-.171.02c-.17.022-.346.046-.501.02a1.917 1.917 0 00-.104-.097l.028-.136.014-.062.078-.117zm-78.341.001l.083.128.01.05.03.136a1.52 1.52 0 00-.104.096 1.882 1.882 0 01-.502-.02 5.794 5.794 0 00-.17-.019c.103-.127.232-.181.388-.247a2.4 2.4 0 00.265-.124zm-1.562.114c.155-.016.298.033.467.091.079.027.164.056.257.08a.808.808 0 00-.052.081c-.156.014-.292.07-.368.226-.14-.088-.283-.166-.424-.166a.338.338 0 00-.14.03.752.752 0 01-.054-.288c.043.016.093.013.153-.013a.614.614 0 01.161-.04zm81.467.001a.602.602 0 01.159.04c.06.027.11.028.154.013a.737.737 0 01-.053.287c-.184-.078-.376.019-.564.137-.077-.155-.213-.212-.37-.226-.016-.03-.034-.056-.05-.08.092-.024.179-.054.258-.08.17-.059.312-.107.466-.09zm-79.557.278c.012.086.02.184.028.267l.013.152c-.15.031-.27.16-.381.28-.005.005-.01.01-.013.015a1.832 1.832 0 01-.27-.103c.096-.075.186-.177.272-.273.057-.064.113-.129.173-.188l.02.097.108-.211c.016-.013.033-.025.05-.036zm77.647 0l.052.037.109.202.018-.09c.06.06.117.126.173.19.086.096.177.198.272.273a1.83 1.83 0 01-.27.102c-.005-.005-.01-.01-.013-.015-.112-.12-.233-.249-.382-.28a5.65 5.65 0 00.013-.148c.007-.084.015-.184.028-.271zm-78.732.18c.066.004.142.014.229.025.106.013.22.029.335.031-.14.158-.238.257-.328.289a.942.942 0 00-.32-.068 1.545 1.545 0 01-.267-.14c.05-.12.155-.15.351-.137zm79.817 0c.196-.013.301.017.352.137a1.554 1.554 0 01-.265.14.93.93 0 00-.324.068c-.089-.032-.187-.131-.327-.289.114-.003.228-.018.335-.03.087-.012.163-.022.229-.026zm-80.767.063c.102-.005.229.072.402.184l.153.097a.899.899 0 00-.314.255c-.04.045-.081.09-.13.135a.488.488 0 00-.276-.093.512.512 0 00-.13.019 6.923 6.923 0 00-.02-.373c-.004-.05-.008-.1-.01-.149.06.01.112-.011.163-.028l.062-.02.006.007a.172.172 0 01.094-.034zm81.722.002a.173.173 0 01.094.033l.006-.006.06.02c.051.015.1.04.163.028a9.373 9.373 0 01-.009.147 5.972 5.972 0 00-.02.375.473.473 0 00-.408.071 1.728 1.728 0 01-.127-.133.894.894 0 00-.315-.256l.152-.095c.174-.112.301-.188.404-.184zm-79.442.377c.008.043.017.083.026.121.034.149.06.267-.001.41l-.032.072a2.06 2.06 0 01-.198.105c-.001.003-.004.003-.006.004-.07-.047-.127-.1-.183-.151a1.203 1.203 0 00-.215-.167v-.001c.063-.056.118-.115.17-.17.117-.127.195-.202.27-.22l.019.077.112-.058.038-.022zm77.157 0l.039.022.112.06.02-.079c.074.018.151.093.268.219.053.056.108.116.171.172-.082.046-.148.108-.214.168a1.517 1.517 0 01-.183.15l-.007-.004a2.086 2.086 0 01-.198-.105l-.03-.073c-.064-.143-.037-.26-.004-.41l.026-.12zm19.704.029c-.51 1.16-1.008 2.325-1.521 3.485-.542 1.148-1.1 2.287-1.643 3.434l.542.248c.864-2.017 1.446-1.7 2.785-1.09l5.655 2.6c1.204.504 1.142.404.56 1.673-.777 1.703-2.057 2.272-3.408 1.889l-.383.84 2.904 1.192 5.761-12.584-2.799-1.43-.385.844c1.163.912 1.748 2.054.752 3.916-.641 1.195-.553 1.163-1.633.668l-5.658-2.596c-1.335-.612-1.945-.87-.987-2.842l-.542-.248zm-98.247.006a.394.394 0 00.284.078c.036.014.072.03.109.047.072.033.152.067.237.097a.755.755 0 01-.078.059.401.401 0 00-.035-.004c-.36-.027-.562.197-.753.42l-.024.029c-.095-.067-.18-.153-.261-.237l-.104-.105c.047-.045.086-.09.123-.13.087-.1.155-.177.286-.222a.51.51 0 01.216-.032zm79.932.001a.528.528 0 01.22.032c.13.045.2.124.286.223.036.04.074.085.12.128-.036.034-.07.071-.104.107-.08.083-.164.17-.259.236a.579.579 0 00-.025-.03c-.177-.208-.36-.423-.682-.423a.676.676 0 00-.07.004c-.012 0-.025.002-.037.004a.647.647 0 01-.078-.059 3.34 3.34 0 00.237-.096c.038-.017.073-.034.109-.048a.402.402 0 00.283-.077zm1.187.341v.156l.145-.075.02-.01c.012.087.014.18.003.257-.033.042-.019.105.001.197.012.059.03.139.032.171a.691.691 0 01-.148.132l-.026.02h-.003l-.016-.008s-.002 0-.002-.002l-.004.006c-.128-.26-.4-.247-.667-.194a1.634 1.634 0 01-.127-.117c.102-.075.19-.165.269-.247.197-.202.322-.315.504-.24l.02-.046zm-82.306.002l.017.044c.185-.075.308.037.505.24.08.082.167.172.269.247-.04.041-.082.08-.126.117-.267-.052-.54-.066-.67.192l-.003-.004c-.003.003-.01.006-.019.01a1.18 1.18 0 01-.173-.14c0-.045.018-.126.03-.186.02-.09.034-.152.002-.194a1.034 1.034 0 01.003-.257l.02.011.145.074v-.154zm1.683.131c.157.013.248.094.36.197.039.035.08.072.125.109a.66.66 0 00-.267.3.75.75 0 00-.35-.103.58.58 0 00-.326.103 1.726 1.726 0 01-.318-.04c.072-.071.135-.146.193-.214.18-.21.316-.385.583-.352zm78.937 0c.264-.024.404.143.582.352.06.068.122.143.193.214-.108.021-.215.039-.317.04a.466.466 0 00-.065-.038c-.233-.117-.427-.058-.612.038a.66.66 0 00-.266-.3c.047-.037.087-.074.124-.109.114-.103.202-.183.36-.197zm-1.044.226c.093.062.187.109.272.151.174.085.312.154.38.328a1.634 1.634 0 01-.364.175l.004.013a.672.672 0 00-.246.033l-.046-.7zm-76.852.002l-.044.697a.617.617 0 00-.2-.034l-.047.002.004-.013a1.598 1.598 0 01-.363-.175c.068-.174.207-.243.38-.328.084-.04.178-.088.27-.15zm79.237.46c.095.012.152.059.185.16l.04-.014-.014.016.003.003a.25.25 0 00.082.05l.053.024c.097.043.26.113.279.206.015.068-.046.154-.098.21a.456.456 0 01-.158.117.165.165 0 01-.076-.083l-.02.008c-.235-.288-.498-.281-.764-.169a1.636 1.636 0 01-.11-.22c-.03-.07-.062-.14-.104-.206.098-.013.194-.034.285-.053.188-.038.322-.061.417-.05zm-81.622.002c.096-.012.23.01.417.048.091.02.189.04.287.052-.043.066-.073.137-.104.206a1.584 1.584 0 01-.111.221c-.268-.112-.529-.118-.762.168l-.02-.008a.167.167 0 01-.078.084.426.426 0 01-.154-.113c-.055-.06-.117-.146-.102-.214.02-.093.182-.164.278-.207l.055-.025a.232.232 0 00.079-.047c0-.002.002-.003.004-.004l-.013-.014.038.012c.034-.1.091-.147.186-.16zm80.447.014a.393.393 0 01.175.062l-.004.031.052.005c.082.068.12.158.171.274.03.07.064.148.112.227-.09.05-.18.106-.27.161l-.037.024-.003-.012c-.218.057-.369-.087-.55-.255-.088-.082-.185-.173-.297-.237.074-.037.142-.078.206-.116.182-.108.31-.177.445-.164zm-79.267.002c.135-.012.261.054.44.162.065.038.133.08.206.116-.11.064-.207.155-.296.237-.18.168-.335.314-.549.255l-.003.012-.037-.023a5.91 5.91 0 00-.27-.161c.048-.08.082-.157.113-.228.05-.115.09-.206.17-.273l.054-.005-.003-.03a.409.409 0 01.176-.062zm1.023.389c.065.01.136.038.215.087l.035-.059.055.015a2.73 2.73 0 01-.147.604c-.192.057-.401.07-.605.081l-.148.01.01-.036a1.57 1.57 0 01-.354-.143c.155-.058.283-.176.402-.288.194-.181.342-.303.537-.271zm77.221 0c.196-.03.342.092.537.272.12.11.248.231.403.289a1.587 1.587 0 01-.353.141l.01.036-.148-.009a2.755 2.755 0 01-.607-.082 2.627 2.627 0 01-.146-.603l.053-.015.035.058a.603.603 0 01.216-.086zm2.034.25c.106.005.202.057.293.17l.008-.006c.039.082.095.131.165.148a.275.275 0 00.04.006.468.468 0 00.199.028c-.023.092-.039.193-.054.292a4.358 4.358 0 01-.031.19 1.457 1.457 0 01-.337.17.523.523 0 00-.132.01l-.006.193c.042.012.09.01.148 0 .019.002.036.007.055.012.05.014.108.031.192.015-.189.364-.514.857-.884 1.021a.283.283 0 01-.047-.013.863.863 0 00-.406-.036l-.087.012v.088c0 .109-.021.253-.12.326-.082.06-.197.059-.304.039-.038-.08-.062-.156-.086-.23a1.161 1.161 0 00-.19-.394.515.515 0 00-.267-.175 4.43 4.43 0 00.662-.37c.423-.27.79-.502 1.287-.337l.064-.188a1.185 1.185 0 00-.755-.01c-.088-.259-.278-.372-.505-.426.148-.07.291-.16.431-.246.28-.175.49-.296.666-.288zm-81.287.002c.177-.008.387.113.668.288.14.087.283.175.432.245-.228.054-.419.167-.507.427a1.177 1.177 0 00-.755.01l.012.036a.426.426 0 00-.131-.01 1.465 1.465 0 01-.338-.169 5.17 5.17 0 01-.032-.191c-.016-.1-.03-.2-.053-.292a.479.479 0 00.2-.026.176.176 0 00.037-.007c.072-.016.127-.067.167-.149l.009.008c.091-.114.185-.165.291-.17zm2.422.577c-.003.085.002.16.007.234.004.043.007.089.009.138-.329.116-.367.325-.415.584-.01.055-.022.114-.035.171-.255-.1-.479-.242-.695-.379-.172-.108-.34-.216-.515-.295.098-.297.368-.328.819-.355.193-.011.392-.024.585-.072h.077a.48.48 0 00.163-.026zm76.441 0a.45.45 0 00.163.027h.079c.192.048.39.06.584.07.451.028.722.059.819.356-.175.08-.344.187-.516.296a4.04 4.04 0 01-.692.378 3.266 3.266 0 01-.035-.169c-.049-.26-.087-.47-.418-.586a2.82 2.82 0 01.009-.137c.006-.076.011-.149.007-.235zm-79.011.43l.05.151c.495-.165.864.067 1.287.335.206.132.418.267.664.371l-.02.008c-.078.03-.175.068-.248.164-.107.134-.15.269-.191.4-.024.073-.048.149-.084.228-.105.018-.223.022-.306-.041-.097-.072-.118-.217-.118-.325v-.088l-.087-.01a1.211 1.211 0 00-.136-.01.794.794 0 00-.271.045.58.58 0 01-.042.013c-.373-.164-.7-.658-.888-1.022.081.015.141-.003.193-.015.02-.006.037-.009.055-.013a.286.286 0 00.147.001l-.005-.191zm-15.176 1.557l-.52.287c1.005 1.776.386 2.09-.803 2.738l-4.924 2.695c-1.188.65-1.838 1.08-2.823-.76l-.52.287c.61 1.086 1.257 2.203 1.879 3.308.551 1.046 1.077 2.079 1.63 3.124l.52-.286c-1.027-1.815-.314-2.128.888-2.785l4.868-2.664c1.188-.65 1.839-1.08 2.792.775l.523-.286c-.582-1.027-1.176-2.051-1.757-3.08-.593-1.122-1.171-2.251-1.753-3.353zm111.562 7.474c-2.227-.01-4.64 1.452-6.457 3.801-2.655 3.43-3.25 7.65-.47 9.807 2.779 2.156 6.673.582 9.331-2.851 2.641-3.414 3.233-7.606.442-9.777a4.598 4.598 0 00-2.846-.98zm-106.627 1.06l-6.096 5.1c-.417.348-1.191.995-1.765 1.055-.535.055-1.026-.43-1.474-.84l-.457.38c.562.651 1.138 1.29 1.701 1.94.51.64 1.007 1.287 1.518 1.924l.456-.383c-1.255-1.609-.332-2.384.632-3.19l3.373-2.82-.335 11.344c.534.616 1.07 1.205 1.605 1.822.428.538.83 1.073 1.257 1.611l.455-.383c-.693-.962-.644-1.366-.512-2.371l5.095-4.26c.9-.755 1.501-1.09 2.744.196l.456-.384c-.535-.617-1.083-1.22-1.618-1.836-.538-.672-1.075-1.37-1.613-2.041l-.457.382c1.27 1.627.28 2.453-.683 3.257l-3.916 3.279.309-12.975-.675-.809zm103.747 1.55c1.308-.026 2.579.66 3.518 1.388 1.669 1.297 3.298 3.538 1.194 6.259-2.183 2.82-4.822 1.724-6.571.367-1.8-1.398-3.284-3.554-1.127-6.343.926-1.197 1.968-1.65 2.985-1.67zm-20.476 4.677a2.23 2.23 0 01-.192.45c-.06.12-.125.245-.162.366a1.582 1.582 0 01-.205-.24c.08-.143.156-.296.14-.444.192-.071.327-.111.419-.132zm-64.496.002c.095.022.233.064.417.13-.017.149.062.302.14.445a1.59 1.59 0 01-.205.241c-.037-.12-.1-.245-.161-.364-.076-.15-.156-.306-.191-.452zm.65.004h.015c.205.015.353.025.478.151l.038.038c.022.086.036.17.047.25-.066.057-.134.098-.201.139a1.83 1.83 0 00-.177.12c-.03-.066-.067-.128-.101-.191-.07-.126-.121-.224-.132-.304l.163.063-.115-.23a.342.342 0 01-.016-.036zm63.195 0c-.004.011-.008.023-.014.035l-.122.233.17-.065c-.011.081-.064.18-.135.309-.034.06-.069.122-.1.186-.056-.047-.117-.084-.177-.12a1.72 1.72 0 01-.2-.139c.013-.083.026-.168.049-.254l.035-.034c.125-.126.274-.136.48-.15l.014-.001zm-62.48.106l.665.286a.601.601 0 00-.121.243l-.02-.015c-.08.11-.181.197-.279.281-.132-.13-.155-.286-.183-.481a2.476 2.476 0 00-.063-.314zm61.765 0a2.456 2.456 0 00-.062.319c-.03.192-.052.347-.184.475-.098-.084-.2-.17-.28-.28l-.018.015a.605.605 0 00-.122-.244l.666-.285zm-63.576.05l.198.038.11.022c.012.03.024.062.039.092l-.02-.003c-.025.16-.109.327-.188.488l-.06.122c-.08-.14-.087-.265-.095-.414a2.053 2.053 0 00-.022-.24h.142l-.104-.106zm65.381.001l-.105.105h.148a2.362 2.362 0 00-.022.239c-.008.149-.013.275-.095.415-.019-.042-.04-.084-.06-.124-.08-.162-.163-.327-.188-.486l-.02.003.04-.092.11-.022c.065-.012.13-.024.192-.038zm-65.766.071c.022-.006.049 0 .093.01-.052.13-.139.26-.224.387-.043.065-.088.132-.128.2-.04-.035-.088-.187-.094-.32a.263.263 0 00.01-.123l.008-.024-.014-.006a.26.26 0 00-.026-.062c.063.01.125.02.195.044l.076.025.04-.066c.024-.039.042-.058.064-.065zm66.151 0c.022.007.038.026.06.064l.04.067.076-.024c.071-.023.135-.035.197-.044a.28.28 0 00-.026.061l-.014.006.01.025a.257.257 0 00.009.12c-.005.136-.054.289-.094.323-.04-.07-.086-.137-.129-.201-.084-.128-.172-.26-.222-.387.045-.01.072-.016.093-.01zm-66.776.092c.01.008.027.017.034.024l-.043-.012-.024-.007.033-.005zm67.396 0l.033.005-.028.009a.304.304 0 00-.04.012c.007-.007.025-.018.035-.026zm-3.708.008l-.054.072c.308.235.237.46.096.806-.06.149-.125.308-.127.469a1.608 1.608 0 01-.266-.295l-.057.038-.036-.121c-.057-.194-.118-.396-.128-.595l.094-.067c.144-.106.313-.23.478-.307zm-59.986.001c.164.077.332.2.478.306l.093.067c-.01.2-.07.4-.128.595l-.036.12-.056-.037c-.071.105-.165.202-.267.294-.002-.16-.067-.32-.127-.468-.14-.347-.212-.57.098-.806l-.055-.071zm-2.915.195c.006.117.014.237.062.366-.075.113-.158.204-.239.294a5.32 5.32 0 00-.104.117c-.136-.113-.062-.257.145-.566.046-.069.093-.14.136-.21zm65.811.002c.042.07.09.14.135.207.205.31.28.455.146.567-.032-.04-.068-.078-.102-.115-.081-.091-.165-.184-.24-.297.048-.127.055-.246.061-.362zm-66.591.02c.025.009.044.02.063.037a.9.9 0 00.027.143c-.029.032-.06.063-.092.092-.1.095-.212.2-.198.362a.324.324 0 01-.077.014c.028-.053.056-.102.082-.148.108-.192.195-.347.195-.5zm67.371 0c.001.154.087.308.196.5.026.046.054.095.082.148a.315.315 0 01-.078-.014c.013-.162-.099-.267-.198-.36-.032-.03-.064-.06-.093-.092.013-.047.021-.096.027-.145a.176.176 0 01.064-.037zm-62.861 0c.033.01.064.016.095.023.074.018.142.033.219.06.02.33.18.451.396.615.042.032.088.067.135.105-.178.197-.382.35-.58.499-.153.115-.304.228-.434.356-.194-.2-.13-.462-.016-.85.051-.17.102-.344.125-.524l.008.005.04-.124c.02-.06.02-.115.012-.164zm58.346 0a.33.33 0 00.012.166l.042.122.007-.004c.022.18.073.354.124.523.115.39.18.652-.015.851-.13-.128-.281-.242-.436-.358-.196-.148-.4-.3-.577-.497.048-.038.093-.073.135-.104.215-.165.376-.286.395-.615.077-.028.143-.043.218-.06l.095-.023zm-61.401.006c.099.196.16.332.165.43a.827.827 0 00-.203.351 1.85 1.85 0 01-.191.15c-.138-.118-.08-.278.08-.603.054-.106.108-.216.149-.328zm64.451 0c.04.112.095.221.149.328.16.325.219.484.082.603a1.807 1.807 0 01-.19-.148.815.815 0 00-.204-.352c.004-.1.065-.236.163-.43zm-1.248.107c.047.034.093.061.136.088.132.082.235.147.306.296.108.226.015.408-.102.638-.041.081-.086.168-.124.263a1.378 1.378 0 01-.187-.334h.001l.004-.047c.013-.24-.094-.397-.228-.529a.756.756 0 00.194-.375zm-61.956.001c.031.132.082.261.195.375-.134.132-.24.287-.228.527 0 .016.002.032.004.048-.04.114-.11.226-.187.335a3.128 3.128 0 00-.124-.264c-.116-.23-.21-.412-.101-.638.07-.149.174-.214.306-.295.043-.027.088-.055.135-.088zm-.605.105c.015.032.028.062.04.093a.809.809 0 00-.056.1c-.15.313-.021.568.103.813l.026.05c-.094.054-.197.096-.299.138a3.64 3.64 0 00-.158.067c-.02-.051-.042-.096-.062-.141a.82.82 0 01-.098-.368c0-.03.002-.058.006-.084l.006-.007-.005-.005a.49.49 0 01.029-.099.363.363 0 00.185-.257l.069-.069c.068-.068.144-.143.213-.231zm63.17 0c.07.09.147.164.215.233.025.023.046.046.068.068.015.098.07.186.187.256a.518.518 0 01.028.101l-.006.004.008.007a.621.621 0 01.007.083c0 .148-.045.245-.101.368-.02.045-.04.091-.06.142-.053-.025-.107-.046-.16-.069a2.488 2.488 0 01-.3-.137l.025-.05c.126-.245.255-.499.104-.814a.68.68 0 00-.056-.1c.012-.03.026-.06.042-.091zm-61.925.14c.023.132.074.26.123.376.09.223.168.414.06.578l.016.01-.07.055c-.078.061-.156.122-.23.185a2.073 2.073 0 00-.156-.176c-.12-.124-.207-.213-.215-.381-.01-.226.13-.347.307-.498.053-.046.11-.095.165-.149zm60.686 0c.055.054.111.103.164.148.178.152.32.273.308.5-.008.166-.1.26-.216.38-.049.051-.104.109-.157.177a6.283 6.283 0 00-.228-.185l-.07-.055.017-.01c-.109-.164-.03-.356.06-.58.048-.116.099-.243.122-.375zm-63.852.02a.231.231 0 00.086.081c-.06.164-.053.322.117.455a.887.887 0 00-.121.298c-.161-.036-.429-.126-.46-.192-.006-.02.022-.054.068-.107a.824.824 0 00.126-.177l.165-.33-.032.02.01-.01.041-.038zm67.017.001a.98.98 0 01.04.038l.008.006-.025-.016.16.33c.037.073.088.132.128.178.046.054.074.087.067.11-.032.062-.302.152-.46.188a.891.891 0 00-.121-.3c.166-.131.173-.292.114-.454a.206.206 0 00.089-.08zm-66.247.16l.038.05c-.05.166-.05.327.077.46-.21.143-.412.291-.386.497a.764.764 0 01-.286-.054.266.266 0 00.053-.16c.023-.248.149-.387.307-.562.063-.069.132-.144.197-.232zm65.482 0c.066.087.134.163.197.233.158.174.282.312.308.56a.273.273 0 00.052.16.79.79 0 01-.286.054c.026-.206-.176-.354-.387-.496.127-.134.126-.294.077-.46l.039-.052zm-60.946.423v.059c0 .083 0 .197.082.332.12.147.241.234.369.327.04.03.082.059.126.094-.008.148-.056.258-.137.31-.098.065-.228.03-.318-.01l-.083-.037-.044.078c-.09.157-.12.267-.142.34l-.018.06-.027.021c-.289.312-.875.424-1.29.463.102-.095.113-.168.115-.249l.001-.017c.035-.06.043-.111.026-.162l-.015-.044h.02c.024-.522.361-.774.75-1.067.197-.148.4-.3.585-.498zm56.41 0c.185.198.387.35.584.498.39.294.726.546.749 1.068h.02l-.016.047c-.015.049-.006.1.03.159v.018c.003.08.015.152.118.247-.416-.04-1.003-.15-1.293-.463l-.024-.018c-.007-.008-.014-.04-.022-.065-.02-.073-.052-.183-.14-.338l-.043-.079h-.001l-.083.04c-.092.038-.22.074-.32.01-.08-.052-.129-.162-.137-.31l.126-.095a1.74 1.74 0 00.375-.34.566.566 0 00.077-.32v-.059zm-60.476.105c.014.144.063.25.113.362.022.049.044.098.065.156a.449.449 0 00-.22.344c-.132-.033-.235-.066-.343-.1a7.41 7.41 0 00-.137-.043.703.703 0 00.026-.072l.052-.156h-.112l.031-.01c-.031-.105.15-.225.34-.353.062-.042.125-.084.185-.128zm64.567.001c.06.044.124.085.186.127.19.127.37.247.339.353l.032.01h-.116l.054.156a.95.95 0 00.026.072 4.48 4.48 0 00-.13.04c-.11.036-.215.069-.351.103a.445.445 0 00-.22-.343c.023-.058.046-.108.068-.157.05-.111.098-.218.112-.361zm-61.936.1c-.038.235-.017.46.173.647a1.19 1.19 0 00-.261.713l.03.002-.02.04a.404.404 0 00-.036.104c-.056.072-.181.18-.264.25-.079-.006-.168-.021-.226-.03a3.941 3.941 0 00-.26-.035.483.483 0 00.038-.19.192.192 0 00.022-.095c-.004-.078-.056-.133-.105-.167l.01-.005c-.2-.32.032-.525.46-.858.15-.12.306-.24.439-.376zm59.3 0c.133.137.288.257.438.376.427.333.66.539.46.858l.008.006c-.047.034-.098.087-.102.164a.186.186 0 00.02.096.437.437 0 00.038.191c-.084.008-.172.02-.259.035-.058.01-.148.025-.225.03a3.496 3.496 0 01-.263-.236.431.431 0 00-.04-.12l-.02-.038.03-.002a1.179 1.179 0 00-.259-.713c.19-.187.213-.411.175-.646zm-60.56.167c.048.074.108.138.168.2.053.053.106.109.154.173-.218.224-.333.474-.13.799l.003-.002-.018.029a.142.142 0 01.05.08 1.013 1.013 0 01-.143.104c-.075.026-.177.052-.239.013-.078-.047-.097-.194-.11-.302-.006-.043-.01-.081-.019-.115a.14.14 0 00-.047-.089c-.156-.159-.081-.301.143-.611a3.24 3.24 0 00.188-.28zm61.82 0c.057.098.123.19.188.28.225.31.3.451.144.61a.142.142 0 00-.047.088.923.923 0 00-.02.118c-.014.107-.033.253-.11.3-.06.036-.163.013-.219-.004a1.814 1.814 0 01-.165-.111.151.151 0 01.052-.081l-.017-.028c.203-.323.088-.574-.129-.797.048-.065.102-.12.154-.175.06-.062.12-.125.17-.2zm-62.295.13c.018.046.035.093.048.141-.162.235-.292.492-.062.741a.187.187 0 00-.005.028h-.002c-.03.011-.113.038-.151.026a.823.823 0 01-.1-.045.493.493 0 00-.203-.068v-.001a.176.176 0 00-.054.009h-.004a2.293 2.293 0 01-.256-.145.226.226 0 00.036-.05l.058-.114-.055-.013h.007c0-.182.158-.255.436-.369.102-.042.207-.085.306-.14zm62.77 0c.102.056.21.099.307.14.278.114.436.187.436.37h.006l-.054.012.059.114c.01.02.021.038.034.05a2.413 2.413 0 01-.254.146l-.005-.001c-.08-.027-.164.014-.255.06a.86.86 0 01-.108.048.56.56 0 01-.146-.03l-.001.002c0-.01-.003-.02-.004-.029.23-.25.099-.507-.064-.743.014-.048.03-.095.05-.14zm13.132.83c-.636.514-1.26 1.04-1.896 1.553-.686.512-1.403 1.03-2.09 1.544l.364.47c1.668-1.214 2.454-.193 3.224.8l3.124 4.04-12.93-.782-.832.647 4.864 6.286c.332.433.95 1.23.987 1.806.037.539-.468 1.011-.89 1.443l.364.474c.668-.542 1.326-1.093 1.994-1.634.654-.485 1.32-.962 1.977-1.448l-.363-.472c-1.653 1.201-2.392.246-3.16-.748l-2.69-3.478 11.303.747c.634-.51 1.24-1.024 1.876-1.537.553-.411 1.099-.791 1.653-1.2l-.366-.472c-.983.66-1.385.594-2.384.43l-4.055-5.25c-.716-.929-1.03-1.545.299-2.741l-.364-.472zm-85.087 4.076c-1.243.02-2.308.632-3.184 1.844l-1.81 2.502c-.379.523-.928 1.432-1.58 1.675-.542.2-1.148-.1-1.719-.41l-.347.48c.704.494 1.437.982 2.141 1.474.651.491 1.292.999 1.943 1.49l.348-.482c-.492-.42-.916-.932-.941-1.52-.03-.657.676-1.592 1.023-2.075l2.016-2.785c1.171-1.622 2.937-1.648 5.11-.073 2.485 1.802 2.271 3.2 1.042 4.9l-2.334 3.227c-.795 1.098-1.252 1.767-2.909.504l-.347.482c1.086.77 2.184 1.526 3.27 2.291.894.67 1.795 1.367 2.69 2.033l.348-.48c-1.685-1.223-1.196-1.79-.393-2.9l2.324-3.215c2.014-2.787.605-5.051-2.436-7.258-1.59-1.153-3.012-1.725-4.255-1.705zm59.091 11.137l-.452.14c-1.176 1-2.437 1.575-3.918 2.167l.175.567c.45-.135 1.417-.43 1.843-.216.186.1.354.427.46.775l1.796 5.882c.115.38.343 1.124.08 1.516-.207.34-1.093.61-1.48.728l.173.57c1.021-.33 2.018-.67 3.038-1 1.196-.348 2.397-.68 3.49-.998l-.175-.57c-.458.124-1.31.42-1.718.18-.401-.205-.641-.994-.752-1.359l-2.56-8.382zm8.858.29l-.249 4.487 4.032-2.059-3.783-2.429zm-44.5.597l-.155.576c.457.121 1.432.384 1.678.792.106.183.074.55-.02.902L63.06 148.9c-.102.387-.302 1.137-.731 1.33-.36.177-1.25-.062-1.645-.17l-.153.577c1.04.26 2.066.505 3.106.765 1.198.34 2.39.691 3.485 1.003l.155-.574c-.452-.14-1.331-.341-1.553-.758-.23-.389-.016-1.186.082-1.554l2.263-8.468-.456-.12c-1.526.222-2.9.041-4.468-.242zm-7.782.837l-3.776 2.432 4.032 2.058-.256-4.49zm33.512.701a6.176 6.176 0 00-.981.04c-4.366.538-5.387 3.862-5.029 6.766.286 2.366 1.643 5.131 5.346 4.675 2.792-.344 4.536-2.356 4.276-4.457-.226-1.855-1.925-3.196-4.415-2.888-.83.1-1.72.426-2.281.98-.044-1.062-.459-4.093 1.437-4.327.81-.1 1.022.389 1.38.831.282.38.776.705 1.415.627.597-.075 1.124-.539 1.065-1.014-.108-.876-1.18-1.192-2.213-1.233zm-13.693.175c-1.979.025-3.79.874-3.985 2.557-.118 1.336.766 2.375 2.108 3.147-1.453.28-3.037.978-3.171 2.26-.21 1.992 2.193 3.14 4.413 3.373 2.582.274 5.097-.66 5.323-2.813.157-1.497-.824-2.629-2.376-3.458 1.266-.349 2.427-.925 2.548-2.077.18-1.711-2.107-2.747-4.005-2.949a7.312 7.312 0 00-.855-.04zm.108.653c.132-.004.266 0 .4.015 1.536.162 2.32 1.111 2.197 2.294-.068.64-.398 1.323-1.127 1.693l-.577-.277c-1.15-.553-2.893-1.2-2.763-2.434.084-.805.942-1.264 1.87-1.29zm12.503 4.297c1.373.052 1.551 1.825 1.654 2.671.109.887.346 2.823-1.292 3.026-1.64.2-1.907-1.965-2.02-2.902l-.214-1.74c.215-.541.855-.951 1.581-1.042.103-.013.2-.016.291-.013zm-13.712 1.167l.495.221c1.444.633 3.228 1.321 3.068 2.833-.117 1.118-1.406 1.68-2.75 1.54-1.6-.17-2.665-1.13-2.532-2.395.099-.937.697-1.707 1.719-2.199z" fill="#4b2e83"/></svg>