<svg width="34" height="59" viewBox="0 0 34 59" fill="none" xmlns="http://www.w3.org/2000/svg">
<path d="M9.006 49.57C7.41 49.57 5.89 49.456 4.446 49.228C3.002 49.038 1.615 48.715 0.285 48.259V39.367C1.197 39.747 2.223 40.032 3.363 40.222C4.503 40.412 5.643 40.507 6.783 40.507C8.835 40.507 10.298 40.089 11.172 39.253C12.046 38.417 12.483 37.03 12.483 35.092V12.292H23.199V36.802C23.199 40.792 21.983 43.927 19.551 46.207C17.157 48.449 13.642 49.57 9.006 49.57Z" fill="white"/>
<rect x="16" y="21" width="18" height="8" fill="white"/>
</svg>

